<?xml version="1.0" encoding="utf-8"?>
<!-- Generator: Adobe Illustrator 18.0.0, SVG Export Plug-In . SVG Version: 6.00 Build 0)  -->
<!DOCTYPE svg PUBLIC "-//W3C//DTD SVG 1.1//EN" "http://www.w3.org/Graphics/SVG/1.1/DTD/svg11.dtd">
<svg version="1.1" id="Layer_1" xmlns="http://www.w3.org/2000/svg" xmlns:xlink="http://www.w3.org/1999/xlink" x="0px" y="0px"
	 viewBox="0 0 306 51" enable-background="new 0 0 306 51" xml:space="preserve">
<g>
	<path d="M37.6,51H21.3c-0.7,0-1.3-0.2-1.8-0.5c-0.5-0.3-1-0.8-1.3-1.3L8.4,30c-0.8-1.4-1.2-2.9-1.2-4.4c0-1.5,0.4-3,1.2-4.3
		l9.8-19.2c0.7-1.2,1.8-1.9,3.1-1.9h16.3H21.3c-1.3,0-2.4,0.6-3.1,1.9L8.4,21.3c-0.8,1.3-1.2,2.8-1.2,4.3c0,1.5,0.4,3,1.2,4.4
		l9.8,19.2c0.3,0.5,0.8,1,1.3,1.3c0.5,0.3,1.1,0.5,1.8,0.5H37.6z"/>
	<path d="M53.1,25.8v17.6c0,1.1,0.4,1.9,1.1,2.5l4.7,4c0.8,0.7,1.7,1.1,2.6,1.1H73c1,0,1.8-0.4,2.5-1.1l4.7-4
		c0.7-0.6,1.1-1.5,1.1-2.5V25.7c0-1-0.4-1.9-1.1-2.6l-4.7-4C74.9,18.4,74,18,73,18H61.4c-1,0-1.9,0.4-2.6,1.1l-4.7,4
		c-0.7,0.7-1.1,1.6-1.1,2.6c0-1,0.4-1.9,1.1-2.6l4.7-4c0.7-0.7,1.6-1.1,2.6-1.1H73c1,0,1.8,0.4,2.5,1.1l4.7,4
		c0.7,0.7,1.1,1.6,1.1,2.6v17.7c0,1.1-0.4,1.9-1.1,2.5l-4.7,4C74.8,50.6,74,51,73,51H61.4c-0.9,0-1.8-0.4-2.6-1.1l-4.7-4
		c-0.7-0.6-1.1-1.5-1.1-2.5V25.8z"/>
	<path d="M97.8,43.4c0,1.1,0.4,1.9,1.1,2.5l4.7,4c0.8,0.7,1.7,1.1,2.6,1.1h11.6c1,0,1.8-0.4,2.5-1.1l4.7-4c0.7-0.6,1.1-1.5,1.1-2.5
		V25.7c0-1-0.4-1.9-1.1-2.6l-4.7-4c-0.7-0.7-1.5-1.1-2.5-1.1h-11.6c-1,0-1.9,0.4-2.6,1.1l-4.7,4c-0.7,0.7-1.1,1.6-1.1,2.6
		c0-1,0.4-1.9,1.1-2.6l4.7-4c0.7-0.7,1.6-1.1,2.6-1.1h11.6c1,0,1.8,0.4,2.5,1.1l4.7,4c0.7,0.7,1.1,1.6,1.1,2.6v17.7
		c0,1.1-0.4,1.9-1.1,2.5l-4.7,4c-0.7,0.7-1.6,1.1-2.5,1.1h-11.6c-0.9,0-1.8-0.4-2.6-1.1l-4.7-4C98.2,45.3,97.8,44.4,97.8,43.4V25.8
		V43.4z"/>
	<path d="M142.6,28l13.2-9.3c0.6-0.4,1.3-0.6,2-0.6h4.7c1,0,1.9,0.2,2.8,0.6c0.9,0.4,1.7,0.9,2.3,1.6c0.7,0.7,1.2,1.4,1.6,2.3
		c0.4,0.9,0.6,1.8,0.6,2.8c0-1-0.2-2-0.6-2.8c-0.4-0.9-0.9-1.7-1.5-2.3c-0.6-0.6-1.4-1.2-2.3-1.5c-0.9-0.4-1.8-0.6-2.8-0.6h-4.7
		c-0.8,0-1.4,0.2-2,0.6L142.6,28v23V18.1V28z"/>
	<path d="M215.6,40.1c0,1-0.3,1.8-1,2.6l-8,7.2c-0.7,0.7-1.5,1.1-2.6,1.1h-8.3c-0.5,0-1,0-1.4-0.3c-0.4-0.2-0.8-0.5-1.2-0.8l-4.7-4
		c-0.7-0.8-1.1-1.7-1.1-2.6V25.7c0-0.9,0.4-1.8,1.1-2.6l4.7-4c0.8-0.7,1.7-1.1,2.6-1.1h8.3c0.5,0,1,0.1,1.4,0.3
		c0.4,0.2,0.8,0.5,1.2,0.8l8,7.3c0.6,0.8,1,1.6,1,2.5c0-0.9-0.4-1.8-1-2.5l-8-7.3c-0.4-0.3-0.8-0.5-1.2-0.8
		c-0.4-0.2-0.9-0.3-1.4-0.3h-8.3c-0.9,0-1.8,0.4-2.6,1.1l-4.7,4c-0.7,0.8-1.1,1.7-1.1,2.6v17.7c0,0.9,0.4,1.8,1.1,2.6l4.7,4
		c0.4,0.3,0.8,0.6,1.2,0.8c0.4,0.2,0.9,0.3,1.4,0.3h8.3c1.1,0,1.9-0.4,2.6-1.1l8-7.2C215.3,42,215.6,41.1,215.6,40.1z M215.6,3.9V21
		v30V21V3.9z"/>
</g>
</svg>
