<?xml version="1.0" encoding="utf-8"?>
<!-- Generator: Adobe Illustrator 18.0.0, SVG Export Plug-In . SVG Version: 6.00 Build 0)  -->
<!DOCTYPE svg PUBLIC "-//W3C//DTD SVG 1.1//EN" "http://www.w3.org/Graphics/SVG/1.1/DTD/svg11.dtd">
<svg version="1.1" id="Layer_1" xmlns="http://www.w3.org/2000/svg" xmlns:xlink="http://www.w3.org/1999/xlink" x="0px" y="0px"
	 viewBox="0 0 306 51" enable-background="new 0 0 306 51" xml:space="preserve">
<g>
	<path d="M8.4,46.6c0.4,0.9,0.9,1.6,1.5,2.3s1.4,1.2,2.3,1.5C13.1,50.8,14,51,15,51h17.4c1,0,1.8-0.3,2.7-0.8
		c0.8-0.5,1.4-1.2,1.9-2.1c0.4-0.9,0.6-1.8,0.5-2.7c-0.1-1-0.5-1.8-1.1-2.6L8.9,8.5c-0.6-0.8-0.9-1.6-1-2.6c-0.1-1,0-1.9,0.4-2.7
		c0.4-0.9,1.1-1.5,1.9-2.1c0.8-0.5,1.7-0.8,2.7-0.8h17.4c2,0,3.7,0.7,5.1,2.1c1.4,1.4,2.1,3.1,2.1,5.1c0-2-0.7-3.7-2.1-5.1
		c-1.4-1.4-3.1-2.1-5.1-2.1H12.9c-1,0-1.9,0.3-2.7,0.8C9.3,1.6,8.7,2.3,8.3,3.2C7.9,4.1,7.8,5,7.8,5.9c0.1,1,0.4,1.8,1,2.6
		l27.5,34.3c0.6,0.8,1,1.6,1.1,2.6c0.1,1-0.1,1.9-0.5,2.7c-0.4,0.9-1.1,1.5-1.9,2.1c-0.8,0.5-1.7,0.8-2.7,0.8H15c-1,0-2-0.2-2.8-0.6
		c-0.9-0.4-1.7-0.9-2.3-1.5S8.7,47.5,8.4,46.6c-0.4-0.9-0.6-1.8-0.6-2.8C7.8,44.8,8,45.7,8.4,46.6z"/>
	<path d="M79,49.5c-1.3,1-2.8,1.5-4.5,1.5h-7.9c-1,0-2-0.2-2.8-0.6c-0.9-0.4-1.7-0.9-2.3-1.5s-1.2-1.4-1.5-2.3
		c-0.4-0.9-0.6-1.8-0.6-2.8V18h-6.5h23.8H59.3V3.9v39.8c0,1,0.2,2,0.6,2.8c0.4,0.9,0.9,1.7,1.5,2.3s1.4,1.2,2.3,1.5
		c0.9,0.4,1.8,0.6,2.8,0.6h7.9C76.2,51,77.7,50.5,79,49.5c1.3-1,2.1-2.3,2.5-3.9C81.1,47.2,80.3,48.5,79,49.5z"/>
	<path d="M115.3,51h-10.2c-1,0-1.9-0.2-2.8-0.6c-0.9-0.4-1.6-0.9-2.3-1.5s-1.2-1.4-1.5-2.3c-0.4-0.9-0.6-1.8-0.6-2.8v-3.6
		c0-1,0.2-1.9,0.5-2.8c0.4-0.9,0.9-1.6,1.5-2.3c0.6-0.6,1.3-1.2,2.1-1.5c0.8-0.4,1.6-0.6,2.4-0.6h21.7h-21.7c-0.8,0-1.6,0.2-2.4,0.6
		c-0.8,0.4-1.5,0.9-2.1,1.5c-0.6,0.6-1.1,1.4-1.5,2.3c-0.4,0.9-0.5,1.8-0.5,2.8v3.6c0,1,0.2,2,0.6,2.8c0.4,0.9,0.9,1.7,1.5,2.3
		s1.4,1.2,2.3,1.5c0.9,0.4,1.8,0.6,2.8,0.6H115.3l10.9-6.3L115.3,51z M126.1,25.3c0-1-0.2-2-0.6-2.8c-0.4-0.9-0.9-1.7-1.5-2.3
		s-1.4-1.2-2.3-1.5c-0.9-0.4-1.8-0.6-2.8-0.6h-14.5h14.5c1,0,2,0.2,2.8,0.6c0.9,0.4,1.7,0.9,2.3,1.5s1.2,1.4,1.5,2.3
		C126,23.3,126.1,24.3,126.1,25.3V51V25.3z"/>
	<path d="M168.6,49.5c-1.3,1-2.8,1.5-4.5,1.5h-7.9c-1,0-2-0.2-2.8-0.6c-0.9-0.4-1.7-0.9-2.3-1.5s-1.2-1.4-1.5-2.3
		c-0.4-0.9-0.6-1.8-0.6-2.8V18h-6.5h23.8h-17.4V3.9v39.8c0,1,0.2,2,0.6,2.8c0.4,0.9,0.9,1.7,1.5,2.3s1.4,1.2,2.3,1.5
		c0.9,0.4,1.8,0.6,2.8,0.6h7.9C165.8,51,167.3,50.5,168.6,49.5c1.3-1,2.1-2.3,2.5-3.9C170.7,47.2,169.8,48.5,168.6,49.5z"/>
	<path d="M201.5,18.1V51h-10.9h21.7h-10.9V18.1h-10.9H201.5z M199.7,1.6v0.9V1.6V0.7V1.6z"/>
	<path d="M244.3,51c-1.1,0-1.9-0.4-2.5-1.1l-8.4-7c-0.7-0.7-1.1-1.6-1.1-2.5V28.7c0-0.9,0.4-1.8,1.1-2.6l8.4-7c0.7-0.7,1.5-1,2.5-1
		h15.9h-15.9c-1,0-1.8,0.3-2.5,1l-8.4,7c-0.7,0.8-1.1,1.7-1.1,2.6v11.7c0,1,0.4,1.8,1.1,2.5l8.4,7C242.4,50.6,243.2,51,244.3,51
		h15.9H244.3z"/>
</g>
</svg>
