<?xml version="1.0" encoding="utf-8"?>
<!-- Generator: Adobe Illustrator 18.0.0, SVG Export Plug-In . SVG Version: 6.00 Build 0)  -->
<!DOCTYPE svg PUBLIC "-//W3C//DTD SVG 1.1//EN" "http://www.w3.org/Graphics/SVG/1.1/DTD/svg11.dtd">
<svg version="1.1" id="Layer_1" xmlns="http://www.w3.org/2000/svg" xmlns:xlink="http://www.w3.org/1999/xlink" x="0px" y="0px"
	 viewBox="0 0 306 51" enable-background="new 0 0 306 51" xml:space="preserve">
<g>
	<path d="M7.9,5.7V0.3h14.5V51V0.3h14.5v5.4V0.3H7.9V5.7z"/>
	<path d="M53.1,25.8v17.6c0,1.1,0.4,1.9,1.1,2.5l4.7,4c0.8,0.7,1.7,1.1,2.6,1.1H73c1,0,1.8-0.4,2.5-1.1l4.7-4
		c0.7-0.6,1.1-1.5,1.1-2.5V25.7c0-1-0.4-1.9-1.1-2.6l-4.7-4C74.9,18.4,74,18,73,18H61.4c-1,0-1.9,0.4-2.6,1.1l-4.7,4
		c-0.7,0.7-1.1,1.6-1.1,2.6c0-1,0.4-1.9,1.1-2.6l4.7-4c0.7-0.7,1.6-1.1,2.6-1.1H73c1,0,1.8,0.4,2.5,1.1l4.7,4
		c0.7,0.7,1.1,1.6,1.1,2.6v17.7c0,1.1-0.4,1.9-1.1,2.5l-4.7,4C74.8,50.6,74,51,73,51H61.4c-0.9,0-1.8-0.4-2.6-1.1l-4.7-4
		c-0.7-0.6-1.1-1.5-1.1-2.5V25.8z"/>
	<path d="M97.8,18.1l1.1,26.3c0.2,1.9,1,3.4,2.3,4.7c1.4,1.3,3,1.9,4.9,1.9h4.8c0.7,0,1.3-0.2,1.9-0.6l13.2-8.6V51V18.1v23.7
		l-13.2,8.6c-0.6,0.4-1.3,0.6-2,0.6h-4.8c-1.9,0-3.5-0.6-4.9-1.9c-1.4-1.3-2.1-2.8-2.3-4.7L97.8,18.1z"/>
	<path d="M154.7,51c-1.1,0-1.9-0.4-2.5-1.1l-8.4-7c-0.7-0.7-1.1-1.6-1.1-2.5V28.7c0-0.9,0.4-1.8,1.1-2.6l8.4-7c0.7-0.7,1.5-1,2.5-1
		h15.9h-15.9c-1,0-1.8,0.3-2.5,1l-8.4,7c-0.7,0.8-1.1,1.7-1.1,2.6v11.7c0,1,0.4,1.8,1.1,2.5l8.4,7C152.8,50.6,153.7,51,154.7,51
		h15.9H154.7z"/>
	<path d="M187.4,27.3l13.2-8.6c0.6-0.4,1.2-0.6,2-0.6h4.8c1.9,0,3.5,0.6,4.9,1.9c1.4,1.3,2.1,2.8,2.3,4.7l1.1,26.3l-1.1-26.3
		c-0.2-1.9-1-3.4-2.3-4.7c-1.4-1.3-3-1.9-4.9-1.9h-4.8c-0.8,0-1.4,0.2-1.9,0.6L187.4,27.3V51V4V27.3z"/>
</g>
</svg>
