<?xml version="1.0" encoding="utf-8"?>
<!-- Generator: Adobe Illustrator 16.0.0, SVG Export Plug-In . SVG Version: 6.00 Build 0)  -->
<!DOCTYPE svg PUBLIC "-//W3C//DTD SVG 1.1//EN" "http://www.w3.org/Graphics/SVG/1.1/DTD/svg11.dtd">
<svg version="1.1" id="Layer_1" xmlns="http://www.w3.org/2000/svg" xmlns:xlink="http://www.w3.org/1999/xlink" x="0px" y="0px"
	 width="432px" height="288px" viewBox="0 0 432 288" enable-background="new 0 0 432 288" xml:space="preserve">
<g>
	<path d="M105.909,62.493c0,0.481-0.166,0.916-0.495,1.305c-0.331,0.391-0.735,0.585-1.215,0.585
		c-0.481,0.061-0.886-0.09-1.215-0.45c-0.33-0.36-0.526-0.779-0.585-1.26c0-1.139,0.57-1.769,1.71-1.89
		c0.479,0,0.9,0.166,1.26,0.495C105.729,61.608,105.909,62.013,105.909,62.493c0-0.479-0.18-0.885-0.54-1.215
		c-0.36-0.329-0.781-0.495-1.26-0.495c-1.14,0.121-1.71,0.751-1.71,1.89c0.059,0.481,0.255,0.9,0.585,1.26
		c0.329,0.36,0.734,0.51,1.215,0.45c0.479,0,0.884-0.194,1.215-0.585C105.743,63.408,105.909,62.974,105.909,62.493z
		 M104.109,79.593l0.09,22.59l-0.09,22.59l0.09-22.59L104.109,79.593z"/>
	<path d="M123.099,90.843c0-1.92-0.031-3.81-0.09-5.67c-0.06-1.859-0.18-3.749-0.36-5.67c0.18,1.921,0.3,3.811,0.36,5.67
		C123.068,87.033,123.099,88.923,123.099,90.843v33.93V90.843z M136.419,80.402c4.919-1.8,9.239-1.199,12.96,1.8
		c3.72,2.88,5.52,9.211,5.4,18.99v23.58v-23.58c0.12-9.779-1.68-16.11-5.4-18.99C145.658,79.203,141.338,78.603,136.419,80.402
		c-4.981,1.861-9.42,7.411-13.32,16.65C126.999,87.813,131.438,82.263,136.419,80.402z"/>
	<path d="M175.658,79.502h12.69H175.658v33.84c-0.061,1.98,0.374,3.84,1.305,5.58c0.93,1.741,2.234,3.15,3.915,4.23
		c1.2,0.779,2.475,1.26,3.825,1.44c1.35,0.18,2.714,0.09,4.095-0.27c-1.381,0.36-2.745,0.45-4.095,0.27
		c-1.35-0.18-2.625-0.661-3.825-1.44c-1.681-1.08-2.985-2.489-3.915-4.23c-0.931-1.739-1.366-3.6-1.305-5.58V79.502h-8.19H175.658
		v-10.89V79.502z"/>
	<path d="M238.387,85.263c-0.42-2.52-1.049-4.979-1.889-7.38c-0.842-2.459-1.832-4.619-2.971-6.48
		c-1.141-1.859-2.4-3.479-3.779-4.86c-2.822-2.759-5.91-4.14-9.27-4.14c-3.421,0-6.512,1.381-9.271,4.14
		c-2.94,2.761-5.22,6.541-6.84,11.34c-1.62,4.801-2.43,9.961-2.43,15.48c0,5.58,0.81,10.741,2.43,15.48
		c1.62,4.68,3.899,8.46,6.84,11.34c2.759,2.76,5.85,4.14,9.271,4.14c3.359,0,6.447-1.38,9.27-4.14
		c1.379-1.379,2.639-3.015,3.779-4.905c1.139-1.89,2.129-4.034,2.971-6.435c1.678-4.919,2.52-10.139,2.52-15.66
		c0,5.521-0.842,10.741-2.52,15.66c-0.842,2.4-1.832,4.545-2.971,6.435c-1.141,1.89-2.4,3.526-3.779,4.905
		c-2.822,2.76-5.91,4.14-9.27,4.14c-3.421,0-6.512-1.38-9.271-4.14c-2.94-2.88-5.22-6.66-6.84-11.34
		c-1.62-4.739-2.43-9.9-2.43-15.48c0-5.52,0.81-10.679,2.43-15.48c1.62-4.799,3.899-8.579,6.84-11.34
		c2.759-2.759,5.85-4.14,9.271-4.14c3.359,0,6.447,1.381,9.27,4.14c1.379,1.381,2.639,3.001,3.779,4.86
		c1.139,1.861,2.129,4.021,2.971,6.48C237.338,80.283,237.967,82.743,238.387,85.263s0.631,5.161,0.631,7.92
		C239.018,90.423,238.807,87.783,238.387,85.263z"/>
	<path d="M268.356,62.312v62.46V62.312l-14.94,8.64L268.356,62.312z"/>
</g>
<g>
</g>
<g>
</g>
<g>
</g>
<g>
</g>
<g>
</g>
<g>
</g>
</svg>
