<?xml version="1.0" encoding="utf-8"?>
<!-- Generator: Adobe Illustrator 16.0.0, SVG Export Plug-In . SVG Version: 6.00 Build 0)  -->
<!DOCTYPE svg PUBLIC "-//W3C//DTD SVG 1.1//EN" "http://www.w3.org/Graphics/SVG/1.1/DTD/svg11.dtd">
<svg version="1.1" id="Layer_1" xmlns="http://www.w3.org/2000/svg" xmlns:xlink="http://www.w3.org/1999/xlink" x="0px" y="0px"
	 width="432px" height="288px" viewBox="0 0 432 288" enable-background="new 0 0 432 288" xml:space="preserve">
<g>
	<path d="M95.091,118.432c-0.061,1.5-0.121,3.21-0.18,5.13c-0.061,1.921-0.15,4.05-0.27,6.39c0.12-2.34,0.209-4.469,0.27-6.39
		C94.97,121.642,95.031,119.932,95.091,118.432v-55.44V118.432z M97.611,118.162c1.739,3.541,4.05,6.3,6.93,8.28
		c2.939,2.041,6.12,3.06,9.54,3.06c3.479,0,6.629-1.02,9.45-3.06c2.939-1.98,5.279-4.739,7.02-8.28c1.679-3.54,2.52-7.29,2.52-11.25
		c0-3.899-0.841-7.679-2.52-11.34c-1.681-3.42-4.021-6.179-7.02-8.28c-2.94-2.039-6.09-3.06-9.45-3.06c-3.3,0-6.48,1.021-9.54,3.06
		c-1.44,1.021-2.745,2.22-3.915,3.6c-1.17,1.381-2.175,2.94-3.015,4.68c-1.681,3.541-2.52,7.231-2.52,11.07
		c0-3.839,0.839-7.529,2.52-11.07c0.839-1.74,1.845-3.299,3.015-4.68c1.17-1.379,2.475-2.579,3.915-3.6
		c3.06-2.039,6.24-3.06,9.54-3.06c3.36,0,6.51,1.021,9.45,3.06c3,2.101,5.339,4.86,7.02,8.28c1.679,3.661,2.52,7.44,2.52,11.34
		c0,3.96-0.841,7.71-2.52,11.25c-1.741,3.541-4.081,6.3-7.02,8.28c-2.821,2.041-5.971,3.06-9.45,3.06c-3.42,0-6.601-1.02-9.54-3.06
		C101.661,124.462,99.351,121.703,97.611,118.162c-1.681-3.54-2.52-7.229-2.52-11.07C95.091,110.932,95.931,114.622,97.611,118.162z
		"/>
	<path d="M153.861,84.682h12.69H153.861v-7.74c0-2.28,0.45-4.485,1.35-6.615c0.9-2.129,2.219-3.974,3.96-5.535
		c1.56-1.38,3.33-2.37,5.31-2.97c1.98-0.599,4.019-0.75,6.12-0.45c-2.101-0.299-4.14-0.149-6.12,0.45
		c-1.98,0.601-3.75,1.59-5.31,2.97c-1.741,1.561-3.06,3.406-3.96,5.535c-0.9,2.13-1.35,4.335-1.35,6.615V84.682h-8.1H153.861v45.27
		V84.682z"/>
	<path d="M191.3,84.682h12.69H191.3v-7.74c0-2.28,0.45-4.485,1.35-6.615c0.9-2.129,2.219-3.974,3.96-5.535
		c1.56-1.38,3.33-2.37,5.31-2.97c1.98-0.599,4.019-0.75,6.12-0.45c-2.101-0.299-4.14-0.149-6.12,0.45
		c-1.98,0.601-3.75,1.59-5.31,2.97c-1.741,1.561-3.06,3.406-3.96,5.535c-0.9,2.13-1.35,4.335-1.35,6.615V84.682h-8.1H191.3v45.27
		V84.682z"/>
	<path d="M258.888,90.442c-0.42-2.52-1.05-4.979-1.89-7.38c-0.841-2.459-1.831-4.619-2.97-6.48c-1.141-1.859-2.4-3.479-3.78-4.86
		c-2.821-2.759-5.91-4.14-9.27-4.14c-3.421,0-6.512,1.381-9.271,4.14c-2.94,2.761-5.22,6.541-6.84,11.34
		c-1.62,4.801-2.43,9.961-2.43,15.48c0,5.58,0.81,10.741,2.43,15.48c1.62,4.68,3.899,8.46,6.84,11.34
		c2.759,2.76,5.85,4.14,9.271,4.14c3.359,0,6.448-1.38,9.27-4.14c1.38-1.379,2.64-3.015,3.78-4.905
		c1.139-1.89,2.129-4.034,2.97-6.435c1.679-4.919,2.52-10.139,2.52-15.66c0,5.521-0.841,10.741-2.52,15.66
		c-0.841,2.4-1.831,4.545-2.97,6.435c-1.141,1.89-2.4,3.526-3.78,4.905c-2.821,2.76-5.91,4.14-9.27,4.14
		c-3.421,0-6.512-1.38-9.271-4.14c-2.94-2.88-5.22-6.66-6.84-11.34c-1.62-4.739-2.43-9.9-2.43-15.48c0-5.52,0.81-10.679,2.43-15.48
		c1.62-4.799,3.899-8.579,6.84-11.34c2.759-2.759,5.85-4.14,9.271-4.14c3.359,0,6.448,1.381,9.27,4.14
		c1.38,1.381,2.64,3.001,3.78,4.86c1.139,1.861,2.129,4.021,2.97,6.48C257.838,85.462,258.468,87.922,258.888,90.442
		c0.419,2.52,0.63,5.161,0.63,7.92C259.518,95.603,259.307,92.962,258.888,90.442z"/>
	<path d="M311.087,129.052h-36.27l27.72-29.79c1.499-1.56,2.7-3.344,3.6-5.355c0.9-2.009,1.5-4.095,1.801-6.255
		c0.299-2.16,0.238-4.32-0.181-6.48c-0.42-2.16-1.17-4.199-2.25-6.12c-1.26-2.1-2.94-3.825-5.04-5.175
		c-2.101-1.35-4.409-2.145-6.93-2.385c-2.94-0.36-5.836-0.12-8.685,0.72c-2.851,0.841-5.416,2.22-7.695,4.14
		c2.279-1.919,4.845-3.299,7.695-4.14c2.849-0.84,5.744-1.08,8.685-0.72c2.521,0.241,4.829,1.035,6.93,2.385
		c2.1,1.35,3.78,3.075,5.04,5.175c1.08,1.921,1.83,3.96,2.25,6.12c0.419,2.16,0.479,4.32,0.181,6.48
		c-0.301,2.16-0.9,4.246-1.801,6.255c-0.899,2.011-2.101,3.795-3.6,5.355l-27.72,29.79H311.087z"/>
</g>
<g>
</g>
<g>
</g>
<g>
</g>
<g>
</g>
<g>
</g>
<g>
</g>
</svg>
