<?xml version="1.0" encoding="utf-8"?>
<!-- Generator: Adobe Illustrator 16.0.0, SVG Export Plug-In . SVG Version: 6.00 Build 0)  -->
<!DOCTYPE svg PUBLIC "-//W3C//DTD SVG 1.1//EN" "http://www.w3.org/Graphics/SVG/1.1/DTD/svg11.dtd">
<svg version="1.1" id="Layer_1" xmlns="http://www.w3.org/2000/svg" xmlns:xlink="http://www.w3.org/1999/xlink" x="0px" y="0px"
	 width="425.063px" height="97.424px" viewBox="0 0 425.063 97.424" enable-background="new 0 0 425.063 97.424"
	 xml:space="preserve">
<g>
	<path d="M33.615,76.994c-1.08,0.061-2.175,0.09-3.285,0.09c-1.111,0-2.101-0.165-2.97-0.495c-0.871-0.329-1.575-0.9-2.115-1.71
		c-0.54-0.81-0.81-1.964-0.81-3.465v-57.6v57.6c0,1.5,0.27,2.655,0.81,3.465c0.54,0.81,1.245,1.381,2.115,1.71
		c0.869,0.331,1.859,0.495,2.97,0.495C31.439,77.084,32.535,77.054,33.615,76.994z"/>
	<path d="M143.683,77.444v-34.2c0-1.02-0.195-2.219-0.585-3.6c-0.391-1.38-1.111-2.685-2.16-3.915c-1.05-1.229-2.49-2.28-4.32-3.15
		c-1.831-0.869-4.185-1.305-7.065-1.305s-5.355,0.495-7.425,1.485c-2.07,0.99-3.78,2.295-5.13,3.915
		c-1.35,1.62-2.355,3.465-3.015,5.535c-0.661,2.07-0.99,4.126-0.99,6.165c0-2.039,0.329-4.095,0.99-6.165
		c0.659-2.07,1.665-3.915,3.015-5.535c1.35-1.62,3.06-2.925,5.13-3.915c2.07-0.99,4.545-1.485,7.425-1.485s5.234,0.436,7.065,1.305
		c1.83,0.871,3.27,1.921,4.32,3.15c1.049,1.23,1.77,2.535,2.16,3.915c0.39,1.381,0.585,2.58,0.585,3.6V77.444z M174.643,43.244
		c0-1.02-0.27-2.219-0.81-3.6c-0.54-1.38-1.41-2.685-2.61-3.915c-1.201-1.229-2.776-2.28-4.725-3.15
		c-1.95-0.869-4.365-1.305-7.245-1.305c-2.88,0-5.31,0.495-7.29,1.485c-1.98,0.99-3.586,2.295-4.815,3.915
		c-1.23,1.62-2.115,3.465-2.655,5.535c-0.54,2.07-0.81,4.126-0.81,6.165c0-2.039,0.27-4.095,0.81-6.165
		c0.54-2.07,1.425-3.915,2.655-5.535c1.229-1.62,2.835-2.925,4.815-3.915c1.98-0.99,4.41-1.485,7.29-1.485
		c2.88,0,5.294,0.436,7.245,1.305c1.949,0.871,3.524,1.921,4.725,3.15c1.2,1.23,2.07,2.535,2.61,3.915
		C174.373,41.025,174.643,42.224,174.643,43.244v34.2V43.244z"/>
	<path d="M202.182,52.784h40.23c0-2.52-0.285-5.114-0.855-7.785c-0.57-2.669-1.545-5.115-2.925-7.335
		c-1.381-2.219-3.24-4.05-5.58-5.49s-5.31-2.16-8.91-2.16c-3.54,0-6.69,0.585-9.45,1.755c-2.76,1.17-5.071,2.821-6.93,4.95
		c-1.861,2.13-3.271,4.711-4.23,7.74c-0.96,3.03-1.44,6.405-1.44,10.125c0,3.721,0.585,7.006,1.755,9.855
		c1.17,2.851,2.759,5.22,4.77,7.11c2.009,1.89,4.35,3.316,7.02,4.275c2.669,0.96,5.504,1.381,8.504,1.26
		c3-0.059,5.595-0.63,7.785-1.71c2.189-1.08,4.005-2.309,5.445-3.69c1.44-1.38,2.534-2.79,3.285-4.23
		c0.749-1.44,1.215-2.579,1.395-3.42c-0.18,0.841-0.646,1.98-1.395,3.42c-0.751,1.44-1.845,2.851-3.285,4.23
		c-1.44,1.381-3.256,2.61-5.445,3.69c-2.19,1.08-4.785,1.651-7.785,1.71c-3,0.121-5.835-0.3-8.504-1.26
		c-2.67-0.959-5.011-2.385-7.02-4.275c-2.011-1.89-3.6-4.259-4.77-7.11c-1.17-2.849-1.755-6.134-1.755-9.855
		c0-3.72,0.479-7.095,1.44-10.125c0.959-3.029,2.369-5.61,4.23-7.74c1.859-2.129,4.169-3.78,6.93-4.95
		c2.759-1.17,5.91-1.755,9.45-1.755c3.601,0,6.57,0.72,8.91,2.16s4.199,3.271,5.58,5.49c1.38,2.22,2.354,4.666,2.925,7.335
		c0.57,2.67,0.855,5.265,0.855,7.785H202.182z"/>
	<path d="M394.059,77.444v-34.2c0-1.02-0.27-2.219-0.81-3.6c-0.54-1.38-1.426-2.685-2.655-3.915c-1.23-1.229-2.835-2.28-4.814-3.15
		c-1.98-0.869-4.41-1.305-7.29-1.305s-5.416,0.495-7.605,1.485c-2.19,0.99-4.021,2.295-5.49,3.915
		c-1.471,1.62-2.58,3.465-3.329,5.535c-0.751,2.07-1.125,4.126-1.125,6.165c0-2.039,0.374-4.095,1.125-6.165
		c0.749-2.07,1.858-3.915,3.329-5.535c1.47-1.62,3.3-2.925,5.49-3.915c2.189-0.99,4.726-1.485,7.605-1.485s5.31,0.436,7.29,1.305
		c1.979,0.871,3.584,1.921,4.814,3.15c1.229,1.23,2.115,2.535,2.655,3.915c0.54,1.381,0.81,2.58,0.81,3.6V77.444z"/>
</g>
<g>
</g>
<g>
</g>
<g>
</g>
<g>
</g>
<g>
</g>
<g>
</g>
</svg>
