<?xml version="1.0" encoding="utf-8"?>
<!-- Generator: Adobe Illustrator 18.0.0, SVG Export Plug-In . SVG Version: 6.00 Build 0)  -->
<!DOCTYPE svg PUBLIC "-//W3C//DTD SVG 1.1//EN" "http://www.w3.org/Graphics/SVG/1.1/DTD/svg11.dtd">
<svg version="1.1" id="Layer_1" xmlns="http://www.w3.org/2000/svg" xmlns:xlink="http://www.w3.org/1999/xlink" x="0px" y="0px"
	 viewBox="0 0 306 51" enable-background="new 0 0 306 51" xml:space="preserve">
<g>
	<path d="M26,32.2h10.9v11.6c0,1-0.2,1.9-0.6,2.8c-0.4,0.9-0.9,1.6-1.5,2.3c-0.6,0.6-1.4,1.2-2.3,1.5c-0.9,0.4-1.8,0.6-2.8,0.6H15.1
		c-1,0-1.9-0.2-2.8-0.5c-0.9-0.4-1.7-0.9-2.3-1.5c-0.7-0.7-1.2-1.5-1.5-2.3c-0.4-0.9-0.5-1.8-0.5-2.8V21.3c0-0.8,0.2-1.4,0.6-2
		l13-17.9c0.7-0.7,1.5-1,2.6-1h12.7H24.1c-1.1,0-1.9,0.3-2.6,1l-13,17.9c-0.4,0.6-0.6,1.2-0.6,2v22.5c0,1,0.2,1.9,0.5,2.8
		c0.4,0.9,0.9,1.7,1.5,2.3c0.7,0.7,1.5,1.2,2.3,1.5c0.9,0.4,1.8,0.5,2.8,0.5h14.5c1,0,2-0.2,2.8-0.6c0.9-0.4,1.7-0.9,2.3-1.5
		c0.6-0.6,1.2-1.4,1.5-2.3c0.4-0.9,0.6-1.8,0.6-2.8V32.2H26z"/>
	<path d="M53.1,28l13.2-9.3c0.6-0.4,1.3-0.6,2-0.6h4.7c1,0,1.9,0.2,2.8,0.6c0.9,0.4,1.7,0.9,2.3,1.6c0.7,0.7,1.2,1.4,1.6,2.3
		c0.4,0.9,0.6,1.8,0.6,2.8c0-1-0.2-2-0.6-2.8c-0.4-0.9-0.9-1.7-1.5-2.3c-0.6-0.6-1.4-1.2-2.3-1.5c-0.9-0.4-1.8-0.6-2.8-0.6h-4.7
		c-0.8,0-1.4,0.2-2,0.6L53.1,28v23V18.1V28z"/>
	<path d="M97.8,43.4c0,1.1,0.4,1.9,1.1,2.5l4.7,4c0.8,0.7,1.7,1.1,2.6,1.1h11.6c1,0,1.8-0.4,2.5-1.1l4.7-4c0.7-0.6,1.1-1.5,1.1-2.5
		V25.7c0-1-0.4-1.9-1.1-2.6l-4.7-4c-0.7-0.7-1.5-1.1-2.5-1.1h-11.6c-1,0-1.9,0.4-2.6,1.1l-4.7,4c-0.7,0.7-1.1,1.6-1.1,2.6
		c0-1,0.4-1.9,1.1-2.6l4.7-4c0.7-0.7,1.6-1.1,2.6-1.1h11.6c1,0,1.8,0.4,2.5,1.1l4.7,4c0.7,0.7,1.1,1.6,1.1,2.6v17.7
		c0,1.1-0.4,1.9-1.1,2.5l-4.7,4c-0.7,0.7-1.6,1.1-2.5,1.1h-11.6c-0.9,0-1.8-0.4-2.6-1.1l-4.7-4C98.2,45.3,97.8,44.4,97.8,43.4V25.8
		V43.4z"/>
	<path d="M142.6,18.1l1.1,26.3c0.2,1.9,1,3.4,2.3,4.7c1.4,1.3,3,1.9,4.9,1.9h4.8c0.7,0,1.3-0.2,1.9-0.6l13.2-8.6V51V18.1v23.7
		l-13.2,8.6c-0.6,0.4-1.3,0.6-2,0.6h-4.8c-1.9,0-3.5-0.6-4.9-1.9c-1.4-1.3-2.1-2.8-2.3-4.7L142.6,18.1z"/>
	<path d="M187.4,18.1v22v25v-25V18.1z M187.4,40.8c0,1.1,0.4,2,1.1,2.6l7.9,7.3c0.8,0.7,1.6,1,2.6,1h5c1,0,1.8-0.3,2.6-1l7.9-7.3
		c0.7-0.6,1.1-1.5,1.1-2.6V29c0-1-0.4-1.9-1.1-2.6l-7.9-7.2c-0.7-0.7-1.6-1.1-2.6-1.1h-5c-1,0-1.9,0.4-2.6,1.1l-7.9,7.2
		c-0.7,0.7-1.1,1.6-1.1,2.6c0-1,0.4-1.9,1.1-2.6l7.9-7.2c0.7-0.7,1.6-1.1,2.6-1.1h5c1,0,1.9,0.4,2.6,1.1l7.9,7.2
		c0.7,0.7,1.1,1.6,1.1,2.6v11.9c0,1.1-0.4,2-1.1,2.6l-7.9,7.3c-0.8,0.7-1.6,1-2.6,1h-5c-1,0-1.8-0.3-2.6-1l-7.9-7.3
		C187.8,42.8,187.4,42,187.4,40.8z"/>
	<path d="M259.7,36.2V25.7c0-1-0.4-1.8-1.1-2.5l-4.7-4c-0.7-0.7-1.5-1-2.6-1h-10.8c-1,0-1.8,0.3-2.4,0.9l-4.9,4.2
		c-0.7,0.7-1.1,1.5-1.1,2.5v17.7c0,1.1,0.4,2,1.1,2.6l4.7,4c0.7,0.7,1.6,1.1,2.6,1.1h19.2h-19.2c-1,0-1.9-0.4-2.6-1.1l-4.7-4
		c-0.7-0.6-1.1-1.5-1.1-2.6V25.7c0-1,0.4-1.8,1.1-2.5l4.9-4.2c0.6-0.6,1.4-0.9,2.4-0.9h10.8c1.1,0,1.9,0.3,2.6,1l4.7,4
		c0.7,0.7,1.1,1.5,1.1,2.5V36.2h-27.5H259.7z"/>
	<path d="M305.2,40.1c0,1-0.3,1.8-1,2.6l-8,7.2c-0.7,0.7-1.5,1.1-2.6,1.1h-8.3c-0.5,0-1,0-1.4-0.3c-0.4-0.2-0.8-0.5-1.2-0.8l-4.7-4
		c-0.7-0.8-1.1-1.7-1.1-2.6V25.7c0-0.9,0.4-1.8,1.1-2.6l4.7-4c0.8-0.7,1.7-1.1,2.6-1.1h8.3c0.5,0,1,0.1,1.4,0.3
		c0.4,0.2,0.8,0.5,1.2,0.8l8,7.3c0.6,0.8,1,1.6,1,2.5c0-0.9-0.4-1.8-1-2.5l-8-7.3c-0.4-0.3-0.8-0.5-1.2-0.8
		c-0.4-0.2-0.9-0.3-1.4-0.3h-8.3c-0.9,0-1.8,0.4-2.6,1.1l-4.7,4c-0.7,0.8-1.1,1.7-1.1,2.6v17.7c0,0.9,0.4,1.8,1.1,2.6l4.7,4
		c0.4,0.3,0.8,0.6,1.2,0.8c0.4,0.2,0.9,0.3,1.4,0.3h8.3c1.1,0,1.9-0.4,2.6-1.1l8-7.2C304.9,42,305.2,41.1,305.2,40.1z M305.2,3.9V21
		v30V21V3.9z"/>
</g>
</svg>
