<?xml version="1.0" encoding="utf-8"?>
<!-- Generator: Adobe Illustrator 16.0.0, SVG Export Plug-In . SVG Version: 6.00 Build 0)  -->
<!DOCTYPE svg PUBLIC "-//W3C//DTD SVG 1.1//EN" "http://www.w3.org/Graphics/SVG/1.1/DTD/svg11.dtd">
<svg version="1.1" id="Layer_1" xmlns="http://www.w3.org/2000/svg" xmlns:xlink="http://www.w3.org/1999/xlink" x="0px" y="0px"
	 width="432px" height="288px" viewBox="0 0 432 288" enable-background="new 0 0 432 288" xml:space="preserve">
<g>
	<path d="M69.666,124.965c-3.48,1.26-7.035,1.649-10.665,1.17c-3.631-0.479-6.975-1.769-10.035-3.87
		c-3.06-2.1-5.431-4.784-7.11-8.055c-1.68-3.27-2.52-6.764-2.52-10.485c0-3.719,0.84-7.214,2.52-10.485
		c1.679-3.27,4.05-5.954,7.11-8.055c3.06-2.099,6.404-3.389,10.035-3.87c3.63-0.479,7.185-0.12,10.665,1.08
		c-3.48-1.199-7.035-1.559-10.665-1.08c-3.631,0.481-6.975,1.771-10.035,3.87c-3.06,2.101-5.431,4.786-7.11,8.055
		c-1.68,3.271-2.52,6.766-2.52,10.485c0,3.721,0.84,7.216,2.52,10.485c1.679,3.271,4.05,5.955,7.11,8.055
		c3.06,2.101,6.404,3.391,10.035,3.87C62.63,126.614,66.185,126.225,69.666,124.965z"/>
	<path d="M119.524,92.655c-1.68-3.359-4.081-6.089-7.2-8.19c-3.181-1.98-6.511-2.97-9.99-2.97c-3.541,0-6.871,0.99-9.99,2.97
		c-3.06,2.101-5.49,4.831-7.29,8.19c-1.741,3.6-2.61,7.351-2.61,11.25c0,3.96,0.869,7.681,2.61,11.16c1.8,3.48,4.23,6.21,7.29,8.19
		c3.119,2.041,6.449,3.06,9.99,3.06c3.54,0,6.87-1.02,9.99-3.06c3.119-2.039,5.52-4.77,7.2-8.19c1.8-3.42,2.7-7.14,2.7-11.16
		c0,4.021-0.9,7.74-2.7,11.16c-1.68,3.42-4.081,6.151-7.2,8.19c-3.121,2.041-6.451,3.06-9.99,3.06c-3.541,0-6.871-1.02-9.99-3.06
		c-3.06-1.98-5.49-4.709-7.29-8.19c-1.741-3.479-2.61-7.2-2.61-11.16c0-3.899,0.869-7.65,2.61-11.25c1.8-3.359,4.23-6.089,7.29-8.19
		c3.119-1.98,6.449-2.97,9.99-2.97c3.479,0,6.809,0.99,9.99,2.97C115.443,86.566,117.844,89.295,119.524,92.655
		c1.8,3.541,2.7,7.29,2.7,11.25C122.225,99.945,121.325,96.196,119.524,92.655z"/>
	<path d="M171.994,92.655c-1.68-3.359-4.081-6.089-7.2-8.19c-3.181-1.98-6.511-2.97-9.99-2.97c-3.541,0-6.871,0.99-9.99,2.97
		c-3.06,2.101-5.49,4.831-7.29,8.19c-1.741,3.6-2.61,7.351-2.61,11.25c0,3.96,0.869,7.681,2.61,11.16c1.8,3.48,4.23,6.21,7.29,8.19
		c3.119,2.041,6.449,3.06,9.99,3.06c3.54,0,6.87-1.02,9.99-3.06c3.119-2.039,5.52-4.77,7.2-8.19c1.8-3.42,2.7-7.14,2.7-11.16
		c0,4.021-0.9,7.74-2.7,11.16c-1.68,3.42-4.081,6.151-7.2,8.19c-3.121,2.041-6.451,3.06-9.99,3.06c-3.541,0-6.871-1.02-9.99-3.06
		c-3.06-1.98-5.49-4.709-7.29-8.19c-1.741-3.479-2.61-7.2-2.61-11.16c0-3.899,0.869-7.65,2.61-11.25c1.8-3.359,4.23-6.089,7.29-8.19
		c3.119-1.98,6.449-2.97,9.99-2.97c3.479,0,6.809,0.99,9.99,2.97C167.913,86.566,170.313,89.295,171.994,92.655
		c1.8,3.541,2.7,7.29,2.7,11.25C174.694,99.945,173.794,96.196,171.994,92.655z"/>
	<path d="M188.824,81.495c0.119,1.921,0.225,3.811,0.315,5.67c0.09,1.861,0.135,3.75,0.135,5.67v33.93v-33.93
		c0-1.92-0.045-3.81-0.135-5.67C189.048,85.306,188.943,83.416,188.824,81.495z M205.923,81.585l-3.33,0.81
		c-4.98,1.861-9.42,7.411-13.32,16.65c3.899-9.239,8.339-14.79,13.32-16.65L205.923,81.585z"/>
	<path d="M255.693,103.545c-0.121-4.019-0.961-7.74-2.521-11.16c-1.74-3.479-4.08-6.24-7.02-8.28c-2.88-1.98-6.03-2.97-9.45-2.97
		s-6.601,0.99-9.54,2.97c-2.88,2.101-5.19,4.86-6.93,8.28c-1.681,3.42-2.521,7.2-2.521,11.34c0,4.14,0.84,7.92,2.521,11.34
		c0.84,1.741,1.845,3.3,3.015,4.68c1.17,1.381,2.476,2.581,3.915,3.6c2.939,1.98,6.12,2.97,9.54,2.97s6.57-0.99,9.45-2.97
		c2.999-2.1,5.34-4.86,7.02-8.28c1.56-3.36,2.399-7.05,2.521-11.07c-0.121,4.021-0.961,7.71-2.521,11.07
		c-1.68,3.42-4.021,6.18-7.02,8.28c-2.88,1.98-6.03,2.97-9.45,2.97s-6.601-0.99-9.54-2.97c-1.439-1.02-2.745-2.219-3.915-3.6
		c-1.17-1.379-2.175-2.939-3.015-4.68c-1.681-3.42-2.521-7.2-2.521-11.34c0-4.14,0.84-7.92,2.521-11.34
		c1.739-3.42,4.05-6.179,6.93-8.28c2.939-1.98,6.12-2.97,9.54-2.97s6.57,0.99,9.45,2.97c2.939,2.04,5.279,4.801,7.02,8.28
		C254.732,95.805,255.572,99.526,255.693,103.545z M255.693,59.895v55.35c0,1.561,0.045,3.285,0.135,5.175
		c0.09,1.89,0.194,4.005,0.315,6.345c-0.121-2.34-0.226-4.455-0.315-6.345c-0.09-1.89-0.135-3.614-0.135-5.175V59.895z"/>
	<path d="M310.593,87.255c-0.42-2.52-1.05-4.979-1.89-7.38c-0.841-2.459-1.831-4.619-2.97-6.48c-1.141-1.859-2.4-3.479-3.78-4.86
		c-2.821-2.759-5.91-4.14-9.27-4.14c-3.421,0-6.512,1.381-9.271,4.14c-2.94,2.761-5.22,6.541-6.84,11.34
		c-1.62,4.801-2.43,9.961-2.43,15.48c0,5.58,0.81,10.741,2.43,15.48c1.62,4.68,3.899,8.46,6.84,11.34
		c2.759,2.76,5.85,4.14,9.271,4.14c3.359,0,6.448-1.38,9.27-4.14c1.38-1.379,2.64-3.015,3.78-4.905
		c1.139-1.89,2.129-4.034,2.97-6.435c1.679-4.919,2.52-10.139,2.52-15.66c0,5.521-0.841,10.741-2.52,15.66
		c-0.841,2.4-1.831,4.545-2.97,6.435c-1.141,1.89-2.4,3.526-3.78,4.905c-2.821,2.76-5.91,4.14-9.27,4.14
		c-3.421,0-6.512-1.38-9.271-4.14c-2.94-2.88-5.22-6.66-6.84-11.34c-1.62-4.739-2.43-9.9-2.43-15.48c0-5.52,0.81-10.679,2.43-15.48
		c1.62-4.799,3.899-8.579,6.84-11.34c2.759-2.759,5.85-4.14,9.271-4.14c3.359,0,6.448,1.381,9.27,4.14
		c1.38,1.381,2.64,3.001,3.78,4.86c1.139,1.861,2.129,4.021,2.97,6.48C309.543,82.275,310.173,84.735,310.593,87.255
		c0.419,2.52,0.63,5.161,0.63,7.92C311.223,92.416,311.012,89.775,310.593,87.255z"/>
	<path d="M362.791,125.865h-36.27l27.72-29.79c1.499-1.56,2.7-3.344,3.6-5.355c0.9-2.009,1.5-4.095,1.801-6.255
		c0.299-2.16,0.238-4.32-0.181-6.48c-0.42-2.16-1.17-4.199-2.25-6.12c-1.26-2.1-2.94-3.825-5.04-5.175
		c-2.101-1.35-4.409-2.145-6.93-2.385c-2.94-0.36-5.836-0.12-8.685,0.72c-2.851,0.841-5.416,2.22-7.695,4.14
		c2.279-1.919,4.845-3.299,7.695-4.14c2.849-0.84,5.744-1.08,8.685-0.72c2.521,0.241,4.829,1.035,6.93,2.385
		c2.1,1.35,3.78,3.075,5.04,5.175c1.08,1.921,1.83,3.96,2.25,6.12c0.419,2.16,0.479,4.32,0.181,6.48
		c-0.301,2.16-0.9,4.246-1.801,6.255c-0.899,2.011-2.101,3.795-3.6,5.355l-27.72,29.79H362.791z"/>
</g>
<g>
</g>
<g>
</g>
<g>
</g>
<g>
</g>
<g>
</g>
<g>
</g>
</svg>
