<?xml version="1.0" encoding="utf-8"?>
<!-- Generator: Adobe Illustrator 16.0.0, SVG Export Plug-In . SVG Version: 6.00 Build 0)  -->
<!DOCTYPE svg PUBLIC "-//W3C//DTD SVG 1.1//EN" "http://www.w3.org/Graphics/SVG/1.1/DTD/svg11.dtd">
<svg version="1.1" id="Layer_1" xmlns="http://www.w3.org/2000/svg" xmlns:xlink="http://www.w3.org/1999/xlink" x="0px" y="0px"
	 width="432px" height="288px" viewBox="0 0 432 288" enable-background="new 0 0 432 288" xml:space="preserve">
<g>
	<path d="M87.261,72.331h12.69H87.261v-7.74c0-2.28,0.45-4.485,1.35-6.615c0.9-2.129,2.219-3.974,3.96-5.535
		c1.56-1.38,3.33-2.37,5.31-2.97c1.98-0.599,4.019-0.75,6.12-0.45c-2.101-0.299-4.14-0.149-6.12,0.45
		c-1.98,0.601-3.75,1.59-5.31,2.97c-1.741,1.561-3.06,3.406-3.96,5.535c-0.9,2.13-1.35,4.335-1.35,6.615V72.331h-8.1H87.261v45.27
		V72.331z"/>
	<path d="M128.75,116.521c-5.94,1.08-10.08,0.419-12.42-1.98c-2.34-2.34-3.48-5.49-3.42-9.45c0.18-4.019,2.34-7.59,6.48-10.71
		c4.199-3.24,11.939-4.44,23.22-3.6c-11.281-0.84-19.021,0.36-23.22,3.6c-4.14,3.12-6.3,6.691-6.48,10.71
		c-0.06,3.96,1.08,7.11,3.42,9.45C118.67,116.94,122.81,117.601,128.75,116.521c5.999-1.08,10.62-5.52,13.86-13.32
		C139.37,111.001,134.749,115.441,128.75,116.521z M129.92,72.331c4.62,0.42,7.979,1.98,10.08,4.68
		c2.039,2.641,2.909,9.15,2.61,19.53c-0.24,10.26,0.18,17.37,1.26,21.33c-1.08-3.96-1.5-11.07-1.26-21.33
		c0.299-10.379-0.571-16.889-2.61-19.53C137.899,74.311,134.54,72.751,129.92,72.331c-4.68-0.479-9.301,0.481-13.86,2.88
		C120.619,72.812,125.24,71.852,129.92,72.331z"/>
	<path d="M187.07,115.801c-3.48,1.26-7.035,1.649-10.665,1.17c-3.631-0.479-6.975-1.769-10.035-3.87
		c-3.06-2.1-5.431-4.784-7.11-8.055c-1.68-3.27-2.52-6.764-2.52-10.485c0-3.719,0.84-7.214,2.52-10.485
		c1.679-3.27,4.05-5.954,7.11-8.055c3.06-2.099,6.404-3.389,10.035-3.87c3.63-0.479,7.185-0.12,10.665,1.08
		c-3.48-1.199-7.035-1.559-10.665-1.08c-3.631,0.481-6.975,1.771-10.035,3.87c-3.06,2.101-5.431,4.786-7.11,8.055
		c-1.68,3.271-2.52,6.766-2.52,10.485c0,3.721,0.84,7.216,2.52,10.485c1.679,3.271,4.05,5.955,7.11,8.055
		c3.06,2.101,6.404,3.391,10.035,3.87C180.035,117.451,183.589,117.061,187.07,115.801z"/>
	<path d="M238.188,78.091c-0.42-2.52-1.05-4.979-1.89-7.38c-0.841-2.459-1.831-4.619-2.97-6.48c-1.141-1.859-2.4-3.479-3.78-4.86
		c-2.821-2.759-5.91-4.14-9.27-4.14c-3.42,0-6.511,1.381-9.271,4.14c-2.94,2.761-5.22,6.541-6.84,11.34
		c-1.62,4.801-2.43,9.961-2.43,15.48c0,5.58,0.81,10.741,2.43,15.48c1.62,4.68,3.899,8.46,6.84,11.34
		c2.759,2.76,5.85,4.14,9.271,4.14c3.359,0,6.448-1.38,9.27-4.14c1.38-1.379,2.64-3.015,3.78-4.905
		c1.139-1.89,2.129-4.034,2.97-6.435c1.679-4.919,2.52-10.139,2.52-15.66c0,5.521-0.841,10.741-2.52,15.66
		c-0.841,2.4-1.831,4.545-2.97,6.435c-1.141,1.89-2.4,3.526-3.78,4.905c-2.821,2.76-5.91,4.14-9.27,4.14
		c-3.42,0-6.511-1.38-9.271-4.14c-2.94-2.88-5.22-6.66-6.84-11.34c-1.62-4.739-2.43-9.9-2.43-15.48c0-5.52,0.81-10.679,2.43-15.48
		c1.62-4.799,3.899-8.579,6.84-11.34c2.759-2.759,5.85-4.14,9.271-4.14c3.359,0,6.448,1.381,9.27,4.14
		c1.38,1.381,2.64,3.001,3.78,4.86c1.139,1.861,2.129,4.021,2.97,6.48C237.139,73.112,237.769,75.571,238.188,78.091
		c0.419,2.52,0.63,5.161,0.63,7.92C238.818,83.252,238.607,80.611,238.188,78.091z"/>
	<path d="M290.388,116.701h-36.27l27.72-29.79c1.499-1.56,2.7-3.344,3.6-5.355c0.9-2.009,1.5-4.095,1.801-6.255
		c0.299-2.16,0.238-4.32-0.181-6.48c-0.42-2.16-1.17-4.199-2.25-6.12c-1.26-2.1-2.94-3.825-5.04-5.175
		c-2.101-1.35-4.409-2.145-6.93-2.385c-2.94-0.36-5.836-0.12-8.685,0.72c-2.851,0.841-5.416,2.22-7.695,4.14
		c2.279-1.919,4.845-3.299,7.695-4.14c2.849-0.84,5.744-1.08,8.685-0.72c2.521,0.241,4.829,1.035,6.93,2.385
		c2.1,1.35,3.78,3.075,5.04,5.175c1.08,1.921,1.83,3.96,2.25,6.12c0.419,2.16,0.479,4.32,0.181,6.48
		c-0.301,2.16-0.9,4.246-1.801,6.255c-0.899,2.011-2.101,3.795-3.6,5.355l-27.72,29.79H290.388z"/>
</g>
<g>
</g>
<g>
</g>
<g>
</g>
<g>
</g>
<g>
</g>
<g>
</g>
</svg>
