<?xml version="1.0" encoding="utf-8"?>
<!-- Generator: Adobe Illustrator 16.0.0, SVG Export Plug-In . SVG Version: 6.00 Build 0)  -->
<!DOCTYPE svg PUBLIC "-//W3C//DTD SVG 1.1//EN" "http://www.w3.org/Graphics/SVG/1.1/DTD/svg11.dtd">
<svg version="1.1" id="Layer_1" xmlns="http://www.w3.org/2000/svg" xmlns:xlink="http://www.w3.org/1999/xlink" x="0px" y="0px"
	 width="432px" height="288px" viewBox="0 0 432 288" enable-background="new 0 0 432 288" xml:space="preserve">
<g>
	<path d="M77.305,121.302c-5.94,1.08-10.08,0.419-12.42-1.98c-2.34-2.34-3.48-5.49-3.42-9.45c0.18-4.019,2.34-7.59,6.48-10.71
		c4.199-3.24,11.939-4.44,23.22-3.6c-11.281-0.84-19.021,0.36-23.22,3.6c-4.14,3.12-6.3,6.691-6.48,10.71
		c-0.06,3.96,1.08,7.11,3.42,9.45C67.225,121.721,71.365,122.382,77.305,121.302c5.999-1.08,10.62-5.52,13.86-13.32
		C87.924,115.782,83.304,120.222,77.305,121.302z M78.475,77.112c4.62,0.42,7.979,1.98,10.08,4.68
		c2.039,2.641,2.909,9.15,2.61,19.53c-0.24,10.26,0.18,17.37,1.26,21.33c-1.08-3.96-1.5-11.07-1.26-21.33
		c0.299-10.379-0.571-16.889-2.61-19.53C86.454,79.092,83.094,77.532,78.475,77.112c-4.68-0.479-9.301,0.481-13.86,2.88
		C69.174,77.593,73.794,76.632,78.475,77.112z"/>
	<path d="M105.294,119.862c4.379,2.459,9.239,3,14.58,1.62c2.88-1.02,5.054-2.489,6.525-4.41c1.47-1.919,2.264-4.14,2.385-6.66
		c-0.121-2.579-0.976-4.874-2.565-6.885c-1.59-2.009-3.645-3.344-6.165-4.005l-4.5-1.26c-3.001-0.599-5.355-1.919-7.065-3.96
		c-1.71-2.039-2.536-4.41-2.475-7.11c0.239-2.16,1.049-4.08,2.43-5.76c1.379-1.679,3.24-2.939,5.58-3.78
		c2.28-0.66,4.514-0.855,6.705-0.585c2.189,0.27,4.244,0.976,6.165,2.115c-1.921-1.139-3.976-1.845-6.165-2.115
		c-2.191-0.27-4.425-0.075-6.705,0.585c-2.34,0.841-4.2,2.101-5.58,3.78c-1.381,1.68-2.191,3.6-2.43,5.76
		c-0.061,2.7,0.765,5.071,2.475,7.11c1.71,2.041,4.064,3.361,7.065,3.96l4.5,1.26c2.52,0.661,4.575,1.996,6.165,4.005
		c1.589,2.011,2.444,4.306,2.565,6.885c-0.121,2.52-0.916,4.74-2.385,6.66c-1.471,1.921-3.645,3.391-6.525,4.41
		C114.534,122.861,109.674,122.321,105.294,119.862z"/>
	<path d="M141.474,119.862c4.379,2.459,9.239,3,14.58,1.62c2.88-1.02,5.054-2.489,6.525-4.41c1.47-1.919,2.264-4.14,2.385-6.66
		c-0.121-2.579-0.976-4.874-2.565-6.885c-1.59-2.009-3.645-3.344-6.165-4.005l-4.5-1.26c-3.001-0.599-5.355-1.919-7.065-3.96
		c-1.71-2.039-2.536-4.41-2.475-7.11c0.239-2.16,1.049-4.08,2.43-5.76c1.379-1.679,3.24-2.939,5.58-3.78
		c2.28-0.66,4.514-0.855,6.705-0.585c2.189,0.27,4.244,0.976,6.165,2.115c-1.921-1.139-3.976-1.845-6.165-2.115
		c-2.191-0.27-4.425-0.075-6.705,0.585c-2.34,0.841-4.2,2.101-5.58,3.78c-1.381,1.68-2.191,3.6-2.43,5.76
		c-0.061,2.7,0.765,5.071,2.475,7.11c1.71,2.041,4.064,3.361,7.065,3.96l4.5,1.26c2.52,0.661,4.575,1.996,6.165,4.005
		c1.589,2.011,2.444,4.306,2.565,6.885c-0.121,2.52-0.916,4.74-2.385,6.66c-1.471,1.921-3.645,3.391-6.525,4.41
		C150.713,122.861,145.853,122.321,141.474,119.862z"/>
	<path d="M214.733,88.272c-1.68-3.359-4.081-6.089-7.2-8.19c-3.181-1.98-6.511-2.97-9.99-2.97c-3.541,0-6.871,0.99-9.99,2.97
		c-3.06,2.101-5.49,4.831-7.29,8.19c-1.741,3.6-2.61,7.351-2.61,11.25c0,3.96,0.869,7.681,2.61,11.16c1.8,3.48,4.23,6.21,7.29,8.19
		c3.119,2.041,6.449,3.06,9.99,3.06c3.54,0,6.87-1.02,9.99-3.06c3.119-2.039,5.52-4.77,7.2-8.19c1.8-3.42,2.701-7.14,2.701-11.16
		c0,4.021-0.9,7.74-2.701,11.16c-1.68,3.42-4.081,6.151-7.2,8.19c-3.121,2.041-6.451,3.06-9.99,3.06c-3.541,0-6.871-1.02-9.99-3.06
		c-3.06-1.98-5.49-4.709-7.29-8.19c-1.741-3.479-2.61-7.2-2.61-11.16c0-3.899,0.869-7.65,2.61-11.25c1.8-3.359,4.23-6.089,7.29-8.19
		c3.119-1.98,6.449-2.97,9.99-2.97c3.479,0,6.809,0.99,9.99,2.97C210.652,82.183,213.053,84.913,214.733,88.272
		c1.8,3.541,2.701,7.29,2.701,11.25C217.434,95.562,216.533,91.813,214.733,88.272z"/>
	<path d="M249.787,121.752c-3.631-0.479-6.975-1.769-10.035-3.87c-3.06-2.1-5.431-4.784-7.109-8.055
		c-1.681-3.27-2.521-6.764-2.521-10.485c0-3.719,0.84-7.214,2.521-10.485c1.679-3.27,4.05-5.954,7.109-8.055
		c3.061-2.099,6.404-3.389,10.035-3.87c3.63-0.479,7.185-0.12,10.665,1.08c-3.48-1.199-7.035-1.559-10.665-1.08
		c-3.631,0.481-6.975,1.771-10.035,3.87c-3.06,2.101-5.431,4.786-7.109,8.055c-1.681,3.271-2.521,6.766-2.521,10.485
		c0,3.721,0.84,7.216,2.521,10.485c1.679,3.271,4.05,5.955,7.109,8.055C242.812,119.983,246.156,121.272,249.787,121.752
		c3.63,0.479,7.185,0.09,10.665-1.17C256.972,121.842,253.417,122.231,249.787,121.752z"/>
	<path d="M311.571,82.872c-0.42-2.52-1.05-4.979-1.89-7.38c-0.841-2.459-1.831-4.619-2.97-6.48c-1.141-1.859-2.4-3.479-3.78-4.86
		c-2.821-2.759-5.91-4.14-9.27-4.14c-3.421,0-6.512,1.381-9.271,4.14c-2.94,2.761-5.22,6.541-6.84,11.34
		c-1.62,4.801-2.43,9.961-2.43,15.48c0,5.58,0.81,10.741,2.43,15.48c1.62,4.68,3.899,8.46,6.84,11.34
		c2.759,2.76,5.85,4.14,9.271,4.14c3.359,0,6.448-1.38,9.27-4.14c1.38-1.379,2.64-3.015,3.78-4.905
		c1.139-1.89,2.129-4.034,2.97-6.435c1.679-4.919,2.52-10.139,2.52-15.66c0,5.521-0.841,10.741-2.52,15.66
		c-0.841,2.4-1.831,4.545-2.97,6.435c-1.141,1.89-2.4,3.526-3.78,4.905c-2.821,2.76-5.91,4.14-9.27,4.14
		c-3.421,0-6.512-1.38-9.271-4.14c-2.94-2.88-5.22-6.66-6.84-11.34c-1.62-4.739-2.43-9.9-2.43-15.48c0-5.52,0.81-10.679,2.43-15.48
		c1.62-4.799,3.899-8.579,6.84-11.34c2.759-2.759,5.85-4.14,9.271-4.14c3.359,0,6.448,1.381,9.27,4.14
		c1.38,1.381,2.64,3.001,3.78,4.86c1.139,1.861,2.129,4.021,2.97,6.48C310.521,77.893,311.151,80.352,311.571,82.872
		c0.419,2.52,0.63,5.161,0.63,7.92C312.201,88.033,311.99,85.392,311.571,82.872z"/>
	<path d="M363.771,121.482h-36.27l27.72-29.79c1.499-1.56,2.7-3.344,3.6-5.355c0.9-2.009,1.5-4.095,1.801-6.255
		c0.299-2.16,0.238-4.32-0.181-6.48c-0.42-2.16-1.17-4.199-2.25-6.12c-1.26-2.1-2.94-3.825-5.04-5.175
		c-2.101-1.35-4.409-2.145-6.93-2.385c-2.94-0.36-5.836-0.12-8.685,0.72c-2.851,0.841-5.416,2.22-7.695,4.14
		c2.279-1.919,4.845-3.299,7.695-4.14c2.849-0.84,5.744-1.08,8.685-0.72c2.521,0.241,4.829,1.035,6.93,2.385
		c2.1,1.35,3.78,3.075,5.04,5.175c1.08,1.921,1.83,3.96,2.25,6.12c0.419,2.16,0.479,4.32,0.181,6.48
		c-0.301,2.16-0.9,4.246-1.801,6.255c-0.899,2.011-2.101,3.795-3.6,5.355l-27.72,29.79H363.771z"/>
</g>
<g>
</g>
<g>
</g>
<g>
</g>
<g>
</g>
<g>
</g>
<g>
</g>
</svg>
