<?xml version="1.0" encoding="utf-8"?>
<!-- Generator: Adobe Illustrator 16.0.0, SVG Export Plug-In . SVG Version: 6.00 Build 0)  -->
<!DOCTYPE svg PUBLIC "-//W3C//DTD SVG 1.1//EN" "http://www.w3.org/Graphics/SVG/1.1/DTD/svg11.dtd">
<svg version="1.1" id="Layer_1" xmlns="http://www.w3.org/2000/svg" xmlns:xlink="http://www.w3.org/1999/xlink" x="0px" y="0px"
	 width="432px" height="288px" viewBox="0 0 432 288" enable-background="new 0 0 432 288" xml:space="preserve">
<g>
	<path d="M121.261,100.666c0-4.019-0.841-7.709-2.52-11.07c-1.68-3.479-3.991-6.24-6.93-8.28c-3.001-1.98-6.181-2.97-9.54-2.97
		c-3.42,0-6.57,0.99-9.45,2.97c-3.06,2.101-5.37,4.86-6.93,8.28c-1.741,3.6-2.61,7.38-2.61,11.34c0,4.021,0.869,7.771,2.61,11.25
		c1.62,3.541,3.929,6.3,6.93,8.28c2.82,2.041,5.97,3.06,9.45,3.06c3.42,0,6.6-1.02,9.54-3.06c2.88-1.919,5.189-4.68,6.93-8.28
		c1.679-3.359,2.52-7.049,2.52-11.07c0,4.021-0.841,7.71-2.52,11.07c-1.741,3.6-4.05,6.361-6.93,8.28
		c-2.94,2.041-6.12,3.06-9.54,3.06c-3.48,0-6.63-1.02-9.45-3.06c-3.001-1.98-5.31-4.739-6.93-8.28
		c-1.741-3.479-2.61-7.229-2.61-11.25c0-3.96,0.869-7.74,2.61-11.34c1.56-3.42,3.87-6.179,6.93-8.28c2.88-1.98,6.03-2.97,9.45-2.97
		c3.359,0,6.539,0.99,9.54,2.97c2.939,2.04,5.25,4.801,6.93,8.28C120.42,92.957,121.261,96.646,121.261,100.666z M121.711,78.796
		c-0.121,1.921-0.225,3.825-0.315,5.715s-0.135,3.735-0.135,5.535v28.62c0.12,10.08-1.53,16.83-4.95,20.25
		c-3.361,3.36-6.961,5.22-10.8,5.58c-3.721,0.36-6.84,0.3-9.36-0.18c-1.26-0.241-2.565-0.556-3.915-0.945
		c-1.35-0.391-2.745-0.855-4.185-1.395c1.44,0.54,2.835,1.004,4.185,1.395c1.35,0.39,2.655,0.705,3.915,0.945
		c2.52,0.479,5.639,0.54,9.36,0.18c3.839-0.36,7.439-2.22,10.8-5.58c3.42-3.42,5.069-10.17,4.95-20.25v-28.62
		c0-1.8,0.045-3.645,0.135-5.535S121.59,80.717,121.711,78.796z"/>
	<path d="M137.19,78.706c0.119,1.921,0.225,3.811,0.315,5.67c0.09,1.861,0.135,3.75,0.135,5.67v33.93v-33.93
		c0-1.92-0.045-3.81-0.135-5.67C137.415,82.517,137.31,80.626,137.19,78.706z M154.29,78.796l-3.33,0.81
		c-4.98,1.861-9.42,7.411-13.32,16.65c3.899-9.239,8.339-14.79,13.32-16.65L154.29,78.796z"/>
	<path d="M167.79,90.226c0-1.499-0.045-3.209-0.135-5.13c-0.09-1.919-0.195-4.05-0.315-6.39c0.12,2.34,0.225,4.471,0.315,6.39
		C167.745,87.017,167.79,88.727,167.79,90.226v53.64V90.226z M170.31,112.186c1.739,3.541,4.08,6.3,7.02,8.28
		c2.819,2.041,5.969,3.06,9.45,3.06c3.42,0,6.6-1.02,9.54-3.06c2.88-1.98,5.189-4.739,6.93-8.28c1.679-3.42,2.52-7.2,2.52-11.34
		c0-4.08-0.841-7.83-2.52-11.25c-1.741-3.54-4.05-6.3-6.93-8.28c-2.94-2.039-6.12-3.06-9.54-3.06c-3.48,0-6.63,1.021-9.45,3.06
		c-2.94,1.98-5.281,4.74-7.02,8.28c-1.681,3.541-2.52,7.231-2.52,11.07c0-3.839,0.839-7.529,2.52-11.07
		c1.739-3.54,4.08-6.3,7.02-8.28c2.819-2.039,5.969-3.06,9.45-3.06c3.42,0,6.6,1.021,9.54,3.06c2.88,1.98,5.189,4.74,6.93,8.28
		c1.679,3.42,2.52,7.17,2.52,11.25c0,4.14-0.841,7.92-2.52,11.34c-1.741,3.541-4.05,6.3-6.93,8.28c-2.94,2.041-6.12,3.06-9.54,3.06
		c-3.48,0-6.63-1.02-9.45-3.06C174.39,118.486,172.049,115.727,170.31,112.186c-1.681-3.54-2.52-7.229-2.52-11.07
		C167.79,104.956,168.629,108.646,170.31,112.186z"/>
	<path d="M239.34,91.125l20.16-32.31L239.34,91.125l20.16,32.13L239.34,91.125l-20.16,32.13L239.34,91.125l-20.16-32.31
		L239.34,91.125z"/>
	<path d="M273.629,58.816l20.16,32.31l-20.16,32.13l20.16-32.13l20.16,32.13l-20.16-32.13l20.16-32.31l-20.16,32.31L273.629,58.816z
		"/>
</g>
<g>
</g>
<g>
</g>
<g>
</g>
<g>
</g>
<g>
</g>
<g>
</g>
</svg>
