<?xml version="1.0" encoding="utf-8"?>
<!-- Generator: Adobe Illustrator 16.0.0, SVG Export Plug-In . SVG Version: 6.00 Build 0)  -->
<!DOCTYPE svg PUBLIC "-//W3C//DTD SVG 1.1//EN" "http://www.w3.org/Graphics/SVG/1.1/DTD/svg11.dtd">
<svg version="1.1" id="Layer_1" xmlns="http://www.w3.org/2000/svg" xmlns:xlink="http://www.w3.org/1999/xlink" x="0px" y="0px"
	 width="432px" height="288px" viewBox="0 0 432 288" enable-background="new 0 0 432 288" xml:space="preserve">
<g>
	<path d="M111.37,90.046c0-1.92-0.031-3.81-0.09-5.67c-0.06-1.859-0.18-3.749-0.36-5.67c0.18,1.921,0.3,3.811,0.36,5.67
		C111.339,86.236,111.37,88.126,111.37,90.046v33.93V90.046z M124.69,79.605c4.919-1.8,9.239-1.199,12.96,1.8
		c3.72,2.88,5.52,9.211,5.4,18.99v23.58v-23.58c0.12-9.779-1.68-16.11-5.4-18.99C133.929,78.406,129.609,77.806,124.69,79.605
		c-4.981,1.861-9.42,7.411-13.32,16.65C115.27,87.017,119.709,81.466,124.69,79.605z"/>
	<path d="M158.395,84.375c0.09,1.861,0.135,3.75,0.135,5.67v33.93v-33.93C158.529,88.126,158.484,86.236,158.395,84.375
		c-0.09-1.859-0.196-3.749-0.315-5.67C158.199,80.626,158.304,82.517,158.395,84.375z M171.849,79.605
		c-4.98,1.861-9.42,7.411-13.32,16.65C162.429,87.017,166.869,81.466,171.849,79.605l3.33-0.81L171.849,79.605z"/>
	<path d="M225.219,84.466c-0.42-2.52-1.049-4.979-1.889-7.38c-0.842-2.459-1.832-4.619-2.971-6.48c-1.141-1.859-2.4-3.479-3.78-4.86
		c-2.821-2.759-5.911-4.14-9.27-4.14c-3.42,0-6.511,1.381-9.27,4.14c-2.94,2.761-5.22,6.541-6.84,11.34
		c-1.62,4.801-2.43,9.961-2.43,15.48c0,5.58,0.81,10.741,2.43,15.48c1.62,4.68,3.899,8.46,6.84,11.34
		c2.759,2.76,5.85,4.14,9.27,4.14c3.359,0,6.449-1.38,9.27-4.14c1.379-1.379,2.639-3.015,3.78-4.905
		c1.139-1.89,2.129-4.034,2.971-6.435c1.678-4.919,2.52-10.139,2.52-15.66c0,5.521-0.842,10.741-2.52,15.66
		c-0.842,2.4-1.832,4.545-2.971,6.435c-1.141,1.89-2.4,3.526-3.78,4.905c-2.821,2.76-5.911,4.14-9.27,4.14
		c-3.42,0-6.511-1.38-9.27-4.14c-2.94-2.88-5.22-6.66-6.84-11.34c-1.62-4.739-2.43-9.9-2.43-15.48c0-5.52,0.81-10.679,2.43-15.48
		c1.62-4.799,3.899-8.579,6.84-11.34c2.759-2.759,5.85-4.14,9.27-4.14c3.359,0,6.449,1.381,9.27,4.14
		c1.379,1.381,2.639,3.001,3.78,4.86c1.139,1.861,2.129,4.021,2.971,6.48C224.17,79.486,224.799,81.946,225.219,84.466
		s0.631,5.161,0.631,7.92C225.85,89.626,225.639,86.986,225.219,84.466z"/>
	<path d="M277.418,123.076h-36.27l27.72-29.79c1.499-1.56,2.7-3.344,3.6-5.355c0.9-2.009,1.5-4.095,1.801-6.255
		c0.299-2.16,0.238-4.32-0.181-6.48c-0.42-2.16-1.17-4.199-2.25-6.12c-1.26-2.1-2.94-3.825-5.04-5.175
		c-2.101-1.35-4.409-2.145-6.93-2.385c-2.94-0.36-5.836-0.12-8.685,0.72c-2.851,0.841-5.416,2.22-7.695,4.14
		c2.279-1.919,4.845-3.299,7.695-4.14c2.849-0.84,5.744-1.08,8.685-0.72c2.521,0.241,4.829,1.035,6.93,2.385
		c2.1,1.35,3.78,3.075,5.04,5.175c1.08,1.921,1.83,3.96,2.25,6.12c0.419,2.16,0.479,4.32,0.181,6.48
		c-0.301,2.16-0.9,4.246-1.801,6.255c-0.899,2.011-2.101,3.795-3.6,5.355l-27.72,29.79H277.418z"/>
</g>
<g>
</g>
<g>
</g>
<g>
</g>
<g>
</g>
<g>
</g>
<g>
</g>
</svg>
