<?xml version="1.0" encoding="utf-8"?>
<!-- Generator: Adobe Illustrator 16.0.0, SVG Export Plug-In . SVG Version: 6.00 Build 0)  -->
<!DOCTYPE svg PUBLIC "-//W3C//DTD SVG 1.1//EN" "http://www.w3.org/Graphics/SVG/1.1/DTD/svg11.dtd">
<svg version="1.1" id="Layer_1" xmlns="http://www.w3.org/2000/svg" xmlns:xlink="http://www.w3.org/1999/xlink" x="0px" y="0px"
	 width="420px" height="300px" viewBox="0 0 420 300" enable-background="new 0 0 420 300" xml:space="preserve">
<g>
	<path fill="#010101" d="M72.434,155.607c0-4.465-0.935-8.565-2.8-12.3c-1.867-3.865-4.434-6.933-7.7-9.2
		c-3.334-2.199-6.867-3.3-10.6-3.3c-3.8,0-7.3,1.101-10.5,3.3c-3.4,2.335-5.967,5.4-7.7,9.2c-1.934,4-2.9,8.2-2.9,12.601
		c0,4.467,0.966,8.634,2.9,12.5c1.8,3.934,4.366,7,7.7,9.199c3.133,2.268,6.633,3.4,10.5,3.4c3.8,0,7.333-1.133,10.6-3.4
		c3.2-2.133,5.766-5.199,7.7-9.199c1.866-3.733,2.8-7.833,2.8-12.301c0,4.468-0.935,8.567-2.8,12.301c-1.934,4-4.5,7.066-7.7,9.199
		c-3.268,2.268-6.8,3.4-10.6,3.4c-3.867,0-7.367-1.133-10.5-3.4c-3.334-2.199-5.9-5.266-7.7-9.199c-1.934-3.866-2.9-8.033-2.9-12.5
		c0-4.4,0.966-8.601,2.9-12.601c1.733-3.8,4.3-6.865,7.7-9.2c3.2-2.199,6.7-3.3,10.5-3.3c3.733,0,7.266,1.101,10.6,3.3
		c3.266,2.268,5.833,5.335,7.7,9.2C71.5,147.042,72.434,151.143,72.434,155.607z M72.934,131.308c-0.135,2.135-0.25,4.25-0.35,6.351
		c-0.1,2.1-0.15,4.149-0.15,6.149v31.8c0.133,11.2-1.7,18.7-5.5,22.5c-3.734,3.733-7.734,5.801-12,6.2
		c-4.135,0.4-7.6,0.333-10.4-0.2c-1.4-0.267-2.85-0.617-4.35-1.05c-1.5-0.435-3.05-0.95-4.65-1.55c1.6,0.6,3.15,1.115,4.65,1.55
		c1.5,0.433,2.95,0.783,4.35,1.05c2.8,0.533,6.266,0.601,10.4,0.2c4.266-0.399,8.266-2.467,12-6.2c3.8-3.8,5.633-11.3,5.5-22.5
		v-31.8c0-2,0.05-4.05,0.15-6.149C72.684,135.558,72.799,133.442,72.934,131.308z"/>
	<path fill="#010101" d="M90.483,137.508c0.1,2.067,0.15,4.167,0.15,6.3v37.7v-37.7C90.633,141.675,90.583,139.575,90.483,137.508
		c-0.1-2.065-0.217-4.166-0.35-6.3C90.266,133.342,90.383,135.442,90.483,137.508z M105.433,132.208
		c-5.534,2.067-10.467,8.234-14.8,18.5C94.966,140.442,99.899,134.275,105.433,132.208l3.7-0.9L105.433,132.208z"/>
	<path fill="#010101" d="M124.133,144.008c0-1.666-0.05-3.565-0.15-5.7c-0.1-2.133-0.217-4.5-0.35-7.1
		c0.133,2.6,0.25,4.967,0.35,7.1C124.083,140.442,124.133,142.342,124.133,144.008v59.6V144.008z M126.933,168.408
		c1.933,3.934,4.533,7,7.8,9.199c3.133,2.268,6.633,3.4,10.5,3.4c3.8,0,7.333-1.133,10.6-3.4c3.2-2.199,5.766-5.266,7.7-9.199
		c1.866-3.801,2.8-8,2.8-12.601c0-4.532-0.935-8.7-2.8-12.5c-1.934-3.933-4.5-7-7.7-9.2c-3.268-2.266-6.8-3.399-10.6-3.399
		c-3.867,0-7.367,1.134-10.5,3.399c-3.267,2.2-5.867,5.268-7.8,9.2c-1.867,3.935-2.8,8.034-2.8,12.3c0-4.266,0.933-8.365,2.8-12.3
		c1.933-3.933,4.533-7,7.8-9.2c3.133-2.266,6.633-3.399,10.5-3.399c3.8,0,7.333,1.134,10.6,3.399c3.2,2.2,5.766,5.268,7.7,9.2
		c1.866,3.8,2.8,7.968,2.8,12.5c0,4.601-0.935,8.8-2.8,12.601c-1.934,3.934-4.5,7-7.7,9.199c-3.268,2.268-6.8,3.4-10.6,3.4
		c-3.867,0-7.367-1.133-10.5-3.4C131.466,175.408,128.866,172.342,126.933,168.408c-1.867-3.934-2.8-8.033-2.8-12.301
		C124.133,160.375,125.065,164.475,126.933,168.408z"/>
	<path fill="#010101" d="M190.532,154.908l10-0.101L190.532,154.908l-10.1-0.101L190.532,154.908z"/>
	<path fill="#010101" d="M216.632,181.508v-37.7c0-2.133-0.034-4.232-0.101-6.3c-0.066-2.065-0.199-4.166-0.399-6.3
		c0.2,2.134,0.333,4.234,0.399,6.3c0.066,2.067,0.101,4.167,0.101,6.3V181.508z M231.531,132.208c5.4-2,10.166-1.333,14.301,2
		c4.133,3.2,6.133,10.234,6,21.1v26.2v-26.2c0.133-10.865-1.867-17.899-6-21.1C241.697,130.875,236.932,130.208,231.531,132.208
		c-5.6,2-10.566,8.167-14.899,18.5C220.965,140.375,225.932,134.208,231.531,132.208z M287.031,155.308
		c0-10.865-2.033-17.899-6.1-21.1c-4.066-3.333-8.834-4-14.3-2c-5.534,2.067-10.468,8.234-14.8,18.5
		c4.332-10.266,9.266-16.433,14.8-18.5c5.466-2,10.233-1.333,14.3,2C284.998,137.408,287.031,144.442,287.031,155.308v26.2V155.308z
		"/>
	<path fill="#010101" d="M304.131,143.808c0-2.133-0.033-4.232-0.1-6.3c-0.066-2.065-0.199-4.166-0.4-6.3
		c0.201,2.134,0.334,4.234,0.4,6.3C304.098,139.575,304.131,141.675,304.131,143.808v37.7V143.808z M318.932,132.208
		c5.465-2,10.266-1.333,14.4,2c4.133,3.2,6.133,10.234,6,21.1v26.2v-26.2c0.133-10.865-1.867-17.899-6-21.1
		C329.197,130.875,324.396,130.208,318.932,132.208c-5.535,2.067-10.467,8.234-14.801,18.5
		C308.465,140.442,313.396,134.275,318.932,132.208z"/>
</g>
<g>
</g>
<g>
</g>
<g>
</g>
<g>
</g>
<g>
</g>
<g>
</g>
</svg>
