<?xml version="1.0" encoding="utf-8"?>
<!-- Generator: Adobe Illustrator 16.0.0, SVG Export Plug-In . SVG Version: 6.00 Build 0)  -->
<!DOCTYPE svg PUBLIC "-//W3C//DTD SVG 1.1//EN" "http://www.w3.org/Graphics/SVG/1.1/DTD/svg11.dtd">
<svg version="1.1" id="Layer_1" xmlns="http://www.w3.org/2000/svg" xmlns:xlink="http://www.w3.org/1999/xlink" x="0px" y="0px"
	 width="420px" height="300px" viewBox="0 0 420 300" enable-background="new 0 0 420 300" xml:space="preserve">
<g>
	<path fill="#010101" d="M131.284,137.607c-0.467-2.8-1.167-5.532-2.1-8.199c-0.935-2.733-2.034-5.133-3.3-7.2
		c-1.268-2.066-2.667-3.866-4.2-5.4c-3.134-3.065-6.567-4.6-10.3-4.6c-3.8,0-7.234,1.534-10.3,4.6
		c-3.267,3.067-5.8,7.268-7.6,12.601c-1.8,5.334-2.7,11.066-2.7,17.199c0,6.2,0.9,11.935,2.7,17.2c1.8,5.2,4.333,9.4,7.6,12.601
		c3.066,3.066,6.5,4.6,10.3,4.6c3.732,0,7.166-1.533,10.3-4.6c1.533-1.533,2.933-3.351,4.2-5.45c1.266-2.101,2.365-4.483,3.3-7.15
		c1.866-5.466,2.8-11.266,2.8-17.399c0,6.134-0.934,11.934-2.8,17.399c-0.935,2.667-2.034,5.05-3.3,7.15
		c-1.268,2.1-2.667,3.917-4.2,5.45c-3.134,3.066-6.567,4.6-10.3,4.6c-3.8,0-7.234-1.533-10.3-4.6c-3.267-3.2-5.8-7.4-7.6-12.601
		c-1.8-5.266-2.7-11-2.7-17.2c0-6.133,0.9-11.865,2.7-17.199c1.8-5.333,4.333-9.533,7.6-12.601c3.066-3.065,6.5-4.6,10.3-4.6
		c3.732,0,7.166,1.534,10.3,4.6c1.533,1.535,2.933,3.334,4.2,5.4c1.266,2.067,2.365,4.467,3.3,7.2
		C130.117,132.075,130.817,134.808,131.284,137.607c0.465,2.801,0.7,5.734,0.7,8.801
		C131.984,143.342,131.75,140.408,131.284,137.607z"/>
	<path fill="#010101" d="M169.983,116.558c-4.6,2.5-8.567,5.851-11.9,10.05c-3.6,5-6.017,10.468-7.25,16.4
		c-1.234,5.935-1.217,11.9,0.05,17.9c0.8,6.134,3.4,11.399,7.8,15.8c2.133,1.734,4.55,2.95,7.25,3.649
		c2.7,0.7,5.45,0.883,8.25,0.551c2.8-0.4,5.4-1.301,7.8-2.7c2.4-1.4,4.466-3.233,6.2-5.5c1.8-3.065,2.982-6.351,3.55-9.851
		c0.565-3.5,0.483-7.016-0.25-10.55c-0.935-2.865-2.435-5.383-4.5-7.55c-2.067-2.166-4.5-3.815-7.3-4.95
		c-4.535-1.732-9.1-1.8-13.7-0.2c-2.134,0.601-4.05,1.567-5.75,2.9c-1.7,1.334-3.117,2.967-4.25,4.9c-2,2.8-3.7,5.8-5.1,9
		c1.4-3.2,3.1-6.2,5.1-9c1.133-1.934,2.55-3.566,4.25-4.9c1.7-1.333,3.616-2.3,5.75-2.9c4.6-1.6,9.166-1.532,13.7,0.2
		c2.8,1.135,5.232,2.784,7.3,4.95c2.065,2.167,3.565,4.685,4.5,7.55c0.733,3.534,0.815,7.05,0.25,10.55
		c-0.567,3.5-1.75,6.785-3.55,9.851c-1.734,2.267-3.8,4.1-6.2,5.5c-2.4,1.399-5,2.3-7.8,2.7c-2.8,0.332-5.55,0.149-8.25-0.551
		c-2.7-0.699-5.117-1.915-7.25-3.649c-4.4-4.4-7-9.666-7.8-15.8c-1.267-6-1.284-11.966-0.05-17.9c1.233-5.933,3.65-11.4,7.25-16.4
		C161.416,122.408,165.383,119.058,169.983,116.558s9.565-4.016,14.9-4.55C179.548,112.542,174.583,114.058,169.983,116.558z"/>
	<path fill="#010101" d="M223.482,112.108v69.4V112.108l-16.601,9.6L223.482,112.108z"/>
	<path fill="#010101" d="M242.682,180.508l30.799-33.1c1.666-1.733,3-3.716,4-5.95c1-2.233,1.666-4.55,2-6.95s0.266-4.8-0.199-7.2
		c-0.467-2.399-1.301-4.665-2.5-6.8c-1.4-2.333-3.268-4.25-5.6-5.75c-2.335-1.5-4.9-2.383-7.701-2.65
		c-3.267-0.4-6.484-0.133-9.649,0.8c-3.167,0.935-6.017,2.467-8.55,4.6c2.533-2.133,5.383-3.666,8.55-4.6
		c3.165-0.933,6.383-1.2,9.649-0.8c2.801,0.267,5.366,1.15,7.701,2.65c2.332,1.5,4.199,3.417,5.6,5.75
		c1.199,2.135,2.033,4.4,2.5,6.8c0.465,2.4,0.533,4.8,0.199,7.2s-1,4.717-2,6.95c-1,2.234-2.334,4.217-4,5.95L242.682,180.508
		h40.299H242.682z"/>
</g>
<g>
</g>
<g>
</g>
<g>
</g>
<g>
</g>
<g>
</g>
<g>
</g>
</svg>
