<?xml version="1.0" encoding="utf-8"?>
<!-- Generator: Adobe Illustrator 16.0.0, SVG Export Plug-In . SVG Version: 6.00 Build 0)  -->
<!DOCTYPE svg PUBLIC "-//W3C//DTD SVG 1.1//EN" "http://www.w3.org/Graphics/SVG/1.1/DTD/svg11.dtd">
<svg version="1.1" id="Layer_1" xmlns="http://www.w3.org/2000/svg" xmlns:xlink="http://www.w3.org/1999/xlink" x="0px" y="0px"
	 width="432px" height="288px" viewBox="0 0 432 288" enable-background="new 0 0 432 288" xml:space="preserve">
<g>
	<path d="M77.926,58.7c0.599-0.059,1.229-0.104,1.89-0.135c0.66-0.03,1.35-0.075,2.07-0.135c1.56-0.119,3.15-0.225,4.77-0.315
		c1.62-0.09,3.27-0.135,4.95-0.135c3.839,0.061,7.38,0.931,10.62,2.61c3.24,1.681,5.729,3.87,7.47,6.57c1.8,2.821,2.7,5.85,2.7,9.09
		c0,3.24-0.9,6.241-2.7,9c-1.8,2.821-4.291,5.04-7.47,6.66c-3.181,1.62-6.721,2.43-10.62,2.43c-3.361,0-6.601-0.239-9.72-0.72
		c-0.72-0.12-1.41-0.239-2.07-0.36c-0.661-0.12-1.26-0.239-1.8-0.36c0.54,0.121,1.139,0.24,1.8,0.36
		c0.66,0.121,1.35,0.241,2.07,0.36c3.119,0.48,6.359,0.72,9.72,0.72c3.899,0,7.439-0.81,10.62-2.43c3.179-1.62,5.67-3.839,7.47-6.66
		c1.8-2.759,2.7-5.76,2.7-9c0-3.24-0.9-6.269-2.7-9.09c-1.741-2.7-4.23-4.889-7.47-6.57c-3.24-1.679-6.781-2.549-10.62-2.61
		c-1.681,0-3.33,0.045-4.95,0.135c-1.62,0.09-3.21,0.196-4.77,0.315c-0.72,0.061-1.41,0.105-2.07,0.135
		C79.155,58.596,78.525,58.641,77.926,58.7v64.08V58.7z"/>
	<path d="M128.595,58.521v30.33h27.18h-27.18v33.03h30.78h-30.78V58.521h28.98H128.595z"/>
	<path d="M177.465,122.78V58.7c0.599-0.059,1.229-0.104,1.89-0.135c0.66-0.03,1.35-0.075,2.07-0.135
		c1.56-0.119,3.15-0.225,4.77-0.315c1.62-0.09,3.27-0.135,4.95-0.135c3.839,0.061,7.38,0.931,10.62,2.61
		c3.24,1.681,5.729,3.87,7.47,6.57c1.8,2.821,2.7,5.85,2.7,9.09c0,3.24-0.9,6.241-2.7,9c-1.8,2.821-4.291,5.04-7.47,6.66
		c-3.181,1.62-6.721,2.43-10.62,2.43c-3.361,0-6.601-0.239-9.72-0.72c-0.72-0.12-1.41-0.239-2.07-0.36
		c-0.661-0.12-1.26-0.239-1.8-0.36c0.54,0.121,1.139,0.24,1.8,0.36c0.66,0.121,1.35,0.241,2.07,0.36
		c3.119,0.48,6.359,0.72,9.72,0.72c3.899,0,7.439-0.81,10.62-2.43c3.179-1.62,5.67-3.839,7.47-6.66c1.8-2.759,2.7-5.76,2.7-9
		c0-3.24-0.9-6.269-2.7-9.09c-1.741-2.7-4.23-4.889-7.47-6.57c-3.24-1.679-6.781-2.549-10.62-2.61c-1.681,0-3.33,0.045-4.95,0.135
		c-1.62,0.09-3.21,0.196-4.77,0.315c-0.72,0.061-1.41,0.105-2.07,0.135c-0.661,0.031-1.291,0.076-1.89,0.135V122.78z"/>
	<path d="M262.874,83.271c-0.42-2.52-1.05-4.979-1.89-7.38c-0.841-2.459-1.831-4.619-2.97-6.48c-1.141-1.859-2.4-3.479-3.78-4.86
		c-2.821-2.759-5.91-4.14-9.27-4.14c-3.421,0-6.512,1.381-9.271,4.14c-2.94,2.761-5.22,6.541-6.84,11.34
		c-1.62,4.801-2.43,9.961-2.43,15.48c0,5.58,0.81,10.741,2.43,15.48c1.62,4.68,3.899,8.46,6.84,11.34
		c2.759,2.76,5.85,4.14,9.271,4.14c3.359,0,6.448-1.38,9.27-4.14c1.38-1.379,2.64-3.015,3.78-4.905
		c1.139-1.89,2.129-4.034,2.97-6.435c1.679-4.919,2.52-10.139,2.52-15.66c0,5.521-0.841,10.741-2.52,15.66
		c-0.841,2.4-1.831,4.545-2.97,6.435c-1.141,1.89-2.4,3.526-3.78,4.905c-2.821,2.76-5.91,4.14-9.27,4.14
		c-3.421,0-6.512-1.38-9.271-4.14c-2.94-2.88-5.22-6.66-6.84-11.34c-1.62-4.739-2.43-9.9-2.43-15.48c0-5.52,0.81-10.679,2.43-15.48
		c1.62-4.799,3.899-8.579,6.84-11.34c2.759-2.759,5.85-4.14,9.271-4.14c3.359,0,6.448,1.381,9.27,4.14
		c1.38,1.381,2.64,3.001,3.78,4.86c1.139,1.861,2.129,4.021,2.97,6.48C261.824,78.291,262.454,80.75,262.874,83.271
		c0.419,2.52,0.63,5.161,0.63,7.92C263.504,88.431,263.293,85.791,262.874,83.271z"/>
	<path d="M292.844,60.32v62.46V60.32l-14.94,8.64L292.844,60.32z"/>
</g>
<g>
</g>
<g>
</g>
<g>
</g>
<g>
</g>
<g>
</g>
<g>
</g>
</svg>
