<?xml version="1.0" encoding="utf-8"?>
<!-- Generator: Adobe Illustrator 18.0.0, SVG Export Plug-In . SVG Version: 6.00 Build 0)  -->
<!DOCTYPE svg PUBLIC "-//W3C//DTD SVG 1.1//EN" "http://www.w3.org/Graphics/SVG/1.1/DTD/svg11.dtd">
<svg version="1.1" id="Layer_1" xmlns="http://www.w3.org/2000/svg" xmlns:xlink="http://www.w3.org/1999/xlink" x="0px" y="0px"
	 viewBox="0 0 612 792" enable-background="new 0 0 612 792" xml:space="preserve">
<g>
	<path d="M134.8,174.4l10.2,20.7h-13.3c-0.7,0-1,0.3-1,0.9c0,0.7,0.3,1,1,1h14.3l6.7,13.5h1.2v2.5h-2.8l-6.8-13.5h-12.7
		c-1,0-1.9-0.3-2.5-1c-0.7-0.7-1-1.5-1-2.5c0-1.1,0.3-1.9,1-2.5c0.6-0.6,1.5-1,2.5-1h9.2l-7-13.9L116.8,213H114v-2.5h1.2l18.1-36.1
		H134.8z"/>
	<path d="M175.5,174.6c1.9,0,3.6,0.5,5,1.6c2,1.4,3,3.6,3,6.3c0,2.8-1,4.9-3,6.4c-1.5,1.1-3.2,1.6-5,1.6h-11.2c-0.7,0-1,0.3-1,0.9
		c0,0.7,0.3,1,1,1h11.2c1.9,0,3.6,0.5,5,1.6c2,1.4,3,3.6,3,6.4c0,2.8-1,5-3,6.4c-1.5,1.1-3.2,1.6-5,1.6h-11.2c-0.7,0-1,0.3-1,1
		c0,0.6,0.3,1,1,1H188v2.5h-23.7c-1,0-1.9-0.3-2.5-1c-0.7-0.7-1-1.5-1-2.5c0-1,0.3-1.9,1-2.5c0.7-0.7,1.5-1,2.5-1h11.2
		c1,0,2-0.3,2.9-0.8c1.7-0.9,2.5-2.5,2.5-4.7s-0.8-3.8-2.5-4.7c-0.9-0.5-1.9-0.8-2.9-0.8h-11.2c-1,0-1.9-0.3-2.5-1
		c-0.7-0.7-1-1.5-1-2.5c0-1,0.3-1.8,1-2.5c0.7-0.7,1.5-1,2.5-1h11.2c1,0,2-0.3,2.9-0.8c1.7-0.9,2.5-2.5,2.5-4.7
		c0-2.2-0.8-3.8-2.5-4.7c-0.9-0.5-1.9-0.7-2.9-0.7h-16.7v32.4c0,1-0.3,1.9-1,2.5c-0.7,0.7-1.5,1-2.5,1h-1.3v-2.5h1.2
		c0.7,0,1-0.4,1-1v-34.9H175.5z"/>
	<path d="M197.5,176.5c2.5-1.3,5-1.9,7.4-1.9c2.4,0,4.9,0.6,7.4,1.9c4.9,2.5,7.3,6.7,7.3,12.8c0,1-0.3,1.8-1,2.5
		c-0.7,0.7-1.5,1-2.5,1c-1,0-1.9-0.3-2.5-1c-0.6-0.7-1-1.5-1-2.5c0-1.3-0.4-2.7-1.1-4c-1.3-2.5-3.5-3.7-6.7-3.7s-5.4,1.2-6.7,3.7
		c-0.7,1.3-1,2.6-1,4v4.5c0,1.3,0.3,2.7,1,4c1.3,2.5,3.5,3.7,6.7,3.7h6.8c1.9,0,3.6,0.5,5,1.6c2,1.4,3,3.6,3,6.4c0,0.6,0.3,0.9,1,1
		h1.3l0,2.5h-1.2c-1.1,0-1.9-0.3-2.5-1c-0.6-0.6-1-1.5-1-2.5c0-2.2-0.8-3.8-2.5-4.7c-0.9-0.5-1.9-0.8-2.9-0.8h-6.8
		c-3.6,0-6.3-1.3-8.2-3.8c-1.4-1.9-2.1-4-2.1-6.4v-4.5c0-2.4,0.7-4.6,2.1-6.5c1.8-2.5,4.6-3.8,8.2-3.8c3.6,0,6.3,1.3,8.2,3.8
		c1.4,1.9,2,4,2.1,6.4c0,0.7,0.3,1,1,1c0.6,0,0.9-0.3,0.9-1c0-5-2-8.6-5.9-10.6c-2-1.1-4.1-1.6-6.3-1.6c-2.1,0-4.2,0.5-6.3,1.6
		c-3.9,2-5.9,5.6-5.9,10.6v4.5c0,5.1,2,8.6,5.9,10.6c2.1,1.1,4.2,1.6,6.3,1.6h6.8c1.1,0,1.9,0.3,2.5,1c0.6,0.6,1,1.5,1,2.5
		c0,1-0.3,1.8-1,2.5c-0.7,0.7-1.5,1-2.5,1H188v-2.5h23.8c0.7,0,1-0.3,1-1c0-0.6-0.3-1-1-1h-6.8c-2.4,0-4.9-0.6-7.4-1.9
		c-4.9-2.5-7.3-6.7-7.3-12.8v-4.5C190.2,183.3,192.7,179,197.5,176.5z"/>
	<path d="M236.7,174.6c2.8,0,5.7,0.7,8.5,2.2c5.6,2.8,8.4,7.8,8.4,14.7c0,7-2.8,11.9-8.4,14.8c-2.9,1.5-5.7,2.2-8.5,2.2h-4.5
		c-0.7,0-1.1,0.3-1.1,0.9c0,0.7,0.4,1,1.1,1h23.7v2.5h-23.6c-1,0-1.9-0.3-2.5-1c-0.7-0.6-1-1.5-1.1-2.5c0-1.1,0.3-2,1-2.6
		s1.5-1,2.6-1h4.5c2.6,0,5-0.6,7.4-1.9c4.7-2.4,7-6.6,7-12.6s-2.3-10.1-7-12.5c-2.4-1.2-4.9-1.9-7.4-1.9h-9.9v32.4
		c0,1-0.3,1.9-1,2.5c-0.7,0.7-1.5,1-2.5,1H222v-2.5h1.2c0.7,0,1-0.4,1-1v-34.9H236.7z"/>
	<path d="M281.8,174.6c1,0,1.9,0.3,2.5,1c0.7,0.7,1,1.5,1,2.5c0,1-0.3,1.9-1,2.5c-0.7,0.7-1.5,1-2.5,1h-13.4c-1,0-1.7,0.3-2.3,0.9
		c-0.6,0.6-0.9,1.4-0.9,2.3c0,1,0.3,1.7,0.9,2.3c0.6,0.6,1.4,0.9,2.3,0.9h9c1,0,1.9,0.3,2.5,1c0.7,0.7,1,1.5,1,2.5
		c0,1.1-0.3,1.9-1,2.5c-0.6,0.6-1.5,1-2.5,1h-9c-1,0-1.7,0.3-2.3,0.9c-0.6,0.6-0.9,1.4-0.9,2.3c0,2.1,1.1,3.2,3.2,3.2h13.4
		c1,0,1.9,0.3,2.5,1c0.7,0.7,1,1.5,1,2.5c0,1-0.3,1.8-1,2.5c-0.7,0.7-1.5,1-2.5,1h-15.6c-0.7,0-1,0.3-1,1c0,0.6,0.3,1,1,1h21.4v2.5
		h-21.4c-1,0-1.9-0.3-2.5-1c-0.7-0.7-1-1.5-1-2.5c0-1,0.3-1.9,1-2.5c0.7-0.7,1.5-1,2.5-1h15.6c0.7,0,1-0.3,1-0.9c0-0.7-0.3-1-1-1
		h-13.4c-1.7,0-3-0.5-4.1-1.6c-1.1-1.1-1.6-2.5-1.6-4.2c0-1.7,0.5-3.1,1.6-4.1c1.1-1.1,2.5-1.6,4.1-1.6h9c0.6,0,1-0.3,1-1
		c0-0.6-0.3-0.9-1-0.9h-9c-1.7,0-3-0.5-4.1-1.6c-1.1-1.1-1.6-2.5-1.6-4.1c0-1.7,0.5-3,1.6-4.1c1.1-1.1,2.5-1.6,4.1-1.6h13.4
		c0.7,0,1-0.3,1-1c0-0.6-0.3-1-1-1h-21.1v32.4c0,1-0.3,1.9-1,2.5c-0.7,0.7-1.5,1-2.5,1h-1.3v-2.5h1.2c0.7,0,1-0.4,1-1v-34.9H281.8z"
		/>
	<path d="M313.4,174.6c1,0,1.9,0.3,2.5,1c0.7,0.7,1,1.5,1,2.5c0,1-0.3,1.9-1,2.5c-0.7,0.7-1.5,1-2.5,1H300c-1,0-1.7,0.3-2.3,0.9
		c-0.6,0.6-0.9,1.4-0.9,2.3c0,1,0.3,1.7,0.9,2.3c0.6,0.6,1.4,0.9,2.3,0.9h9c1,0,1.9,0.3,2.5,1c0.7,0.7,1,1.5,1,2.5
		c0,1.1-0.3,1.9-1,2.5c-0.6,0.6-1.5,1-2.5,1h-9c-1,0-1.7,0.3-2.3,0.9c-0.6,0.6-0.9,1.4-0.9,2.3v12.2h22.4v2.5h-25v-14.8
		c0-1.7,0.5-3,1.6-4.1c1.1-1.1,2.5-1.6,4.1-1.6h9c0.6,0,1-0.3,1-1c0-0.6-0.3-0.9-1-0.9h-9c-1.7,0-3-0.5-4.1-1.6
		c-1.1-1.1-1.6-2.5-1.6-4.1c0-1.7,0.5-3,1.6-4.1c1.1-1.1,2.5-1.6,4.1-1.6h13.4c0.7,0,1-0.3,1-1c0-0.6-0.3-1-1-1h-21.1v32.4
		c0,1-0.3,1.9-1,2.5c-0.7,0.7-1.5,1-2.5,1h-1.3v-2.5h1.2c0.7,0,1-0.4,1-1v-34.9H313.4z"/>
	<path d="M325.2,176.7c1.9-1.4,4-2.1,6.4-2.1h9c2.4,0,4.5,0.7,6.4,2.1c2.5,1.9,3.8,4.6,3.8,8.2v2.3c0,1-0.3,1.8-1,2.5
		c-0.7,0.7-1.5,1-2.5,1c-1,0-1.9-0.3-2.5-1c-0.7-0.7-1-1.5-1-2.5v-2.3c0-1-0.3-1.7-0.9-2.3c-0.6-0.6-1.4-0.9-2.3-0.9h-9
		c-1,0-1.8,0.3-2.4,0.9c-0.6,0.6-0.9,1.4-0.9,2.4v13.4c0,1,0.3,1.8,0.9,2.4c0.6,0.6,1.4,0.9,2.4,0.9h11.2c0.7,0,1-0.3,1-1
		c0-0.6-0.3-1-1-1H336c-1,0-1.8-0.3-2.5-1c-0.7-0.7-1-1.5-1-2.5c0-1,0.3-1.9,1-2.5c0.7-0.7,1.5-1,2.5-1h6.7c2.4,0,4.3,0.7,5.8,2.2
		c1.5,1.5,2.2,3.4,2.2,5.8v9c0,0.6,0.3,1,1,1h1.3v2.5h-1.3c-1,0-1.9-0.3-2.5-1c-0.7-0.7-1-1.5-1-2.5v-9c0-2.2-0.8-3.8-2.5-4.7
		c-0.9-0.5-1.9-0.8-3-0.8h-6.7c-0.7,0-1,0.3-1,1c0,0.6,0.3,0.9,1,0.9h6.8c1.1,0,1.9,0.3,2.6,1c0.6,0.6,1,1.5,1,2.6
		c0,1.1-0.3,1.9-1,2.6c-0.6,0.6-1.5,1-2.6,1h-11.2c-1.7,0-3.1-0.5-4.1-1.6c-1.1-1.1-1.6-2.5-1.6-4.1v-13.5c0-1.7,0.5-3,1.6-4.1
		c1.1-1.1,2.5-1.6,4.1-1.6h9c1.7,0,3.1,0.5,4.1,1.6c1.1,1.1,1.6,2.5,1.6,4.2v2.3c0,0.6,0.3,1,1,1c0.6,0,0.9-0.3,0.9-1v-2.3
		c0-3.2-1.2-5.4-3.7-6.7c-1.3-0.7-2.6-1-4-1h-9c-1.3,0-2.7,0.3-4,1c-2.5,1.3-3.7,3.5-3.7,6.7v13.4c0,3.7,1.6,6.1,4.9,7.2
		c1,0.4,2,0.5,2.9,0.5h11.2c1.1,0,1.9,0.3,2.5,1c0.6,0.6,1,1.5,1,2.5c0,1.1-0.3,1.9-1,2.5c-0.6,0.6-1.5,1-2.5,1h-23.7v-2.5h23.7
		c0.7,0,1-0.3,1-1c0-0.6-0.3-1-1-1h-11.2c-2.4,0-4.5-0.7-6.4-2.1c-2.5-1.9-3.8-4.6-3.8-8.2v-13.4
		C321.4,181.2,322.6,178.5,325.2,176.7z"/>
</g>
</svg>
