<?xml version="1.0" encoding="utf-8"?>
<!-- Generator: Adobe Illustrator 18.0.0, SVG Export Plug-In . SVG Version: 6.00 Build 0)  -->
<!DOCTYPE svg PUBLIC "-//W3C//DTD SVG 1.1//EN" "http://www.w3.org/Graphics/SVG/1.1/DTD/svg11.dtd">
<svg version="1.1" id="Layer_1" xmlns="http://www.w3.org/2000/svg" xmlns:xlink="http://www.w3.org/1999/xlink" x="0px" y="0px"
	 viewBox="0 0 59.8 9.6" enable-background="new 0 0 59.8 9.6" xml:space="preserve">
<g>
	<path d="M5.2-0.1l2.6,5.2H4.4c-0.2,0-0.3,0.1-0.3,0.2c0,0.2,0.1,0.2,0.3,0.2H8l1.7,3.4H10v0.6H9.3L7.6,6.2H4.4C4.2,6.2,4,6.1,3.8,6
		C3.6,5.8,3.6,5.6,3.6,5.3c0-0.3,0.1-0.5,0.2-0.6C4,4.5,4.2,4.4,4.4,4.4h2.3L5,1L0.7,9.6H0V8.9h0.3l4.5-9H5.2z"/>
	<path d="M15.4,0c0.5,0,0.9,0.1,1.3,0.4c0.5,0.4,0.7,0.9,0.7,1.6c0,0.7-0.2,1.2-0.7,1.6C16.3,3.8,15.9,4,15.4,4h-2.8
		c-0.2,0-0.3,0.1-0.3,0.2c0,0.2,0.1,0.2,0.3,0.2h2.8c0.5,0,0.9,0.1,1.3,0.4c0.5,0.4,0.7,0.9,0.7,1.6s-0.2,1.2-0.7,1.6
		c-0.4,0.3-0.8,0.4-1.3,0.4h-2.8c-0.2,0-0.3,0.1-0.3,0.2s0.1,0.2,0.3,0.2h5.9v0.6h-5.9c-0.3,0-0.5-0.1-0.6-0.2
		c-0.2-0.2-0.3-0.4-0.3-0.6s0.1-0.5,0.3-0.6s0.4-0.2,0.6-0.2h2.8c0.3,0,0.5-0.1,0.7-0.2c0.4-0.2,0.6-0.6,0.6-1.2
		c0-0.6-0.2-0.9-0.6-1.2c-0.2-0.1-0.5-0.2-0.7-0.2h-2.8c-0.3,0-0.5-0.1-0.6-0.2s-0.3-0.4-0.3-0.6c0-0.2,0.1-0.5,0.3-0.6
		s0.4-0.3,0.6-0.3h2.8c0.2,0,0.5-0.1,0.7-0.2c0.4-0.2,0.6-0.6,0.6-1.2c0-0.6-0.2-1-0.6-1.2c-0.2-0.1-0.5-0.2-0.7-0.2h-4.2v8.1
		c0,0.3-0.1,0.5-0.2,0.6c-0.2,0.2-0.4,0.2-0.6,0.2H10V8.9h0.3c0.2,0,0.3-0.1,0.3-0.2V0H15.4z"/>
	<path d="M19.3,0.2C19.5,0.1,19.7,0,19.9,0c0.3,0,0.5,0.1,0.6,0.2s0.2,0.4,0.2,0.6v5c0,0.2,0.1,0.4,0.2,0.6c0.1,0.1,0.3,0.2,0.6,0.2
		h2.2c0.3,0,0.5,0.1,0.6,0.3c0.2,0.2,0.2,0.4,0.2,0.6c0,0.3-0.1,0.5-0.2,0.6c-0.2,0.2-0.4,0.2-0.6,0.2h-2.8c-0.2,0-0.3,0.1-0.3,0.2
		s0.1,0.2,0.3,0.2h4.2v0.6h-4.2c-0.3,0-0.5-0.1-0.6-0.2c-0.2-0.2-0.3-0.4-0.3-0.6s0.1-0.5,0.3-0.6s0.4-0.2,0.6-0.2h2.8
		c0.2,0,0.2-0.1,0.2-0.2c0-0.2-0.1-0.2-0.2-0.2h-2.2c-0.4,0-0.8-0.1-1-0.4s-0.4-0.6-0.4-1v-5c0-0.2-0.1-0.2-0.2-0.2
		s-0.2,0.1-0.2,0.2v7.8c0,0.3-0.1,0.5-0.2,0.6c-0.2,0.2-0.4,0.2-0.6,0.2h-0.3V8.9h0.3c0.2,0,0.3-0.1,0.3-0.2V0.9
		C19.1,0.6,19.1,0.4,19.3,0.2z"/>
	<path d="M31.8,0c0.3,0,0.5,0.1,0.6,0.2s0.3,0.4,0.3,0.6s-0.1,0.5-0.3,0.6S32,1.7,31.8,1.7h-3.4c-0.2,0-0.4,0.1-0.6,0.2
		c-0.1,0.1-0.2,0.3-0.2,0.6s0.1,0.4,0.2,0.6c0.1,0.1,0.3,0.2,0.6,0.2h2.2c0.3,0,0.5,0.1,0.6,0.2c0.2,0.2,0.2,0.4,0.2,0.6
		c0,0.3-0.1,0.5-0.2,0.6s-0.4,0.2-0.6,0.2h-2.2c-0.2,0-0.4,0.1-0.6,0.2c-0.1,0.1-0.2,0.3-0.2,0.6c0,0.5,0.3,0.8,0.8,0.8h3.4
		c0.3,0,0.5,0.1,0.6,0.3s0.3,0.4,0.3,0.6c0,0.2-0.1,0.5-0.3,0.6S32,8.5,31.8,8.5h-3.9c-0.2,0-0.3,0.1-0.3,0.2s0.1,0.2,0.3,0.2h5.4
		v0.6h-5.4c-0.3,0-0.5-0.1-0.6-0.2C27.1,9.2,27,9,27,8.7s0.1-0.5,0.3-0.6s0.4-0.2,0.6-0.2h3.9c0.2,0,0.3-0.1,0.3-0.2
		c0-0.2-0.1-0.2-0.3-0.2h-3.4c-0.4,0-0.8-0.1-1-0.4c-0.3-0.3-0.4-0.6-0.4-1s0.1-0.8,0.4-1c0.3-0.3,0.6-0.4,1-0.4h2.2
		c0.2,0,0.2-0.1,0.2-0.2c0-0.2-0.1-0.2-0.2-0.2h-2.2c-0.4,0-0.8-0.1-1-0.4C27.1,3.3,27,3,27,2.5s0.1-0.8,0.4-1
		c0.3-0.3,0.6-0.4,1-0.4h3.4C31.9,1.1,32,1,32,0.9s-0.1-0.2-0.3-0.2h-5.3v8.1c0,0.3-0.1,0.5-0.2,0.6c-0.2,0.2-0.4,0.2-0.6,0.2h-0.3
		V8.9h0.3c0.2,0,0.3-0.1,0.3-0.2V0H31.8z"/>
	<path d="M34,0.2C34.2,0.1,34.4,0,34.6,0h6.7c0.3,0,0.5,0.1,0.6,0.2s0.2,0.4,0.2,0.6S42.2,1.3,42,1.5s-0.4,0.2-0.6,0.2h-2.5v6.4
		c0,0.5,0.3,0.8,0.8,0.8h3.1v0.6h-3.1c-0.4,0-0.8-0.1-1-0.4c-0.3-0.3-0.4-0.6-0.4-1v-7h3.1c0.2,0,0.3-0.1,0.3-0.2s-0.1-0.2-0.3-0.2
		h-6.7c-0.2,0-0.3,0.1-0.3,0.2s0.1,0.2,0.3,0.2h3.1v7c0,0.4-0.1,0.8-0.4,1c-0.3,0.3-0.6,0.4-1,0.4h-3.1V8.9h3.1
		c0.5,0,0.8-0.3,0.8-0.8V1.7h-2.5c-0.3,0-0.5-0.1-0.6-0.2c-0.2-0.2-0.2-0.4-0.2-0.6C33.8,0.6,33.8,0.4,34,0.2z"/>
	<path d="M44.6,1.2c0.8-0.8,1.8-1.2,3-1.2c1.2,0,2.2,0.4,3,1.2s1.2,1.8,1.2,3c0,1-0.3,1.9-1,2.7c-0.6,0.8-1.4,1.3-2.4,1.5v0.6h3.9
		v0.6h-4.6V7.8l0.3,0c0.9-0.1,1.6-0.5,2.2-1.2c0.6-0.7,0.9-1.5,0.9-2.4c0-1-0.4-1.9-1.1-2.6s-1.6-1.1-2.6-1.1c-1,0-1.9,0.4-2.6,1.1
		S44,3.2,44,4.2c0,0.9,0.3,1.7,0.9,2.4c0.6,0.7,1.3,1.1,2.2,1.2l0.3,0v1.8h-4.6V8.9h3.9V8.4c-1-0.2-1.8-0.7-2.4-1.5
		c-0.6-0.8-1-1.7-1-2.7C43.4,3,43.8,2,44.6,1.2z"/>
	<path d="M57.8,0.2C57.9,0.1,58.1,0,58.4,0c0.3,0,0.5,0.1,0.6,0.2c0.2,0.2,0.2,0.4,0.2,0.6v7.8c0,0.2,0.1,0.3,0.3,0.3h0.3l0,0.6
		l-0.3,0c-0.6-0.1-0.9-0.4-0.9-0.9V0.9c0-0.2-0.1-0.3-0.2-0.3c-0.2,0-0.2,0.1-0.2,0.3v8.7h-0.5l-4-7.9v7c0,0.3-0.1,0.5-0.2,0.6
		c-0.2,0.2-0.4,0.2-0.6,0.2h-0.3V8.9h0.3c0.2,0,0.3-0.1,0.3-0.3V0h0.5l4,7.9V0.9C57.5,0.6,57.6,0.4,57.8,0.2z"/>
</g>
<g>
</g>
<g>
</g>
<g>
</g>
<g>
</g>
<g>
</g>
<g>
</g>
</svg>
