<?xml version="1.0" encoding="utf-8"?>
<!-- Generator: Adobe Illustrator 18.0.0, SVG Export Plug-In . SVG Version: 6.00 Build 0)  -->
<!DOCTYPE svg PUBLIC "-//W3C//DTD SVG 1.1//EN" "http://www.w3.org/Graphics/SVG/1.1/DTD/svg11.dtd">
<svg version="1.1" id="Layer_1" xmlns="http://www.w3.org/2000/svg" xmlns:xlink="http://www.w3.org/1999/xlink" x="0px" y="0px"
	 viewBox="0 0 306 51" enable-background="new 0 0 306 51" xml:space="preserve">
<g>
	<path d="M37.6,51H21.3c-0.7,0-1.3-0.2-1.8-0.5c-0.5-0.3-1-0.8-1.3-1.3L8.4,30c-0.8-1.4-1.2-2.9-1.2-4.4c0-1.5,0.4-3,1.2-4.3
		l9.8-19.2c0.7-1.2,1.8-1.9,3.1-1.9h16.3H21.3c-1.3,0-2.4,0.6-3.1,1.9L8.4,21.3c-0.8,1.3-1.2,2.8-1.2,4.3c0,1.5,0.4,3,1.2,4.4
		l9.8,19.2c0.3,0.5,0.8,1,1.3,1.3c0.5,0.3,1.1,0.5,1.8,0.5H37.6z"/>
	<path d="M53.1,25.8v17.6c0,1.1,0.4,1.9,1.1,2.5l4.7,4c0.8,0.7,1.7,1.1,2.6,1.1H73c1,0,1.8-0.4,2.5-1.1l4.7-4
		c0.7-0.6,1.1-1.5,1.1-2.5V25.7c0-1-0.4-1.9-1.1-2.6l-4.7-4C74.9,18.4,74,18,73,18H61.4c-1,0-1.9,0.4-2.6,1.1l-4.7,4
		c-0.7,0.7-1.1,1.6-1.1,2.6c0-1,0.4-1.9,1.1-2.6l4.7-4c0.7-0.7,1.6-1.1,2.6-1.1H73c1,0,1.8,0.4,2.5,1.1l4.7,4
		c0.7,0.7,1.1,1.6,1.1,2.6v17.7c0,1.1-0.4,1.9-1.1,2.5l-4.7,4C74.8,50.6,74,51,73,51H61.4c-0.9,0-1.8-0.4-2.6-1.1l-4.7-4
		c-0.7-0.6-1.1-1.5-1.1-2.5V25.8z"/>
	<path d="M97.8,27.3l13.2-8.6c0.6-0.4,1.2-0.6,2-0.6h4.7c1.9,0,3.5,0.6,4.9,1.9c1.4,1.3,2.2,2.8,2.3,4.7l1.2,26.4l-1.2-26.4
		c-0.1-1.9-0.9-3.4-2.3-4.7c-1.4-1.3-3-1.9-4.9-1.9H113c-0.8,0-1.4,0.2-2,0.6L97.8,27.3V51V18V27.3z"/>
	<path d="M168.6,49.5c-1.3,1-2.8,1.5-4.5,1.5h-7.9c-1,0-2-0.2-2.8-0.6c-0.9-0.4-1.7-0.9-2.3-1.5s-1.2-1.4-1.5-2.3
		c-0.4-0.9-0.6-1.8-0.6-2.8V18h-6.5h23.8h-17.4V3.9v39.8c0,1,0.2,2,0.6,2.8c0.4,0.9,0.9,1.7,1.5,2.3s1.4,1.2,2.3,1.5
		c0.9,0.4,1.8,0.6,2.8,0.6h7.9C165.8,51,167.3,50.5,168.6,49.5c1.3-1,2.1-2.3,2.5-3.9C170.7,47.2,169.8,48.5,168.6,49.5z"/>
	<path d="M215.7,44.7L204.8,51h-10.2c-1,0-1.9-0.2-2.8-0.6c-0.9-0.4-1.6-0.9-2.3-1.5c-0.6-0.6-1.2-1.4-1.5-2.3
		c-0.4-0.9-0.6-1.8-0.6-2.8v-3.6c0-1,0.2-1.9,0.5-2.8c0.4-0.9,0.9-1.6,1.5-2.3c0.6-0.6,1.3-1.2,2.1-1.5c0.8-0.4,1.6-0.6,2.4-0.6
		h21.7H194c-0.8,0-1.6,0.2-2.4,0.6c-0.8,0.4-1.5,0.9-2.1,1.5c-0.6,0.6-1.1,1.4-1.5,2.3c-0.4,0.9-0.5,1.8-0.5,2.8v3.6
		c0,1,0.2,2,0.6,2.8c0.4,0.9,0.9,1.7,1.5,2.3c0.6,0.6,1.4,1.2,2.3,1.5c0.9,0.4,1.8,0.6,2.8,0.6h10.2L215.7,44.7z M215.7,51V25.3
		c0-1-0.2-2-0.6-2.8c-0.4-0.9-0.9-1.7-1.5-2.3c-0.6-0.6-1.4-1.2-2.3-1.5c-0.9-0.4-1.8-0.6-2.8-0.6H194h14.5c1,0,2,0.2,2.8,0.6
		c0.9,0.4,1.7,0.9,2.3,1.5c0.6,0.6,1.2,1.4,1.5,2.3c0.4,0.9,0.6,1.8,0.6,2.8V51z"/>
	<path d="M244.3,51c-1.1,0-1.9-0.4-2.5-1.1l-8.4-7c-0.7-0.7-1.1-1.6-1.1-2.5V28.7c0-0.9,0.4-1.8,1.1-2.6l8.4-7c0.7-0.7,1.5-1,2.5-1
		h15.9h-15.9c-1,0-1.8,0.3-2.5,1l-8.4,7c-0.7,0.8-1.1,1.7-1.1,2.6v11.7c0,1,0.4,1.8,1.1,2.5l8.4,7C242.4,50.6,243.2,51,244.3,51
		h15.9H244.3z"/>
	<path d="M302.9,49.5c-1.3,1-2.8,1.5-4.5,1.5h-7.9c-1,0-2-0.2-2.8-0.6c-0.9-0.4-1.7-0.9-2.3-1.5s-1.2-1.4-1.5-2.3
		c-0.4-0.9-0.6-1.8-0.6-2.8V18h-6.5h23.8h-17.4V3.9v39.8c0,1,0.2,2,0.6,2.8c0.4,0.9,0.9,1.7,1.5,2.3s1.4,1.2,2.3,1.5
		c0.9,0.4,1.8,0.6,2.8,0.6h7.9C300.1,51,301.6,50.5,302.9,49.5c1.3-1,2.1-2.3,2.5-3.9C305,47.2,304.2,48.5,302.9,49.5z"/>
</g>
</svg>
