<?xml version="1.0" encoding="utf-8"?>
<!-- Generator: Adobe Illustrator 18.0.0, SVG Export Plug-In . SVG Version: 6.00 Build 0)  -->
<!DOCTYPE svg PUBLIC "-//W3C//DTD SVG 1.1//EN" "http://www.w3.org/Graphics/SVG/1.1/DTD/svg11.dtd">
<svg version="1.1" id="Layer_1" xmlns="http://www.w3.org/2000/svg" xmlns:xlink="http://www.w3.org/1999/xlink" x="0px" y="0px"
	 viewBox="0 0 306 51" enable-background="new 0 0 306 51" xml:space="preserve">
<g>
	<path d="M8.3,0.3h28.9H8.3v18.8H30H8.3V51V0.3z"/>
	<path d="M81.4,44.7L70.5,51H60.3c-1,0-1.9-0.2-2.8-0.6c-0.9-0.4-1.6-0.9-2.3-1.5s-1.2-1.4-1.5-2.3c-0.4-0.9-0.6-1.8-0.6-2.8v-3.6
		c0-1,0.2-1.9,0.5-2.8c0.4-0.9,0.9-1.6,1.5-2.3c0.6-0.6,1.3-1.2,2.1-1.5c0.8-0.4,1.6-0.6,2.4-0.6h21.7H59.6c-0.8,0-1.6,0.2-2.4,0.6
		c-0.8,0.4-1.5,0.9-2.1,1.5c-0.6,0.6-1.1,1.4-1.5,2.3c-0.4,0.9-0.5,1.8-0.5,2.8v3.6c0,1,0.2,2,0.6,2.8c0.4,0.9,0.9,1.7,1.5,2.3
		s1.4,1.2,2.3,1.5c0.9,0.4,1.8,0.6,2.8,0.6h10.2L81.4,44.7z M81.4,51V25.3c0-1-0.2-2-0.6-2.8c-0.4-0.9-0.9-1.7-1.5-2.3
		s-1.4-1.2-2.3-1.5C76,18.2,75.1,18,74.1,18H59.6h14.5c1,0,2,0.2,2.8,0.6c0.9,0.4,1.7,0.9,2.3,1.5s1.2,1.4,1.5,2.3
		c0.4,0.9,0.6,1.8,0.6,2.8V51z"/>
	<path d="M109.9,51c-1.1,0-1.9-0.4-2.5-1.1l-8.4-7c-0.7-0.7-1.1-1.6-1.1-2.5V28.7c0-0.9,0.4-1.8,1.1-2.6l8.4-7c0.7-0.7,1.5-1,2.5-1
		h15.9h-15.9c-1,0-1.8,0.3-2.5,1l-8.4,7c-0.7,0.8-1.1,1.7-1.1,2.6v11.7c0,1,0.4,1.8,1.1,2.5l8.4,7C108,50.6,108.9,51,109.9,51h15.9
		H109.9z"/>
	<path d="M156.7,18.1V51h-10.9h21.7h-10.9V18.1h-10.9H156.7z M154.9,1.6v0.9V1.6V0.7V1.6z"/>
	<path d="M187.4,27.3l13.2-8.6c0.6-0.4,1.2-0.6,2-0.6h4.7c1.9,0,3.5,0.6,4.9,1.9c1.4,1.3,2.2,2.8,2.3,4.7l1.2,26.4l-1.2-26.4
		c-0.1-1.9-0.9-3.4-2.3-4.7c-1.4-1.3-3-1.9-4.9-1.9h-4.7c-0.8,0-1.4,0.2-2,0.6L187.4,27.3V51V18V27.3z"/>
	<path d="M259.3,40.2l-7.9,7.2c-0.7,0.7-1.6,1.1-2.6,1.1h-8.3c-1,0-1.9-0.4-2.6-1.1l-4.7-4c-0.7-0.7-1.1-1.6-1.1-2.6V25.7
		c0-1,0.4-1.8,1.1-2.5l4.7-4c0.8-0.7,1.6-1,2.6-1h8.3c1,0,1.8,0.3,2.4,0.9l8.1,7.3c0.7,0.7,1.1,1.5,1.1,2.5c0-1-0.4-1.8-1.1-2.5
		l-8.1-7.3c-0.6-0.6-1.4-0.9-2.4-0.9h-8.3c-1,0-1.8,0.3-2.6,1l-4.7,4c-0.7,0.7-1.1,1.5-1.1,2.5v15.2c0,1,0.4,1.9,1.1,2.6l4.7,4
		c0.7,0.7,1.6,1.1,2.6,1.1h8.3c1,0,1.9-0.4,2.6-1.1L259.3,40.2c0.7-0.7,1.1-1.6,1.1-2.6C260.4,38.6,260.1,39.5,259.3,40.2z
		 M252.1,66.6c1,0,1.8-0.4,2.5-1.1l4.7-4c0.7-0.6,1.1-1.5,1.1-2.5V18.1V59c0,1.1-0.4,1.9-1.1,2.5l-4.7,4
		C254,66.2,253.2,66.6,252.1,66.6h-16.3H252.1z"/>
</g>
</svg>
