<?xml version="1.0" encoding="utf-8"?>
<!-- Generator: Adobe Illustrator 18.0.0, SVG Export Plug-In . SVG Version: 6.00 Build 0)  -->
<!DOCTYPE svg PUBLIC "-//W3C//DTD SVG 1.1//EN" "http://www.w3.org/Graphics/SVG/1.1/DTD/svg11.dtd">
<svg version="1.1" id="Layer_1" xmlns="http://www.w3.org/2000/svg" xmlns:xlink="http://www.w3.org/1999/xlink" x="0px" y="0px"
	 viewBox="0 0 306 51" enable-background="new 0 0 306 51" xml:space="preserve">
<g>
	<path d="M8.3,0.3h28.9H8.3v18.8H30H8.3V51V0.3z"/>
	<path d="M81.4,44.7L70.5,51H60.3c-1,0-1.9-0.2-2.8-0.6c-0.9-0.4-1.6-0.9-2.3-1.5s-1.2-1.4-1.5-2.3c-0.4-0.9-0.6-1.8-0.6-2.8v-3.6
		c0-1,0.2-1.9,0.5-2.8c0.4-0.9,0.9-1.6,1.5-2.3c0.6-0.6,1.3-1.2,2.1-1.5c0.8-0.4,1.6-0.6,2.4-0.6h21.7H59.6c-0.8,0-1.6,0.2-2.4,0.6
		c-0.8,0.4-1.5,0.9-2.1,1.5c-0.6,0.6-1.1,1.4-1.5,2.3c-0.4,0.9-0.5,1.8-0.5,2.8v3.6c0,1,0.2,2,0.6,2.8c0.4,0.9,0.9,1.7,1.5,2.3
		s1.4,1.2,2.3,1.5c0.9,0.4,1.8,0.6,2.8,0.6h10.2L81.4,44.7z M81.4,51V25.3c0-1-0.2-2-0.6-2.8c-0.4-0.9-0.9-1.7-1.5-2.3
		s-1.4-1.2-2.3-1.5C76,18.2,75.1,18,74.1,18H59.6h14.5c1,0,2,0.2,2.8,0.6c0.9,0.4,1.7,0.9,2.3,1.5s1.2,1.4,1.5,2.3
		c0.4,0.9,0.6,1.8,0.6,2.8V51z"/>
	<path d="M125.4,20.2c-0.7-0.7-1.5-1.2-2.3-1.5c-0.9-0.4-1.8-0.5-2.8-0.5H104c-1.1,0-2.1,0.3-3,1c-0.9,0.7-1.5,1.6-1.8,2.7
		c-0.3,1.1-0.3,2.2,0.2,3.2c0.5,1.1,1.2,1.9,2.1,2.4l20.7,10c1.4,0.8,2.4,2,3,3.5c0.6,1.5,0.7,3.1,0.4,4.6c-0.4,1.6-1.3,2.9-2.6,3.9
		c-1.3,1-2.8,1.5-4.4,1.5h-15.3c-1,0-1.9-0.2-2.8-0.5c-0.9-0.4-1.7-0.9-2.3-1.5c0.7,0.7,1.5,1.2,2.3,1.5c0.9,0.4,1.8,0.5,2.8,0.5
		h15.3c1.6,0,3.1-0.5,4.4-1.5c1.3-1,2.2-2.3,2.6-3.9c0.4-1.6,0.3-3.1-0.4-4.6c-0.6-1.5-1.6-2.7-3-3.5l-20.7-10
		c-1-0.6-1.7-1.4-2.1-2.4c-0.5-1.1-0.5-2.1-0.2-3.2c0.3-1.1,0.9-2,1.8-2.7c0.9-0.7,1.9-1,3-1h16.3c1,0,1.9,0.2,2.8,0.5
		C124,19,124.8,19.5,125.4,20.2z"/>
	<path d="M168.6,49.5c-1.3,1-2.8,1.5-4.5,1.5h-7.9c-1,0-2-0.2-2.8-0.6c-0.9-0.4-1.7-0.9-2.3-1.5s-1.2-1.4-1.5-2.3
		c-0.4-0.9-0.6-1.8-0.6-2.8V18h-6.5h23.8h-17.4V3.9v39.8c0,1,0.2,2,0.6,2.8c0.4,0.9,0.9,1.7,1.5,2.3s1.4,1.2,2.3,1.5
		c0.9,0.4,1.8,0.6,2.8,0.6h7.9C165.8,51,167.3,50.5,168.6,49.5c1.3-1,2.1-2.3,2.5-3.9C170.7,47.2,169.8,48.5,168.6,49.5z"/>
</g>
</svg>
