<?xml version="1.0" encoding="utf-8"?>
<!-- Generator: Adobe Illustrator 18.0.0, SVG Export Plug-In . SVG Version: 6.00 Build 0)  -->
<!DOCTYPE svg PUBLIC "-//W3C//DTD SVG 1.1//EN" "http://www.w3.org/Graphics/SVG/1.1/DTD/svg11.dtd">
<svg version="1.1" id="Layer_1" xmlns="http://www.w3.org/2000/svg" xmlns:xlink="http://www.w3.org/1999/xlink" x="0px" y="0px"
	 viewBox="0 0 612 792" enable-background="new 0 0 612 792" xml:space="preserve">
<g>
	<path d="M16.6,345.6h57.8H16.6v37.6H60H16.6V447V345.6z"/>
	<path d="M106.2,401l26.4-18.6c1.2-0.8,2.6-1.2,4-1.2h9.4c2,0,3.8,0.4,5.6,1.2c1.8,0.8,3.4,1.8,4.6,3.2c1.4,1.4,2.4,2.8,3.2,4.6
		c0.8,1.8,1.2,3.6,1.2,5.6c0-2-0.4-4-1.2-5.6c-0.8-1.8-1.8-3.4-3-4.6c-1.2-1.2-2.8-2.4-4.6-3c-1.8-0.8-3.6-1.2-5.6-1.2h-9.4
		c-1.6,0-2.8,0.4-4,1.2L106.2,401v46v-65.8V401z"/>
	<path d="M224,381.2V447h-21.8h43.4H224V381.2h-21.8H224z M220.4,348.2v1.8V348.2v-1.8V348.2z"/>
	<path d="M285.2,417.4h55v-21c0-2-0.8-3.6-2.2-5l-9.4-8c-1.4-1.4-3-2-5.2-2H302c-2,0-3.6,0.6-4.8,1.8l-9.8,8.4c-1.4,1.4-2.2,3-2.2,5
		V432c0,2.2,0.8,4,2.2,5.2l9.4,8c1.4,1.4,3.2,2.2,5.2,2.2h38.4H302c-2,0-3.8-0.8-5.2-2.2l-9.4-8c-1.4-1.2-2.2-3-2.2-5.2v-35.6
		c0-2,0.8-3.6,2.2-5l9.8-8.4c1.2-1.2,2.8-1.8,4.8-1.8h21.6c2.2,0,3.8,0.6,5.2,2l9.4,8c1.4,1.4,2.2,3,2.2,5v21h-55.2V417.4z"/>
	<path d="M374.8,399.6l26.4-17.2c1.2-0.8,2.4-1.2,4-1.2h9.4c3.8,0,7,1.2,9.8,3.8s4.4,5.6,4.6,9.4l2.4,52.8l-2.4-52.8
		c-0.2-3.8-1.8-6.8-4.6-9.4c-2.8-2.6-6-3.8-9.8-3.8h-9.4c-1.6,0-2.8,0.4-4,1.2L374.8,399.6V447v-66V399.6z"/>
	<path d="M518.8,430.4l-16,14.4c-1.4,1.4-3,2.2-5.2,2.2H481c-1,0-2,0-2.8-0.6c-0.8-0.4-1.6-1-2.4-1.6l-9.4-8
		c-1.4-1.6-2.2-3.4-2.2-5.2v-35.2c0-1.8,0.8-3.6,2.2-5.2l9.4-8c1.6-1.4,3.4-2.2,5.2-2.2h16.6c1,0,2,0.2,2.8,0.6s1.6,1,2.4,1.6
		l16,14.6c1.2,1.6,2,3.2,2,5c0-1.8-0.8-3.6-2-5l-16-14.6c-0.8-0.6-1.6-1-2.4-1.6c-0.8-0.4-1.8-0.6-2.8-0.6H481
		c-1.8,0-3.6,0.8-5.2,2.2l-9.4,8c-1.4,1.6-2.2,3.4-2.2,5.2v35.4c0,1.8,0.8,3.6,2.2,5.2l9.4,8c0.8,0.6,1.6,1.2,2.4,1.6
		s1.8,0.6,2.8,0.6h16.6c2.2,0,3.8-0.8,5.2-2.2L518.8,430.4c1.4-1.6,2-3.2,2-5.2C520.8,427.2,520.2,429,518.8,430.4z M520.8,387v60
		V387v-34.2V387z"/>
	<path d="M604.4,382.2c-1.8-0.8-3.6-1-5.6-1h-32.6c-2.2,0-4.2,0.6-6,2c-1.8,1.4-3,3.2-3.6,5.4c-0.6,2.2-0.6,4.4,0.4,6.4
		c1,2.2,2.4,3.8,4.2,4.8l41.4,20c2.8,1.6,4.8,4,6,7s1.4,6.2,0.8,9.2c-0.8,3.2-2.6,5.8-5.2,7.8c-2.6,2-5.6,3-8.8,3h-30.6
		c-2,0-3.8-0.4-5.6-1c-1.8-0.8-3.4-1.8-4.6-3c1.4,1.4,3,2.4,4.6,3c1.8,0.8,3.6,1,5.6,1h30.6c3.2,0,6.2-1,8.8-3s4.4-4.6,5.2-7.8
		s0.6-6.2-0.8-9.2c-1.2-3-3.2-5.4-6-7l-41.4-20c-2-1.2-3.4-2.8-4.2-4.8c-1-2.2-1-4.2-0.4-6.4c0.6-2.2,1.8-4,3.6-5.4
		c1.8-1.4,3.8-2,6-2h32.6C600.8,381.2,602.6,381.6,604.4,382.2c1.8,0.8,3.4,1.8,4.6,3C607.8,384,606.2,383,604.4,382.2z"/>
</g>
</svg>
