<?xml version="1.0" encoding="utf-8"?>
<!-- Generator: Adobe Illustrator 18.0.0, SVG Export Plug-In . SVG Version: 6.00 Build 0)  -->
<!DOCTYPE svg PUBLIC "-//W3C//DTD SVG 1.1//EN" "http://www.w3.org/Graphics/SVG/1.1/DTD/svg11.dtd">
<svg version="1.1" id="Layer_1" xmlns="http://www.w3.org/2000/svg" xmlns:xlink="http://www.w3.org/1999/xlink" x="0px" y="0px"
	 viewBox="0 0 306 51" enable-background="new 0 0 306 51" xml:space="preserve">
<g>
	<path d="M8.3,0.3h28.9H8.3v18.8H30H8.3V51V0.3z"/>
	<path d="M53.1,18.1l1.1,26.3c0.2,1.9,1,3.4,2.3,4.7c1.4,1.3,3,1.9,4.9,1.9h4.8c0.7,0,1.3-0.2,1.9-0.6l13.2-8.6V51V18.1v23.7
		l-13.2,8.6c-0.6,0.4-1.3,0.6-2,0.6h-4.8c-1.9,0-3.5-0.6-4.9-1.9c-1.4-1.3-2.1-2.8-2.3-4.7L53.1,18.1z"/>
	<path d="M125.4,20.2c-0.7-0.7-1.5-1.2-2.3-1.5c-0.9-0.4-1.8-0.5-2.8-0.5H104c-1.1,0-2.1,0.3-3,1c-0.9,0.7-1.5,1.6-1.8,2.7
		c-0.3,1.1-0.3,2.2,0.2,3.2c0.5,1.1,1.2,1.9,2.1,2.4l20.7,10c1.4,0.8,2.4,2,3,3.5c0.6,1.5,0.7,3.1,0.4,4.6c-0.4,1.6-1.3,2.9-2.6,3.9
		c-1.3,1-2.8,1.5-4.4,1.5h-15.3c-1,0-1.9-0.2-2.8-0.5c-0.9-0.4-1.7-0.9-2.3-1.5c0.7,0.7,1.5,1.2,2.3,1.5c0.9,0.4,1.8,0.5,2.8,0.5
		h15.3c1.6,0,3.1-0.5,4.4-1.5c1.3-1,2.2-2.3,2.6-3.9c0.4-1.6,0.3-3.1-0.4-4.6c-0.6-1.5-1.6-2.7-3-3.5l-20.7-10
		c-1-0.6-1.7-1.4-2.1-2.4c-0.5-1.1-0.5-2.1-0.2-3.2c0.3-1.1,0.9-2,1.8-2.7c0.9-0.7,1.9-1,3-1h16.3c1,0,1.9,0.2,2.8,0.5
		C124,19,124.8,19.5,125.4,20.2z"/>
	<path d="M156.7,18.1V51h-10.9h21.7h-10.9V18.1h-10.9H156.7z M154.9,1.6v0.9V1.6V0.7V1.6z"/>
	<path d="M187.4,43.4c0,1.1,0.4,1.9,1.1,2.5l4.7,4c0.8,0.7,1.7,1.1,2.6,1.1h11.6c1,0,1.8-0.4,2.5-1.1l4.7-4c0.7-0.6,1.1-1.5,1.1-2.5
		V25.7c0-1-0.4-1.9-1.1-2.6l-4.7-4c-0.7-0.7-1.5-1.1-2.5-1.1h-11.6c-1,0-1.9,0.4-2.6,1.1l-4.7,4c-0.7,0.7-1.1,1.6-1.1,2.6
		c0-1,0.4-1.9,1.1-2.6l4.7-4c0.7-0.7,1.6-1.1,2.6-1.1h11.6c1,0,1.8,0.4,2.5,1.1l4.7,4c0.7,0.7,1.1,1.6,1.1,2.6v17.7
		c0,1.1-0.4,1.9-1.1,2.5l-4.7,4c-0.7,0.7-1.6,1.1-2.5,1.1h-11.6c-0.9,0-1.8-0.4-2.6-1.1l-4.7-4C187.8,45.3,187.4,44.4,187.4,43.4
		V25.8V43.4z"/>
	<path d="M232.2,18v33V27.3l13.2-8.6c0.6-0.4,1.2-0.6,2-0.6h4.7c1.9,0,3.5,0.6,4.9,1.9c1.4,1.3,2.2,2.8,2.3,4.7l1.2,26.4l-1.2-26.4
		c-0.1-1.9-0.9-3.4-2.3-4.7c-1.4-1.3-3-1.9-4.9-1.9h-4.7c-0.8,0-1.4,0.2-2,0.6l-13.2,8.6V18z"/>
</g>
</svg>
