<?xml version="1.0" encoding="utf-8"?>
<!-- Generator: Adobe Illustrator 18.0.0, SVG Export Plug-In . SVG Version: 6.00 Build 0)  -->
<!DOCTYPE svg PUBLIC "-//W3C//DTD SVG 1.1//EN" "http://www.w3.org/Graphics/SVG/1.1/DTD/svg11.dtd">
<svg version="1.1" id="Layer_1" xmlns="http://www.w3.org/2000/svg" xmlns:xlink="http://www.w3.org/1999/xlink" x="0px" y="0px"
	 viewBox="0 0 951.4 101.8" enable-background="new 0 0 951.4 101.8" xml:space="preserve">
<g>
	<path d="M58,0H29v101.4h29H0h29V0H0H58z"/>
	<path d="M90.4,54l26.4-17.2c1.2-0.8,2.4-1.2,4-1.2h9.4c3.8,0,7,1.2,9.8,3.8s4.4,5.6,4.6,9.4l2.2,52.6l-2.4-52.8
		c-0.2-3.8-1.8-6.8-4.6-9.4s-6-3.8-9.8-3.8h-9.4c-1.6,0-2.8,0.4-4,1.2L90.4,54v47.4v-66V54z"/>
	<path d="M231.8,98.4c-2.6,2-5.6,3-9,3H207c-2,0-4-0.4-5.6-1.2c-1.8-0.8-3.4-1.8-4.6-3s-2.4-2.8-3-4.6c-0.8-1.8-1.2-3.6-1.2-5.6
		V35.4h-13h47.6h-34.8V7.2v79.6c0,2,0.4,4,1.2,5.6c0.8,1.8,1.8,3.4,3,4.6s2.8,2.4,4.6,3c1.8,0.8,3.6,1.2,5.6,1.2h15.8
		C226.2,101.4,229.2,100.4,231.8,98.4s4.2-4.6,5-7.8C236,93.8,234.4,96.4,231.8,98.4z"/>
	<path d="M269.4,71.8h55v-21c0-2-0.8-3.6-2.2-5l-9.4-8c-1.4-1.4-3-2-5.2-2h-21.4c-2,0-3.6,0.6-4.8,1.8l-9.8,8.4
		c-1.4,1.4-2.2,3-2.2,5v35.4c0,2.2,0.8,4,2.2,5.2l9.4,8c1.4,1.4,3.2,2.2,5.2,2.2h38.4h-38.4c-2,0-3.8-0.8-5.2-2.2l-9.4-8
		c-1.4-1.2-2.2-3-2.2-5.2V50.8c0-2,0.8-3.6,2.2-5l9.8-8.4c1.2-1.2,2.8-1.8,4.8-1.8h21.6c2.2,0,3.8,0.6,5.2,2l9.4,8
		c1.4,1.4,2.2,3,2.2,5v21h-55.2V71.8z"/>
	<path d="M359,55.4l26.4-18.6c1.2-0.8,2.6-1.2,4-1.2h9.4c2,0,3.8,0.4,5.6,1.2c1.8,0.8,3.4,1.8,4.6,3.2c1.4,1.4,2.4,2.8,3.2,4.6
		c0.8,1.8,1.2,3.6,1.2,5.6c0-2-0.4-4-1.2-5.6c-0.8-1.8-1.8-3.4-3-4.6c-1.2-1.2-2.8-2.4-4.6-3c-1.8-0.8-3.6-1.2-5.6-1.2h-9.4
		c-1.6,0-2.8,0.4-4,1.2L359,55.4v46V35.6V55.4z"/>
	<path d="M505.2,88.8l-21.8,12.6H463c-2,0-3.8-0.4-5.6-1.2c-1.8-0.8-3.2-1.8-4.6-3c-1.2-1.2-2.4-2.8-3-4.6c-0.8-1.8-1.2-3.6-1.2-5.6
		v-7.2c0-2,0.4-3.8,1-5.6c0.8-1.8,1.8-3.2,3-4.6c1.2-1.2,2.6-2.4,4.2-3c1.6-0.8,3.2-1.2,4.8-1.2H505h-43.4c-1.6,0-3.2,0.4-4.8,1.2
		c-1.6,0.8-3,1.8-4.2,3s-2.2,2.8-3,4.6c-0.8,1.8-1,3.6-1,5.6V87c0,2,0.4,4,1.2,5.6c0.8,1.8,1.8,3.4,3,4.6s2.8,2.4,4.6,3
		c1.8,0.8,3.6,1.2,5.6,1.2h20.4L505.2,88.8z M505.2,101.4V50c0-2-0.4-4-1.2-5.6c-0.8-1.8-1.8-3.4-3-4.6c-1.2-1.2-2.8-2.4-4.6-3
		c-1.8-0.8-3.6-1.2-5.6-1.2h-29h29c2,0,4,0.4,5.6,1.2c1.8,0.8,3.4,1.8,4.6,3c1.2,1.2,2.4,2.8,3,4.6c0.8,1.8,1.2,3.6,1.2,5.6V101.4z"
		/>
	<path d="M562.4,101.4c-2.2,0-3.8-0.8-5-2.2l-16.8-14c-1.4-1.4-2.2-3.2-2.2-5V56.8c0-1.8,0.8-3.6,2.2-5.2l16.8-14c1.4-1.4,3-2,5-2
		h31.8h-31.8c-2,0-3.6,0.6-5,2l-16.8,14c-1.4,1.6-2.2,3.4-2.2,5.2v23.4c0,2,0.8,3.6,2.2,5l16.8,14
		C558.6,100.6,560.2,101.4,562.4,101.4h31.8H562.4z"/>
	<path d="M679.6,98.4c-2.6,2-5.6,3-9,3h-15.8c-2,0-4-0.4-5.6-1.2c-1.8-0.8-3.4-1.8-4.6-3s-2.4-2.8-3-4.6c-0.8-1.8-1.2-3.6-1.2-5.6
		V35.4h-13H675h-34.8V7.2v79.6c0,2,0.4,4,1.2,5.6c0.8,1.8,1.8,3.4,3,4.6s2.8,2.4,4.6,3c1.8,0.8,3.6,1.2,5.6,1.2h15.8
		C674,101.4,677,100.4,679.6,98.4c2.6-2,4.2-4.6,5-7.8C683.8,93.8,682.2,96.4,679.6,98.4z"/>
	<path d="M723.8,35.6h21.8v65.8h21.8H724h21.8V35.6H723.8z M742,0.8v1.8v1.8V2.6V0.8z"/>
	<path d="M863.4,48.6L835,101.4l-28.2-52.8v-13v13l28.2,52.8L863.4,48.6v-13V48.6z"/>
	<path d="M896.4,71.8h55v-21c0-2-0.8-3.6-2.2-5l-9.4-8c-1.4-1.4-3-2-5.2-2H913c-2,0-3.6,0.6-4.8,1.8l-9.8,8.4c-1.4,1.4-2.2,3-2.2,5
		v35.4c0,2.2,0.8,4,2.2,5.2l9.4,8c1.4,1.4,3.2,2.2,5.2,2.2h38.4H913c-2,0-3.8-0.8-5.2-2.2l-9.4-8c-1.4-1.2-2.2-3-2.2-5.2V50.8
		c0-2,0.8-3.6,2.2-5l9.8-8.4c1.2-1.2,2.8-1.8,4.8-1.8h21.6c2.2,0,3.8,0.6,5.2,2l9.4,8c1.4,1.4,2.2,3,2.2,5v21h-55V71.8z"/>
</g>
</svg>
