<?xml version="1.0" encoding="utf-8"?>
<!-- Generator: Adobe Illustrator 18.0.0, SVG Export Plug-In . SVG Version: 6.00 Build 0)  -->
<!DOCTYPE svg PUBLIC "-//W3C//DTD SVG 1.1//EN" "http://www.w3.org/Graphics/SVG/1.1/DTD/svg11.dtd">
<svg version="1.1" id="Layer_1" xmlns="http://www.w3.org/2000/svg" xmlns:xlink="http://www.w3.org/1999/xlink" x="0px" y="0px"
	 viewBox="0 0 306 51" enable-background="new 0 0 306 51" xml:space="preserve">
<g>
	<path d="M36.9,0.3H22.4V51h14.5H7.9h14.5V0.3H7.9H36.9z"/>
	<path d="M52.5,51V0.4h22.1c1,0,1.9,0.2,2.8,0.6c0.9,0.4,1.6,0.9,2.3,1.5c0.7,0.6,1.2,1.4,1.6,2.3c0.4,0.9,0.6,1.8,0.6,2.8v4.8
		c0,1-0.2,1.9-0.6,2.8c-0.4,0.9-0.9,1.7-1.6,2.3c-0.7,0.6-1.4,1.2-2.3,1.5c-0.9,0.4-1.8,0.6-2.8,0.6H52.5h7.3l22,31.5l-22-31.5h14.8
		c1,0,1.9-0.2,2.8-0.6c0.9-0.4,1.6-0.9,2.3-1.5c0.7-0.6,1.2-1.4,1.6-2.3c0.4-0.9,0.6-1.8,0.6-2.8V7.6c0-1-0.2-1.9-0.6-2.8
		c-0.4-0.9-0.9-1.7-1.6-2.3C79,1.9,78.3,1.3,77.4,1c-0.9-0.4-1.8-0.6-2.8-0.6H52.5V51z"/>
	<path d="M126.4,51H97.5V0.4V51H126.4z"/>
	<path d="M142.6,23.8V51V23.8V3.9V23.8z M142.9,41.5c0.2,0.5,0.4,0.9,0.8,1.2l7.9,7.2c0.7,0.7,1.6,1.1,2.6,1.1h8.3
		c1.1,0,1.9-0.4,2.6-1.1l4.7-4c0.4-0.3,0.7-0.7,0.8-1.2c0.2-0.5,0.3-0.9,0.3-1.4V25.7c0-0.4-0.1-0.9-0.3-1.4
		c-0.1-0.5-0.4-0.9-0.8-1.2l-4.7-4c-0.8-0.7-1.7-1.1-2.6-1.1h-8.3c-0.9,0-1.8,0.4-2.6,1.1l-7.9,7.3c-0.6,0.7-1,1.6-1.1,2.5
		c0.1-1,0.5-1.8,1.1-2.5l7.9-7.3c0.8-0.7,1.7-1.1,2.6-1.1h8.3c0.9,0,1.8,0.4,2.6,1.1l4.7,4c0.4,0.3,0.6,0.7,0.8,1.2
		c0.1,0.5,0.2,0.9,0.3,1.4v17.7c0,0.5-0.1,0.9-0.3,1.4c-0.2,0.5-0.4,0.9-0.8,1.2l-4.7,4c-0.7,0.7-1.5,1.1-2.6,1.1h-8.3
		c-1,0-1.9-0.4-2.6-1.1l-7.9-7.2C143.3,42.4,143,42,142.9,41.5c-0.2-0.5-0.3-0.9-0.3-1.4C142.6,40.6,142.7,41.1,142.9,41.5z"/>
	<path d="M187.4,18.1l1.1,26.3c0.2,1.9,1,3.4,2.3,4.7c1.4,1.3,3,1.9,4.9,1.9h4.8c0.7,0,1.3-0.2,1.9-0.6l13.2-8.6V51V18.1v23.7
		l-13.2,8.6c-0.6,0.4-1.3,0.6-2,0.6h-4.8c-1.9,0-3.5-0.6-4.9-1.9c-1.4-1.3-2.1-2.8-2.3-4.7L187.4,18.1z"/>
	<path d="M259.4,42.7l-8,7.2c-0.7,0.7-1.5,1.1-2.6,1.1h-8.3c-0.5,0-1,0-1.4-0.3c-0.4-0.2-0.8-0.5-1.2-0.8l-4.7-4
		c-0.7-0.8-1.1-1.7-1.1-2.6V25.7c0-0.9,0.4-1.8,1.1-2.6l4.7-4c0.8-0.7,1.7-1.1,2.6-1.1h8.3c0.5,0,1,0.1,1.4,0.3
		c0.4,0.2,0.8,0.5,1.2,0.8l8,7.3c0.6,0.8,1,1.6,1,2.5c0-0.9-0.4-1.8-1-2.5l-8-7.3c-0.4-0.3-0.8-0.5-1.2-0.8
		c-0.4-0.2-0.9-0.3-1.4-0.3h-8.3c-0.9,0-1.8,0.4-2.6,1.1l-4.7,4c-0.7,0.8-1.1,1.7-1.1,2.6v17.7c0,0.9,0.4,1.8,1.1,2.6l4.7,4
		c0.4,0.3,0.8,0.6,1.2,0.8c0.4,0.2,0.9,0.3,1.4,0.3h8.3c1.1,0,1.9-0.4,2.6-1.1L259.4,42.7c0.7-0.8,1-1.6,1-2.6
		C260.4,41.1,260.1,42,259.4,42.7z M260.4,21v30V21V3.9V21z"/>
	<path d="M302.2,18.6c-0.9-0.4-1.8-0.5-2.8-0.5h-16.3c-1.1,0-2.1,0.3-3,1c-0.9,0.7-1.5,1.6-1.8,2.7c-0.3,1.1-0.3,2.2,0.2,3.2
		c0.5,1.1,1.2,1.9,2.1,2.4l20.7,10c1.4,0.8,2.4,2,3,3.5c0.6,1.5,0.7,3.1,0.4,4.6c-0.4,1.6-1.3,2.9-2.6,3.9c-1.3,1-2.8,1.5-4.4,1.5
		h-15.3c-1,0-1.9-0.2-2.8-0.5c-0.9-0.4-1.7-0.9-2.3-1.5c0.7,0.7,1.5,1.2,2.3,1.5c0.9,0.4,1.8,0.5,2.8,0.5h15.3
		c1.6,0,3.1-0.5,4.4-1.5c1.3-1,2.2-2.3,2.6-3.9c0.4-1.6,0.3-3.1-0.4-4.6c-0.6-1.5-1.6-2.7-3-3.5l-20.7-10c-1-0.6-1.7-1.4-2.1-2.4
		c-0.5-1.1-0.5-2.1-0.2-3.2c0.3-1.1,0.9-2,1.8-2.7c0.9-0.7,1.9-1,3-1h16.3C300.4,18.1,301.3,18.3,302.2,18.6
		c0.9,0.4,1.7,0.9,2.3,1.5C303.9,19.5,303.1,19,302.2,18.6z"/>
</g>
</svg>
