<?xml version="1.0" encoding="utf-8"?>
<!-- Generator: Adobe Illustrator 18.0.0, SVG Export Plug-In . SVG Version: 6.00 Build 0)  -->
<!DOCTYPE svg PUBLIC "-//W3C//DTD SVG 1.1//EN" "http://www.w3.org/Graphics/SVG/1.1/DTD/svg11.dtd">
<svg version="1.1" id="Layer_1" xmlns="http://www.w3.org/2000/svg" xmlns:xlink="http://www.w3.org/1999/xlink" x="0px" y="0px"
	 viewBox="0 0 306 51" enable-background="new 0 0 306 51" xml:space="preserve">
<g>
	<path d="M36.9,51h-1.8L9.7,0.4H7.9V51V0.4h1.8L35.1,51H36.9V0.4V51z"/>
	<path d="M80.6,36.2V25.7c0-1-0.4-1.8-1.1-2.5l-4.7-4c-0.7-0.7-1.5-1-2.6-1H61.4c-1,0-1.8,0.3-2.4,0.9l-4.9,4.2
		c-0.7,0.7-1.1,1.5-1.1,2.5v17.7c0,1.1,0.4,2,1.1,2.6l4.7,4c0.7,0.7,1.6,1.1,2.6,1.1h19.2H61.4c-1,0-1.9-0.4-2.6-1.1l-4.7-4
		c-0.7-0.6-1.1-1.5-1.1-2.6V25.7c0-1,0.4-1.8,1.1-2.5L59,19c0.6-0.6,1.4-0.9,2.4-0.9h10.8c1.1,0,1.9,0.3,2.6,1l4.7,4
		c0.7,0.7,1.1,1.5,1.1,2.5V36.2H53.1H80.6z"/>
	<path d="M115.3,51h-10.2c-1,0-1.9-0.2-2.8-0.6c-0.9-0.4-1.6-0.9-2.3-1.5s-1.2-1.4-1.5-2.3c-0.4-0.9-0.6-1.8-0.6-2.8v-3.6
		c0-1,0.2-1.9,0.5-2.8c0.4-0.9,0.9-1.6,1.5-2.3c0.6-0.6,1.3-1.2,2.1-1.5c0.8-0.4,1.6-0.6,2.4-0.6h21.7h-21.7c-0.8,0-1.6,0.2-2.4,0.6
		c-0.8,0.4-1.5,0.9-2.1,1.5c-0.6,0.6-1.1,1.4-1.5,2.3c-0.4,0.9-0.5,1.8-0.5,2.8v3.6c0,1,0.2,2,0.6,2.8c0.4,0.9,0.9,1.7,1.5,2.3
		s1.4,1.2,2.3,1.5c0.9,0.4,1.8,0.6,2.8,0.6H115.3l10.9-6.3L115.3,51z M126.1,25.3c0-1-0.2-2-0.6-2.8c-0.4-0.9-0.9-1.7-1.5-2.3
		s-1.4-1.2-2.3-1.5c-0.9-0.4-1.8-0.6-2.8-0.6h-14.5h14.5c1,0,2,0.2,2.8,0.6c0.9,0.4,1.7,0.9,2.3,1.5s1.2,1.4,1.5,2.3
		C126,23.3,126.1,24.3,126.1,25.3V51V25.3z"/>
	<path d="M142.6,28l13.2-9.3c0.6-0.4,1.3-0.6,2-0.6h4.7c1,0,1.9,0.2,2.8,0.6c0.9,0.4,1.7,0.9,2.3,1.6c0.7,0.7,1.2,1.4,1.6,2.3
		c0.4,0.9,0.6,1.8,0.6,2.8c0-1-0.2-2-0.6-2.8c-0.4-0.9-0.9-1.7-1.5-2.3c-0.6-0.6-1.4-1.2-2.3-1.5c-0.9-0.4-1.8-0.6-2.8-0.6h-4.7
		c-0.8,0-1.4,0.2-2,0.6L142.6,28v23V18.1V28z"/>
	<path d="M187.4,23.8V51V23.8V3.9V23.8z M187.7,41.5c0.2,0.5,0.4,0.9,0.8,1.2l7.9,7.2c0.7,0.7,1.6,1.1,2.6,1.1h8.3
		c1.1,0,1.9-0.4,2.6-1.1l4.7-4c0.4-0.3,0.7-0.7,0.8-1.2c0.2-0.5,0.3-0.9,0.3-1.4V25.7c0-0.4-0.1-0.9-0.3-1.4
		c-0.1-0.5-0.4-0.9-0.8-1.2l-4.7-4c-0.8-0.7-1.7-1.1-2.6-1.1H199c-0.9,0-1.8,0.4-2.6,1.1l-7.9,7.3c-0.6,0.7-1,1.6-1.1,2.5
		c0.1-1,0.5-1.8,1.1-2.5l7.9-7.3c0.8-0.7,1.7-1.1,2.6-1.1h8.3c0.9,0,1.8,0.4,2.6,1.1l4.7,4c0.4,0.3,0.6,0.7,0.8,1.2
		c0.1,0.5,0.2,0.9,0.3,1.4v17.7c0,0.5-0.1,0.9-0.3,1.4c-0.2,0.5-0.4,0.9-0.8,1.2l-4.7,4c-0.7,0.7-1.5,1.1-2.6,1.1H199
		c-1,0-1.9-0.4-2.6-1.1l-7.9-7.2C188.1,42.4,187.8,42,187.7,41.5c-0.2-0.5-0.3-0.9-0.3-1.4C187.4,40.6,187.5,41.1,187.7,41.5z"/>
	<path d="M232.2,24.6L242.9,48h6.6l-8.6,18.5h-8.6h8.6l19.6-42V18v6.6L249.5,48h-6.6L232.2,24.6V18V24.6z"/>
</g>
</svg>
