<?xml version="1.0" encoding="utf-8"?>
<!-- Generator: Adobe Illustrator 18.0.0, SVG Export Plug-In . SVG Version: 6.00 Build 0)  -->
<!DOCTYPE svg PUBLIC "-//W3C//DTD SVG 1.1//EN" "http://www.w3.org/Graphics/SVG/1.1/DTD/svg11.dtd">
<svg version="1.1" id="Layer_1" xmlns="http://www.w3.org/2000/svg" xmlns:xlink="http://www.w3.org/1999/xlink" x="0px" y="0px"
	 viewBox="0 0 306 51" enable-background="new 0 0 306 51" xml:space="preserve">
<g>
	<path d="M7.9,5.7V0.3h14.5V51V0.3h14.5v5.4V0.3H7.9V5.7z"/>
	<path d="M56.3,18.1h10.9V51H78H56.3h10.9V18.1H56.3z M65.4,0.7v0.9v0.9V1.6V0.7z"/>
	<path d="M97.5,24.6l5.8-5c0.5-0.5,1-0.8,1.7-1.1c0.6-0.2,1.3-0.4,1.9-0.4c1.4,0,2.6,0.5,3.6,1.5c1,1,1.4,2.2,1.4,3.6v1.2l4.8-4.8
		c1-1,2.1-1.4,3.5-1.4c1.4,0,2.7,0.5,3.6,1.5c1,1,1.5,2.2,1.5,3.6l1.1,27.9l-1.1-27.9c0-1.4-0.5-2.6-1.5-3.6c-1-1-2.2-1.5-3.6-1.5
		c-1.4,0-2.6,0.5-3.5,1.4l-4.8,4.8V51V23.1c0-1.4-0.5-2.6-1.5-3.6c-1-1-2.2-1.5-3.6-1.5c-1.2,0-2.4,0.4-3.3,1.2L97.5,24.6V51V18.1
		V24.6z"/>
	<path d="M142.6,36.2h27.5V25.7c0-1-0.4-1.8-1.1-2.5l-4.7-4c-0.7-0.7-1.5-1-2.6-1H151c-1,0-1.8,0.3-2.4,0.9l-4.9,4.2
		c-0.7,0.7-1.1,1.5-1.1,2.5v17.7c0,1.1,0.4,2,1.1,2.6l4.7,4c0.7,0.7,1.6,1.1,2.6,1.1h19.2H151c-1,0-1.9-0.4-2.6-1.1l-4.7-4
		c-0.7-0.6-1.1-1.5-1.1-2.6V25.7c0-1,0.4-1.8,1.1-2.5l4.9-4.2c0.6-0.6,1.4-0.9,2.4-0.9h10.8c1.1,0,1.9,0.3,2.6,1l4.7,4
		c0.7,0.7,1.1,1.5,1.1,2.5v10.5H142.6z"/>
	<path d="M201.5,25.6h9.1H201.5h-9.1H201.5z"/>
	<path d="M246.3,18.1V51h-10.9h21.7h-10.9V18.1h-10.9H246.3z M244.5,1.6v0.9V1.6V0.7V1.6z"/>
	<path d="M277,27.3l13.2-8.6c0.6-0.4,1.2-0.6,2-0.6h4.7c1.9,0,3.5,0.6,4.9,1.9c1.4,1.3,2.2,2.8,2.3,4.7l1.2,26.4l-1.2-26.4
		c-0.1-1.9-0.9-3.4-2.3-4.7c-1.4-1.3-3-1.9-4.9-1.9h-4.7c-0.8,0-1.4,0.2-2,0.6L277,27.3V51V18V27.3z"/>
</g>
</svg>
