<?xml version="1.0" encoding="utf-8"?>
<!-- Generator: Adobe Illustrator 18.0.0, SVG Export Plug-In . SVG Version: 6.00 Build 0)  -->
<!DOCTYPE svg PUBLIC "-//W3C//DTD SVG 1.1//EN" "http://www.w3.org/Graphics/SVG/1.1/DTD/svg11.dtd">
<svg version="1.1"
	 id="svg3126" sodipodi:docname="cowsilhouette.svg" inkscape:version="0.48.1 " xmlns:svg="http://www.w3.org/2000/svg" xmlns:dc="http://purl.org/dc/elements/1.1/" xmlns:sodipodi="http://sodipodi.sourceforge.net/DTD/sodipodi-0.dtd" xmlns:rdf="http://www.w3.org/1999/02/22-rdf-syntax-ns#" xmlns:inkscape="http://www.inkscape.org/namespaces/inkscape" xmlns:cc="http://creativecommons.org/ns#"
	 xmlns="http://www.w3.org/2000/svg" xmlns:xlink="http://www.w3.org/1999/xlink" x="0px" y="0px" viewBox="0 0 2761.4 2127.9"
	 enable-background="new 0 0 2761.4 2127.9" xml:space="preserve">
<filter  width="1" height="1" inkscape:menu-tooltip="Light areas turn to black" color-interpolation-filters="sRGB" inkscape:label="Black Light" id="filter2984" inkscape:menu="Color" y="0" x="0">
	<feColorMatrix  type="luminanceToAlpha" id="feColorMatrix2986" result="result2"></feColorMatrix>
	<feComposite  k3="2" in="result2" in2="SourceGraphic" operator="arithmetic" id="feComposite2988" result="result4">
		</feComposite>
	<feBlend  in="result4" in2="result2" id="feBlend2990" result="result3" mode="multiply"></feBlend>
	<feComposite  in="result3" in2="SourceGraphic" operator="in" id="feComposite2992"></feComposite>
</filter>
<sodipodi:namedview  inkscape:window-height="1138" inkscape:window-y="-8" inkscape:window-maximized="1" inkscape:window-x="-8" inkscape:current-layer="layer1" inkscape:window-width="1600" fit-margin-bottom="0" inkscape:pageopacity="0.0" fit-margin-right="0" inkscape:pageshadow="2" inkscape:document-units="px" pagecolor="#ffffff" borderopacity="1.0" bordercolor="#666666" showgrid="false" inkscape:cx="-802.52884" inkscape:zoom="0.04" inkscape:cy="7133.1869" fit-margin-left="0" fit-margin-top="0" id="base">
	</sodipodi:namedview>
<g id="layer1" transform="translate(990.2181,511.41838)" inkscape:groupmode="layer" inkscape:label="Layer 1">
	<g id="path3145" inkscape:connector-curvature="0" filter="url(#filter2984)">
		<path fill="#555555" d="M-678,1615.9c-0.6-0.7-4.5-1.8-8.7-2.6c-22.8-4-32.9-8.6-37.7-17.3c-2.6-4.8-4.8-10.9-4.8-13.5
			c0-2.6-1.8-6.3-3.9-8.3c-2.2-2-4-8.7-4.1-15.5c-0.4-19-3.2-25.9-13.5-33.3c-12.4-9-18-26.1-11.2-34.4c2.4-3,4.4-10.4,4.6-16.6
			c0.3-15.6,4.4-32.3,10-41.2c3.7-5.8,5.4-16.9,7.6-49.3c1.6-23,3.5-48.3,4.3-56.2c2-19.9,1.8-28-1.6-56.2
			c-1.6-13.5-4.5-27.2-6.4-30.5c-2.2-3.8-2.7-7.5-1.2-10.1c3.6-6.3,2.8-24.7-1.4-36.1c-3-7.9-3.2-13.2-1.2-23.7
			c1.4-7.4,1.9-19.4,1.1-26.5c-0.8-7.1-2.5-24.8-3.7-39.2c-2.2-25.2-10-61.6-16.4-75.8c-2.5-5.6-2.3-7.4,1.4-10.4
			c2.5-2,5.6-10.4,7-18.7c3-17.8,3.6-19,14.6-29.7c4.7-4.6,10-12.8,11.7-18.2c1.8-5.4,3.9-9.9,4.8-9.9s4.2-7.5,7.4-16.6
			c3.2-9.1,8.1-21.9,10.8-28.3c12.9-30.7,16.2-55.8,9.9-75.8c-2.1-6.6-2.1-10.2,0-13c1.6-2.1,2.3-4.4,1.7-5
			c-1.2-1.3-4.5-46.1-4.2-56.8c0.1-3.7-3.8-15.1-8.7-25.4s-9.4-23.5-10.1-29.4s-4.2-18.7-7.9-28.6c-3.7-9.9-6.8-21.7-6.8-26.3
			c0-5.5-3-11.8-8.8-18.7c-7.8-9.3-8.7-11.7-7.4-22.1c1-8.1,0.2-13.2-2.5-16.7c-2.1-2.7-6.3-13-9.3-22.7s-7.8-22.1-10.7-27.4
			c-6.5-12-6.6-12.2-10.1-29.9c-1.6-7.9-2.7-23.2-2.5-33.9c0.3-14.9-0.7-20.8-4.1-25c-2.5-3-5.1-11.1-5.9-18
			c-0.8-6.9-2.3-13.8-3.4-15.4c-1.1-1.6-2.9-12.4-3.9-23.9c-1.7-19.3-2.3-21-7.3-20.2c-4.8,0.8-5.9,4-8.9,26.8
			c-1.9,14.3-4,40.2-4.7,57.7c-0.7,17.4-2.4,33.1-3.7,34.9c-1.3,1.7-1.9,8.8-1.4,15.8c0.5,6.9,0.1,19.8-1,28.6s-1.1,17.3-0.1,18.9
			c1.1,1.6,2.6,7.9,3.5,14c1.2,8.7,0.2,13.5-4.7,22.1c-3.4,6.1-7.5,11.9-8.9,12.9c-3.6,2.5-3.4,19.7,0.3,23.9
			c4.7,5.3,5.5,42.8,1,52.4c-2.1,4.5-3.3,10.6-2.7,13.6c0.6,3,2.1,9.9,3.3,15.5s1.9,45.7,1.5,89.3c-0.7,79.2-1.8,90.1-10.6,101.6
			c-4,5.3-3.5,18.6,2.3,56.7c2.9,18.7,2.7,22.9-1.2,35c-2.4,7.6-4.4,16.9-4.4,20.8c0,3.8-1.7,9.5-3.8,12.6
			c-5.3,7.8-4.9,27.3,0.9,43.8c4.4,12.6,4.5,14.7,1.1,22.1c-2.1,4.5-4.9,16.8-6.3,27.3c-3,24.3-12.2,39-31.1,50.3
			c-7.7,4.6-15.7,10-17.8,12c-2.1,2-13.4,4.4-25,5.4c-25.5,2.1-32.9-1.2-43.2-18.7c-6.3-10.7-6.7-13-3.9-18.9
			c2.7-5.7,2.5-8.1-1.1-15.1c-2.4-4.6-3.7-10.3-2.8-12.9s-0.4-8-2.9-12.2c-3.3-5.7-4.1-10.9-2.9-20.9c4.2-35.9,6.2-44.5,11.2-49
			c4.7-4.2,5.1-7.5,4.4-33.5c-0.5-18.3,0.6-35,3-45.7c4.7-21.1,4.7-26.2-0.5-42.3c-4.9-15.5-3.5-54.6,2.5-68
			c6.7-15.1,12.3-37.6,10.5-42.7c-1.1-3.1,0.2-7.4,3.3-11.3c14.2-17.9,20.8-38.9,16.2-51.3c-2.8-7.6-2.6-9.3,2.3-15.2
			c3.7-4.4,5.5-10.3,5.5-17.7c0-6.3,1.9-13.4,4.3-16.4c3.3-4.1,4.5-12.6,5.3-37.7c0.9-32.6,3.4-44.4,14.9-72.8
			c10.2-25,11.8-34.1,11.8-68c0-23.6,1.1-35.3,3.9-41.2c2.1-4.6,4.3-18.7,4.9-31.7c0.6-12.9,2.8-38.4,5-56.6s4.1-46.6,4.2-63
			c0.1-16.4,1.2-32,2.4-34.6c1.2-2.7,2.5-13.2,2.8-23.5s1.6-20.7,2.8-23.3c1.2-2.6,3-14.9,3.9-27.5c0.9-12.6,2.8-25.5,4.2-28.7
			c1.6-3.6,1.6-8.5,0.2-13c-2.5-7.6,1-22.6,8.2-35c2.1-3.7,4.7-11.9,5.7-18.2c1.7-10.4,10.8-32.2,17.1-40.9c1.3-1.8,2.7-8,3-13.7
			c0.4-6.9,2.5-11.8,6.3-14.8c3.2-2.5,5.7-6.3,5.7-8.6c0-6.9,10.1-26.1,18.3-34.9c4.3-4.6,13.1-16.4,19.6-26.4s12.8-18,14.1-18
			s2.4-1.6,2.4-3.6c0.1-4.7,9.3-16.1,20.9-25.7c5.1-4.2,13.8-12.3,19.4-17.8c25.8-25.7,31.8-29.8,52.9-36.7c6.4-2.1,14.6-6,18.1-8.6
			c10-7.5,38.2-18,42.9-16c2.3,1,34.7,3.8,71.9,6.2s71.8,5.7,76.8,7.2c5,1.5,16.3,2.8,25.2,2.8c9.1,0,16.2,1.3,16.2,2.9
			c0,1.6,5.8,2.9,13,2.9s15,1.2,17.5,2.6c7.1,4.1,30.9,8.6,56.2,10.5c12.8,1,24.4,2.8,25.9,4.1c2.6,2.3,12.2,4.6,30.8,7.2
			c5.5,0.8,13.7,2.7,18.1,4.3c23.6,8.3,154.8,26,194.7,26.3c15.6,0.1,43.1,0,61.1-0.1c18.4-0.2,33.5,0.9,34.3,2.5
			c0.8,1.5,13.4,2.9,27.9,3.1c14.5,0.2,30.5,1.5,35.6,3c13.9,4.1,81.3,3.5,90.8-0.7c3.9-1.7,23-4.2,47.9-6.2
			c7.1-0.6,14.7-1.7,16.8-2.5c2.1-0.8,8.5-2.2,14.2-3.1c5.7-0.9,15.6-3,22-4.8c15.9-4.3,30.4-7.1,79.7-15.4
			c23.2-3.9,46.3-8.6,51.2-10.5c5.4-2,14.2-2.5,22-1.3c7.9,1.2,14.2,0.8,16.2-1c1.8-1.7,7.3-3,12.2-3c10.2,0.1,47.5-7,72.4-13.7
			c9.3-2.5,25.6-6.8,36.2-9.6c36.9-9.7,45.4-12.4,56-17.8c5.9-3,14.6-5.4,19.4-5.4c4.8,0,12.9-1.4,17.8-3.2
			c9.7-3.4,23.8-6.9,46.6-11.6c7.8-1.6,57.9-4.2,111.3-5.7s99.1-4.1,101.6-5.6c2.5-1.5,9.1-2.8,14.7-2.8c5.6,0,11-1.4,11.9-3.1
			c2.9-5.3,14.7-9.3,33.6-11.6c10-1.2,27.4-3.8,38.8-5.8c17.8-3.1,61-5.9,91.8-5.9c10.4,0,20.8,5.4,20.8,10.8c0,2.1,2.3,5.1,5.2,6.8
			c6.8,4.1,32.1-3.1,38.2-10.9c2.9-3.7,11.1-7,23.4-9.4c10.4-2.1,19.3-4.6,19.9-5.5c0.5-1-0.6-10.8-2.5-21.9
			c-5.4-31.3-14.9-46.8-51.7-84.4c-6.7-6.8-11.7-14-11.1-15.9c1.6-5.4,14.9-7,29.1-3.4c24.9,6.3,42.6,18.5,66.6,46l22.6,25.9
			l11.1-4.5c7.5-3,11.3-6.4,11.9-10.4c1.3-9.5,35.3-41,44.4-41.1c5.2-0.1,36.4-17.8,36.4-20.7c0-2.8,19.1-3.3,21.6-0.5
			c0.9,1,11.1,2.2,22.6,2.5c17.5,0.5,21.2-0.2,23.3-4.5c1.3-2.8,5.3-5.8,8.8-6.8s18.2-14.7,32.7-30.5c23.6-25.8,26.5-30,27.7-41.1
			c0.8-6.8,2.8-14.3,4.6-16.7s3.8-7.6,4.6-11.5c3-15,9-29.5,15.3-36.4l6.4-7.2l6.5,9.6c3.6,5.3,7.8,14.1,9.5,19.6
			c6,20.6,2.4,76.9-5.9,90c-2.3,3.6-4.1,8.8-4.1,11.7s-2.9,10.3-6.5,16.6c-3.6,6.3-6.5,12.6-6.5,14c0,5.2-24.9,27.4-38,33.9
			c-7.3,3.6-14.1,8-15.1,9.8c-2.5,4.6,3.6,11.6,10.1,11.6c3.1,0,7,1.6,8.7,3.5c2.4,2.7,5,1.5,11.5-5.2c18-18.7,29.3-21.9,52.4-15.3
			c5.7,1.6,15,4.3,20.8,5.8c7.2,1.9,12.8,6.1,18.1,13.5c7.3,10.2,7.7,12.1,7.7,38.1c0,26.2-0.4,28-8.4,40.8
			c-10.1,16-10.4,22.5-2.2,46.7c4,12,6.7,27.3,7.6,44.1c1.8,32.7,5.9,45.8,16.3,52.3c8.1,5.1,29.5,30.4,34.5,40.9
			c1.5,3.1,5,6.4,7.9,7.4c2.8,1,5.9,4.8,6.7,8.5c0.8,3.7,4.9,10.3,9.1,14.8c4.2,4.4,7.6,9.6,7.6,11.5s6.7,9.7,14.9,17.5
			c8.2,7.7,16.1,15.4,17.5,17.1c1.4,1.7,5.8,5.4,9.8,8.1c4,2.7,8.5,8.2,10.1,12.1c1.6,3.9,4.3,7.1,6.1,7.1c5.8,0,10.7,45.7,6.3,58.4
			c-7.3,21.3-24.1,45-37.4,53c-7.2,4.3-18.7,13.3-25.7,20.1c-25.9,25-44.4,31.1-86.6,28.5l-30.3-1.9l-14.2,9.8
			c-7.8,5.4-18.3,12.7-23.3,16.2c-5,3.5-13.1,7.8-18.1,9.6c-5,1.8-11.1,5.6-13.5,8.4c-2.6,3-6.6,4.5-9.6,3.6
			c-2.9-0.8-9.1,1.2-14.1,4.6c-9.5,6.6-25.1,8.6-78,10.1c-15.7,0.5-30.6,1.8-33.1,3c-2.5,1.2-7.8,2.5-11.7,2.8
			c-10.9,0.9-29.6,7.4-36.8,12.9c-3.6,2.7-12.3,6.5-19.4,8.5c-13.5,3.8-22.9,11.8-30.3,25.8c-3.9,7.4-4,9-0.6,14.3
			c2.1,3.3,7.2,6.8,11.3,7.8c17.2,4.2,21.9,20,20.3,67.5c-1.3,37.8-2.3,43.5-7.9,43.6c-1.7,0-6,2.6-9.6,5.7
			c-3.6,3.1-10.4,5.7-15.2,5.7c-9.1,0.1-28.1,5.3-32.7,8.9c-2.5,2-31.9,1.5-33.3-0.6c-7.2-10.7-12-24.1-12-33.8
			c0-14.2-4-15.9-5.9-2.5c-0.7,5.2-2.7,14.6-4.4,20.9c-2.8,10.6-5.7,24.4-9.6,46c-0.9,4.7-3.7,11.1-6.4,14.3
			c-2.7,3.2-4.6,7.8-4.2,10.3c1.4,9.3-8.9,25.9-30.6,49.3c-12.4,13.4-29,32-37,41.3c-21.2,24.9-47.3,47.2-61.5,52.5
			c-14.1,5.3-24.3,14.7-34.2,31.5c-13.5,23.1-39.4,52.6-64,72.9c-10.1,8.3-20,18.7-22,23c-3.6,7.8-6.3,10.8-22.3,25.3
			c-10.6,9.6-14.6,24.5-21.4,81c-4.1,33.9-4.6,45.6-2.4,52.7c1.6,5.2,2,12.5,0.9,17c-1.1,4.3-2.1,12.4-2.3,18
			c-0.2,5.6-0.6,18.8-0.9,29.4c-0.5,16.3-1.3,19.6-5.6,21.1c-2.8,1-5.8,4.6-6.7,8.1c-0.9,3.5-4.6,11.2-8.2,17.1
			c-7,11.5-17.1,47.3-14.6,51.8c2.6,4.6,3.7,20,3.5,47c-0.2,20.6,1.1,30.1,6.2,46.1c3.5,11.1,6.7,27.3,7,36.1s1.8,18.5,3.3,21.6
			c1.4,3.2,2.4,10.5,2.1,16.4c-0.4,6.8,0.9,12,3.6,14.4c2.3,2.1,8.3,7.9,13.3,12.9c5,5,12.3,9.8,16.2,10.6
			c6.9,1.5,13.2,11.6,13.2,21c0,2.4,2.2,9.8,5,16.5c10.9,26.6,9.8,31.6-7.6,32.8c-5,0.4-17.8,2-28.5,3.7c-17.2,2.7-40.5,5-59.6,5.7
			c-15.7,0.6-26.2-3.6-33.1-13.3c-3.8-5.4-8.7-9.8-10.9-9.8c-2.1,0-10.6-6.9-18.8-15.3c-13.4-13.7-14.9-16.5-14.9-26.9
			c0-6.4-1.9-18.6-4.2-27.2c-5.4-20.2-5.6-47.7-0.3-59c2.2-4.8,4.9-13.9,5.9-20.2s3.6-14.7,5.9-18.6c3.4-5.9,4-15.5,3.6-52.9
			c-0.3-25.1-1.6-47.9-3-50.8c-1.3-2.8-2.9-18-3.5-33.7c-0.6-15.7-1.6-30.5-2.3-32.9s-2.8-9.5-4.6-15.9c-1.8-6.3-5.6-14.4-8.4-17.8
			c-3.9-4.8-4.7-8.4-3.3-15.3c1-5.3,0.6-10.6-1.1-12.9c-2-2.7-2.1-6.2-0.2-11.6c4.2-12.3,3.1-21.1-4-33.1
			c-6.1-10.3-6.4-12.4-4.1-26.5c1.5-9.2,1.6-18,0.2-22.1c-1.3-3.8-2.4-12.9-2.5-20.3c-0.1-7.4-1.5-23.8-3.2-36.5l-3.1-23l-9.1-2.2
			c-9.5-2.3-21.1-4.6-29.8-5.9c-4.6-0.7-5.1,0.8-4.8,13.6c0.7,23.8-6.4,85.4-10.3,90.5c-2,2.6-4.4,8.4-5.4,13c-1,4.6-5,11.7-9,15.9
			c-9.6,10-26.2,34.5-29,42.8c-1.2,3.6-5,8-8.2,9.7c-6.5,3.3-14.5,21.2-16.7,37.2c-0.8,5.6-2.6,12.7-4,15.9
			c-1.5,3.2-3.1,29.1-3.6,57.7c-0.5,28.6-2,59.3-3.3,68.3c-2.6,18.5-1.2,27.2,5.6,35.4c2.6,3.1,4.7,7.9,4.7,10.7
			c0,9.1,5.3,18.2,14.4,24.9c6.8,4.9,8.9,8.5,8.9,14.8c0,4.6-1.5,9.7-3.4,11.4c-4.2,3.9-22.4,4.6-51,2.2c-12.1-1-34.1-2.2-48.8-2.6
			c-25.9-0.6-26.9-0.9-31.9-8.5c-2.8-4.3-6.8-7.9-8.7-7.9s-8.3-2.7-14-6.1c-14.7-8.5-14.1-16.6,2.5-34.6c16-17.3,16.8-25.1,3.1-29.9
			c-3.3-1.1-7.9-6.5-10.2-11.9c-4.2-9.7-4.1-10,3.2-18.5c4.2-4.8,10.1-8.6,13.6-8.6c6.3,0,11.7-10,16.4-30.3
			c1.1-4.8,5.7-19.7,10.2-33.2c9.9-29.4,13-42.8,14.6-62c0.6-7.9,2.2-17,3.4-20.2c3.4-8.8,8.3-56,6.2-59.7
			c-4.7-8.5-5.8-89.1-1.7-120.2c2-14.9,3-28.9,2.3-31c-0.8-2.3-5.4-3.9-11.1-4c-5.4-0.1-15-1.4-21.4-2.9c-6.4-1.5-23.3-4-37.5-5.5
			c-25.6-2.7-26-2.7-36.2,4.9c-5.7,4.2-14.2,11.3-18.9,15.7c-4.7,4.4-10.2,8-12.3,8c-2.1,0-5.9,1.1-8.3,2.5
			c-16,8.8-23.5,13.7-30.1,19.8c-5,4.6-10.2,6.7-15.5,6.2c-7.3-0.6-15.9,3.5-47.9,23.2c-3.7,2.3-16.1,5.9-27.5,7.9
			c-19.5,3.5-21.1,3.4-27.7-2c-8.5-7-10.8-7.1-20.3-0.9c-6.1,4-9,4.3-17.2,1.6c-6.5-2.1-13.4-2.4-20.2-0.7
			c-5.7,1.4-33.7,2.4-62.1,2.3c-44-0.3-52.2-1-54.8-4.9c-2.6-3.9-11.2-4.6-59.6-4.7c-55.9-0.1-71.8-2.1-90.1-11.3
			c-4.3-2.2-13.7-6.8-20.8-10.2c-13.7-6.6-37.2-19.7-52.5-29.2c-6.4-4-16.2-6.3-32.1-7.4l-22.9-1.7v18c0,15.3-0.7,18.2-4.9,19.4
			c-2.7,0.8-5.5,3.9-6.2,6.8c-0.7,3-7.5,8.8-15.1,12.9c-23.9,13-28.1,15.9-28.1,20c0,2.2-3.4,7.1-7.6,11l-7.6,7.1l0.5,36.1
			c0.4,31.9-0.1,36.8-4.5,42.2c-5.4,6.7-18.2,8.2-21.4,2.5c-4.5-7.8-8.5-24.4-8.6-35.3c-0.1-13.9-8.7-28.6-12.7-21.8
			c-1.3,2.3-1.8,5.3-1.1,6.7c0.8,1.4,0.7,5.5-0.2,9.3c-2.1,9.4-20.2,13.2-27.6,5.7c-2.8-2.8-5.9-4.2-6.9-3c-1,1.1-1.5,11.1-1.1,22.1
			c0.4,12.2-0.9,26.3-3.4,35.9c-3.9,15.1-4.5,15.8-12.7,15.8c-10,0-13.9-4.3-23.3-25c-3.7-8.2-8.1-15.4-9.7-16
			c-1.7-0.6-3.6-8.6-4.3-17.7c-1.3-17.5-6.3-21.3-7.9-6c-0.5,4.6-1.9,9.9-3.2,11.6c-3.4,4.6-4.5,43.7-1.4,47.3
			c1.5,1.6,2.9,16.7,3.3,33.4c0.3,16.7,1.6,32,2.8,33.8c1.3,1.9,2.6,20.2,3,40.7c0.4,23.2,1.9,40.1,4,44.7c1.8,4,2.9,8.8,2.3,10.5
			c-0.6,1.7,0.8,4.8,2.9,6.8c2.2,2,4,5.9,4,8.7c0,2.8,1.7,6.7,3.9,8.7c2.1,2,3.9,5.3,3.9,7.5c0,2.1,2.2,6.2,4.8,9
			c2.7,2.8,5.6,9.7,6.6,15.3c1,5.6,4.3,15.4,7.5,21.9c3.1,6.5,9.6,20.1,14.4,30.1c12.3,25.8,21.3,40.3,25,40.3
			c1.8,0,9.5,7.3,17.1,16.2c7.7,8.9,17.7,20.2,22.4,25s8.4,11.1,8.4,13.8c0,2.8,3.3,8.7,7.4,13.3c8.9,9.9,12.2,19.9,8.3,25
			c-1.5,2.1-9.7,6.8-18.2,10.6c-9.2,4.1-16.7,9.5-18.6,13.4c-2.3,4.7-5.5,6.6-11.2,6.6c-4.4,0-12.4,2.6-17.8,5.9
			c-5.4,3.2-10.9,5.1-12.2,4.2s-4.8-0.2-7.7,1.5c-3.5,2.1-15.3,2.5-35.3,1.1c-26-1.7-30.7-2.8-35.6-8.3c-3.1-3.5-11.1-11.3-18-17.3
			c-18.8-16.7-22-23.3-23.7-48.3c-1.2-17.8-0.7-22.1,2.4-23.5c4.9-2.1,4.8-14.3-0.3-29.2c-2.2-6.3-6.3-21.8-9.1-34.3
			c-3-13-9-29.4-14.1-38.3c-4.9-8.5-8.9-17.3-8.9-19.5c0-2.2-4.5-12.9-10.1-23.9s-12-25-14.4-31.2s-6.6-14.2-9.5-17.6
			c-5.8-6.9-13.3-20.5-19.4-35.6l-4.1-10l-3.7,9.9c-2.1,5.4-5.3,11.9-7.2,14.3c-5,6.4-6.5,19.9-3.5,29.6c2.4,7.7,1.8,9.4-6.8,18.6
			c-5.2,5.6-9.4,12.9-9.5,16.3c0,3.4-2.4,12-5.3,19.1c-4.4,10.8-4.8,14.9-2.7,24.5c4.9,21.6,5.2,35.3,0.9,42
			c-3.5,5.5-3.8,15.1-2.4,69.8c0.9,35.2,2.8,65,4.2,66.9c1.4,1.9,2.4,14.1,2.1,27c-0.4,20,0.3,24.5,4.8,30
			c6.5,8.1,16.4,29.7,16.4,35.7c0,2.5,2.2,8,4.8,12.2c2.7,4.2,5.7,10.9,6.8,14.9c1.1,4,4.2,10.7,6.8,14.9
			c8.5,13.4,5.9,23.4-6.8,26.6c-25.5,6.6-33,7.3-58.5,6c-15.9-0.8-28.2-0.3-28.2,1.2C-669.6,1614.3-676.2,1617.8-678,1615.9
			L-678,1615.9L-678,1615.9z"/>
	</g>
</g>
</svg>
