<?xml version="1.0" encoding="utf-8"?>
<!-- Generator: Adobe Illustrator 18.0.0, SVG Export Plug-In . SVG Version: 6.00 Build 0)  -->
<!DOCTYPE svg PUBLIC "-//W3C//DTD SVG 1.1//EN" "http://www.w3.org/Graphics/SVG/1.1/DTD/svg11.dtd">
<svg version="1.1" id="Layer_1" xmlns="http://www.w3.org/2000/svg" xmlns:xlink="http://www.w3.org/1999/xlink" x="0px" y="0px"
	 viewBox="0 0 98.6 33.4" enable-background="new 0 0 98.6 33.4" xml:space="preserve">
<g>
	<path d="M28.3,31.6c-1.9,0.7-5.6,1.8-9.9,1.8c-4.9,0-8.9-1.2-12.1-4.3c-2.8-2.7-4.5-7-4.5-12c0-9.6,6.7-16.7,17.5-16.7
		c3.7,0,6.7,0.8,8.1,1.5l-1,3.4c-1.7-0.8-3.9-1.4-7.2-1.4c-7.9,0-13,4.9-13,13c0,8.2,4.9,13.1,12.5,13.1c2.7,0,4.6-0.4,5.6-0.9v-9.6
		h-6.6V16h10.7v15.6H28.3z"/>
	<path d="M34.7,1.1c2.1-0.4,5.1-0.7,8-0.7C47.1,0.4,50,1.2,52,3c1.6,1.4,2.5,3.6,2.5,6.1c0,4.3-2.7,7.1-6.1,8.3v0.1
		c2.5,0.9,4,3.2,4.8,6.5c1.1,4.5,1.8,7.6,2.5,8.9h-4.3c-0.5-0.9-1.2-3.7-2.2-7.7c-1-4.5-2.7-6.1-6.5-6.3h-3.9v14h-4.2V1.1H34.7z
		 M38.8,15.8h4.3c4.5,0,7.3-2.4,7.3-6.1c0-4.2-3-6-7.4-6c-2,0-3.5,0.2-4.1,0.4L38.8,15.8L38.8,15.8z"/>
	<path d="M64.7,0.6V33h-4.2V0.6H64.7z"/>
	<path d="M72,1.1c2.5-0.4,5.6-0.7,8.9-0.7c6,0,10.3,1.4,13.1,4c2.9,2.6,4.6,6.4,4.6,11.6c0,5.3-1.6,9.6-4.7,12.6
		c-3,3-8,4.7-14.3,4.7c-3,0-5.5-0.1-7.6-0.4V1.1z M76.1,29.7c1.1,0.2,2.6,0.2,4.2,0.2c8.9,0,13.8-5,13.8-13.7
		c0-7.6-4.3-12.5-13.1-12.5c-2.2,0-3.8,0.2-4.9,0.4V29.7z"/>
</g>
</svg>
