<?xml version="1.0" encoding="utf-8"?>
<!-- Generator: Adobe Illustrator 18.0.0, SVG Export Plug-In . SVG Version: 6.00 Build 0)  -->
<!DOCTYPE svg PUBLIC "-//W3C//DTD SVG 1.1//EN" "http://www.w3.org/Graphics/SVG/1.1/DTD/svg11.dtd">
<svg version="1.1"
	 id="Layer_1" sodipodi:docname="Apple.svg" inkscape:version="0.48.0 r9654" xmlns:cc="http://creativecommons.org/ns#" xmlns:svg="http://www.w3.org/2000/svg" xmlns:sodipodi="http://sodipodi.sourceforge.net/DTD/sodipodi-0.dtd" xmlns:rdf="http://www.w3.org/1999/02/22-rdf-syntax-ns#" xmlns:inkscape="http://www.inkscape.org/namespaces/inkscape" xmlns:dc="http://purl.org/dc/elements/1.1/"
	 xmlns="http://www.w3.org/2000/svg" xmlns:xlink="http://www.w3.org/1999/xlink" x="0px" y="0px" viewBox="0 0 154.3 189.6"
	 enable-background="new 0 0 154.3 189.6" xml:space="preserve">
<path id="path7" inkscape:connector-curvature="0" fill="#E3E3E3" stroke="#000000" stroke-width="3" stroke-miterlimit="10" d="
	M105,30.4c6.7-8.1,11-19.3,9.9-30.4c-9.5,0.4-21.1,6.3-28,14.4c-6.1,7.1-11.5,18.4-10,29.4C87.5,44.4,98.4,38.2,105,30.4
	 M154.3,138.9c-0.2,0.7-4,13.7-13.1,27.1c-7.9,11.5-16.1,23.1-29,23.3c-12.7,0.2-16.8-7.6-31.3-7.6c-14.5,0-19.1,7.4-31.1,7.8
	c-12.4,0.5-22-12.6-29.9-24C3.7,142-8.8,99,8,70.1C16.2,55.7,31,46.5,47.2,46.3c12.2-0.2,23.8,8.2,31.1,8.2
	c7.6,0,21.6-10.3,36.4-8.7c6.2,0.3,23.5,2.6,34.6,18.8c-0.9,0.6-20.7,12.3-20.5,36.1C129.1,129.4,154.1,138.8,154.3,138.9"/>
</svg>
