<?xml version="1.0" encoding="utf-8"?>
<!-- Generator: Adobe Illustrator 18.0.0, SVG Export Plug-In . SVG Version: 6.00 Build 0)  -->
<!DOCTYPE svg PUBLIC "-//W3C//DTD SVG 1.1//EN" "http://www.w3.org/Graphics/SVG/1.1/DTD/svg11.dtd">
<svg version="1.1" id="Layer_1" xmlns="http://www.w3.org/2000/svg" xmlns:xlink="http://www.w3.org/1999/xlink" x="0px" y="0px"
	 viewBox="0 0 127.6 34.5" enable-background="new 0 0 127.6 34.5" xml:space="preserve">
<g>
	<polygon fill="none" points="86,8 102,8 102,8 	"/>
</g>
<g>
	<path fill="#231F20" d="M3.6,33.9V1.5h4.6l10.4,16.4c2.4,3.8,4.3,7.2,5.8,10.5h0.1C24.1,24,24,20.1,24,15.1V1.5h3.9v32.4h-4.2
		L13.4,17.5c-2.3-3.6-4.4-7.3-6-10.8H7.3c0.2,4.1,0.3,8,0.3,13.3v13.8h-4V33.9z"/>
	<path fill="#231F20" d="M48,33.9L47.7,31h-0.1c-1.3,1.8-3.8,3.5-7.1,3.5c-4.7,0-7.1-3.3-7.1-6.7c0-5.6,5-8.7,14-8.6v-0.5
		c0-1.9-0.5-5.4-5.3-5.4c-2.2,0-4.4,0.7-6,1.7l-1-2.8c1.9-1.2,4.7-2.1,7.6-2.1c7.1,0,8.8,4.8,8.8,9.5v8.7c0,2,0.1,4,0.4,5.6
		C51.9,33.9,48,33.9,48,33.9z M47.3,22c-4.6-0.1-9.8,0.7-9.8,5.2c0,2.7,1.8,4,4,4c3,0,4.9-1.9,5.6-3.9c0.1-0.4,0.2-0.9,0.2-1.3V22z"
		/>
	<path fill="#231F20" d="M59.5,10.6L64,23.7c0.8,2.1,1.4,4,1.9,6H66c0.5-1.9,1.2-3.8,2-6l4.5-13.1h4.4l-9.1,23.2h-4L55,10.6H59.5z"
		/>
	<path fill="#231F20" d="M85.6,4.1c0,1.4-1,2.6-2.7,2.6c-1.5,0-2.5-1.2-2.5-2.6c0-1.5,1.1-2.6,2.6-2.6C84.6,1.5,85.6,2.6,85.6,4.1z
		 M80.9,33.9V10.6h4.2v23.2L80.9,33.9L80.9,33.9z"/>
	<path fill="#231F20" d="M94.5,23c0.1,5.7,3.7,8.1,8,8.1c3,0,4.8-0.5,6.4-1.2l0.7,3c-1.5,0.7-4,1.4-7.7,1.4
		c-7.2,0-11.4-4.7-11.4-11.7s4.1-12.5,10.9-12.5c7.6,0,9.6,6.7,9.6,10.9c0,0.9-0.1,1.5-0.1,2C110.9,23,94.5,23,94.5,23z M106.9,20
		c0-2.7-1.1-6.9-5.9-6.9c-4.3,0-6.1,3.9-6.5,6.9H106.9z"/>
	<path fill="#231F20" d="M116.2,17.9c0-2.7,0-5.1-0.2-7.2h3.7l0.1,4.6h0.2c1.1-3.1,3.6-5.1,6.4-5.1c0.5,0,0.8,0,1.2,0.1v4
		c-0.4-0.1-0.9-0.1-1.4-0.1c-3,0-5.1,2.3-5.7,5.4c-0.1,0.6-0.2,1.2-0.2,2V34h-4.2L116.2,17.9L116.2,17.9z"/>
</g>
</svg>
