<?xml version="1.0" encoding="utf-8"?>
<!-- Generator: Adobe Illustrator 18.0.0, SVG Export Plug-In . SVG Version: 6.00 Build 0)  -->
<!DOCTYPE svg PUBLIC "-//W3C//DTD SVG 1.1//EN" "http://www.w3.org/Graphics/SVG/1.1/DTD/svg11.dtd">
<svg version="1.1" id="Layer_1" xmlns="http://www.w3.org/2000/svg" xmlns:xlink="http://www.w3.org/1999/xlink" x="0px" y="0px"
	 viewBox="0 0 84.4 33.9" enable-background="new 0 0 84.4 33.9" xml:space="preserve">
<g>
	<polygon fill="none" points="86,8 102,8 102,8 	"/>
</g>
<g>
	<path fill="#231F20" d="M3.6,1.9c2-0.3,4.7-0.6,8-0.6c4.1,0,7.2,1,9.1,2.7c1.8,1.5,2.8,3.9,2.8,6.8S22.6,16,21,17.7
		c-2.2,2.4-5.8,3.6-9.9,3.6c-1.2,0-2.4,0-3.4-0.3v13H3.6V1.9z M7.8,17.5c0.9,0.2,2.1,0.3,3.5,0.3c5,0,8.1-2.4,8.1-6.9
		c0-4.3-3-6.3-7.6-6.3c-1.8,0-3.2,0.1-3.9,0.3v12.6H7.8z"/>
	<path fill="#231F20" d="M48.9,22.1c0,8.6-6,12.3-11.6,12.3c-6.3,0-11.1-4.6-11.1-12c0-7.8,5.1-12.3,11.5-12.3
		C44.4,10.1,48.9,15,48.9,22.1z M30.4,22.3c0,5.1,2.9,8.9,7.1,8.9c4,0,7.1-3.8,7.1-9c0-3.9-2-8.9-7-8.9
		C32.6,13.3,30.4,17.9,30.4,22.3z"/>
	<path fill="#231F20" d="M54.2-0.2h4.2v34.1h-4.2V-0.2z"/>
	<path fill="#231F20" d="M67.1,10.6l5.1,13.7c0.5,1.5,1.1,3.4,1.5,4.8h0.1c0.4-1.4,0.9-3.2,1.5-4.8l4.6-13.6h4.5L78,27.2
		c-3,8-5.1,12-8,14.5c-2.1,1.8-4.1,2.5-5.2,2.7l-1.1-3.6c1.1-0.3,2.4-1,3.7-2.1c1.2-0.9,2.6-2.5,3.6-4.7c0.2-0.4,0.3-0.8,0.3-1
		s-0.1-0.6-0.3-1.1l-8.6-21.4L67.1,10.6L67.1,10.6z"/>
</g>
</svg>
