<?xml version="1.0" encoding="utf-8"?>
<!-- Generator: Adobe Illustrator 18.0.0, SVG Export Plug-In . SVG Version: 6.00 Build 0)  -->
<!DOCTYPE svg PUBLIC "-//W3C//DTD SVG 1.1//EN" "http://www.w3.org/Graphics/SVG/1.1/DTD/svg11.dtd">
<svg version="1.1" id="Layer_1" xmlns="http://www.w3.org/2000/svg" xmlns:xlink="http://www.w3.org/1999/xlink" x="0px" y="0px"
	 viewBox="0 0 189 34.4" enable-background="new 0 0 189 34.4" xml:space="preserve">
<g>
	<polygon fill="none" points="86,8 102,8 102,8 	"/>
</g>
<g>
	<path fill="#231F20" d="M3.6,1.9c2-0.3,4.7-0.6,8-0.6c4.1,0,7.2,1,9.1,2.7c1.8,1.5,2.8,3.9,2.8,6.8S22.6,16,21,17.7
		c-2.2,2.4-5.8,3.6-9.9,3.6c-1.2,0-2.4,0-3.4-0.3v13H3.6V1.9z M7.8,17.5c0.9,0.2,2.1,0.3,3.5,0.3c5,0,8.1-2.4,8.1-6.9
		c0-4.3-3-6.3-7.6-6.3c-1.8,0-3.2,0.1-3.9,0.3v12.6H7.8z"/>
	<path fill="#231F20" d="M28.3,17.9c0-2.7,0-5.1-0.2-7.2h3.7l0.1,4.6h0.2c1.1-3.1,3.6-5.1,6.4-5.1c0.5,0,0.8,0,1.2,0.1v4
		c-0.4-0.1-0.9-0.1-1.4-0.1c-3,0-5.1,2.3-5.7,5.4c-0.1,0.6-0.2,1.2-0.2,2V34h-4.2V17.9H28.3z"/>
	<path fill="#231F20" d="M64.5,22.1c0,8.6-6,12.3-11.6,12.3c-6.3,0-11.1-4.6-11.1-12c0-7.8,5.1-12.3,11.5-12.3
		C60,10.1,64.5,15,64.5,22.1z M46.1,22.3c0,5.1,2.9,8.9,7.1,8.9c4,0,7.1-3.8,7.1-9c0-3.9-2-8.9-7-8.9S46.1,17.9,46.1,22.3z"/>
	<path fill="#231F20" d="M71.1,10.6l3.3,5c0.9,1.3,1.6,2.5,2.4,3.8h0.1c0.8-1.4,1.5-2.6,2.3-3.8l3.3-4.9h4.6l-7.9,11.2l8.2,12h-4.8
		l-3.4-5.2c-0.9-1.3-1.7-2.6-2.5-4h-0.1c-0.8,1.4-1.6,2.6-2.4,4l-3.4,5.2H66L74.3,22l-7.9-11.4H71.1z"/>
	<path fill="#231F20" d="M96.1,4.1c0,1.4-1,2.6-2.7,2.6c-1.5,0-2.5-1.2-2.5-2.6c0-1.5,1.1-2.6,2.6-2.6C95.1,1.5,96.1,2.6,96.1,4.1z
		 M91.4,33.9V10.6h4.2v23.2L91.4,33.9L91.4,33.9z"/>
	<path fill="#231F20" d="M102.6,16.9c0-2.4,0-4.4-0.2-6.3h3.7l0.2,3.7h0.1c1.3-2.2,3.5-4.3,7.3-4.3c3.2,0,5.6,1.9,6.6,4.7h0.1
		c0.7-1.3,1.6-2.3,2.6-3c1.4-1.1,2.9-1.6,5.1-1.6c3.1,0,7.6,2,7.6,10.1v13.7h-4.1V20.7c0-4.5-1.6-7.2-5-7.2c-2.4,0-4.3,1.8-5,3.8
		c-0.2,0.6-0.3,1.3-0.3,2.1v14.4h-4.1V20c0-3.7-1.6-6.4-4.8-6.4c-2.6,0-4.6,2.1-5.2,4.2c-0.2,0.6-0.3,1.3-0.3,2.1v14h-4.1v-17H102.6
		z"/>
	<path fill="#231F20" d="M147.4,4.1c0,1.4-1,2.6-2.7,2.6c-1.5,0-2.5-1.2-2.5-2.6c0-1.5,1.1-2.6,2.6-2.6
		C146.4,1.5,147.4,2.6,147.4,4.1z M142.7,33.9V10.6h4.2v23.2L142.7,33.9L142.7,33.9z"/>
	<path fill="#231F20" d="M159,4v6.7h6v3.2h-6v12.5c0,2.9,0.8,4.5,3.2,4.5c1.1,0,1.9-0.1,2.4-0.3l0.2,3.2c-0.8,0.3-2.1,0.6-3.7,0.6
		c-2,0-3.6-0.6-4.6-1.8c-1.2-1.2-1.6-3.3-1.6-6V13.9h-3.6v-3.2h3.6V5.1L159,4z"/>
	<path fill="#231F20" d="M171.7,10.6l5.1,13.7c0.5,1.5,1.1,3.4,1.5,4.8h0.1c0.4-1.4,0.9-3.2,1.5-4.8l4.6-13.6h4.5l-6.3,16.6
		c-3,8-5.1,12-8,14.5c-2.1,1.8-4.1,2.5-5.2,2.7l-1.1-3.6c1.1-0.3,2.4-1,3.7-2.1c1.2-0.9,2.6-2.5,3.6-4.7c0.2-0.4,0.3-0.8,0.3-1
		s-0.1-0.6-0.3-1.1l-8.6-21.4C167.1,10.6,171.7,10.6,171.7,10.6z"/>
</g>
</svg>
