<?xml version="1.0" encoding="utf-8"?>
<!-- Generator: Adobe Illustrator 18.0.0, SVG Export Plug-In . SVG Version: 6.00 Build 0)  -->
<!DOCTYPE svg PUBLIC "-//W3C//DTD SVG 1.1//EN" "http://www.w3.org/Graphics/SVG/1.1/DTD/svg11.dtd">
<svg version="1.1" id="Layer_1" xmlns="http://www.w3.org/2000/svg" xmlns:xlink="http://www.w3.org/1999/xlink" x="0px" y="0px"
	 viewBox="0 0 131.7 34" enable-background="new 0 0 131.7 34" xml:space="preserve">
<g>
	<polygon fill="none" points="86,8 102,8 102,8 	"/>
</g>
<g>
	<path fill="#231F20" d="M3.1,28.8c1.9,1.2,4.6,2.1,7.5,2.1c4.3,0,6.8-2.3,6.8-5.5c0-3-1.7-4.8-6.1-6.4C6,17.1,2.7,14.3,2.7,9.8
		c0-5,4.2-8.8,10.5-8.8c3.3,0,5.7,0.8,7.2,1.6L19.2,6c-1.1-0.6-3.2-1.5-6.1-1.5C8.7,4.5,7,7.1,7,9.3c0,3,2,4.5,6.4,6.2
		c5.5,2.1,8.3,4.8,8.3,9.5c0,5-3.7,9.3-11.3,9.3c-3.1,0-6.5-0.9-8.3-2.1L3.1,28.8z"/>
	<path fill="#231F20" d="M48.5,22.1c0,8.6-6,12.3-11.6,12.3c-6.3,0-11.1-4.6-11.1-12c0-7.8,5.1-12.3,11.5-12.3
		C44,10.1,48.5,15,48.5,22.1z M30,22.3c0,5.1,2.9,8.9,7.1,8.9c4,0,7.1-3.8,7.1-9c0-3.9-2-8.9-7-8.9C32.2,13.3,30,17.9,30,22.3z"/>
	<path fill="#231F20" d="M70.4,33c-1.1,0.6-3.6,1.3-6.7,1.3c-7,0-11.6-4.8-11.6-11.9c0-7.2,4.9-12.3,12.5-12.3
		c2.5,0,4.7,0.6,5.9,1.2l-1,3.3c-1-0.6-2.6-1.1-4.9-1.1c-5.3,0-8.2,3.9-8.2,8.8c0,5.4,3.5,8.7,8.1,8.7c2.4,0,4-0.6,5.2-1.2L70.4,33z
		"/>
	<path fill="#231F20" d="M91.6,33c-1.1,0.6-3.6,1.3-6.7,1.3c-7,0-11.6-4.8-11.6-11.9c0-7.2,4.9-12.3,12.5-12.3
		c2.5,0,4.7,0.6,5.9,1.2l-1,3.3c-1-0.6-2.6-1.1-4.9-1.1c-5.3,0-8.2,3.9-8.2,8.8c0,5.4,3.5,8.7,8.1,8.7c2.4,0,4-0.6,5.2-1.2L91.6,33z
		"/>
	<path fill="#231F20" d="M98.6,23c0.1,5.7,3.7,8.1,8,8.1c3,0,4.8-0.5,6.4-1.2l0.7,3c-1.5,0.7-4,1.4-7.7,1.4
		c-7.2,0-11.4-4.7-11.4-11.7s4.1-12.5,10.9-12.5c7.6,0,9.6,6.7,9.6,10.9c0,0.9-0.1,1.5-0.1,2C115,23,98.6,23,98.6,23z M111,20
		c0-2.7-1.1-6.9-5.9-6.9c-4.3,0-6.1,3.9-6.5,6.9H111z"/>
	<path fill="#231F20" d="M120.3,17.9c0-2.7,0-5.1-0.2-7.2h3.7l0.1,4.6h0.2c1.1-3.1,3.6-5.1,6.4-5.1c0.5,0,0.8,0,1.2,0.1v4
		c-0.4-0.1-0.9-0.1-1.4-0.1c-3,0-5.1,2.3-5.7,5.4c-0.1,0.6-0.2,1.2-0.2,2V34h-4.2L120.3,17.9L120.3,17.9z"/>
</g>
</svg>
