<?xml version="1.0" encoding="utf-8"?>
<!-- Generator: Adobe Illustrator 18.0.0, SVG Export Plug-In . SVG Version: 6.00 Build 0)  -->
<!DOCTYPE svg PUBLIC "-//W3C//DTD SVG 1.1//EN" "http://www.w3.org/Graphics/SVG/1.1/DTD/svg11.dtd">
<svg version="1.1" id="Layer_1" xmlns="http://www.w3.org/2000/svg" xmlns:xlink="http://www.w3.org/1999/xlink" x="0px" y="0px"
	 viewBox="0 0 153.8 33.8" enable-background="new 0 0 153.8 33.8" xml:space="preserve">
<g>
	<polygon fill="none" points="86,8 102,8 102,8 	"/>
</g>
<g>
	<path fill="#231F20" d="M10.8,33.9L0.2,1.5h4.5l5,15.9c1.4,4.4,2.6,8.3,3.5,12.1h0.1c0.9-3.7,2.3-7.8,3.7-12l5.5-16H27L15.4,33.9
		H10.8z"/>
	<path fill="#231F20" d="M49.7,22.1c0,8.6-6,12.3-11.6,12.3c-6.3,0-11.1-4.6-11.1-12c0-7.8,5.1-12.3,11.5-12.3
		C45.2,10.1,49.7,15,49.7,22.1z M31.3,22.3c0,5.1,2.9,8.9,7.1,8.9c4,0,7.1-3.8,7.1-9c0-3.9-2-8.9-7-8.9
		C33.5,13.3,31.3,17.9,31.3,22.3z"/>
	<path fill="#231F20" d="M55.1,17.9c0-2.7,0-5.1-0.2-7.2h3.7l0.1,4.6h0.2c1.1-3.1,3.6-5.1,6.4-5.1c0.5,0,0.8,0,1.2,0.1v4
		c-0.4-0.1-0.9-0.1-1.4-0.1c-3,0-5.1,2.3-5.7,5.4c-0.1,0.6-0.2,1.2-0.2,2V34H55V17.9H55.1z"/>
	<path fill="#231F20" d="M91.3,22.1c0,8.6-6,12.3-11.6,12.3c-6.3,0-11.1-4.6-11.1-12c0-7.8,5.1-12.3,11.5-12.3
		C86.8,10.1,91.3,15,91.3,22.1z M72.9,22.3c0,5.1,2.9,8.9,7.1,8.9c4,0,7.1-3.8,7.1-9c0-3.9-2-8.9-7-8.9S72.9,17.9,72.9,22.3z"/>
	<path fill="#231F20" d="M96.6,16.9c0-2.4,0-4.4-0.2-6.3h3.7l0.2,3.8h0.1c1.2-2.2,3.8-4.4,7.7-4.4c3.2,0,8.2,1.9,8.2,9.9v13.9h-4.2
		V20.5c0-3.7-1.4-6.9-5.4-6.9c-2.8,0-4.9,2-5.7,4.3c-0.2,0.5-0.3,1.2-0.3,2v14h-4.2v-17H96.6z"/>
	<path fill="#231F20" d="M144.3,22.1c0,8.6-6,12.3-11.6,12.3c-6.3,0-11.1-4.6-11.1-12c0-7.8,5.1-12.3,11.5-12.3
		C139.8,10.1,144.3,15,144.3,22.1z M125.9,22.3c0,5.1,2.9,8.9,7.1,8.9c4,0,7.1-3.8,7.1-9c0-3.9-2-8.9-7-8.9S125.9,17.9,125.9,22.3z"
		/>
	<path fill="#231F20" d="M154.3,4.1c0,1.4-1,2.6-2.7,2.6c-1.5,0-2.5-1.2-2.5-2.6c0-1.5,1.1-2.6,2.6-2.6
		C153.3,1.5,154.3,2.6,154.3,4.1z M149.6,33.9V10.6h4.2v23.2L149.6,33.9L149.6,33.9z"/>
</g>
</svg>
