<?xml version="1.0" encoding="utf-8"?>
<!-- Generator: Adobe Illustrator 16.0.0, SVG Export Plug-In . SVG Version: 6.00 Build 0)  -->
<!DOCTYPE svg PUBLIC "-//W3C//DTD SVG 1.1//EN" "http://www.w3.org/Graphics/SVG/1.1/DTD/svg11.dtd">
<svg version="1.1" id="Layer_1" xmlns="http://www.w3.org/2000/svg" xmlns:xlink="http://www.w3.org/1999/xlink" x="0px" y="0px"
	 width="420px" height="300px" viewBox="0 0 420 300" enable-background="new 0 0 420 300" xml:space="preserve">
<g>
	<path fill="#010101" d="M73.687,144.008c0-1.666-0.05-3.565-0.15-5.7c-0.1-2.133-0.217-4.5-0.35-7.1c0.133,2.6,0.25,4.967,0.35,7.1
		C73.637,140.442,73.687,142.342,73.687,144.008v59.6V144.008z M76.486,168.408c1.933,3.934,4.533,7,7.8,9.199
		c3.133,2.268,6.633,3.4,10.5,3.4c3.8,0,7.333-1.133,10.6-3.4c3.2-2.199,5.766-5.266,7.7-9.199c1.866-3.801,2.8-8,2.8-12.601
		c0-4.532-0.935-8.7-2.8-12.5c-1.934-3.933-4.5-7-7.7-9.2c-3.268-2.266-6.8-3.399-10.6-3.399c-3.867,0-7.367,1.134-10.5,3.399
		c-3.267,2.2-5.867,5.268-7.8,9.2c-1.867,3.935-2.8,8.034-2.8,12.3c0-4.266,0.933-8.365,2.8-12.3c1.933-3.933,4.533-7,7.8-9.2
		c3.133-2.266,6.633-3.399,10.5-3.399c3.8,0,7.333,1.134,10.6,3.399c3.2,2.2,5.766,5.268,7.7,9.2c1.866,3.8,2.8,7.968,2.8,12.5
		c0,4.601-0.935,8.8-2.8,12.601c-1.934,3.934-4.5,7-7.7,9.199c-3.268,2.268-6.8,3.4-10.6,3.4c-3.867,0-7.367-1.133-10.5-3.4
		C81.02,175.408,78.419,172.342,76.486,168.408c-1.867-3.934-2.8-8.033-2.8-12.301C73.687,160.375,74.619,164.475,76.486,168.408z"
		/>
	<path fill="#010101" d="M138.086,131.208h14.1H138.086v37.6c-0.067,2.2,0.416,4.268,1.45,6.2c1.033,1.935,2.483,3.5,4.35,4.7
		c1.333,0.865,2.75,1.399,4.25,1.6s3.016,0.101,4.55-0.3c-1.535,0.4-3.05,0.5-4.55,0.3s-2.917-0.734-4.25-1.6
		c-1.867-1.2-3.317-2.766-4.35-4.7c-1.034-1.933-1.517-4-1.45-6.2V131.208h-9.1H138.086v-12.1V131.208z"/>
	<path fill="#010101" d="M175.285,154.908l10-0.101L175.285,154.908l-10.1-0.101L175.285,154.908z"/>
	<path fill="#010101" d="M241.984,137.607c-0.467-2.8-1.168-5.532-2.1-8.199c-0.936-2.733-2.035-5.133-3.301-7.2
		c-1.268-2.066-2.667-3.866-4.199-5.4c-3.135-3.065-6.568-4.6-10.301-4.6c-3.8,0-7.234,1.534-10.3,4.6
		c-3.267,3.067-5.8,7.268-7.6,12.601c-1.8,5.334-2.7,11.066-2.7,17.199c0,6.2,0.9,11.935,2.7,17.2c1.8,5.2,4.333,9.4,7.6,12.601
		c3.065,3.066,6.5,4.6,10.3,4.6c3.732,0,7.166-1.533,10.301-4.6c1.532-1.533,2.932-3.351,4.199-5.45
		c1.266-2.101,2.365-4.483,3.301-7.15c1.865-5.466,2.799-11.266,2.799-17.399c0,6.134-0.934,11.934-2.799,17.399
		c-0.936,2.667-2.035,5.05-3.301,7.15c-1.268,2.1-2.667,3.917-4.199,5.45c-3.135,3.066-6.568,4.6-10.301,4.6
		c-3.8,0-7.234-1.533-10.3-4.6c-3.267-3.2-5.8-7.4-7.6-12.601c-1.8-5.266-2.7-11-2.7-17.2c0-6.133,0.9-11.865,2.7-17.199
		c1.8-5.333,4.333-9.533,7.6-12.601c3.065-3.065,6.5-4.6,10.3-4.6c3.732,0,7.166,1.534,10.301,4.6
		c1.532,1.535,2.932,3.334,4.199,5.4c1.266,2.067,2.365,4.467,3.301,7.2C240.816,132.075,241.518,134.808,241.984,137.607
		c0.465,2.801,0.699,5.734,0.699,8.801C242.684,143.342,242.449,140.408,241.984,137.607z"/>
	<path fill="#010101" d="M259.684,180.508l30.799-33.1c1.666-1.733,3-3.716,4-5.95c1-2.233,1.666-4.55,2-6.95s0.266-4.8-0.199-7.2
		c-0.467-2.399-1.301-4.665-2.5-6.8c-1.4-2.333-3.268-4.25-5.6-5.75c-2.335-1.5-4.9-2.383-7.701-2.65
		c-3.267-0.4-6.484-0.133-9.649,0.8c-3.167,0.935-6.017,2.467-8.55,4.6c2.533-2.133,5.383-3.666,8.55-4.6
		c3.165-0.933,6.383-1.2,9.649-0.8c2.801,0.267,5.366,1.15,7.701,2.65c2.332,1.5,4.199,3.417,5.6,5.75
		c1.199,2.135,2.033,4.4,2.5,6.8c0.465,2.4,0.533,4.8,0.199,7.2s-1,4.717-2,6.95c-1,2.234-2.334,4.217-4,5.95L259.684,180.508
		h40.299H259.684z"/>
</g>
<g>
</g>
<g>
</g>
<g>
</g>
<g>
</g>
<g>
</g>
<g>
</g>
</svg>
