<?xml version="1.0" encoding="UTF-8" standalone="no"?>
<!-- Created with Inkscape (http://www.inkscape.org/) -->

<svg
   xmlns:dc="http://purl.org/dc/elements/1.1/"
   xmlns:cc="http://creativecommons.org/ns#"
   xmlns:rdf="http://www.w3.org/1999/02/22-rdf-syntax-ns#"
   xmlns:svg="http://www.w3.org/2000/svg"
   xmlns="http://www.w3.org/2000/svg"
   xmlns:sodipodi="http://sodipodi.sourceforge.net/DTD/sodipodi-0.dtd"
   xmlns:inkscape="http://www.inkscape.org/namespaces/inkscape"
   width="2761.3535"
   height="2127.855"
   id="svg3126"
   version="1.1"
   inkscape:version="0.48.1 "
   sodipodi:docname="cowsilhouette.svg">
  <defs
     id="defs3128">
    <filter
       id="filter2984"
       inkscape:label="Black Light"
       inkscape:menu="Color"
       inkscape:menu-tooltip="Light areas turn to black"
       x="0"
       width="1"
       y="0"
       height="1"
       color-interpolation-filters="sRGB">
      <feColorMatrix
         id="feColorMatrix2986"
         type="luminanceToAlpha"
         result="result2" />
      <feComposite
         id="feComposite2988"
         in2="SourceGraphic"
         operator="arithmetic"
         in="result2"
         k3="2"
         result="result4" />
      <feBlend
         id="feBlend2990"
         in2="result2"
         in="result4"
         mode="multiply"
         result="result3" />
      <feComposite
         id="feComposite2992"
         in2="SourceGraphic"
         operator="in"
         in="result3" />
    </filter>
  </defs>
  <sodipodi:namedview
     id="base"
     pagecolor="#ffffff"
     bordercolor="#666666"
     borderopacity="1.0"
     inkscape:pageopacity="0.0"
     inkscape:pageshadow="2"
     inkscape:zoom="0.04"
     inkscape:cx="-802.52884"
     inkscape:cy="7133.1869"
     inkscape:document-units="px"
     inkscape:current-layer="layer1"
     showgrid="false"
     fit-margin-top="0"
     fit-margin-left="0"
     fit-margin-right="0"
     fit-margin-bottom="0"
     inkscape:window-width="1600"
     inkscape:window-height="1138"
     inkscape:window-x="-8"
     inkscape:window-y="-8"
     inkscape:window-maximized="1" />
  <metadata
     id="metadata3131">
    <rdf:RDF>
      <cc:Work
         rdf:about="">
        <dc:format>image/svg+xml</dc:format>
        <dc:type
           rdf:resource="http://purl.org/dc/dcmitype/StillImage" />
        <dc:title />
      </cc:Work>
    </rdf:RDF>
  </metadata>
  <g
     inkscape:label="Layer 1"
     inkscape:groupmode="layer"
     id="layer1"
     transform="translate(990.2181,511.41838)">
    <path
       style="fill:#000000;stroke:none;filter:url(#filter2984)"
       d="m -677.98036,1615.8739 c -0.61411,-0.684 -4.51478,-1.8385 -8.66815,-2.5653 -22.80768,-3.9916 -32.94043,-8.6396 -37.67052,-17.28 -2.64903,-4.8389 -4.82077,-10.9105 -4.82608,-13.4923 -0.005,-2.5819 -1.75742,-6.31 -3.89354,-8.2849 -2.20308,-2.0366 -3.99556,-8.7426 -4.14196,-15.4954 -0.41207,-19.0074 -3.18231,-25.8628 -13.46541,-33.3224 -12.38629,-8.9852 -17.9655,-26.0969 -11.21709,-34.4035 2.40304,-2.9578 4.44641,-10.3977 4.55709,-16.5924 0.27788,-15.5523 4.35492,-32.2958 10.0356,-41.2137 3.70563,-5.8175 5.42871,-16.9438 7.63997,-49.3332 1.57038,-23.0019 3.50905,-48.3112 4.30816,-56.243 2.00579,-19.9085 1.77869,-28.0104 -1.57645,-56.2429 -1.60241,-13.4838 -4.49214,-27.2182 -6.42161,-30.5209 -2.23555,-3.8264 -2.66505,-7.4884 -1.18402,-10.0949 3.56339,-6.2711 2.83766,-24.7495 -1.4176,-36.0941 -2.97409,-7.929 -3.24756,-13.1825 -1.23384,-23.7025 1.42292,-7.4336 1.92922,-19.3561 1.12512,-26.4947 -0.8041,-7.1385 -2.47247,-24.7702 -3.70748,-39.1815 -2.1624,-25.2331 -10.02767,-61.6437 -16.36481,-75.7574 -2.53299,-5.6414 -2.29547,-7.3892 1.4148,-10.4113 2.45235,-1.9976 5.61173,-10.4039 7.02087,-18.6809 3.03649,-17.83558 3.59114,-18.96468 14.60926,-29.74098 4.68484,-4.5821 9.96365,-12.7848 11.7307,-18.2283 1.76707,-5.4434 3.92953,-9.8973 4.80547,-9.8973 0.87597,0 4.2276,-7.4629 7.4481,-16.5844 3.22051,-9.1214 8.0749,-21.8722 10.78753,-28.3351 12.90091,-30.73627 16.18877,-55.84983 9.93014,-75.84894 -2.07604,-6.6339 -2.0822,-10.1892 -0.0233,-12.95385 1.56139,-2.09572 2.34116,-4.36488 1.73282,-5.04256 -1.20769,-1.34531 -4.54685,-46.05632 -4.24451,-56.83393 0.10305,-3.67417 -3.83383,-15.12125 -8.74867,-25.43796 -4.91484,-10.3167 -9.4425,-23.53451 -10.06149,-29.37288 -0.61898,-5.83836 -4.16461,-18.70137 -7.87915,-28.58447 -3.71369,-9.88309 -6.75286,-21.70726 -6.75286,-26.27588 0,-5.48911 -2.99335,-11.84213 -8.82498,-18.72996 -7.83678,-9.2562 -8.66754,-11.73089 -7.41899,-22.10006 0.97669,-8.1115 0.21553,-13.19811 -2.49294,-16.65945 -2.14441,-2.7405 -6.33663,-12.96223 -9.31604,-22.71496 -2.97941,-9.75275 -7.78017,-22.08293 -10.66834,-27.40039 -6.49866,-11.96483 -6.58336,-12.21423 -10.14033,-29.85793 -1.59904,-7.93169 -2.73883,-23.19267 -2.53288,-33.91326 0.28557,-14.86452 -0.69045,-20.80282 -4.11118,-25.01337 -2.4671,-3.03671 -5.12683,-11.1382 -5.9105,-18.00324 -0.78369,-6.86507 -2.33349,-13.77986 -3.44401,-15.3662 -1.11052,-1.58634 -2.85742,-12.36156 -3.88199,-23.94492 -1.70412,-19.26614 -2.32961,-20.98646 -7.34082,-20.18977 -4.8101,0.76474 -5.89284,4.03576 -8.88069,26.82917 -1.87149,14.27705 -4.00803,40.23322 -4.74787,57.68041 -0.73985,17.44716 -2.39625,33.13288 -3.6809,34.85717 -1.28465,1.72426 -1.90352,8.81381 -1.37526,15.7545 0.52827,6.94073 0.0634,19.80911 -1.03303,28.59639 -1.09643,8.78731 -1.1243,17.27482 -0.0619,18.86116 1.06235,1.58634 2.62053,7.87479 3.46261,13.97432 1.20186,8.70554 0.18824,13.45957 -4.71427,22.1105 -3.43493,6.06123 -7.45769,11.85512 -8.93948,12.87525 -3.64242,2.50763 -3.42692,19.73414 0.2988,23.88438 4.74549,5.28616 5.4505,42.79861 0.98513,52.41756 -2.08863,4.49918 -3.28915,10.60361 -2.66782,13.56545 0.62133,2.96184 2.10497,9.92786 3.29697,15.48004 1.192,5.55219 1.8513,45.72717 1.46511,89.27777 -0.70258,79.23035 -1.83845,90.08664 -10.63199,101.61698 -4.0373,5.29373 -3.4863,18.63143 2.3433,56.72283 2.85426,18.6501 2.71539,22.865 -1.15315,34.9982 -2.41902,7.5869 -4.39821,16.9413 -4.39821,20.78768 0,3.8463 -1.71068,9.5127 -3.80151,12.592 -5.29904,7.8042 -4.87817,27.324 0.94388,43.7776 4.44356,12.5579 4.54405,14.6544 1.05763,22.0667 -2.11884,4.5047 -4.93394,16.8037 -6.25579,27.3311 -3.04892,24.282 -12.15954,39.0249 -31.11381,50.3484 -7.65037,4.5704 -15.6575,9.9533 -17.79362,11.9618 -2.13612,2.0087 -13.40468,4.4254 -25.04123,5.3707 -25.46898,2.0688 -32.91148,-1.1565 -43.24718,-18.7417 -6.2656,-10.6603 -6.7437,-12.9884 -3.8877,-18.933 2.7243,-5.6704 2.5396,-8.1301 -1.1306,-15.0512 -2.4129,-4.5501 -3.6727,-10.347 -2.7995,-12.8819 0.8732,-2.5349 -0.4209,-8.0237 -2.8758,-12.1972 -3.34,-5.6784 -4.0714,-10.9359 -2.9059,-20.8885 4.2049,-35.9081 6.1571,-44.4745 11.1632,-48.9851 4.6977,-4.2328 5.1349,-7.5326 4.4432,-33.53728 -0.4868,-18.3038 0.6024,-34.9874 2.981,-45.6599 4.7109,-21.1377 4.6565,-26.2345 -0.4515,-42.3098 -4.9279,-15.50836 -3.4966,-54.56617 2.4903,-67.95556 6.7448,-15.08441 12.301,-37.60838 10.539,-42.72345 -1.0517,-3.05276 0.2315,-7.44284 3.3108,-11.32741 14.20107,-17.91447 20.84783,-38.92873 16.236,-51.33127 -2.83218,-7.61653 -2.56575,-9.34382 2.33818,-15.1586 3.67828,-4.36144 5.53459,-10.29355 5.53459,-17.68655 0,-6.33407 1.85786,-13.41082 4.31465,-16.43484 3.34591,-4.11845 4.52612,-12.58798 5.25656,-37.72242 0.94779,-32.61405 3.3625,-44.3906 14.92531,-72.79105 10.16285,-24.96191 11.75238,-34.14416 11.76875,-67.98472 0.0114,-23.60884 1.11416,-35.30976 3.88557,-41.22918 2.14504,-4.58157 4.32362,-18.72118 4.88832,-31.72677 0.5603,-12.90394 2.79992,-38.38772 4.97692,-56.63062 2.17702,-18.2429 4.0561,-46.57442 4.17574,-62.9589 0.11965,-16.38452 1.20367,-31.95948 2.40895,-34.61103 1.20529,-2.65158 2.4551,-13.21106 2.77735,-23.46556 0.32226,-10.25449 1.59162,-20.73781 2.82082,-23.29628 1.22919,-2.55845 2.97121,-14.93504 3.87114,-27.50351 0.89994,-12.56848 2.77279,-25.48356 4.16189,-28.70016 1.5692,-3.63367 1.62748,-8.54875 0.15388,-12.97913 -2.51806,-7.57056 0.99847,-22.57343 8.21513,-35.04898 2.12934,-3.68105 4.69854,-11.88445 5.70933,-18.2298 1.65886,-10.41371 10.77315,-32.222235 17.07355,-40.853325 1.3482,-1.84693 2.71872,-8.01505 3.0456,-13.70695 0.39698,-6.91251 2.5023,-11.837549 6.34028,-14.832069 3.16027,-2.46574 5.74594,-6.31647 5.74594,-8.5572 0,-6.86913 10.07994,-26.0748203 18.29679,-34.8615503 4.28306,-4.58013 13.0897,-16.4394597 19.57033,-26.3540797 6.48062,-9.91462 12.84583,-18.02658 14.1449,-18.02658 1.29908,0 2.39878,-1.62239 2.44379,-3.60531 0.1067,-4.70151 9.32974,-16.05577 20.91014,-25.74196 5.07329,-4.24345 13.78581,-12.26329 19.36117,-17.82188 25.7517,-25.674196 31.76437,-29.844886 52.8594,-36.665816 6.40836,-2.07214 14.56446,-5.9529 18.12466,-8.62395 10.01455,-7.51348 38.16331,-18.04847 42.85996,-16.04085 2.31454,0.98938 34.68966,3.77995 71.94475,6.20131 37.25509,2.42136 71.81456,5.65521 76.79885,7.18635 4.98428,1.53113 16.34456,2.79112 25.24506,2.79994 9.0527,0.009 16.18274,1.28687 16.18274,2.90035 0,1.58634 5.8416,2.88425 12.98131,2.88425 7.13972,0 15.00453,1.18332 17.47736,2.6296 7.07216,4.13631 30.87507,8.5643 56.23725,10.46168 12.79279,0.95702 24.44437,2.78264 25.89237,4.0569 2.64462,2.3273 12.17454,4.56995 30.76614,7.24016 5.5048,0.79061 13.6609,2.723 18.12467,4.29417 23.64882,8.323946 154.820381,26.028036 194.68432,26.276306 15.58608,0.0969 43.0901,0.0378 61.1201,-0.13181 18.39013,-0.17276 33.45366,0.90286 34.31223,2.45035 0.84176,1.51717 13.39599,2.89328 27.89825,3.05806 14.5023,0.16469 30.521,1.51293 35.59717,2.99596 13.92826,4.06924 81.26593,3.53029 90.79034,-0.72666 3.8546,-1.7228 23.04424,-4.21626 47.90089,-6.2241 7.1204,-0.57515 14.69392,-1.70803 16.83004,-2.51749 2.13612,-0.80947 8.54448,-2.20046 14.2408,-3.09112 5.69633,-0.89065 15.60016,-3.03495 22.00852,-4.76507 15.87648,-4.28637 30.40186,-7.09846 79.72562,-15.434786 23.19993,-3.92108 46.25235,-8.62576 51.22762,-10.45483 5.44265,-2.0009 14.19738,-2.53636 21.97851,-1.34424 7.85559,1.20351 14.20851,0.80171 16.18283,-1.0235 1.78763,-1.65265 7.2877,-2.98399 12.22235,-2.95853 10.24805,0.0528 47.54933,-6.99217 72.40829,-13.67568 9.25654,-2.48868 25.56874,-6.82506 36.24933,-9.63643 36.88495,-9.70891 45.35225,-12.40159 55.95218,-17.79339 5.85237,-2.97683 14.59869,-5.41244 19.43644,-5.41244 4.83765,0 12.86615,-1.43019 17.84101,-3.17822 9.68618,-3.40341 23.75173,-6.90129 46.58916,-11.58601 7.83249,-1.60667 57.93421,-4.18715 111.33726,-5.73441 53.4031,-1.54726 99.1196,-4.0576 101.5925,-5.57852 2.4728,-1.52095 9.1036,-2.76536 14.7352,-2.76536 5.6316,0 11.0039,-1.37798 11.9383,-3.06216 2.919,-5.26113 14.7428,-9.3309 33.5613,-11.55169 9.9686,-1.17643 27.4459,-3.77825 38.8386,-5.78188 17.7568,-3.1229 61.0038,-5.89729 91.8152,-5.89017 10.3941,0.002 20.8167,5.41401 20.8167,10.80842 0,2.05563 2.3244,5.12327 5.1654,6.81696 6.8414,4.07859 32.0567,-3.098 38.2464,-10.8854 2.928,-3.68379 11.0577,-6.95312 23.3786,-9.40165 10.3893,-2.06466 19.332,-4.5513 19.8726,-5.52589 0.5408,-0.97458 -0.578,-10.8141 -2.4862,-21.8656 -5.4004,-31.27711 -14.8895,-46.77856 -51.6765,-84.41918 -6.6702,-6.82496 -11.6635,-13.96349 -11.0961,-15.8634 1.6173,-5.41622 14.9141,-6.96639 29.0859,-3.39092 24.9074,6.284 42.6176,18.50761 66.6123,45.97579 l 22.5952,25.86623 11.0649,-4.47877 c 7.4755,-3.0259 11.321,-6.39847 11.8547,-10.3966 1.2668,-9.49133 35.2531,-40.98594 44.3669,-41.11422 5.2325,-0.0735 36.4042,-17.82786 36.4042,-20.73444 0,-2.824 19.0731,-3.25823 21.5574,-0.49081 0.9387,1.04563 11.087,2.1538 22.5516,2.46259 17.4777,0.47075 21.2341,-0.24865 23.2543,-4.45362 1.3252,-2.75829 5.2729,-5.81561 8.7726,-6.79406 3.4996,-0.97845 18.2013,-14.71952 32.6704,-30.53572 23.5862,-25.78229 26.4519,-30.03298 27.7058,-41.0955 0.769,-6.78633 2.8408,-14.28564 4.6037,-16.66516 1.7629,-2.37951 3.8451,-7.57116 4.6272,-11.53701 2.955,-14.98559 9.038,-29.51507 15.2577,-36.44334 l 6.4418,-7.17578 6.5092,9.5515 c 3.5801,5.25331 7.842,14.09418 9.4708,19.64636 6.0404,20.58953 2.3793,76.86575 -5.8522,89.95699 -2.2503,3.57878 -4.0914,8.8397 -4.0914,11.69093 0,2.85123 -2.9129,10.32413 -6.4732,16.60643 -3.5602,6.28231 -6.473,12.59153 -6.473,14.0205 0,5.1721 -24.9095,27.39202 -37.9532,33.85528 -7.3455,3.63974 -14.1455,8.04164 -15.1111,9.78197 -2.5452,4.58768 3.5727,11.5643 10.141,11.5643 3.1011,0 7.0341,1.55498 8.7403,3.45549 2.4099,2.68448 4.9807,1.51329 11.5221,-5.24906 18.0424,-18.652 29.3498,-21.94288 52.4371,-15.26114 5.6963,1.64859 15.0484,4.25669 20.7825,5.79579 7.1766,1.92632 12.8248,6.13893 18.1247,13.51821 7.3236,10.19715 7.6991,12.05588 7.6991,38.12024 0,26.24225 -0.3558,27.96669 -8.415,40.79781 -10.0556,16.00924 -10.3635,22.52659 -2.2045,46.67257 4.0482,11.98075 6.7086,27.31759 7.6413,44.05069 1.8226,32.705866 5.9051,45.838646 16.2726,52.347136 8.0913,5.07963 29.465,30.40192 34.491,40.8629 1.4844,3.09013 5.028,6.44178 7.8743,7.44812 2.8464,1.00632 5.8548,4.84574 6.6855,8.53202 0.8306,3.6863097 4.9112,10.3321697 9.0682,14.7686397 4.1571,4.43648 7.5583,9.6127003 7.5583,11.5027203 0,1.89002 6.6997,9.74384 14.8881,17.45293 8.1885,7.70912 16.0533,15.4206 17.4774,17.136639 1.424,1.71605 5.8464,5.36924 9.8274,8.11825 3.9812,2.74901 8.5375,8.17432 10.1255,12.05626 1.5877,3.88194 4.3201,7.05808 6.0717,7.05808 5.7671,0 10.7255,45.652355 6.34,58.372715 -7.3327,21.26951 -24.107,45.03315 -37.4468,53.04918 -7.1735,4.31055 -18.7271,13.33381 -25.6751,20.05175 -25.8896,25.03267 -44.414,31.1219 -86.5771,28.45901 l -30.2521,-1.91061 -14.2408,9.81915 c -7.8325,5.40054 -18.3189,12.67511 -23.3032,16.16578 -4.9843,3.49064 -13.1404,7.81843 -18.1247,9.61734 -4.9842,1.79887 -11.0561,5.58587 -13.4929,8.41552 -2.6154,3.03692 -6.5513,4.52713 -9.6065,3.63716 -2.8838,-0.8401 -9.1227,1.2096 -14.0893,4.62888 -9.5415,6.56891 -25.0712,8.58644 -78.0324,10.13757 -15.6648,0.45879 -30.5556,1.81918 -33.0906,3.02307 -2.5349,1.20391 -7.7781,2.45352 -11.6515,2.7769 -10.8708,0.90762 -29.5923,7.44758 -36.7951,12.85367 -3.5732,2.68193 -12.3226,6.51833 -19.4429,8.52536 -13.5412,3.81688 -22.918,11.78399 -30.3388,25.77769 -3.9023,7.35862 -3.9735,8.99483 -0.6237,14.32228 2.08,3.308 7.1551,6.83986 11.2779,7.84857 17.1921,4.20624 21.9336,19.991 20.2864,67.53441 -1.3091,37.78533 -2.3446,43.52331 -7.8751,43.63834 -1.696,0.0352 -5.9966,2.60223 -9.5568,5.70436 -3.5602,3.10213 -10.4159,5.66908 -15.235,5.70436 -9.0737,0.0663 -28.1326,5.27608 -32.6659,8.92904 -2.5258,2.03524 -31.9123,1.51121 -33.3379,-0.59448 -7.2168,-10.65929 -11.9738,-24.10661 -11.9738,-33.84805 0,-14.15701 -4.0458,-15.88701 -5.9489,-2.54383 -0.7354,5.1556 -2.6985,14.56547 -4.3624,20.91084 -2.7887,10.63418 -5.6651,24.42482 -9.5916,45.98721 -0.8505,4.67055 -3.7418,11.11682 -6.4249,14.32504 -2.6832,3.20821 -4.5764,7.82327 -4.2071,10.2557 1.4078,9.27383 -8.8976,25.86252 -30.6399,49.32161 -12.3988,13.37768 -29.0488,31.96696 -37.0001,41.30948 -21.2188,24.93142 -47.327,47.19996 -61.537,52.4869 -14.1301,5.2573 -24.3272,14.66319 -34.1817,31.52972 -13.4792,23.07036 -39.4124,52.61382 -63.9726,72.87863 -10.0989,8.33267 -20.0028,18.69405 -22.0085,23.02527 -3.6173,7.81111 -6.2637,10.80346 -22.3375,25.25751 -10.6276,9.55663 -14.5593,24.46386 -21.3623,80.9962 -4.0792,33.8985 -4.6107,45.6015 -2.3929,52.6885 1.6268,5.1982 1.9956,12.4949 0.8591,16.99138 -1.0956,4.3345 -2.1383,12.4235 -2.3171,17.9757 -0.179,5.5522 -0.5688,18.7683 -0.8665,29.3692 -0.457,16.2727 -1.3272,19.5522 -5.5874,21.0584 -2.7752,0.9812 -5.8047,4.6379 -6.7321,8.126 -0.9273,3.4881 -4.6376,11.2038 -8.2448,17.1461 -7.0099,11.5471 -17.0868,47.3229 -14.5947,51.8149 2.5612,4.6162 3.7027,19.9797 3.4909,46.9826 -0.1618,20.6201 1.1093,30.1102 6.181,46.148 3.5116,11.1044 6.6671,27.3284 7.0123,36.0532 0.3452,8.7249 1.8132,18.4592 3.2622,21.6319 1.4489,3.1727 2.3877,10.5407 2.0861,16.3732 -0.3537,6.8395 0.9305,11.9598 3.617,14.4213 2.2908,2.0991 8.2709,7.8975 13.289,12.8853 5.018,4.9879 12.2866,9.7735 16.1525,10.6347 6.8647,1.5294 13.1868,11.583 13.1868,20.97 0,2.3919 2.2452,9.8389 4.9892,16.5488 10.8969,26.6457 9.7616,31.5627 -7.5784,32.8228 -4.9843,0.3622 -17.8011,2.037 -28.4817,3.7218 -17.2484,2.7208 -40.4836,4.9504 -59.5524,5.7147 -15.71084,0.6297 -26.17856,-3.5668 -33.14033,-13.2861 -3.84605,-5.3694 -8.74062,-9.7631 -10.8767,-9.7638 -2.13617,-7e-4 -10.58353,-6.8924 -18.77198,-15.3151 -13.36232,-13.7446 -14.88814,-16.499 -14.88814,-26.8758 0,-6.3591 -1.88723,-18.6114 -4.19387,-27.2277 -5.41755,-20.2365 -5.56046,-47.7259 -0.30703,-59.0425 2.23133,-4.8066 4.87019,-13.886 5.86414,-20.1765 0.99396,-6.2905 3.64931,-14.6821 5.90076,-18.648 3.35061,-5.902 3.99975,-15.4959 3.5769,-52.8612 -0.2841,-25.1078 -1.61935,-47.9458 -2.9671,-50.7511 -1.34775,-2.8052 -2.92695,-17.9551 -3.50938,-33.6663 -0.58244,-15.7113 -1.6382,-30.5128 -2.34606,-32.8923 -0.70786,-2.3795 -2.75613,-9.518 -4.55174,-15.8634 -1.79552,-6.3453 -5.56907,-14.351 -8.38555,-17.7905 -3.89535,-4.7568 -4.69592,-8.4092 -3.34509,-15.2605 1.04869,-5.3185 0.59902,-10.5865 -1.09799,-12.8643 -2.01981,-2.711 -2.08787,-6.1605 -0.22919,-11.60658 4.19767,-12.2985 3.13638,-21.0915 -3.99431,-33.0944 -6.09986,-10.2677 -6.43652,-12.4182 -4.14375,-26.47 1.5028,-9.21 1.56887,-18.0094 0.16629,-22.1192 -1.28114,-3.7535 -2.40514,-12.9054 -2.49776,-20.3372 -0.0927,-7.43187 -1.54911,-23.84898 -3.23661,-36.48256 l -3.06814,-22.97006 -9.06233,-2.19151 c -9.52379,-2.30311 -21.0788,-4.59003 -29.77619,-5.89319 -4.62469,-0.69295 -5.13571,0.76622 -4.77875,13.64533 0.66074,23.83849 -6.36556,85.42989 -10.32716,90.52629 -1.98981,2.5598 -4.42368,8.421 -5.40858,13.025 -0.9848,4.604 -5.01582,11.7426 -8.95757,15.8634 -9.5584,9.9925 -26.1972,34.5194 -29.01169,42.76538 -1.24263,3.6408 -4.9541,7.9874 -8.24772,9.659 -6.50856,3.3033 -14.5386,21.1618 -16.74918,37.2491 -0.7645,5.5633 -2.58639,12.7036 -4.04877,15.8674 -1.46239,3.1639 -3.10095,29.1222 -3.64134,57.6851 -0.5403,28.563 -2.01302,59.2787 -3.27259,68.2573 -2.59772,18.5168 -1.22341,27.2359 5.57388,35.3633 2.59563,3.1034 4.7193,7.9327 4.7193,10.7316 0,9.1214 5.25406,18.2117 14.36624,24.8556 6.75297,4.9237 8.93681,8.5377 8.93681,14.7892 0,4.5501 -1.51195,9.6709 -3.35994,11.3793 -4.19052,3.8741 -22.41541,4.6494 -51.01404,2.1703 -12.10464,-1.0492 -34.05669,-2.2007 -48.78234,-2.5585 -25.89253,-0.6295 -26.94358,-0.9106 -31.93402,-8.5419 -2.83823,-4.3401 -6.775,-7.8911 -8.7485,-7.8911 -1.9735,0 -8.28469,-2.7269 -14.02487,-6.0597 -14.7204,-8.547 -14.13425,-16.6262 2.50952,-34.5903 15.98652,-17.2546 16.79832,-25.1042 3.08914,-29.8719 -3.28525,-1.1426 -7.87113,-6.5108 -10.19082,-11.9296 -4.15842,-9.7139 -4.11319,-9.9736 3.22106,-18.5012 4.15684,-4.8331 10.13914,-8.649 13.55949,-8.649 6.27077,0 11.65152,-9.9614 16.3585,-30.2846 1.10225,-4.7589 5.70945,-19.685 10.23835,-33.1689 9.86743,-29.3782 13.03308,-42.8345 14.5889,-62.0114 0.64343,-7.9317 2.17577,-17.0171 3.40508,-20.1898 3.41151,-8.8041 8.33453,-55.95998 6.23688,-59.74078 -4.69565,-8.4633 -5.84883,-89.14427 -1.71867,-120.24831 1.98093,-14.91807 2.9999,-28.87064 2.2644,-31.00571 -0.78244,-2.27112 -5.40015,-3.9341 -11.12827,-4.00759 -5.38493,-0.0693 -15.03404,-1.35216 -21.44247,-2.85131 -6.40834,-1.49912 -23.30309,-3.96665 -37.5439,-5.48337 -25.62737,-2.72942 -25.99838,-2.67895 -36.24932,4.9315 -5.69632,4.22906 -14.18425,11.2958 -18.86208,15.70386 -4.67779,4.40809 -10.2281,8.0147 -12.33401,8.0147 -2.10588,0 -5.85209,1.11258 -8.32492,2.47241 -16.03731,8.81907 -23.51548,13.73905 -30.13517,19.82635 -4.9839,4.58306 -10.21561,6.67803 -15.53542,6.22096 -7.29248,-0.62655 -15.86578,3.53583 -47.86099,23.23672 -3.72143,2.29142 -16.08748,5.85007 -27.48013,7.90804 -19.52162,3.52642 -21.11771,3.41113 -27.72946,-2.00308 -8.53748,-6.99114 -10.8482,-7.09455 -20.25254,-0.90629 -6.13773,4.03876 -8.98572,4.29742 -17.22954,1.56494 -6.4827,-2.14874 -13.43514,-2.39111 -20.23328,-0.70529 -5.69632,1.41257 -33.66009,2.43206 -62.14169,2.26552 -43.95125,-0.25698 -52.24294,-0.99129 -54.81366,-4.85431 -2.59276,-3.89616 -11.16788,-4.57131 -59.55246,-4.68869 -55.90194,-0.13557 -71.811639,-2.13802 -90.0652,-11.33567 -4.33738,-2.18551 -13.71192,-6.77393 -20.83233,-10.19647 -13.71632,-6.59297 -37.15946,-19.65464 -52.47817,-29.23899 -6.41172,-4.01156 -16.19777,-6.27423 -32.09944,-7.42184 l -22.87573,-1.65091 0,18.00245 c 0,15.28597 -0.74529,18.21957 -4.9391,19.44122 -2.7165,0.79132 -5.51018,3.87145 -6.20816,6.84474 -0.69801,2.97328 -7.50538,8.79045 -15.12752,12.92704 -23.93293,12.9886 -28.09921,15.94985 -28.09921,19.97205 0,2.15193 -3.40671,7.10583 -7.57048,11.00853 l -7.57049,7.096 0.45009,36.1201 c 0.39744,31.8966 -0.12661,36.8302 -4.48239,42.1928 -5.44278,6.7009 -18.15646,8.1645 -21.43344,2.4673 -4.48008,-7.7888 -8.51548,-24.3536 -8.60738,-35.3321 -0.11599,-13.8704 -8.74882,-28.6243 -12.7377,-21.7696 -1.34058,2.3037 -1.82204,5.2978 -1.0699,6.6535 0.75212,1.3557 0.67892,5.521 -0.1626,9.2564 -2.12777,9.4436 -20.19694,13.1603 -27.61652,5.6806 -2.76793,-2.7903 -5.86095,-4.1506 -6.87337,-3.0228 -1.01242,1.1277 -1.50958,11.0872 -1.10477,22.1322 0.44828,12.2309 -0.87869,26.26888 -3.39415,35.90778 -3.93371,15.0732 -4.53876,15.8261 -12.71888,15.8261 -9.97025,0 -13.94973,-4.2721 -23.25785,-24.9675 -3.67905,-8.17998 -8.06607,-15.38388 -9.74892,-16.00868 -1.68287,-0.6249 -3.61442,-8.5869 -4.29236,-17.6933 -1.30505,-17.5305 -6.32919,-21.3375 -7.9233,-6.0038 -0.48201,4.6367 -1.93292,9.8538 -3.22419,11.5936 -3.42562,4.6154 -4.54451,43.73798 -1.35255,47.29358 1.47918,1.6477 2.94743,16.6969 3.26275,33.4426 0.31532,16.7457 1.59713,31.975 2.84845,33.8429 1.25133,1.868 2.57888,20.2026 2.95013,40.7438 0.42005,23.2418 1.93227,40.1265 4.00394,44.7059 1.83093,4.0471 2.86742,8.786 2.30336,10.5308 -0.5641,1.7449 0.76095,4.8241 2.9445,6.8428 2.18353,2.0186 3.97008,5.9482 3.97008,8.7325 0,2.7841 1.74774,6.6778 3.88385,8.6527 2.13613,1.9748 3.88387,5.328 3.88387,7.4514 0,2.1235 2.17565,6.1827 4.8348,9.0206 2.65917,2.838 5.64114,9.7026 6.62663,15.2548 0.98547,5.5522 4.3443,15.4291 7.46405,21.9488 3.11975,6.5197 9.58289,20.0596 14.36258,30.0888 12.29918,25.8074 21.25789,40.2584 24.9576,40.2584 1.75095,0 9.46094,7.3076 17.13329,16.2389 7.67236,8.9315 17.73649,20.2025 22.36475,25.0469 4.62827,4.8444 8.41503,11.0651 8.41503,13.8239 0,2.7587 3.33877,8.7351 7.41948,13.2808 8.8578,9.867 12.1909,19.8782 8.33936,25.0478 -1.53651,2.0623 -9.72311,6.8157 -18.19242,10.563 -9.211,4.0754 -16.67378,9.4671 -18.57169,13.4174 -2.25782,4.6994 -5.48481,6.6042 -11.18877,6.6042 -4.40872,0 -12.42554,2.6328 -17.81519,5.8505 -5.38963,3.2178 -10.8828,5.1047 -12.20702,4.193 -1.32421,-0.9117 -4.77303,-0.2474 -7.66401,1.4761 -3.5006,2.0869 -15.28154,2.466 -35.27028,1.1347 -26.04511,-1.7345 -30.7497,-2.8306 -35.57767,-8.289 -3.06004,-3.4595 -11.14765,-11.2502 -17.97249,-17.3125 -18.79642,-16.6963 -22.04674,-23.3183 -23.68417,-48.2523 -1.16607,-17.7561 -0.71009,-22.1433 2.44142,-23.4905 4.92361,-2.1047 4.80679,-14.2976 -0.28013,-29.238 -2.16049,-6.3454 -6.26575,-21.7947 -9.12282,-34.3317 -2.96685,-13.0189 -9.0065,-29.4325 -14.08286,-38.2723 -4.88861,-8.5127 -8.8883,-17.2832 -8.8883,-19.4898 0,-2.2067 -4.54425,-12.9452 -10.09831,-23.8633 -5.5541,-10.9181 -12.01806,-24.9692 -14.36439,-31.2246 -2.34634,-6.2554 -6.61191,-14.1549 -9.47905,-17.5546 -5.80745,-6.8861 -13.25557,-20.522 -19.44903,-35.6068 l -4.09853,-9.9825 -3.73559,9.8966 c -2.05458,5.4432 -5.27956,11.8822 -7.1666,14.3089 -4.95517,6.3723 -6.54794,19.8892 -3.49368,29.6489 2.40217,7.676 1.78575,9.3752 -6.75271,18.6135 -5.16791,5.5915 -9.42177,12.9387 -9.45304,16.327 -0.0314,3.3883 -2.43285,11.9957 -5.33681,19.1276 -4.39432,10.792 -4.84335,14.9041 -2.67701,24.5161 4.86095,21.568 5.1626,35.2889 0.92405,42.0298 -3.45927,5.5015 -3.78532,15.1495 -2.35885,69.8019 0.91791,35.1676 2.81101,64.9694 4.24977,66.9004 1.42695,1.9153 2.3925,14.0611 2.14567,26.9906 -0.38121,19.9667 0.34101,24.4918 4.79387,30.0375 6.51763,8.117 16.44083,29.6865 16.44083,35.7363 0,2.4824 2.17744,7.9585 4.83877,12.1693 2.66134,4.2107 5.72708,10.9007 6.81279,14.8666 1.08572,3.9657 4.15146,10.6557 6.81281,14.8664 8.4683,13.3985 5.91669,23.3792 -6.81281,26.6482 -25.51376,6.5518 -32.9716,7.3205 -58.52522,6.0319 -15.87778,-0.8008 -28.21422,-0.2914 -28.21422,1.165 0,2.8798 -6.62723,6.3982 -8.37802,4.4479 l 0,0 z"
       id="path3145"
       inkscape:connector-curvature="0" />
  </g>
</svg>
