<?xml version="1.0" encoding="UTF-8" standalone="no"?>
<!-- Generator: Adobe Illustrator 11.0, SVG Export Plug-In  -->
<svg
   xmlns:dc="http://purl.org/dc/elements/1.1/"
   xmlns:cc="http://web.resource.org/cc/"
   xmlns:rdf="http://www.w3.org/1999/02/22-rdf-syntax-ns#"
   xmlns:svg="http://www.w3.org/2000/svg"
   xmlns="http://www.w3.org/2000/svg"
   xmlns:sodipodi="http://sodipodi.sourceforge.net/DTD/sodipodi-0.dtd"
   xmlns:inkscape="http://www.inkscape.org/namespaces/inkscape"
   width="511"
   height="454"
   viewBox="-0.952 -0.602 511 454"
   xml:space="preserve"
   id="svg2"
   sodipodi:version="0.32"
   inkscape:version="0.44"
   sodipodi:docname="1_1_43_3.svg"
   sodipodi:docbase="/home/bruno/data/imagens/icons"><metadata
   id="metadata15"><rdf:RDF><cc:Work
       rdf:about=""><dc:format>image/svg+xml</dc:format><dc:type
         rdf:resource="http://purl.org/dc/dcmitype/StillImage" /></cc:Work></rdf:RDF></metadata><sodipodi:namedview
   inkscape:window-height="789"
   inkscape:window-width="1042"
   inkscape:pageshadow="2"
   inkscape:pageopacity="0.0"
   guidetolerance="10.0"
   gridtolerance="10.0"
   objecttolerance="10.0"
   borderopacity="1.0"
   bordercolor="#666666"
   pagecolor="#ffffff"
   id="base"
   inkscape:zoom="0.83480176"
   inkscape:cx="255.5"
   inkscape:cy="226.40106"
   inkscape:window-x="5"
   inkscape:window-y="73"
   inkscape:current-layer="svg2" />
	<defs
   id="defs4">
	
		
		
		
	</defs>
	<path
   id="path12"
   d="M 482.38996,236.47128 C 482.06757,234.85933 482.06757,233.08619 482.22876,231.47425 C 482.22876,230.34588 482.22876,229.37872 482.22876,228.41155 C 482.22876,227.44438 482.22876,226.31601 482.22876,225.34884 C 482.06757,223.41451 482.22876,221.48017 482.55115,219.54584 C 483.51832,214.38761 484.1631,209.55176 484.48549,204.55473 C 484.80788,201.00845 484.96908,197.46217 485.13028,193.91588 L 485.45267,188.43527 L 486.41983,180.85912 L 487.387,171.18744 C 487.5482,170.54266 487.5482,169.89788 487.5482,169.4143 C 487.5482,168.76952 487.5482,168.12474 487.387,167.64116 L 486.41983,158.29186 C 487.387,162.64411 488.35417,166.99638 488.83775,171.34863 L 491.25567,187.14571 L 491.41687,189.24124 L 491.90045,193.75468 L 492.22284,197.13978 L 492.22284,202.29801 L 492.06164,206.81145 L 492.54523,214.5488 L 493.02881,224.22048 L 493.5124,231.47425 L 493.3512,243.72505 L 493.02881,248.0773 L 492.70642,251.94597 L 491.90045,256.78181 C 491.90045,257.74897 492.06164,258.87735 492.06164,259.84451 C 492.06164,261.13407 491.90045,262.58482 491.90045,264.03557 C 491.90045,264.19677 491.90045,264.35796 491.90045,264.51916 C 491.90045,265.48633 492.06164,266.45349 492.22284,267.25947 C 492.86762,269.03261 493.19001,270.80575 493.3512,272.74008 C 493.67359,274.67443 493.83478,276.60876 494.31837,278.5431 C 494.80195,280.47743 495.12434,282.41177 495.12434,284.5073 L 495.28554,288.53716 C 495.28554,289.34313 495.76912,290.14912 496.4139,290.47151 C 497.38107,291.11629 498.67062,291.59987 499.96018,291.59987 C 500.12137,291.59987 500.28257,291.76106 500.44376,291.76106 C 501.41094,291.76106 502.21691,291.43867 503.02289,291.11629 C 504.63483,290.6327 505.44081,289.18194 505.44081,287.56999 L 505.44081,279.51026 C 505.44081,275.96398 505.11842,272.41769 504.47364,268.87141 C 503.99005,265.96991 503.99005,262.90721 504.31244,259.84451 C 504.47364,259.03854 504.63483,258.07136 504.95722,257.1042 C 505.11842,256.13703 505.11842,255.16986 505.11842,254.0415 L 505.11842,254.0415 C 505.11842,253.23553 504.95722,252.42955 504.47364,251.94597 C 503.50647,250.65641 502.86169,249.52805 502.37811,248.0773 C 501.57213,246.30416 500.92736,244.53102 500.44376,242.59668 C 499.96018,241.14592 499.63779,239.53398 499.79898,237.92203 C 499.96018,235.34292 499.96018,232.7638 499.96018,230.18469 L 499.96018,230.0235 C 499.96018,226.63841 500.28257,223.25331 500.76615,219.86823 C 501.24975,216.96672 501.57213,213.90403 501.57213,210.84133 L 501.57213,190.5308 L 501.89452,164.73965 L 501.57213,153.29483 C 501.41094,151.36049 501.41094,149.42616 501.24975,147.49182 C 501.08855,141.20522 499.96018,135.24102 497.86465,129.43801 C 495.76912,123.7962 492.86762,118.79916 488.83775,114.2857 C 485.13028,110.25584 481.1004,106.54836 476.58695,103.32447 C 473.68545,101.22894 470.62275,99.455795 467.39885,98.166237 C 462.72421,96.231901 457.72718,94.45876 452.73013,93.169202 C 449.34505,92.202034 445.95996,91.71845 442.41368,91.557255 C 439.99576,91.396061 436.93305,91.396061 434.03155,91.234866 C 432.09722,91.234866 431.29124,91.234866 430.64646,91.234866 C 425.81063,91.234866 421.13597,91.557255 416.46133,92.363228 C 414.20461,92.846813 412.10908,93.169202 409.85235,93.491591 C 406.62846,93.975175 403.56575,94.297565 400.50306,94.619954 C 392.92691,95.425927 385.18956,96.070707 377.45222,96.554291 C 363.91186,97.199069 349.08195,98.488627 334.09085,99.939379 C 327.80426,100.74535 322.64602,101.22894 317.48779,101.55133 C 316.19824,101.71252 313.94151,101.87372 311.84598,102.03491 C 309.42805,102.19611 307.65491,102.19611 305.88177,101.87372 C 304.43102,101.71252 302.98027,101.55133 301.36832,101.39013 C 295.88771,100.58416 290.56828,100.26177 285.24885,100.26177 C 271.06372,100.26177 256.71739,99.294601 242.53226,97.199069 C 226.89637,94.942344 211.58288,93.652786 195.94699,93.652786 C 195.30221,93.652786 194.81863,93.652786 194.49624,93.652786 C 190.46637,93.652786 186.43651,93.652786 182.56783,93.975175 C 178.37677,94.297565 173.86332,94.781149 169.34987,95.264733 C 165.31999,95.748318 160.96774,96.070707 156.45429,96.393096 C 150.81247,96.87668 145.65424,97.037874 140.49602,96.87668 C 136.78854,96.715485 133.08106,96.393096 129.21239,96.070707 C 125.02133,95.748318 120.83027,94.942344 116.6392,93.81398 C 111.64217,92.524423 106.64513,90.912476 101.80929,88.816945 C 99.874951,88.172167 98.101809,87.204998 96.328667,86.23783 L 93.427166,84.464688 L 94.716716,81.401989 C 95.200307,80.918405 95.361497,80.273627 95.361497,79.467653 C 95.361497,79.306458 95.361497,79.145264 95.361497,78.984069 C 95.039107,77.694511 94.394326,76.727343 93.104775,76.243759 C 91.654025,75.760175 90.042073,75.115396 88.268932,74.631812 C 87.140569,74.148228 85.851012,73.664645 84.722649,73.18106 C 83.110702,72.375087 81.33756,71.730308 79.564419,71.407918 C 77.791277,71.085529 76.17933,70.118361 75.050967,68.667608 L 68.603179,60.769068 C 68.28079,60.446679 67.958401,60.285485 67.636011,60.12429 C 67.474816,60.12429 67.313622,60.12429 67.152427,60.12429 C 66.668843,60.12429 66.346454,60.446679 66.024064,60.930264 C 65.862869,61.413848 65.862869,61.897431 65.862869,62.381015 C 65.862869,62.8646 65.862869,63.348184 66.024064,63.670573 L 66.830038,65.604909 L 68.441985,69.957166 L 70.376321,75.115396 L 70.215126,75.115396 C 67.474816,75.276592 65.056896,75.92137 62.80017,77.049733 C 61.671808,77.694511 59.898666,78.66168 58.286719,79.628847 C 56.029993,80.757211 54.740436,81.885574 53.612072,83.336326 C 53.128489,83.81991 52.644905,84.303494 52.000126,84.625883 C 51.194153,85.109468 50.226984,85.270662 49.259817,84.948273 C 47.809064,84.625883 46.358312,83.658715 45.391143,82.369158 L 38.298577,73.18106 C 37.814994,72.697476 37.331409,72.375087 36.68663,72.375087 C 36.525436,72.213892 36.364241,72.213892 36.364241,72.213892 C 35.719462,72.213892 35.235878,72.536281 34.913489,73.019865 C 34.591099,73.664645 34.429904,74.309423 34.429904,74.954201 C 34.429904,75.276592 34.429904,75.760175 34.591099,76.243759 L 35.719462,78.822875 L 37.814994,83.981104 L 39.42694,87.204998 L 41.200082,89.622919 L 42.489639,91.557255 L 45.229949,96.231901 C 45.391143,96.554291 45.552338,96.87668 45.552338,97.199069 C 45.552338,97.682654 45.391143,98.005043 45.068754,98.327432 C 43.940391,99.778184 42.650834,101.22894 41.200082,102.67969 C 40.071719,103.80805 38.620967,104.61403 37.170214,104.93641 C 35.397073,105.42 33.94632,106.87075 33.462737,108.64389 C 32.979152,110.25584 32.495568,112.02898 32.334373,113.64093 C 32.011984,116.38124 30.722427,118.79916 28.949285,120.7335 C 27.498533,122.02306 26.37017,123.47381 25.403002,125.08575 C 23.791055,127.50367 22.179108,129.92159 20.244771,132.17833 C 18.794019,133.95147 17.665657,136.047 16.698488,137.98133 C 15.731321,140.39925 14.441763,142.65597 12.668621,144.42911 L 2.5133554,155.39036 C 2.3521613,156.19633 2.1909662,157.0023 2.1909662,157.80828 C 2.1909662,158.45305 2.1909662,158.93664 2.3521613,159.42022 C 2.6745505,161.67695 3.3193289,163.93368 3.9641073,166.02921 C 4.6088867,167.80235 5.5760543,169.2531 6.7044181,170.70385 C 7.8327808,171.99341 8.9611428,173.28297 10.411895,174.41133 C 11.862647,175.53969 13.635789,176.50686 15.40893,177.15164 C 16.214904,177.31283 17.020877,177.47403 17.826851,177.47403 C 19.116409,177.47403 20.405967,177.15164 21.534329,176.50686 C 22.662692,175.86208 23.791055,175.53969 25.080612,175.2173 C 26.853754,174.73372 28.78809,174.73372 30.722427,175.05611 C 33.462737,175.53969 35.880656,176.02327 38.137383,176.50686 C 37.331409,176.34566 38.620967,176.34566 39.910524,176.34566 C 41.200082,176.34566 42.650834,176.18447 44.101586,176.02327 C 46.519506,175.3785 48.937427,174.89491 51.194153,174.57252 C 52.48371,174.25013 54.579241,173.60535 56.513577,172.79938 C 57.964329,172.1546 59.576276,172.1546 61.188223,172.63819 C 62.961365,173.28297 64.734506,174.08894 66.507649,175.05611 C 70.537516,177.31283 74.889772,178.76358 79.403224,179.56956 C 81.015171,179.89195 82.627118,180.21434 84.07787,180.53673 C 86.173401,180.85912 88.752516,181.18151 91.170434,181.18151 C 92.943575,181.34271 94.716716,181.66509 96.489857,182.47107 C 99.713761,184.08301 102.61526,186.50093 104.71079,189.56363 C 107.45111,193.59349 109.86902,197.78456 111.96455,202.29801 C 113.5765,205.68309 115.51084,209.22937 117.44517,212.61447 C 118.89592,215.03239 120.18548,217.93389 121.31385,220.83539 C 122.9258,224.86526 124.53774,228.41155 126.31088,232.11902 C 127.43925,234.69814 128.56761,237.27725 129.53477,240.01756 C 129.85716,240.82353 130.34075,241.62951 130.82433,242.27428 C 135.33778,248.39969 141.46318,252.91314 148.55575,255.16986 L 152.90801,256.62061 L 148.39455,260.65049 L 139.20646,268.87141 L 134.37061,273.54605 L 130.50194,277.73712 C 129.37358,279.51026 128.24522,281.4446 126.79447,283.21774 C 125.6661,284.99088 124.69894,286.44163 124.05416,288.05358 C 123.40938,289.50433 123.08699,290.95509 123.08699,292.56704 C 123.08699,293.21181 123.24819,293.85659 123.24819,294.50137 C 123.73177,296.91929 124.69894,299.17601 125.8273,301.27154 L 128.24522,305.30141 L 131.14672,309.17009 L 139.85124,317.39101 L 143.71991,321.25968 L 147.26619,324.96717 L 149.20052,327.38509 L 155.00354,334.63884 L 165.1588,345.43889 L 170.47823,350.43592 L 174.66929,353.65983 L 178.05438,355.91655 L 180.4723,357.04491 L 181.76185,357.20611 C 183.2126,360.91358 185.63053,364.29867 188.53204,366.87778 C 189.6604,368.00614 191.11115,368.81212 192.72309,369.13452 C 194.17385,369.45691 195.46341,369.7793 196.91416,370.10168 C 197.23655,370.10168 197.55894,370.10168 197.88133,370.10168 C 198.5261,370.10168 199.00969,370.10168 199.65447,369.94049 L 200.62164,369.6181 L 193.04548,343.66575 C 192.72309,342.69858 192.07832,341.89261 190.94995,341.73142 L 184.01858,340.11947 C 183.3738,339.79708 183.05141,339.1523 183.2126,338.66872 C 183.69619,337.21797 184.17977,335.76721 184.66336,334.31646 C 184.82456,333.99407 184.98575,333.34929 184.98575,332.8657 C 184.98575,331.41495 184.17977,330.1254 182.89021,329.48062 C 181.76185,328.83584 180.4723,328.35226 179.18274,327.86867 C 177.4096,327.54628 175.79765,326.57912 174.3469,325.61195 C 172.41257,324.1612 170.47823,322.71044 168.5439,321.09849 C 165.96477,319.00296 163.70805,316.26265 162.0961,313.36115 C 160.64535,310.62084 159.1946,307.88053 157.58265,305.30141 C 156.1319,302.7223 155.48712,300.46557 155.16473,298.04765 C 154.84235,295.46854 155.48712,292.88943 157.09907,290.6327 C 158.71102,288.37597 160.96774,286.44163 163.38566,285.31327 C 166.44836,283.86252 169.51106,282.41177 172.57376,280.96102 C 175.31407,279.67146 178.05438,278.3819 180.95588,277.25354 C 183.69619,276.28637 186.11412,274.83562 188.53204,273.22367 C 190.14398,271.93411 191.75593,270.96694 193.52907,269.99977 C 197.07535,267.74305 199.81566,264.84155 201.9112,261.13407 L 202.87837,259.36093 L 206.90823,267.58185 L 208.52018,271.12814 L 209.80974,273.86844 L 212.38885,277.57593 L 215.61274,282.25057 L 220.44859,289.18194 L 224.47845,295.62973 L 228.83071,302.7223 L 230.92624,306.10739 L 237.05164,316.90743 L 239.46956,321.58208 L 242.53226,327.70748 L 244.1442,331.41495 L 245.27257,334.80004 C 246.07854,336.57318 246.56212,338.34633 246.88451,340.28067 C 247.04571,341.73142 247.36811,343.18217 247.69049,344.79411 C 247.69049,345.43889 247.85169,346.08367 247.85169,346.72845 C 247.85169,348.98517 247.04571,351.0807 245.43376,352.69265 L 240.27553,358.49566 L 239.46956,359.78522 C 234.47253,361.07478 230.76504,365.26584 229.95907,370.42407 L 229.79787,371.55244 L 257.36217,371.55244 C 259.61889,369.13452 260.90845,366.07181 260.90845,362.84792 C 260.90845,360.91358 260.42487,358.97925 259.61889,357.20611 L 258.81292,355.75536 C 258.65173,355.11058 258.97412,354.62699 259.4577,354.62699 L 259.4577,354.62699 L 262.68159,354.62699 C 264.77713,354.3046 266.06669,352.53145 266.06669,350.59712 C 266.06669,350.27473 266.06669,350.11354 265.90549,349.79115 L 264.61594,343.34336 L 262.3592,335.44482 L 259.78009,325.93434 L 257.20098,317.06862 L 255.58903,310.62084 L 254.13828,304.65663 L 253.17111,300.78796 L 252.20394,296.91929 L 251.55916,293.37301 L 250.75319,289.66552 L 250.10841,286.92522 L 248.33527,280.15504 C 247.36811,277.09235 246.23973,273.86844 245.43376,270.80575 C 244.1442,266.1311 242.37106,261.45646 240.11434,257.26539 L 238.66359,254.52508 L 251.23678,254.20269 C 252.20394,254.20269 253.00992,254.20269 253.97708,254.20269 C 257.52336,254.20269 261.39203,254.20269 265.09952,253.8803 C 271.06372,253.55792 277.35031,254.0415 283.47571,255.49225 C 292.18022,257.26539 300.88474,258.23257 309.75044,258.39376 C 310.71761,258.55496 311.52359,258.55496 312.49076,258.55496 C 322.16244,258.55496 331.67293,257.58778 341.02221,255.65345 C 347.6312,254.36389 352.46704,253.39672 357.30288,252.42955 L 358.27004,252.26836 C 361.81633,255.16986 365.68724,257.74897 369.87606,259.68332 L 370.35965,260.00571 L 368.10292,272.74008 C 368.26412,275.31921 370.35965,277.41473 372.93876,277.41473 C 375.0343,277.41473 376.96864,276.28637 377.61341,274.35204 L 381.64328,263.71318 L 387.60748,265.00274 L 386.15673,275.4804 C 386.15673,275.80279 386.15673,276.12518 386.15673,276.44757 C 386.15673,277.41473 386.31792,278.3819 386.80151,279.18788 C 387.60748,280.47743 388.73584,281.12221 390.1866,281.28341 C 390.50899,281.28341 390.67019,281.28341 390.83138,281.28341 C 391.79855,281.28341 392.76572,281.12221 393.73288,280.96102 C 395.02244,280.63863 396.1508,279.67146 396.312,278.22071 L 398.56872,266.45349 L 404.04934,266.77588 C 404.37173,268.87141 404.53292,271.12814 404.53292,273.38486 C 404.53292,273.70725 404.53292,274.02965 404.53292,274.35204 C 404.53292,277.57593 404.21053,280.63863 403.88814,283.86252 C 403.56575,286.60283 402.92098,289.18194 401.95381,291.59987 C 399.69708,296.7581 397.11797,302.07752 394.21647,307.07456 L 392.28213,310.45965 L 388.73584,316.74624 C 387.28509,320.13132 385.18956,323.19403 382.77164,325.93434 L 380.83731,328.19106 L 378.58058,330.44779 L 372.77757,335.28362 L 368.26412,339.1523 L 362.62231,343.82695 C 361.97753,344.31053 361.33275,344.95531 360.68797,345.43889 C 356.98049,348.82398 354.07898,353.01504 352.14465,357.5285 L 351.66107,358.97925 C 349.24315,359.94642 346.98642,361.23597 345.05209,362.68672 C 342.63417,364.78225 340.69982,367.20017 339.41027,370.10168 L 338.76549,371.55244 L 363.91186,371.55244 L 366.16859,371.55244 L 366.81337,371.39124 L 374.71191,356.72252 C 374.87311,356.23894 375.35669,355.91655 375.84027,355.91655 C 376.16266,355.91655 376.48505,356.07775 376.64625,356.23894 L 378.74178,358.01208 C 379.06417,358.33447 379.54775,358.65686 379.87014,358.65686 C 380.19253,358.65686 380.35372,358.49566 380.51492,358.49566 C 381.32089,358.01208 382.12686,357.5285 382.77164,356.88372 L 383.57761,355.91655 L 386.64031,352.37026 L 389.05823,349.14637 L 397.76275,334.47765 C 399.05231,332.54331 400.18067,330.93137 401.30903,329.31942 C 402.43739,327.70748 404.21053,325.77314 406.30607,324.1612 L 410.81952,320.7761 L 427.90616,308.04173 C 428.55094,307.23575 429.19571,306.26859 429.35691,305.14021 L 434.19275,284.18491 L 435.15991,280.47743 L 437.41665,274.99682 L 439.83457,270.80575 L 441.7689,268.87141 C 444.34802,273.86844 447.7331,278.5431 451.44058,282.57296 C 453.69731,284.99088 455.79284,287.08641 457.88837,289.18194 C 460.46748,291.92226 462.72421,294.82376 464.49735,298.20885 C 468.04363,304.97902 470.62275,312.55518 472.0735,320.13132 C 472.87948,324.32239 473.52426,328.51345 474.33023,332.70451 C 474.49142,334.31646 474.65262,336.25079 474.65262,338.18514 C 474.65262,340.11947 474.49142,342.05381 474.16903,343.98814 C 474.00784,345.2777 473.52426,346.40606 472.71828,347.37323 C 471.91231,348.34039 471.10634,349.46876 470.46156,350.59712 C 469.97798,351.40309 469.81678,352.37026 469.65559,353.49863 L 469.49439,356.56133 L 466.43168,359.78522 L 463.20779,362.68672 C 462.07943,364.29867 461.43465,365.91062 461.11226,367.68376 L 460.46748,371.39124 L 487.87058,371.39124 L 490.4497,367.03898 C 491.09448,366.07181 491.25567,364.94345 491.25567,363.81509 C 491.25567,363.3315 491.25567,362.68672 491.09448,362.20314 C 490.93328,361.23597 490.4497,360.10761 489.80492,359.14044 C 489.48253,358.49566 489.16014,357.68969 488.83775,356.88372 C 488.51536,355.91655 488.35417,354.94938 488.19297,353.98222 C 488.19297,353.33744 488.35417,352.69265 488.67656,352.20907 C 489.16014,351.56429 489.80492,351.2419 490.4497,351.0807 L 493.5124,350.43592 C 493.99598,350.43592 494.31837,350.11354 494.64076,349.79115 C 495.28554,348.98517 495.60793,348.01801 495.60793,347.05084 C 495.60793,346.40606 495.44673,345.76128 495.28554,345.2777 C 494.96315,344.63292 494.80195,343.98814 494.64076,343.34336 C 493.83478,337.37916 492.70642,330.93137 491.41687,324.64478 L 490.4497,319.32535 L 488.67656,306.10739 C 488.35417,304.33424 487.87058,302.23871 487.70939,300.14318 C 487.387,297.88646 487.387,295.79093 487.87058,293.6954 C 488.67656,289.82673 489.32134,285.79685 489.80492,281.76699 C 490.2885,278.05951 490.77209,274.51323 491.25567,270.96694 C 491.41687,269.99977 491.41687,269.03261 491.41687,267.90424 C 491.41687,267.09827 491.41687,266.1311 491.41687,265.32513 C 491.09448,262.58482 490.12731,260.00571 488.67656,257.91017 C 488.03178,256.78181 487.387,255.65345 486.90342,254.36389 L 485.13028,249.20566 C 484.96908,248.56088 484.64668,248.0773 484.48549,247.59372 C 483.35713,243.88624 482.55115,240.17875 482.38996,236.47128 L 482.38996,236.47128 z " />
</svg>