<?xml version="1.0" encoding="utf-8"?>
<!-- Generator: Adobe Illustrator 16.0.0, SVG Export Plug-In . SVG Version: 6.00 Build 0)  -->
<!DOCTYPE svg PUBLIC "-//W3C//DTD SVG 1.1//EN" "http://www.w3.org/Graphics/SVG/1.1/DTD/svg11.dtd">
<svg version="1.1" id="Layer_1" xmlns="http://www.w3.org/2000/svg" xmlns:xlink="http://www.w3.org/1999/xlink" x="0px" y="0px"
	 width="420px" height="300px" viewBox="0 0 420 300" enable-background="new 0 0 420 300" xml:space="preserve">
<g>
	<path fill="#010101" d="M62.885,143.308c-1.935-3.865-4.534-6.933-7.8-9.2c-3.2-2.199-6.7-3.3-10.5-3.3
		c-3.8,0-7.334,1.101-10.6,3.3c-3.2,2.335-5.767,5.4-7.7,9.2c-1.867,3.8-2.8,8-2.8,12.601c0,4.6,0.933,8.8,2.8,12.6
		c0.933,1.935,2.05,3.667,3.35,5.2c1.3,1.534,2.75,2.867,4.35,4c3.266,2.2,6.8,3.3,10.6,3.3c3.8,0,7.3-1.1,10.5-3.3
		c3.333-2.333,5.933-5.4,7.8-9.2c1.733-3.732,2.666-7.833,2.8-12.3c-0.134,4.467-1.067,8.567-2.8,12.3
		c-1.867,3.8-4.467,6.867-7.8,9.2c-3.2,2.2-6.7,3.3-10.5,3.3c-3.8,0-7.334-1.1-10.6-3.3c-1.6-1.133-3.05-2.466-4.35-4
		c-1.3-1.533-2.417-3.266-3.35-5.2c-1.867-3.8-2.8-8-2.8-12.6c0-4.601,0.933-8.801,2.8-12.601c1.933-3.8,4.5-6.865,7.7-9.2
		c3.266-2.199,6.8-3.3,10.6-3.3c3.8,0,7.3,1.101,10.5,3.3C58.351,136.375,60.95,139.442,62.885,143.308
		c1.733,3.8,2.666,7.935,2.8,12.4C65.55,151.242,64.618,147.107,62.885,143.308z M65.685,168.708c0,1.734,0.05,3.649,0.15,5.75
		c0.1,2.1,0.215,4.45,0.35,7.05c-0.134-2.6-0.25-4.95-0.35-7.05C65.735,172.357,65.685,170.442,65.685,168.708v-61.5V168.708z"/>
	<path fill="#010101" d="M101.685,180.308c-6.6,1.2-11.2,0.466-13.8-2.2c-2.6-2.6-3.867-6.1-3.8-10.5
		c0.2-4.465,2.6-8.433,7.2-11.899c4.666-3.601,13.266-4.933,25.8-4c-12.534-0.933-21.134,0.399-25.8,4
		c-4.6,3.467-7,7.435-7.2,11.899c-0.067,4.4,1.2,7.9,3.8,10.5C90.484,180.773,95.084,181.508,101.685,180.308
		c6.666-1.2,11.8-6.133,15.4-14.8C113.484,174.175,108.35,179.107,101.685,180.308z M102.984,131.208
		c5.133,0.467,8.866,2.2,11.2,5.2c2.266,2.934,3.233,10.167,2.9,21.699c-0.267,11.4,0.2,19.301,1.4,23.7
		c-1.2-4.399-1.667-12.3-1.4-23.7c0.333-11.532-0.634-18.766-2.9-21.699C111.85,133.408,108.117,131.675,102.984,131.208
		c-5.2-0.533-10.334,0.534-15.4,3.2C92.65,131.742,97.785,130.675,102.984,131.208z"/>
	<path fill="#010101" d="M134.784,143.808c0-2.133-0.034-4.232-0.1-6.3c-0.067-2.065-0.2-4.166-0.4-6.3
		c0.2,2.134,0.333,4.234,0.4,6.3C134.75,139.575,134.784,141.675,134.784,143.808v37.7V143.808z M149.584,132.208
		c5.466-2,10.266-1.333,14.4,2c4.133,3.2,6.133,10.234,6,21.1v26.2v-26.2c0.133-10.865-1.867-17.899-6-21.1
		C159.85,130.875,155.05,130.208,149.584,132.208c-5.534,2.067-10.467,8.234-14.8,18.5
		C139.117,140.442,144.05,134.275,149.584,132.208z"/>
	<path fill="#010101" d="M218.783,179.508c-3.867,1.4-7.817,1.833-11.85,1.3c-4.035-0.532-7.75-1.966-11.15-4.3
		c-3.4-2.333-6.035-5.315-7.9-8.95c-1.867-3.633-2.8-7.516-2.8-11.649c0-4.133,0.933-8.016,2.8-11.65
		c1.866-3.633,4.5-6.615,7.9-8.95c3.4-2.333,7.115-3.766,11.15-4.3c4.033-0.533,7.982-0.133,11.85,1.2
		c-3.867-1.333-7.817-1.733-11.85-1.2c-4.035,0.534-7.75,1.967-11.15,4.3c-3.4,2.335-6.035,5.317-7.9,8.95
		c-1.867,3.635-2.8,7.518-2.8,11.65c0,4.134,0.933,8.017,2.8,11.649c1.866,3.635,4.5,6.617,7.9,8.95
		c3.4,2.334,7.115,3.768,11.15,4.3C210.966,181.341,214.916,180.908,218.783,179.508z"/>
	<path fill="#010101" d="M243.082,154.908l10-0.101L243.082,154.908l-10.1-0.101L243.082,154.908z"/>
	<path fill="#010101" d="M309.781,137.607c-0.467-2.8-1.166-5.532-2.1-8.199c-0.934-2.733-2.033-5.133-3.299-7.2
		c-1.268-2.066-2.668-3.866-4.201-5.4c-3.134-3.065-6.566-4.6-10.299-4.6c-3.801,0-7.234,1.534-10.301,4.6
		c-3.268,3.067-5.8,7.268-7.6,12.601c-1.801,5.334-2.7,11.066-2.7,17.199c0,6.2,0.899,11.935,2.7,17.2c1.8,5.2,4.332,9.4,7.6,12.601
		c3.066,3.066,6.5,4.6,10.301,4.6c3.732,0,7.165-1.533,10.299-4.6c1.533-1.533,2.934-3.351,4.201-5.45
		c1.266-2.101,2.365-4.483,3.299-7.15c1.865-5.466,2.801-11.266,2.801-17.399c0,6.134-0.936,11.934-2.801,17.399
		c-0.934,2.667-2.033,5.05-3.299,7.15c-1.268,2.1-2.668,3.917-4.201,5.45c-3.134,3.066-6.566,4.6-10.299,4.6
		c-3.801,0-7.234-1.533-10.301-4.6c-3.268-3.2-5.8-7.4-7.6-12.601c-1.801-5.266-2.7-11-2.7-17.2c0-6.133,0.899-11.865,2.7-17.199
		c1.8-5.333,4.332-9.533,7.6-12.601c3.066-3.065,6.5-4.6,10.301-4.6c3.732,0,7.165,1.534,10.299,4.6
		c1.533,1.535,2.934,3.334,4.201,5.4c1.266,2.067,2.365,4.467,3.299,7.2C308.615,132.075,309.314,134.808,309.781,137.607
		c0.467,2.801,0.701,5.734,0.701,8.801C310.482,143.342,310.248,140.408,309.781,137.607z"/>
	<path fill="#010101" d="M343.08,112.108v69.4V112.108l-16.6,9.6L343.08,112.108z"/>
</g>
<g>
</g>
<g>
</g>
<g>
</g>
<g>
</g>
<g>
</g>
<g>
</g>
</svg>
