<?xml version="1.0" encoding="utf-8"?>
<!-- Generator: Adobe Illustrator 18.0.0, SVG Export Plug-In . SVG Version: 6.00 Build 0)  -->
<!DOCTYPE svg PUBLIC "-//W3C//DTD SVG 1.1//EN" "http://www.w3.org/Graphics/SVG/1.1/DTD/svg11.dtd">
<svg version="1.1" id="Layer_1" xmlns="http://www.w3.org/2000/svg" xmlns:xlink="http://www.w3.org/1999/xlink" x="0px" y="0px"
	 viewBox="0 0 64 64" enable-background="new 0 0 64 64" xml:space="preserve">
<path d="M56.7,32.9c-1.3-0.3-2.5-0.6-3.7-1.1c-0.7-0.3-1.3-0.6-2-0.9c-1.7-0.6-3.5-1-5.3-1.3c-2.6-0.6-5.2-1-7.8-1.3
	c-1.1-0.1-2.2-0.2-3.3-0.3c-0.4,0-0.9-0.1-1.3-0.1c-0.1,0-0.3,0-0.4,0c-0.1,0-0.2-0.1-0.1,0c0.1,0.1,0.2,0.2,0.3,0.3
	c-0.3-1.6-0.6-3.3-0.6-4.9c0-0.8,0.2-1.6,0.3-2.4c0.1-0.6,0.1-1.3,0.5-1.9c0.4-0.7,1.3-0.8,2-0.9c0.7-0.1,1.3-0.2,2-0.3
	c3.5-0.4,7.1-0.7,10.6-1.1c0.6-0.1,1.2-0.1,1.8-0.2c0.3-0.1,0.7-0.1,1-0.2c0.2-0.1,0.3-0.3,0.3-0.5c0-0.4-0.4-0.6-0.7-0.7
	c-0.9-0.3-1.9-0.3-2.9-0.5c-1.9-0.3-3.8-0.5-5.8-0.7c-1.2-0.1-2.5,0-3.8,0.1c-1.8,0.1-3.7,0.1-5.5,0.2c-0.6,0-1.1,0.2-1.7,0.3
	c-0.5,0.1-1,0.3-1.5,0.3c-0.7,0.1-1.4-0.1-2-0.3c-0.4-0.1-1.1-0.5-1.5-0.3c0.1-0.1,0,0,0,0c-0.1,0-0.2,0-0.2,0
	c-0.4,0.1-1.1,0.1-1.6,0.2c-1.7,0.1-3.4,0.3-5.1,0.4c-1.4,0.1-2.9,0.2-4.3,0.3c-0.9,0.1-1.8,0.3-2.7,0.5c-1.6,0.4-3.1,0.8-4.7,1.2
	C6,16.9,4.5,17,4.2,18.1C4.1,18.7,4.4,19,4.9,19c1.3,0.2,2.7-0.1,4-0.2c1.7-0.2,3.5-0.4,5.2-0.6c0.6-0.1,1.2-0.1,1.8-0.2
	c1.2-0.1,2.4,0.1,3.5,0.2c0.7,0.1,1.5,0.1,2.2,0.2c0.5,0,1,0.2,1.4,0.6c0.7,0.7,0.7,2,0.8,2.9c0.1,1.6,0.2,3.2,0.2,4.9
	c0.1,1.8,0.2,3.7,0.3,5.5c0.1,1.4,0.3,2.9,0.5,4.3c0.2,1.6,0.3,3.2,0.5,4.8c0.1,0.8,0.2,1.6,0.3,2.4c0.1,0.8,0,1.7,0,2.5
	c0,1.6,0,3.2,0,4.8c0.1,1.5,0.3,3.1,0.5,4.6c0.2,1.3,0.1,2.7-0.6,3.8c-0.6,0.8-0.3,1.7,0.7,2c0.9,0.3,2.2-0.1,2.5-1
	C29,60,29,59.5,29,58.9c-0.1-0.8-0.2-1.5-0.1-2.3c0.1-1.6,0.5-3.2,0.7-4.8c0.2-1.6,0.3-3.1,0.4-4.7c0-1.4,0.3-2.7,0.4-4.1
	c0.1-1.8,0.2-3.6,0.3-5.4c0-0.9,0.1-1.7,0.1-2.6c0-0.4-0.1-1.2,0.4-1.4c-0.1,0-0.2,0-0.3,0c0.3,0.1,0.7,0.1,1.1,0.1
	c0.8,0,1.6,0.1,2.4,0.1c2.1,0.1,4.1,0.2,6.2,0.4c1,0.1,1.9,0.2,2.9,0.2c1.4,0,2.7-0.1,4.1-0.2c1.3-0.1,2.5,0,3.7,0.3
	c1.5,0.4,2.8,1,4.3,1.5c1.1,0.4,2.2,0.2,2.8-0.8C58.6,34.2,57.5,33.1,56.7,32.9c-0.5-0.2-0.7,0.6-0.2,0.8c0.4,0.1,0.7,0.5,0.9,0.8
	c0.2,0.3-0.3,0.7-0.5,0.8c-0.6,0.2-1.2,0-1.8-0.2c-0.7-0.3-1.4-0.6-2.1-0.8c-1.2-0.4-2.5-0.8-3.8-0.9c-1.3-0.1-2.6,0.1-4,0.2
	c-2.1,0.1-4.3-0.1-6.4-0.2c-2-0.1-4-0.2-6-0.3c-0.6,0-1.1-0.1-1.7-0.1c-0.1,0-0.1,0-0.2,0c0,0-0.1,0,0.1,0c-0.1,0-0.1,0-0.2,0
	c-0.5,0.1-0.8,0.7-0.8,1.2c-0.1,1.3-0.1,2.5-0.2,3.8c-0.1,1.8-0.2,3.6-0.3,5.4c-0.1,1.5-0.4,2.9-0.4,4.3c-0.1,1.7-0.2,3.3-0.5,4.9
	c-0.2,1.5-0.6,3.1-0.6,4.7c0,0.7,0.1,1.4,0.2,2.1c0.1,0.6,0.1,1.3-0.5,1.7c-0.4,0.2-1.2,0.2-1.5-0.1c-0.3-0.2,0.4-1,0.5-1.2
	c0.6-1.2,0.6-2.6,0.4-3.9c-0.2-1.5-0.4-3.1-0.5-4.6c-0.1-1.6-0.1-3.2,0-4.8c0-0.8,0.1-1.5,0-2.3c0-0.8-0.2-1.6-0.3-2.4
	c-0.2-1.7-0.3-3.3-0.5-5c-0.2-2.2-0.5-4.4-0.6-6.7c-0.1-2-0.2-4-0.3-5.9c0-0.6-0.1-1.3-0.1-1.9c-0.1-1-0.2-2.1-0.7-3
	c-0.5-0.8-1.5-1.2-2.4-1.2c-1.6-0.1-3.2-0.3-4.9-0.4c-1.3-0.1-2.6,0.2-3.9,0.3C11,17.7,9.3,18,7.5,18.1c-0.7,0.1-1.3,0.1-2,0.1
	c-0.2,0-0.5,0-0.6,0c-0.1,0-0.1,0-0.2,0c0.1,0,0,0,0.1,0.1C5,18.4,4.9,18.3,5,18.1c0.1-0.2,0.4-0.2,0.5-0.3c0.3-0.1,0.7-0.2,1-0.3
	C7.3,17.4,8.2,17.2,9,17c1.6-0.4,3.1-0.8,4.7-1.1c0.8-0.2,1.6-0.2,2.5-0.3c1.3-0.1,2.7-0.2,4-0.3c1.3-0.1,2.5-0.2,3.8-0.3
	c0.4,0,0.8-0.1,1.2-0.1c0.2,0,0.5,0,0.7-0.2c-0.1,0-0.2,0-0.3,0c1.2,0.4,2.4,0.8,3.6,0.7c0.5-0.1,1-0.2,1.5-0.3
	c0.2-0.1,0.4-0.1,0.6-0.2c0.1,0,0.4-0.1,0.3-0.1c1.6-0.2,3.3-0.2,4.9-0.2c1,0,1.9-0.1,2.9-0.1c0.5,0,1-0.1,1.5-0.1
	c1.7,0.1,3.4,0.4,5.1,0.6c1,0.1,2,0.3,3,0.4c0.2,0,0.5,0.1,0.7,0.1c0.1,0,0.2,0.1,0.4,0.1c0.2,0.1,0,0,0-0.1c0-0.1,0.1-0.1,0.1-0.1
	c-0.1,0-0.1,0-0.2,0.1c-1.1,0.3-2.3,0.3-3.5,0.5c-3.5,0.4-7,0.6-10.5,1.1c-0.6,0.1-1.1,0.1-1.7,0.3c-1,0.2-1.7,0.8-2,1.8
	c-0.2,0.6-0.3,1.4-0.4,2c-0.1,0.8-0.2,1.6-0.2,2.4c0,1.6,0.3,3.2,0.6,4.7c0,0.1,0.2,0.2,0.3,0.3c0.3,0.1,0.7,0.1,1,0.1
	c0.7,0.1,1.5,0.2,2.2,0.2c1.3,0.1,2.6,0.3,3.8,0.4c1.2,0.1,2.5,0.4,3.7,0.6c1.9,0.4,3.8,0.8,5.7,1.3c0.9,0.2,1.8,0.5,2.7,0.9
	c0.7,0.3,1.3,0.7,2,0.9c0.9,0.3,1.8,0.5,2.7,0.7C57,33.8,57.2,33,56.7,32.9z"/>
<path d="M32.5,7.5c0,2.1-1.7,3.9-3.9,3.9s-3.9-1.8-3.9-3.9c0-2.1,1.8-3.9,3.9-3.9C30.8,3.6,32.5,5.4,32.5,7.5c0,0.5,0.8,0.5,0.8,0
	c0-2.2-1.6-4.1-3.8-4.6c-2.2-0.5-4.4,0.8-5.2,2.8c-0.9,2.1-0.1,4.4,1.7,5.7c1.8,1.3,4.4,0.9,5.9-0.6c0.9-0.9,1.3-2.1,1.3-3.3
	C33.3,7,32.5,7,32.5,7.5z"/>
</svg>
