<?xml version="1.0" encoding="utf-8"?>
<!-- Generator: Adobe Illustrator 18.0.0, SVG Export Plug-In . SVG Version: 6.00 Build 0)  -->
<!DOCTYPE svg PUBLIC "-//W3C//DTD SVG 1.1//EN" "http://www.w3.org/Graphics/SVG/1.1/DTD/svg11.dtd">
<svg version="1.1" id="Layer_1" xmlns="http://www.w3.org/2000/svg" xmlns:xlink="http://www.w3.org/1999/xlink" x="0px" y="0px"
	 viewBox="0 0 180 35" enable-background="new 0 0 180 35" xml:space="preserve">
<g>
	<polygon fill="none" points="722,321.3 856.3,321.3 856.3,321.3 	"/>
</g>
<g>
	<path d="M3.6,2.6h17.4v3.5H7.8v10.8h12.2v3.5H7.8V35H3.6V2.6z"/>
	<path d="M37.6,35l-0.3-2.9h-0.1c-1.3,1.8-3.8,3.5-7.1,3.5c-4.7,0-7.1-3.3-7.1-6.7c0-5.6,5-8.7,14-8.6v-0.5c0-1.9-0.5-5.4-5.3-5.4
		c-2.2,0-4.4,0.7-6,1.7l-1-2.8c1.9-1.2,4.7-2.1,7.6-2.1c7.1,0,8.8,4.8,8.8,9.5v8.7c0,2,0.1,4,0.4,5.6H37.6z M37,23.1
		c-4.6-0.1-9.8,0.7-9.8,5.2c0,2.7,1.8,4,4,4c3,0,4.9-1.9,5.6-3.9c0.1-0.4,0.2-0.9,0.2-1.3V23.1z"/>
	<path d="M47.9,18.1c0-2.4,0-4.4-0.2-6.3h3.7l0.2,3.8h0.1c1.2-2.2,3.8-4.4,7.7-4.4c3.2,0,8.2,1.9,8.2,9.9V35h-4.2V21.6
		c0-3.7-1.4-6.9-5.4-6.9c-2.8,0-4.9,2-5.7,4.3c-0.2,0.5-0.3,1.2-0.3,2v14h-4.2V18.1z"/>
	<path d="M79.4,5.1v6.7h6V15h-6v12.5c0,2.9,0.8,4.5,3.2,4.5c1.1,0,1.9-0.1,2.4-0.3l0.2,3.2c-0.8,0.3-2.1,0.6-3.7,0.6
		c-2,0-3.6-0.6-4.6-1.8c-1.2-1.2-1.6-3.3-1.6-6V15h-3.6v-3.2h3.6V6.2L79.4,5.1z"/>
	<path d="M103.1,35l-0.3-2.9h-0.1c-1.3,1.8-3.8,3.5-7.1,3.5c-4.7,0-7.1-3.3-7.1-6.7c0-5.6,5-8.7,14-8.6v-0.5c0-1.9-0.5-5.4-5.3-5.4
		c-2.2,0-4.4,0.7-6,1.7l-1-2.8c1.9-1.2,4.7-2.1,7.6-2.1c7.1,0,8.8,4.8,8.8,9.5v8.7c0,2,0.1,4,0.4,5.6H103.1z M102.4,23.1
		c-4.6-0.1-9.8,0.7-9.8,5.2c0,2.7,1.8,4,4,4c3,0,4.9-1.9,5.6-3.9c0.1-0.4,0.2-0.9,0.2-1.3V23.1z"/>
	<path d="M112.8,30.7c1.2,0.8,3.5,1.7,5.6,1.7c3.1,0,4.5-1.5,4.5-3.5c0-2-1.2-3.1-4.3-4.3c-4.2-1.5-6.1-3.8-6.1-6.6
		c0-3.7,3-6.8,8-6.8c2.4,0,4.4,0.7,5.7,1.4l-1.1,3.1c-0.9-0.6-2.6-1.3-4.8-1.3c-2.5,0-3.9,1.4-3.9,3.2c0,1.9,1.4,2.8,4.4,3.9
		c4,1.5,6.1,3.6,6.1,7c0,4.1-3.2,7-8.7,7c-2.5,0-4.9-0.6-6.5-1.6L112.8,30.7z"/>
	<path d="M137.4,5.1v6.7h6V15h-6v12.5c0,2.9,0.8,4.5,3.2,4.5c1.1,0,1.9-0.1,2.4-0.3l0.2,3.2c-0.8,0.3-2.1,0.6-3.7,0.6
		c-2,0-3.6-0.6-4.6-1.8c-1.2-1.2-1.6-3.3-1.6-6V15h-3.6v-3.2h3.6V6.2L137.4,5.1z"/>
	<path d="M152.9,5.2c0,1.4-1,2.6-2.7,2.6c-1.5,0-2.5-1.2-2.5-2.6c0-1.5,1.1-2.6,2.6-2.6C151.9,2.6,152.9,3.7,152.9,5.2z M148.2,35
		V11.8h4.2V35H148.2z"/>
	<path d="M176,34.1c-1.1,0.6-3.6,1.3-6.7,1.3c-7,0-11.6-4.8-11.6-11.9c0-7.2,4.9-12.3,12.5-12.3c2.5,0,4.7,0.6,5.9,1.2l-1,3.3
		c-1-0.6-2.6-1.1-4.9-1.1c-5.3,0-8.2,3.9-8.2,8.8c0,5.4,3.5,8.7,8.1,8.7c2.4,0,4-0.6,5.2-1.2L176,34.1z"/>
</g>
</svg>
