<?xml version="1.0" encoding="utf-8"?>
<!-- Generator: Adobe Illustrator 18.0.0, SVG Export Plug-In . SVG Version: 6.00 Build 0)  -->
<!DOCTYPE svg PUBLIC "-//W3C//DTD SVG 1.1//EN" "http://www.w3.org/Graphics/SVG/1.1/DTD/svg11.dtd">
<svg version="1.1" id="Layer_1" xmlns="http://www.w3.org/2000/svg" xmlns:xlink="http://www.w3.org/1999/xlink" x="0px" y="0px"
	 viewBox="0 0 210 57.6" enable-background="new 0 0 210 57.6" xml:space="preserve">
<g>
	<polygon fill="none" points="3080.9,1693 3676.5,1693 3676.5,1693 	"/>
</g>
<path fill="none" stroke="#000000" stroke-width="3" stroke-miterlimit="10" d="M0,57.7V12.6C0,3.2,10.4,0,15.8,0
	c6.4,0,16,3.5,16,12.6v6.2c0,9-9.6,12.5-16,12.5H2.7"/>
<path fill="none" stroke="#000000" stroke-width="3" stroke-miterlimit="10" d="M68.2,57.7H53.1c-7.1,0-14.9-3.1-15.4-11.2
	c0-0.2,0-0.3,0-0.5v-8.9c0-2.6,1-5,3-7c2.9-2.9,7.8-4.8,13-4.8c8.9,0,14.5,4.5,14.5,10.9v0.4C68.2,41.8,66,48,54.4,48
	c-7,0-10.8,0-14,0"/>
<path fill="none" stroke="#000000" stroke-width="3" stroke-miterlimit="10" d="M101.3,28c0,0-13.3,0-13.3,0c-4.5,0-13,1.9-13,9.9
	v19.8"/>
<path fill="none" stroke="#000000" stroke-width="3" stroke-miterlimit="10" d="M122,28.5c0,0-12.7,0-12.7,0"/>
<path fill="none" stroke="#000000" stroke-width="3" stroke-miterlimit="10" d="M106.5,57.7V12.4c0-10.3,8.4-12,15.6-12"/>
<path fill="none" stroke="#000000" stroke-width="3" stroke-miterlimit="10" d="M157.1,57.7H142c-7.1,0-14.9-3.1-15.4-11.2
	c0-0.2,0-0.3,0-0.5v-8.9c0-2.6,1-5,3-7c2.9-2.9,7.8-4.8,13-4.8c8.9,0,14.5,4.5,14.5,10.9v0.4c0,5.2-2.2,11.4-13.8,11.4
	c-7,0-10.8,0-14,0"/>
<path fill="none" stroke="#000000" stroke-width="3" stroke-miterlimit="10" d="M190.2,57.7c0,0-12.6,0-12.6,0
	c-5.4,0-10.2-1.7-13.1-4.5c-2.1-2.1-3.2-4.9-3.2-8.1v-7.6c0-8.4,7.9-12.6,15.6-12.6h13.4"/>
<path fill="none" stroke="#000000" stroke-width="3" stroke-miterlimit="10" d="M210,28.1h-12.7"/>
<path fill="none" stroke="#000000" stroke-width="3" stroke-miterlimit="10" d="M210,57.6L210,57.6c-7.7-0.3-15.4-4.3-15.4-12.4
	V13.6"/>
</svg>
