<?xml version="1.0" encoding="utf-8"?>
<!-- Generator: Adobe Illustrator 18.0.0, SVG Export Plug-In . SVG Version: 6.00 Build 0)  -->
<!DOCTYPE svg PUBLIC "-//W3C//DTD SVG 1.1//EN" "http://www.w3.org/Graphics/SVG/1.1/DTD/svg11.dtd">
<svg version="1.1" id="Layer_1" xmlns="http://www.w3.org/2000/svg" xmlns:xlink="http://www.w3.org/1999/xlink" x="0px" y="0px"
	 viewBox="0 0 613 202.3" enable-background="new 0 0 613 202.3" xml:space="preserve">
<g>
	<polygon fill="none" points="4197.7,1867.5 4980.5,1867.5 4980.5,1867.5 	"/>
</g>
<g>
	<path fill="none" stroke="#000000" stroke-width="4" stroke-miterlimit="10" d="M92.7,99.7H155v90.9h-0.6
		c-11.1,4.1-32.6,10.5-57.7,10.5c-28.6,0-51.9-7-70.5-25.1C9.9,160.3,0,135.2,0,106.1c0-56,39.1-97.3,102-97.3
		c21.6,0,39.1,4.7,47.2,8.7"/>
	<path fill="none" stroke="#000000" stroke-width="4" stroke-miterlimit="10" d="M314.7,130c0,50.1-35,71.7-67.6,71.7
		c-36.7,0-64.7-26.8-64.7-69.9c0-45.5,29.7-71.7,67-71.7C288.5,60,314.7,88.6,314.7,130z"/>
	<path fill="none" stroke="#000000" stroke-width="4" stroke-miterlimit="10" d="M468,130c0,50.1-35,71.7-67.6,71.7
		c-36.7,0-64.7-26.8-64.7-69.9c0-45.5,29.7-71.7,67-71.7C441.8,60,468,88.6,468,130z"/>
	<path fill="none" stroke="#000000" stroke-width="4" stroke-miterlimit="10" d="M616.1,0v163.8c0,12.2,0,25.6,1.2,35h-22.1
		l-1.2-23.3h-0.6c-7.6,15.2-23.9,26.8-46,26.8c-32.6,0-57.7-28-57.7-68.8c0-44.9,28-72.9,60.6-72.9c21,0,35,9.9,40.8,21h0.6V0H616.1
		z"/>
</g>
</svg>
