<?xml version="1.0" encoding="utf-8"?>
<!-- Generator: Adobe Illustrator 16.0.0, SVG Export Plug-In . SVG Version: 6.00 Build 0)  -->
<!DOCTYPE svg PUBLIC "-//W3C//DTD SVG 1.1//EN" "http://www.w3.org/Graphics/SVG/1.1/DTD/svg11.dtd">
<svg version="1.1" id="Layer_1" xmlns="http://www.w3.org/2000/svg" xmlns:xlink="http://www.w3.org/1999/xlink" x="0px" y="0px"
	 width="420px" height="300px" viewBox="0 0 420 300" enable-background="new 0 0 420 300" xml:space="preserve">
<g>
	<path fill="#010101" d="M33.61,131.208h14.1H33.61v-8.601c0-2.532,0.5-4.982,1.5-7.35c1-2.366,2.465-4.416,4.4-6.15
		c1.733-1.533,3.7-2.633,5.9-3.3c2.2-0.666,4.466-0.833,6.8-0.5c-2.334-0.333-4.6-0.166-6.8,0.5c-2.2,0.667-4.167,1.768-5.9,3.3
		c-1.935,1.734-3.4,3.784-4.4,6.15c-1,2.367-1.5,4.817-1.5,7.35V131.208h-9H33.61v50.3V131.208z"/>
	<path fill="#010101" d="M79.709,180.308c-6.6,1.2-11.2,0.466-13.8-2.2c-2.6-2.6-3.867-6.1-3.8-10.5c0.2-4.465,2.6-8.433,7.2-11.899
		c4.666-3.601,13.266-4.933,25.8-4c-12.534-0.933-21.134,0.399-25.8,4c-4.6,3.467-7,7.435-7.2,11.899c-0.067,4.4,1.2,7.9,3.8,10.5
		C68.509,180.773,73.109,181.508,79.709,180.308c6.666-1.2,11.8-6.133,15.4-14.8C91.509,174.175,86.375,179.107,79.709,180.308z
		 M81.009,131.208c5.133,0.467,8.866,2.2,11.2,5.2c2.266,2.934,3.233,10.167,2.9,21.699c-0.267,11.4,0.2,19.301,1.4,23.7
		c-1.2-4.399-1.667-12.3-1.4-23.7c0.333-11.532-0.634-18.766-2.9-21.699C89.875,133.408,86.142,131.675,81.009,131.208
		c-5.2-0.533-10.334,0.534-15.4,3.2C70.674,131.742,75.809,130.675,81.009,131.208z"/>
	<path fill="#010101" d="M144.509,179.508c-3.867,1.4-7.817,1.833-11.85,1.3c-4.035-0.532-7.75-1.966-11.15-4.3
		c-3.4-2.333-6.035-5.315-7.9-8.95c-1.867-3.633-2.8-7.516-2.8-11.649c0-4.133,0.933-8.016,2.8-11.65
		c1.866-3.633,4.5-6.615,7.9-8.95c3.4-2.333,7.115-3.766,11.15-4.3c4.033-0.533,7.983-0.133,11.85,1.2
		c-3.867-1.333-7.817-1.733-11.85-1.2c-4.035,0.534-7.75,1.967-11.15,4.3c-3.4,2.335-6.035,5.317-7.9,8.95
		c-1.867,3.635-2.8,7.518-2.8,11.65c0,4.134,0.933,8.017,2.8,11.649c1.866,3.635,4.5,6.617,7.9,8.95
		c3.4,2.334,7.115,3.768,11.15,4.3C136.692,181.341,140.642,180.908,144.509,179.508z"/>
	<path fill="#010101" d="M179.107,180.908c-6-0.135-10.967-2.4-14.9-6.801c-4-4.465-5.834-11.1-5.5-19.899
		c0.333-8.8,3.8-15.366,10.4-19.7c6.666-4.2,13.4-4.232,20.2-0.1c6.8,4.134,9.8,11.134,9,21h-39.6h39.6c0.8-9.866-2.2-16.866-9-21
		c-6.8-4.133-13.535-4.101-20.2,0.1c-6.6,4.334-10.067,10.9-10.4,19.7c-0.334,8.8,1.5,15.435,5.5,19.899
		C168.14,178.508,173.107,180.773,179.107,180.908c5.866,0.199,11-0.566,15.4-2.301
		C190.107,180.342,184.973,181.107,179.107,180.908z"/>
	<path fill="#010101" d="M222.307,154.908l10-0.101L222.307,154.908l-10.1-0.101L222.307,154.908z"/>
	<path fill="#010101" d="M289.706,146.408c0-3.066-0.234-6-0.7-8.801c-0.467-2.8-1.167-5.532-2.1-8.199
		c-0.935-2.733-2.034-5.133-3.3-7.2c-1.268-2.066-2.667-3.866-4.2-5.4c-3.135-3.065-6.567-4.6-10.3-4.6c-3.8,0-7.234,1.534-10.3,4.6
		c-3.268,3.067-5.801,7.268-7.601,12.601c-1.8,5.334-2.7,11.066-2.7,17.199c0,6.2,0.9,11.935,2.7,17.2
		c1.8,5.2,4.333,9.4,7.601,12.601c3.065,3.066,6.5,4.6,10.3,4.6c3.732,0,7.165-1.533,10.3-4.6c1.533-1.533,2.933-3.351,4.2-5.45
		c1.266-2.101,2.365-4.483,3.3-7.15C288.771,158.342,289.706,152.542,289.706,146.408c0,6.134-0.935,11.934-2.8,17.399
		c-0.935,2.667-2.034,5.05-3.3,7.15c-1.268,2.1-2.667,3.917-4.2,5.45c-3.135,3.066-6.567,4.6-10.3,4.6c-3.8,0-7.234-1.533-10.3-4.6
		c-3.268-3.2-5.801-7.4-7.601-12.601c-1.8-5.266-2.7-11-2.7-17.2c0-6.133,0.9-11.865,2.7-17.199c1.8-5.333,4.333-9.533,7.601-12.601
		c3.065-3.065,6.5-4.6,10.3-4.6c3.732,0,7.165,1.534,10.3,4.6c1.533,1.535,2.933,3.334,4.2,5.4c1.266,2.067,2.365,4.467,3.3,7.2
		c0.933,2.667,1.633,5.399,2.1,8.199C289.472,140.408,289.706,143.342,289.706,146.408z"/>
	<path fill="#010101" d="M306.705,180.508l30.799-33.1c1.666-1.733,3-3.716,4-5.95c1-2.233,1.666-4.55,2-6.95s0.266-4.8-0.199-7.2
		c-0.467-2.399-1.301-4.665-2.5-6.8c-1.4-2.333-3.268-4.25-5.6-5.75c-2.334-1.5-4.9-2.383-7.701-2.65
		c-3.266-0.4-6.484-0.133-9.648,0.8c-3.168,0.935-6.018,2.467-8.551,4.6c2.533-2.133,5.383-3.666,8.551-4.6
		c3.164-0.933,6.383-1.2,9.648-0.8c2.801,0.267,5.367,1.15,7.701,2.65c2.332,1.5,4.199,3.417,5.6,5.75
		c1.199,2.135,2.033,4.4,2.5,6.8c0.465,2.4,0.533,4.8,0.199,7.2s-1,4.717-2,6.95c-1,2.234-2.334,4.217-4,5.95L306.705,180.508
		h40.299H306.705z"/>
</g>
<g>
</g>
<g>
</g>
<g>
</g>
<g>
</g>
<g>
</g>
<g>
</g>
</svg>
