<?xml version="1.0" encoding="utf-8"?>
<!-- Generator: Adobe Illustrator 16.0.0, SVG Export Plug-In . SVG Version: 6.00 Build 0)  -->
<!DOCTYPE svg PUBLIC "-//W3C//DTD SVG 1.1//EN" "http://www.w3.org/Graphics/SVG/1.1/DTD/svg11.dtd">
<svg version="1.1" id="Layer_1" xmlns="http://www.w3.org/2000/svg" xmlns:xlink="http://www.w3.org/1999/xlink" x="0px" y="0px"
	 width="432px" height="288px" viewBox="0 0 432 288" enable-background="new 0 0 432 288" xml:space="preserve">
<g>
	<path d="M89.98,118.693c2.88-1.02,5.054-2.489,6.525-4.41c1.47-1.919,2.264-4.14,2.385-6.66c-0.121-2.579-0.976-4.874-2.565-6.885
		c-1.59-2.009-3.645-3.344-6.165-4.005l-4.5-1.26c-3.001-0.599-5.355-1.919-7.065-3.96c-1.71-2.039-2.536-4.41-2.475-7.11
		c0.239-2.16,1.049-4.08,2.43-5.76c1.379-1.679,3.24-2.939,5.58-3.78c2.28-0.66,4.514-0.855,6.705-0.585
		c2.189,0.27,4.244,0.976,6.165,2.115c-1.921-1.139-3.976-1.845-6.165-2.115c-2.191-0.27-4.425-0.075-6.705,0.585
		c-2.34,0.841-4.2,2.101-5.58,3.78c-1.381,1.68-2.191,3.6-2.43,5.76c-0.061,2.7,0.765,5.071,2.475,7.11
		c1.71,2.041,4.064,3.361,7.065,3.96l4.5,1.26c2.52,0.661,4.575,1.996,6.165,4.005c1.589,2.011,2.444,4.306,2.565,6.885
		c-0.121,2.52-0.916,4.74-2.385,6.66C95.035,116.204,92.86,117.674,89.98,118.693c-5.341,1.379-10.201,0.839-14.58-1.62
		C79.78,119.533,84.64,120.073,89.98,118.693z"/>
	<path d="M113.38,85.843c0-1.499-0.045-3.209-0.135-5.13c-0.09-1.919-0.195-4.05-0.315-6.39c0.12,2.34,0.225,4.471,0.315,6.39
		C113.335,82.634,113.38,84.344,113.38,85.843v53.64V85.843z M115.9,107.803c1.739,3.541,4.08,6.3,7.02,8.28
		c2.819,2.041,5.969,3.06,9.45,3.06c3.42,0,6.6-1.02,9.54-3.06c2.88-1.98,5.189-4.739,6.93-8.28c1.679-3.42,2.52-7.2,2.52-11.34
		c0-4.08-0.841-7.83-2.52-11.25c-1.741-3.54-4.05-6.3-6.93-8.28c-2.94-2.039-6.12-3.06-9.54-3.06c-3.48,0-6.63,1.021-9.45,3.06
		c-2.94,1.98-5.281,4.74-7.02,8.28c-1.681,3.541-2.52,7.231-2.52,11.07c0-3.839,0.839-7.529,2.52-11.07
		c1.739-3.54,4.08-6.3,7.02-8.28c2.819-2.039,5.969-3.06,9.45-3.06c3.42,0,6.6,1.021,9.54,3.06c2.88,1.98,5.189,4.74,6.93,8.28
		c1.679,3.42,2.52,7.17,2.52,11.25c0,4.14-0.841,7.92-2.52,11.34c-1.741,3.541-4.05,6.3-6.93,8.28c-2.94,2.041-6.12,3.06-9.54,3.06
		c-3.48,0-6.63-1.02-9.45-3.06C119.979,114.104,117.639,111.344,115.9,107.803c-1.681-3.54-2.52-7.229-2.52-11.07
		C113.38,100.574,114.219,104.264,115.9,107.803z"/>
	<path d="M202.119,96.374c-0.121-4.019-0.96-7.74-2.52-11.16c-1.741-3.479-4.081-6.24-7.02-8.28c-2.88-1.98-6.03-2.97-9.45-2.97
		s-6.601,0.99-9.54,2.97c-2.88,2.101-5.19,4.86-6.93,8.28c-1.681,3.42-2.52,7.2-2.52,11.34c0,4.14,0.839,7.92,2.52,11.34
		c0.839,1.741,1.845,3.3,3.015,4.68c1.17,1.381,2.475,2.581,3.915,3.6c2.939,1.98,6.12,2.97,9.54,2.97s6.57-0.99,9.45-2.97
		c3-2.1,5.339-4.86,7.02-8.28c1.56-3.36,2.399-7.05,2.52-11.07c-0.121,4.021-0.96,7.71-2.52,11.07c-1.681,3.42-4.021,6.18-7.02,8.28
		c-2.88,1.98-6.03,2.97-9.45,2.97s-6.601-0.99-9.54-2.97c-1.44-1.02-2.745-2.219-3.915-3.6c-1.17-1.379-2.175-2.939-3.015-4.68
		c-1.681-3.42-2.52-7.2-2.52-11.34c0-4.14,0.839-7.92,2.52-11.34c1.739-3.42,4.05-6.179,6.93-8.28c2.939-1.98,6.12-2.97,9.54-2.97
		s6.57,0.99,9.45,2.97c2.939,2.04,5.279,4.801,7.02,8.28C201.159,88.633,201.998,92.354,202.119,96.374z M202.119,52.723v55.35
		c0,1.561,0.045,3.285,0.135,5.175c0.09,1.89,0.194,4.005,0.315,6.345c-0.121-2.34-0.225-4.455-0.315-6.345
		c-0.09-1.89-0.135-3.614-0.135-5.175V52.723z"/>
	<path d="M257.648,88.003c0-2.759-0.211-5.4-0.63-7.92c-0.42-2.52-1.05-4.979-1.89-7.38c-0.841-2.459-1.831-4.619-2.97-6.48
		c-1.141-1.859-2.4-3.479-3.78-4.86c-2.821-2.759-5.91-4.14-9.27-4.14c-3.421,0-6.512,1.381-9.271,4.14
		c-2.94,2.761-5.22,6.541-6.84,11.34c-1.62,4.801-2.43,9.961-2.43,15.48c0,5.58,0.81,10.741,2.43,15.48
		c1.62,4.68,3.899,8.46,6.84,11.34c2.759,2.76,5.85,4.14,9.271,4.14c3.359,0,6.448-1.38,9.27-4.14c1.38-1.379,2.64-3.015,3.78-4.905
		c1.139-1.89,2.129-4.034,2.97-6.435C256.808,98.744,257.648,93.524,257.648,88.003c0,5.521-0.841,10.741-2.52,15.66
		c-0.841,2.4-1.831,4.545-2.97,6.435c-1.141,1.89-2.4,3.526-3.78,4.905c-2.821,2.76-5.91,4.14-9.27,4.14
		c-3.421,0-6.512-1.38-9.271-4.14c-2.94-2.88-5.22-6.66-6.84-11.34c-1.62-4.739-2.43-9.9-2.43-15.48c0-5.52,0.81-10.679,2.43-15.48
		c1.62-4.799,3.899-8.579,6.84-11.34c2.759-2.759,5.85-4.14,9.271-4.14c3.359,0,6.448,1.381,9.27,4.14
		c1.38,1.381,2.64,3.001,3.78,4.86c1.139,1.861,2.129,4.021,2.97,6.48c0.84,2.401,1.47,4.86,1.89,7.38
		C257.438,82.604,257.648,85.244,257.648,88.003z"/>
	<path d="M286.988,57.133v62.46V57.133l-14.94,8.64L286.988,57.133z"/>
</g>
<g>
</g>
<g>
</g>
<g>
</g>
<g>
</g>
<g>
</g>
<g>
</g>
</svg>
