<?xml version="1.0" encoding="utf-8"?>
<!-- Generator: Adobe Illustrator 16.0.0, SVG Export Plug-In . SVG Version: 6.00 Build 0)  -->
<!DOCTYPE svg PUBLIC "-//W3C//DTD SVG 1.1//EN" "http://www.w3.org/Graphics/SVG/1.1/DTD/svg11.dtd">
<svg version="1.1" id="Layer_1" xmlns="http://www.w3.org/2000/svg" xmlns:xlink="http://www.w3.org/1999/xlink" x="0px" y="0px"
	 width="420px" height="300px" viewBox="0 0 420 300" enable-background="new 0 0 420 300" xml:space="preserve">
<g>
	<path fill="#010101" d="M64.745,180.508c3.2-1.133,5.615-2.766,7.25-4.9c1.633-2.133,2.516-4.6,2.65-7.399
		c-0.134-2.866-1.084-5.416-2.85-7.65c-1.767-2.232-4.05-3.716-6.85-4.45l-5-1.399c-3.334-0.666-5.95-2.133-7.85-4.4
		c-1.9-2.266-2.817-4.899-2.75-7.899c0.266-2.4,1.166-4.533,2.7-6.4c1.533-1.865,3.6-3.266,6.2-4.2
		c2.533-0.732,5.016-0.95,7.45-0.649c2.433,0.3,4.716,1.084,6.85,2.35c-2.134-1.266-4.417-2.05-6.85-2.35
		c-2.434-0.301-4.917-0.083-7.45,0.649c-2.6,0.935-4.667,2.335-6.2,4.2c-1.534,1.867-2.435,4-2.7,6.4
		c-0.067,3,0.85,5.634,2.75,7.899c1.9,2.268,4.516,3.734,7.85,4.4l5,1.399c2.8,0.734,5.083,2.218,6.85,4.45
		c1.766,2.234,2.716,4.784,2.85,7.65c-0.134,2.8-1.017,5.267-2.65,7.399C70.36,177.742,67.945,179.375,64.745,180.508
		c-5.935,1.533-11.334,0.933-16.2-1.8C53.411,181.44,58.811,182.041,64.745,180.508z"/>
	<path fill="#010101" d="M90.744,144.008c0-1.666-0.05-3.565-0.15-5.7c-0.1-2.133-0.217-4.5-0.35-7.1c0.133,2.6,0.25,4.967,0.35,7.1
		C90.694,140.442,90.744,142.342,90.744,144.008v59.6V144.008z M93.544,168.408c1.933,3.934,4.533,7,7.8,9.199
		c3.133,2.268,6.633,3.4,10.5,3.4c3.8,0,7.333-1.133,10.6-3.4c3.2-2.199,5.766-5.266,7.7-9.199c1.866-3.801,2.8-8,2.8-12.601
		c0-4.532-0.935-8.7-2.8-12.5c-1.934-3.933-4.5-7-7.7-9.2c-3.268-2.266-6.8-3.399-10.6-3.399c-3.867,0-7.367,1.134-10.5,3.399
		c-3.267,2.2-5.867,5.268-7.8,9.2c-1.867,3.935-2.8,8.034-2.8,12.3c0-4.266,0.933-8.365,2.8-12.3c1.933-3.933,4.533-7,7.8-9.2
		c3.133-2.266,6.633-3.399,10.5-3.399c3.8,0,7.333,1.134,10.6,3.399c3.2,2.2,5.766,5.268,7.7,9.2c1.866,3.8,2.8,7.968,2.8,12.5
		c0,4.601-0.935,8.8-2.8,12.601c-1.934,3.934-4.5,7-7.7,9.199c-3.268,2.268-6.8,3.4-10.6,3.4c-3.867,0-7.367-1.133-10.5-3.4
		C98.077,175.408,95.477,172.342,93.544,168.408c-1.867-3.934-2.8-8.033-2.8-12.301C90.744,160.375,91.677,164.475,93.544,168.408z"
		/>
	<path fill="#010101" d="M189.343,155.708c-0.134-4.466-1.067-8.601-2.8-12.4c-1.935-3.865-4.534-6.933-7.8-9.2
		c-3.2-2.199-6.7-3.3-10.5-3.3c-3.8,0-7.334,1.101-10.6,3.3c-3.2,2.335-5.767,5.4-7.7,9.2c-1.867,3.8-2.8,8-2.8,12.601
		c0,4.6,0.933,8.8,2.8,12.6c0.933,1.935,2.05,3.667,3.35,5.2c1.3,1.534,2.75,2.867,4.35,4c3.266,2.2,6.8,3.3,10.6,3.3
		c3.8,0,7.3-1.1,10.5-3.3c3.333-2.333,5.933-5.4,7.8-9.2c1.733-3.732,2.666-7.833,2.8-12.3c-0.134,4.467-1.067,8.567-2.8,12.3
		c-1.867,3.8-4.467,6.867-7.8,9.2c-3.2,2.2-6.7,3.3-10.5,3.3c-3.8,0-7.334-1.1-10.6-3.3c-1.6-1.133-3.05-2.466-4.35-4
		c-1.3-1.533-2.417-3.266-3.35-5.2c-1.867-3.8-2.8-8-2.8-12.6c0-4.601,0.933-8.801,2.8-12.601c1.933-3.8,4.5-6.865,7.7-9.2
		c3.266-2.199,6.8-3.3,10.6-3.3c3.8,0,7.3,1.101,10.5,3.3c3.266,2.268,5.865,5.335,7.8,9.2
		C188.276,147.107,189.209,151.242,189.343,155.708z M189.343,107.208v61.5c0,1.734,0.05,3.649,0.15,5.75
		c0.1,2.1,0.215,4.45,0.35,7.05c-0.134-2.6-0.25-4.95-0.35-7.05c-0.1-2.101-0.15-4.016-0.15-5.75V107.208z"/>
	<path fill="#010101" d="M217.843,154.908l10-0.101L217.843,154.908l-10.1-0.101L217.843,154.908z"/>
	<path fill="#010101" d="M284.543,137.607c-0.468-2.8-1.168-5.532-2.101-8.199c-0.935-2.733-2.034-5.133-3.3-7.2
		c-1.268-2.066-2.668-3.866-4.2-5.4c-3.134-3.065-6.567-4.6-10.3-4.6c-3.801,0-7.234,1.534-10.301,4.6
		c-3.267,3.067-5.799,7.268-7.6,12.601c-1.8,5.334-2.699,11.066-2.699,17.199c0,6.2,0.899,11.935,2.699,17.2
		c1.801,5.2,4.333,9.4,7.6,12.601c3.066,3.066,6.5,4.6,10.301,4.6c3.732,0,7.166-1.533,10.3-4.6c1.532-1.533,2.933-3.351,4.2-5.45
		c1.266-2.101,2.365-4.483,3.3-7.15c1.866-5.466,2.8-11.266,2.8-17.399c0,6.134-0.934,11.934-2.8,17.399
		c-0.935,2.667-2.034,5.05-3.3,7.15c-1.268,2.1-2.668,3.917-4.2,5.45c-3.134,3.066-6.567,4.6-10.3,4.6
		c-3.801,0-7.234-1.533-10.301-4.6c-3.267-3.2-5.799-7.4-7.6-12.601c-1.8-5.266-2.699-11-2.699-17.2
		c0-6.133,0.899-11.865,2.699-17.199c1.801-5.333,4.333-9.533,7.6-12.601c3.066-3.065,6.5-4.6,10.301-4.6
		c3.732,0,7.166,1.534,10.3,4.6c1.532,1.535,2.933,3.334,4.2,5.4c1.266,2.067,2.365,4.467,3.3,7.2
		C283.375,132.075,284.075,134.808,284.543,137.607c0.465,2.801,0.699,5.734,0.699,8.801
		C285.242,143.342,285.008,140.408,284.543,137.607z"/>
	<path fill="#010101" d="M317.842,112.108v69.4V112.108l-16.6,9.6L317.842,112.108z"/>
</g>
<g>
</g>
<g>
</g>
<g>
</g>
<g>
</g>
<g>
</g>
<g>
</g>
</svg>
