<?xml version="1.0" encoding="utf-8"?>
<!-- Generator: Adobe Illustrator 16.0.0, SVG Export Plug-In . SVG Version: 6.00 Build 0)  -->
<!DOCTYPE svg PUBLIC "-//W3C//DTD SVG 1.1//EN" "http://www.w3.org/Graphics/SVG/1.1/DTD/svg11.dtd">
<svg version="1.1" id="Layer_1" xmlns="http://www.w3.org/2000/svg" xmlns:xlink="http://www.w3.org/1999/xlink" x="0px" y="0px"
	 width="420px" height="300px" viewBox="0 0 420 300" enable-background="new 0 0 420 300" xml:space="preserve">
<g>
	<path fill="#010101" d="M129.084,155.607c0-4.465-0.935-8.565-2.8-12.3c-1.867-3.865-4.434-6.933-7.7-9.2
		c-3.334-2.199-6.867-3.3-10.6-3.3c-3.8,0-7.3,1.101-10.5,3.3c-3.4,2.335-5.967,5.4-7.7,9.2c-1.934,4-2.9,8.2-2.9,12.601
		c0,4.467,0.966,8.634,2.9,12.5c1.8,3.934,4.366,7,7.7,9.199c3.133,2.268,6.633,3.4,10.5,3.4c3.8,0,7.333-1.133,10.6-3.4
		c3.2-2.133,5.766-5.199,7.7-9.199c1.866-3.733,2.8-7.833,2.8-12.301c0,4.468-0.935,8.567-2.8,12.301c-1.934,4-4.5,7.066-7.7,9.199
		c-3.268,2.268-6.8,3.4-10.6,3.4c-3.867,0-7.367-1.133-10.5-3.4c-3.334-2.199-5.9-5.266-7.7-9.199c-1.934-3.866-2.9-8.033-2.9-12.5
		c0-4.4,0.966-8.601,2.9-12.601c1.733-3.8,4.3-6.865,7.7-9.2c3.2-2.199,6.7-3.3,10.5-3.3c3.733,0,7.266,1.101,10.6,3.3
		c3.266,2.268,5.833,5.335,7.7,9.2C128.149,147.042,129.084,151.143,129.084,155.607z M129.584,131.308
		c-0.135,2.135-0.25,4.25-0.35,6.351c-0.1,2.1-0.15,4.149-0.15,6.149v31.8c0.133,11.2-1.7,18.7-5.5,22.5
		c-3.734,3.733-7.734,5.801-12,6.2c-4.135,0.4-7.6,0.333-10.4-0.2c-1.4-0.267-2.85-0.617-4.35-1.05c-1.5-0.435-3.05-0.95-4.65-1.55
		c1.6,0.6,3.15,1.115,4.65,1.55c1.5,0.433,2.95,0.783,4.35,1.05c2.8,0.533,6.266,0.601,10.4,0.2c4.266-0.399,8.266-2.467,12-6.2
		c3.8-3.8,5.633-11.3,5.5-22.5v-31.8c0-2,0.05-4.05,0.15-6.149C129.334,135.558,129.449,133.442,129.584,131.308z"/>
	<path fill="#010101" d="M147.133,137.508c0.1,2.067,0.15,4.167,0.15,6.3v37.7v-37.7
		C147.283,141.675,147.233,139.575,147.133,137.508c-0.1-2.065-0.217-4.166-0.35-6.3
		C146.916,133.342,147.033,135.442,147.133,137.508z M162.083,132.208c-5.534,2.067-10.467,8.234-14.8,18.5
		C151.616,140.442,156.549,134.275,162.083,132.208l3.7-0.9L162.083,132.208z"/>
	<path fill="#010101" d="M180.783,144.008c0-1.666-0.05-3.565-0.15-5.7c-0.1-2.133-0.217-4.5-0.35-7.1
		c0.133,2.6,0.25,4.967,0.35,7.1C180.733,140.442,180.783,142.342,180.783,144.008v59.6V144.008z M183.583,168.408
		c1.933,3.934,4.533,7,7.8,9.199c3.133,2.268,6.633,3.4,10.5,3.4c3.8,0,7.333-1.133,10.6-3.4c3.2-2.199,5.766-5.266,7.7-9.199
		c1.866-3.801,2.8-8,2.8-12.601c0-4.532-0.934-8.7-2.8-12.5c-1.935-3.933-4.5-7-7.7-9.2c-3.267-2.266-6.8-3.399-10.6-3.399
		c-3.867,0-7.367,1.134-10.5,3.399c-3.267,2.2-5.867,5.268-7.8,9.2c-1.867,3.935-2.8,8.034-2.8,12.3c0-4.266,0.933-8.365,2.8-12.3
		c1.933-3.933,4.533-7,7.8-9.2c3.133-2.266,6.633-3.399,10.5-3.399c3.8,0,7.333,1.134,10.6,3.399c3.2,2.2,5.766,5.268,7.7,9.2
		c1.866,3.8,2.8,7.968,2.8,12.5c0,4.601-0.934,8.8-2.8,12.601c-1.935,3.934-4.5,7-7.7,9.199c-3.267,2.268-6.8,3.4-10.6,3.4
		c-3.867,0-7.367-1.133-10.5-3.4C188.116,175.408,185.516,172.342,183.583,168.408c-1.867-3.934-2.8-8.033-2.8-12.301
		C180.783,160.375,181.715,164.475,183.583,168.408z"/>
	<path fill="#010101" d="M276.582,143.308c-1.935-3.865-4.534-6.933-7.8-9.2c-3.2-2.199-6.7-3.3-10.5-3.3s-7.335,1.101-10.601,3.3
		c-3.199,2.335-5.767,5.4-7.699,9.2c-1.867,3.8-2.801,8-2.801,12.601c0,4.6,0.934,8.8,2.801,12.6c0.933,1.935,2.05,3.667,3.35,5.2
		c1.3,1.534,2.75,2.867,4.35,4c3.266,2.2,6.801,3.3,10.601,3.3s7.3-1.1,10.5-3.3c3.333-2.333,5.933-5.4,7.8-9.2
		c1.732-3.732,2.666-7.833,2.8-12.3c-0.134,4.467-1.067,8.567-2.8,12.3c-1.867,3.8-4.467,6.867-7.8,9.2c-3.2,2.2-6.7,3.3-10.5,3.3
		s-7.335-1.1-10.601-3.3c-1.6-1.133-3.05-2.466-4.35-4c-1.3-1.533-2.417-3.266-3.35-5.2c-1.867-3.8-2.801-8-2.801-12.6
		c0-4.601,0.934-8.801,2.801-12.601c1.933-3.8,4.5-6.865,7.699-9.2c3.266-2.199,6.801-3.3,10.601-3.3s7.3,1.101,10.5,3.3
		C272.048,136.375,274.647,139.442,276.582,143.308c1.732,3.8,2.666,7.935,2.8,12.4
		C279.248,151.242,278.314,147.107,276.582,143.308z M279.382,168.708c0,1.734,0.05,3.649,0.15,5.75c0.1,2.1,0.216,4.45,0.35,7.05
		c-0.134-2.6-0.25-4.95-0.35-7.05C279.432,172.357,279.382,170.442,279.382,168.708v-61.5V168.708z"/>
</g>
<g>
</g>
<g>
</g>
<g>
</g>
<g>
</g>
<g>
</g>
<g>
</g>
</svg>
