<?xml version="1.0" encoding="utf-8"?>
<!-- Generator: Adobe Illustrator 16.0.0, SVG Export Plug-In . SVG Version: 6.00 Build 0)  -->
<!DOCTYPE svg PUBLIC "-//W3C//DTD SVG 1.1//EN" "http://www.w3.org/Graphics/SVG/1.1/DTD/svg11.dtd">
<svg version="1.1" id="Layer_1" xmlns="http://www.w3.org/2000/svg" xmlns:xlink="http://www.w3.org/1999/xlink" x="0px" y="0px"
	 width="420px" height="300px" viewBox="0 0 420 300" enable-background="new 0 0 420 300" xml:space="preserve">
<g>
	<path fill="#010101" d="M16.193,113.758c-0.367,0.435-0.817,0.65-1.35,0.65c-0.535,0.067-0.984-0.1-1.35-0.5
		c-0.367-0.4-0.584-0.866-0.65-1.4c0-1.266,0.633-1.966,1.9-2.1c0.533,0,1,0.185,1.4,0.55c0.4,0.367,0.6,0.817,0.6,1.35
		c0-0.533-0.2-0.982-0.6-1.35c-0.4-0.366-0.867-0.55-1.4-0.55c-1.267,0.134-1.9,0.834-1.9,2.1c0.065,0.534,0.283,1,0.65,1.4
		c0.366,0.4,0.815,0.567,1.35,0.5C15.375,114.408,15.826,114.192,16.193,113.758c0.365-0.433,0.55-0.916,0.55-1.45
		C16.743,112.842,16.558,113.325,16.193,113.758z M14.843,156.408l-0.1,25.1L14.843,156.408l-0.1-25.101L14.843,156.408z"/>
	<path fill="#010101" d="M35.842,143.808c0-2.133-0.034-4.232-0.1-6.3c-0.067-2.065-0.2-4.166-0.4-6.3
		c0.2,2.134,0.333,4.234,0.4,6.3C35.808,139.575,35.842,141.675,35.842,143.808v37.7V143.808z M50.642,132.208
		c5.466-2,10.266-1.333,14.4,2c4.133,3.2,6.133,10.234,6,21.1v26.2v-26.2c0.133-10.865-1.867-17.899-6-21.1
		C60.908,130.875,56.108,130.208,50.642,132.208c-5.534,2.067-10.467,8.234-14.8,18.5C40.175,140.442,45.108,134.275,50.642,132.208
		z"/>
	<path fill="#010101" d="M94.242,131.208h14.1H94.242v37.6c-0.067,2.2,0.416,4.268,1.45,6.2c1.033,1.935,2.483,3.5,4.35,4.7
		c1.333,0.865,2.75,1.399,4.25,1.6s3.016,0.101,4.55-0.3c-1.535,0.4-3.05,0.5-4.55,0.3s-2.917-0.734-4.25-1.6
		c-1.867-1.2-3.317-2.766-4.35-4.7c-1.034-1.933-1.517-4-1.45-6.2V131.208h-9.1H94.242v-12.1V131.208z"/>
	<path fill="#010101" d="M141.741,180.908c-6-0.135-10.967-2.4-14.9-6.801c-4-4.465-5.834-11.1-5.5-19.899
		c0.333-8.8,3.8-15.366,10.4-19.7c6.666-4.2,13.4-4.232,20.2-0.1c6.8,4.134,9.8,11.134,9,21h-39.6h39.6c0.8-9.866-2.2-16.866-9-21
		c-6.8-4.133-13.535-4.101-20.2,0.1c-6.6,4.334-10.067,10.9-10.4,19.7c-0.334,8.8,1.5,15.435,5.5,19.899
		C130.773,178.508,135.741,180.773,141.741,180.908c5.866,0.199,11-0.566,15.4-2.301
		C152.741,180.342,147.606,181.107,141.741,180.908z"/>
	<path fill="#010101" d="M176.44,131.208c0.133,2.134,0.25,4.234,0.35,6.3c0.1,2.067,0.15,4.167,0.15,6.3v37.7v-37.7
		c0-2.133-0.05-4.232-0.15-6.3C176.69,135.442,176.573,133.342,176.44,131.208z M195.44,131.308l-3.7,0.9
		c-5.534,2.067-10.467,8.234-14.8,18.5c4.333-10.266,9.266-16.433,14.8-18.5L195.44,131.308z"/>
	<path fill="#010101" d="M241.439,165.508c-3.601,8.667-8.734,13.6-15.4,14.8c-6.6,1.2-11.2,0.466-13.8-2.2
		c-2.6-2.6-3.867-6.1-3.8-10.5c0.2-4.465,2.6-8.433,7.2-11.899c4.665-3.601,13.266-4.933,25.8-4c-12.534-0.933-21.135,0.399-25.8,4
		c-4.601,3.467-7,7.435-7.2,11.899c-0.067,4.4,1.2,7.9,3.8,10.5c2.6,2.666,7.2,3.4,13.8,2.2
		C232.705,179.107,237.839,174.175,241.439,165.508z M211.939,134.408c5.065-2.666,10.2-3.733,15.399-3.2
		c5.133,0.467,8.866,2.2,11.2,5.2c2.266,2.934,3.233,10.167,2.9,21.699c-0.268,11.4,0.2,19.301,1.399,23.7
		c-1.199-4.399-1.667-12.3-1.399-23.7c0.333-11.532-0.635-18.766-2.9-21.699c-2.334-3-6.067-4.733-11.2-5.2
		C222.14,130.675,217.005,131.742,211.939,134.408z"/>
	<path fill="#010101" d="M290.84,179.508c-3.867,1.4-7.817,1.833-11.851,1.3c-4.034-0.532-7.75-1.966-11.149-4.3
		c-3.4-2.333-6.035-5.315-7.9-8.95c-1.867-3.633-2.8-7.516-2.8-11.649c0-4.133,0.933-8.016,2.8-11.65
		c1.865-3.633,4.5-6.615,7.9-8.95c3.399-2.333,7.115-3.766,11.149-4.3c4.033-0.533,7.983-0.133,11.851,1.2
		c-3.867-1.333-7.817-1.733-11.851-1.2c-4.034,0.534-7.75,1.967-11.149,4.3c-3.4,2.335-6.035,5.317-7.9,8.95
		c-1.867,3.635-2.8,7.518-2.8,11.65c0,4.134,0.933,8.017,2.8,11.649c1.865,3.635,4.5,6.617,7.9,8.95
		c3.399,2.334,7.115,3.768,11.149,4.3C283.022,181.341,286.973,180.908,290.84,179.508z"/>
	<path fill="#010101" d="M313.139,131.208h14.1H313.139v37.6c-0.066,2.2,0.416,4.268,1.449,6.2c1.033,1.935,2.484,3.5,4.352,4.7
		c1.332,0.865,2.75,1.399,4.25,1.6s3.016,0.101,4.549-0.3c-1.533,0.4-3.049,0.5-4.549,0.3s-2.918-0.734-4.25-1.6
		c-1.867-1.2-3.318-2.766-4.352-4.7c-1.033-1.933-1.516-4-1.449-6.2V131.208h-9.101H313.139v-12.1V131.208z"/>
	<path fill="#010101" d="M357.438,181.008h4.399l17.101-49.8l-17.101,49.8H357.438l-17.101-49.8L357.438,181.008z"/>
</g>
<g>
</g>
<g>
</g>
<g>
</g>
<g>
</g>
<g>
</g>
<g>
</g>
</svg>
