<?xml version="1.0" encoding="utf-8"?>
<!-- Generator: Adobe Illustrator 16.0.0, SVG Export Plug-In . SVG Version: 6.00 Build 0)  -->
<!DOCTYPE svg PUBLIC "-//W3C//DTD SVG 1.1//EN" "http://www.w3.org/Graphics/SVG/1.1/DTD/svg11.dtd">
<svg version="1.1" id="Layer_1" xmlns="http://www.w3.org/2000/svg" xmlns:xlink="http://www.w3.org/1999/xlink" x="0px" y="0px"
	 width="420px" height="300px" viewBox="0 0 420 300" enable-background="new 0 0 420 300" xml:space="preserve">
<g>
	<path fill="#010101" d="M50.985,168.708c-0.067,1.667-0.134,3.567-0.2,5.7c-0.067,2.134-0.167,4.5-0.3,7.1
		c0.133-2.6,0.233-4.966,0.3-7.1C50.851,172.275,50.918,170.375,50.985,168.708v-61.6V168.708z M53.785,168.408
		c1.933,3.934,4.5,7,7.7,9.199c3.266,2.268,6.8,3.4,10.6,3.4c3.866,0,7.366-1.133,10.5-3.4c3.266-2.199,5.866-5.266,7.8-9.199
		c1.866-3.934,2.8-8.101,2.8-12.5c0-4.333-0.935-8.533-2.8-12.601c-1.867-3.8-4.467-6.865-7.8-9.2
		c-3.267-2.266-6.767-3.399-10.5-3.399c-3.667,0-7.2,1.134-10.6,3.399c-1.6,1.135-3.05,2.468-4.35,4
		c-1.3,1.535-2.417,3.268-3.35,5.2c-1.867,3.935-2.8,8.034-2.8,12.3c0-4.266,0.933-8.365,2.8-12.3c0.933-1.933,2.05-3.665,3.35-5.2
		c1.3-1.532,2.75-2.865,4.35-4c3.4-2.266,6.933-3.399,10.6-3.399c3.733,0,7.233,1.134,10.5,3.399c3.333,2.335,5.933,5.4,7.8,9.2
		c1.866,4.067,2.8,8.268,2.8,12.601c0,4.399-0.935,8.566-2.8,12.5c-1.934,3.934-4.534,7-7.8,9.199c-3.134,2.268-6.634,3.4-10.5,3.4
		c-3.8,0-7.334-1.133-10.6-3.4C58.285,175.408,55.718,172.342,53.785,168.408c-1.867-3.934-2.8-8.033-2.8-12.301
		C50.985,160.375,51.918,164.475,53.785,168.408z"/>
	<path fill="#010101" d="M116.285,181.508v-50.3h-9h9v-8.601c0-2.532,0.5-4.982,1.5-7.35c1-2.366,2.465-4.416,4.4-6.15
		c1.733-1.533,3.7-2.633,5.9-3.3c2.2-0.666,4.466-0.833,6.8-0.5c-2.334-0.333-4.6-0.166-6.8,0.5c-2.2,0.667-4.167,1.768-5.9,3.3
		c-1.935,1.734-3.4,3.784-4.4,6.15c-1,2.367-1.5,4.817-1.5,7.35v8.601h14.1h-14.1V181.508z"/>
	<path fill="#010101" d="M157.883,131.208h14.1H157.883v-8.601c0-2.532,0.5-4.982,1.5-7.35c1-2.366,2.465-4.416,4.4-6.15
		c1.733-1.533,3.7-2.633,5.9-3.3c2.2-0.666,4.466-0.833,6.8-0.5c-2.334-0.333-4.6-0.166-6.8,0.5c-2.2,0.667-4.167,1.768-5.9,3.3
		c-1.935,1.734-3.4,3.784-4.4,6.15c-1,2.367-1.5,4.817-1.5,7.35V131.208h-9H157.883v50.3V131.208z"/>
	<path fill="#010101" d="M200.482,154.908l10-0.101L200.482,154.908l-10.1-0.101L200.482,154.908z"/>
	<path fill="#010101" d="M267.182,137.607c-0.467-2.8-1.168-5.532-2.1-8.199c-0.936-2.733-2.035-5.133-3.301-7.2
		c-1.268-2.066-2.667-3.866-4.199-5.4c-3.135-3.065-6.568-4.6-10.301-4.6c-3.8,0-7.234,1.534-10.3,4.6
		c-3.267,3.067-5.8,7.268-7.601,12.601c-1.799,5.334-2.699,11.066-2.699,17.199c0,6.2,0.9,11.935,2.699,17.2
		c1.801,5.2,4.334,9.4,7.601,12.601c3.065,3.066,6.5,4.6,10.3,4.6c3.732,0,7.166-1.533,10.301-4.6
		c1.532-1.533,2.932-3.351,4.199-5.45c1.266-2.101,2.365-4.483,3.301-7.15c1.865-5.466,2.799-11.266,2.799-17.399
		c0,6.134-0.934,11.934-2.799,17.399c-0.936,2.667-2.035,5.05-3.301,7.15c-1.268,2.1-2.667,3.917-4.199,5.45
		c-3.135,3.066-6.568,4.6-10.301,4.6c-3.8,0-7.234-1.533-10.3-4.6c-3.267-3.2-5.8-7.4-7.601-12.601
		c-1.799-5.266-2.699-11-2.699-17.2c0-6.133,0.9-11.865,2.699-17.199c1.801-5.333,4.334-9.533,7.601-12.601
		c3.065-3.065,6.5-4.6,10.3-4.6c3.732,0,7.166,1.534,10.301,4.6c1.532,1.535,2.932,3.334,4.199,5.4
		c1.266,2.067,2.365,4.467,3.301,7.2C266.014,132.075,266.715,134.808,267.182,137.607c0.465,2.801,0.699,5.734,0.699,8.801
		C267.881,143.342,267.646,140.408,267.182,137.607z"/>
	<path fill="#010101" d="M284.88,180.508l30.8-33.1c1.666-1.733,3-3.716,4-5.95c1-2.233,1.666-4.55,2-6.95
		c0.332-2.4,0.266-4.8-0.201-7.2c-0.467-2.399-1.299-4.665-2.5-6.8c-1.398-2.333-3.266-4.25-5.6-5.75s-4.9-2.383-7.699-2.65
		c-3.268-0.4-6.484-0.133-9.65,0.8c-3.166,0.935-6.017,2.467-8.549,4.6c2.532-2.133,5.383-3.666,8.549-4.6
		c3.166-0.933,6.383-1.2,9.65-0.8c2.799,0.267,5.365,1.15,7.699,2.65s4.201,3.417,5.6,5.75c1.201,2.135,2.033,4.4,2.5,6.8
		c0.467,2.4,0.533,4.8,0.201,7.2c-0.334,2.4-1,4.717-2,6.95c-1,2.234-2.334,4.217-4,5.95L284.88,180.508h40.3H284.88z"/>
</g>
<g>
</g>
<g>
</g>
<g>
</g>
<g>
</g>
<g>
</g>
<g>
</g>
</svg>
