<?xml version="1.0" encoding="utf-8"?>
<!-- Generator: Adobe Illustrator 16.0.0, SVG Export Plug-In . SVG Version: 6.00 Build 0)  -->
<!DOCTYPE svg PUBLIC "-//W3C//DTD SVG 1.1//EN" "http://www.w3.org/Graphics/SVG/1.1/DTD/svg11.dtd">
<svg version="1.1" id="Layer_1" xmlns="http://www.w3.org/2000/svg" xmlns:xlink="http://www.w3.org/1999/xlink" x="0px" y="0px"
	 width="420px" height="300px" viewBox="0 0 420 300" enable-background="new 0 0 420 300" xml:space="preserve">
<g>
	<path fill="#010101" d="M27.686,107.108v74.4v-17.6l10.9-12.101l21.2,29.7l-21.2-29.7l18.5-20.5l-29.4,32.601V107.108z"/>
	<path fill="#010101" d="M79.735,113.758c-0.367,0.435-0.817,0.65-1.35,0.65c-0.535,0.067-0.984-0.1-1.35-0.5
		c-0.367-0.4-0.584-0.866-0.65-1.4c0-1.266,0.633-1.966,1.9-2.1c0.533,0,1,0.185,1.4,0.55c0.4,0.367,0.6,0.817,0.6,1.35
		c0-0.533-0.2-0.982-0.6-1.35c-0.4-0.366-0.867-0.55-1.4-0.55c-1.267,0.134-1.9,0.834-1.9,2.1c0.065,0.534,0.283,1,0.65,1.4
		c0.366,0.4,0.815,0.567,1.35,0.5C78.917,114.408,79.368,114.192,79.735,113.758c0.365-0.433,0.55-0.916,0.55-1.45
		C80.285,112.842,80.1,113.325,79.735,113.758z M78.385,156.408l-0.1,25.1L78.385,156.408l-0.1-25.101L78.385,156.408z"/>
	<path fill="#010101" d="M99.385,143.808c0-2.133-0.034-4.232-0.1-6.3c-0.067-2.065-0.2-4.166-0.4-6.3
		c0.2,2.134,0.333,4.234,0.4,6.3C99.351,139.575,99.385,141.675,99.385,143.808v37.7V143.808z M114.185,132.208
		c5.466-2,10.266-1.333,14.4,2c4.133,3.2,6.133,10.234,6,21.1v26.2v-26.2c0.133-10.865-1.867-17.899-6-21.1
		C124.45,130.875,119.65,130.208,114.185,132.208c-5.534,2.067-10.467,8.234-14.8,18.5
		C103.718,140.442,108.65,134.275,114.185,132.208z"/>
	<path fill="#010101" d="M157.784,131.208h14.1H157.784v37.6c-0.067,2.2,0.416,4.268,1.45,6.2c1.033,1.935,2.483,3.5,4.35,4.7
		c1.333,0.865,2.75,1.399,4.25,1.6s3.016,0.101,4.55-0.3c-1.535,0.4-3.05,0.5-4.55,0.3s-2.917-0.734-4.25-1.6
		c-1.867-1.2-3.317-2.766-4.35-4.7c-1.034-1.933-1.517-4-1.45-6.2V131.208h-9.1H157.784v-12.1V131.208z"/>
	<path fill="#010101" d="M206.733,180.808c-4.035-0.532-7.75-1.966-11.15-4.3c-3.4-2.333-6.035-5.315-7.9-8.95
		c-1.867-3.633-2.8-7.516-2.8-11.649c0-4.133,0.933-8.016,2.8-11.65c1.866-3.633,4.5-6.615,7.9-8.95
		c3.4-2.333,7.115-3.766,11.15-4.3c4.033-0.533,7.983-0.133,11.851,1.2c-3.867-1.333-7.818-1.733-11.851-1.2
		c-4.035,0.534-7.75,1.967-11.15,4.3c-3.4,2.335-6.035,5.317-7.9,8.95c-1.867,3.635-2.8,7.518-2.8,11.65
		c0,4.134,0.933,8.017,2.8,11.649c1.866,3.635,4.5,6.617,7.9,8.95C198.983,178.842,202.699,180.275,206.733,180.808
		c4.033,0.533,7.983,0.101,11.851-1.3C214.717,180.908,210.766,181.341,206.733,180.808z"/>
	<path fill="#010101" d="M242.882,154.908l10-0.101L242.882,154.908l-10.101-0.101L242.882,154.908z"/>
	<path fill="#010101" d="M309.58,137.607c-0.467-2.8-1.166-5.532-2.1-8.199c-0.934-2.733-2.033-5.133-3.299-7.2
		c-1.268-2.066-2.668-3.866-4.2-5.4c-3.134-3.065-6.567-4.6-10.3-4.6c-3.801,0-7.234,1.534-10.301,4.6
		c-3.267,3.067-5.799,7.268-7.6,12.601c-1.8,5.334-2.699,11.066-2.699,17.199c0,6.2,0.899,11.935,2.699,17.2
		c1.801,5.2,4.333,9.4,7.6,12.601c3.066,3.066,6.5,4.6,10.301,4.6c3.732,0,7.166-1.533,10.3-4.6c1.532-1.533,2.933-3.351,4.2-5.45
		c1.266-2.101,2.365-4.483,3.299-7.15c1.865-5.466,2.801-11.266,2.801-17.399c0,6.134-0.936,11.934-2.801,17.399
		c-0.934,2.667-2.033,5.05-3.299,7.15c-1.268,2.1-2.668,3.917-4.2,5.45c-3.134,3.066-6.567,4.6-10.3,4.6
		c-3.801,0-7.234-1.533-10.301-4.6c-3.267-3.2-5.799-7.4-7.6-12.601c-1.8-5.266-2.699-11-2.699-17.2
		c0-6.133,0.899-11.865,2.699-17.199c1.801-5.333,4.333-9.533,7.6-12.601c3.066-3.065,6.5-4.6,10.301-4.6
		c3.732,0,7.166,1.534,10.3,4.6c1.532,1.535,2.933,3.334,4.2,5.4c1.266,2.067,2.365,4.467,3.299,7.2
		C308.414,132.075,309.113,134.808,309.58,137.607c0.467,2.801,0.701,5.734,0.701,8.801
		C310.281,143.342,310.047,140.408,309.58,137.607z"/>
	<path fill="#010101" d="M326.279,121.708l16.6-9.6v69.4v-69.4L326.279,121.708z"/>
</g>
<g>
</g>
<g>
</g>
<g>
</g>
<g>
</g>
<g>
</g>
<g>
</g>
</svg>
