<?xml version="1.0" encoding="utf-8"?>
<!-- Generator: Adobe Illustrator 18.0.0, SVG Export Plug-In . SVG Version: 6.00 Build 0)  -->
<!DOCTYPE svg PUBLIC "-//W3C//DTD SVG 1.1//EN" "http://www.w3.org/Graphics/SVG/1.1/DTD/svg11.dtd">
<svg version="1.1" id="Layer_1" xmlns="http://www.w3.org/2000/svg" xmlns:xlink="http://www.w3.org/1999/xlink" x="0px" y="0px"
	 viewBox="0 0 306 51" enable-background="new 0 0 306 51" xml:space="preserve">
<g>
	<path d="M7.3,51V25.7L37.4,51L7.3,25.7L37.4,0.3L7.3,25.7V0.3V51z"/>
	<path d="M56.3,18.1h10.9V51H78H56.3h10.9V18.1H56.3z M65.4,0.7v0.9v0.9V1.6V0.7z"/>
	<path d="M97.8,27.3l13.2-8.6c0.6-0.4,1.2-0.6,2-0.6h4.7c1.9,0,3.5,0.6,4.9,1.9c1.4,1.3,2.2,2.8,2.3,4.7l1.2,26.4l-1.2-26.4
		c-0.1-1.9-0.9-3.4-2.3-4.7c-1.4-1.3-3-1.9-4.9-1.9H113c-0.8,0-1.4,0.2-2,0.6L97.8,27.3V51V18V27.3z"/>
	<path d="M142.6,36.2h27.5V25.7c0-1-0.4-1.8-1.1-2.5l-4.7-4c-0.7-0.7-1.5-1-2.6-1H151c-1,0-1.8,0.3-2.4,0.9l-4.9,4.2
		c-0.7,0.7-1.1,1.5-1.1,2.5v17.7c0,1.1,0.4,2,1.1,2.6l4.7,4c0.7,0.7,1.6,1.1,2.6,1.1h19.2H151c-1,0-1.9-0.4-2.6-1.1l-4.7-4
		c-0.7-0.6-1.1-1.5-1.1-2.6V25.7c0-1,0.4-1.8,1.1-2.5l4.9-4.2c0.6-0.6,1.4-0.9,2.4-0.9h10.8c1.1,0,1.9,0.3,2.6,1l4.7,4
		c0.7,0.7,1.1,1.5,1.1,2.5v10.5H142.6z"/>
	<path d="M213.3,49.5c-1.3,1-2.8,1.5-4.5,1.5H201c-1,0-2-0.2-2.8-0.6c-0.9-0.4-1.7-0.9-2.3-1.5s-1.2-1.4-1.5-2.3
		c-0.4-0.9-0.6-1.8-0.6-2.8V18h-6.5H211h-17.4V3.9v39.8c0,1,0.2,2,0.6,2.8c0.4,0.9,0.9,1.7,1.5,2.3s1.4,1.2,2.3,1.5
		c0.9,0.4,1.8,0.6,2.8,0.6h7.9C210.6,51,212,50.5,213.3,49.5c1.3-1,2.1-2.3,2.5-3.9C215.5,47.2,214.6,48.5,213.3,49.5z"/>
	<path d="M246.3,18.1V51h-10.9h21.7h-10.9V18.1h-10.9H246.3z M244.5,1.6v0.9V1.6V0.7V1.6z"/>
	<path d="M289.1,51c-1.1,0-1.9-0.4-2.5-1.1l-8.4-7c-0.7-0.7-1.1-1.6-1.1-2.5V28.7c0-0.9,0.4-1.8,1.1-2.6l8.4-7c0.7-0.7,1.5-1,2.5-1
		H305h-15.9c-1,0-1.8,0.3-2.5,1l-8.4,7c-0.7,0.8-1.1,1.7-1.1,2.6v11.7c0,1,0.4,1.8,1.1,2.5l8.4,7C287.2,50.6,288,51,289.1,51H305
		H289.1z"/>
</g>
</svg>
