<?xml version="1.0" encoding="utf-8"?>
<!-- Generator: Adobe Illustrator 16.0.0, SVG Export Plug-In . SVG Version: 6.00 Build 0)  -->
<!DOCTYPE svg PUBLIC "-//W3C//DTD SVG 1.1//EN" "http://www.w3.org/Graphics/SVG/1.1/DTD/svg11.dtd">
<svg version="1.1" id="Layer_1" xmlns="http://www.w3.org/2000/svg" xmlns:xlink="http://www.w3.org/1999/xlink" x="0px" y="0px"
	 width="420px" height="300px" viewBox="0 0 420 300" enable-background="new 0 0 420 300" xml:space="preserve">
<g>
	<path fill="#010101" d="M26.384,143.808c0-2.133-0.034-4.232-0.1-6.3c-0.067-2.065-0.2-4.166-0.4-6.3
		c0.2,2.134,0.333,4.234,0.4,6.3C26.35,139.575,26.384,141.675,26.384,143.808v37.7V143.808z M41.184,132.208
		c5.466-2,10.266-1.333,14.4,2c4.133,3.2,6.133,10.234,6,21.1v26.2v-26.2c0.133-10.865-1.867-17.899-6-21.1
		C51.45,130.875,46.65,130.208,41.184,132.208c-5.534,2.067-10.467,8.234-14.8,18.5C30.717,140.442,35.65,134.275,41.184,132.208z"
		/>
	<path fill="#010101" d="M97.083,180.908c-6-0.135-10.967-2.4-14.9-6.801c-4-4.465-5.834-11.1-5.5-19.899
		c0.333-8.8,3.8-15.366,10.4-19.7c6.666-4.2,13.4-4.232,20.2-0.1c6.8,4.134,9.8,11.134,9,21h-39.6h39.6c0.8-9.866-2.2-16.866-9-21
		c-6.8-4.133-13.535-4.101-20.2,0.1c-6.6,4.334-10.067,10.9-10.4,19.7c-0.334,8.8,1.5,15.435,5.5,19.899
		C86.116,178.508,91.083,180.773,97.083,180.908c5.866,0.199,11-0.566,15.4-2.301C108.083,180.342,102.949,181.107,97.083,180.908z"
		/>
	<path fill="#010101" d="M147.783,180.308c-6.6,1.2-11.2,0.466-13.8-2.2c-2.6-2.6-3.867-6.1-3.8-10.5
		c0.2-4.465,2.6-8.433,7.2-11.899c4.666-3.601,13.266-4.933,25.8-4c-12.534-0.933-21.134,0.399-25.8,4
		c-4.6,3.467-7,7.435-7.2,11.899c-0.067,4.4,1.2,7.9,3.8,10.5C136.583,180.773,141.183,181.508,147.783,180.308
		c6.666-1.2,11.8-6.133,15.4-14.8C159.583,174.175,154.448,179.107,147.783,180.308z M149.083,131.208
		c5.133,0.467,8.866,2.2,11.2,5.2c2.266,2.934,3.233,10.167,2.9,21.699c-0.267,11.4,0.2,19.301,1.4,23.7
		c-1.2-4.399-1.667-12.3-1.4-23.7c0.333-11.532-0.634-18.766-2.9-21.699C157.948,133.408,154.215,131.675,149.083,131.208
		c-5.2-0.533-10.334,0.534-15.4,3.2C138.748,131.742,143.883,130.675,149.083,131.208z"/>
	<path fill="#010101" d="M180.482,131.208c0.133,2.134,0.25,4.234,0.35,6.3c0.1,2.067,0.15,4.167,0.15,6.3v37.7v-37.7
		c0-2.133-0.05-4.232-0.15-6.3C180.732,135.442,180.615,133.342,180.482,131.208z M199.482,131.308l-3.7,0.9
		c-5.534,2.067-10.467,8.234-14.8,18.5c4.333-10.266,9.266-16.433,14.8-18.5L199.482,131.308z"/>
	<path fill="#010101" d="M222.582,154.908l10-0.101L222.582,154.908l-10.1-0.101L222.582,154.908z"/>
	<path fill="#010101" d="M289.282,137.607c-0.468-2.8-1.167-5.532-2.101-8.199c-0.934-2.733-2.033-5.133-3.299-7.2
		c-1.268-2.066-2.668-3.866-4.201-5.4c-3.134-3.065-6.566-4.6-10.299-4.6c-3.801,0-7.234,1.534-10.301,4.6
		c-3.268,3.067-5.8,7.268-7.6,12.601c-1.801,5.334-2.7,11.066-2.7,17.199c0,6.2,0.899,11.935,2.7,17.2c1.8,5.2,4.332,9.4,7.6,12.601
		c3.066,3.066,6.5,4.6,10.301,4.6c3.732,0,7.165-1.533,10.299-4.6c1.533-1.533,2.934-3.351,4.201-5.45
		c1.266-2.101,2.365-4.483,3.299-7.15c1.866-5.466,2.801-11.266,2.801-17.399c0,6.134-0.935,11.934-2.801,17.399
		c-0.934,2.667-2.033,5.05-3.299,7.15c-1.268,2.1-2.668,3.917-4.201,5.45c-3.134,3.066-6.566,4.6-10.299,4.6
		c-3.801,0-7.234-1.533-10.301-4.6c-3.268-3.2-5.8-7.4-7.6-12.601c-1.801-5.266-2.7-11-2.7-17.2c0-6.133,0.899-11.865,2.7-17.199
		c1.8-5.333,4.332-9.533,7.6-12.601c3.066-3.065,6.5-4.6,10.301-4.6c3.732,0,7.165,1.534,10.299,4.6
		c1.533,1.535,2.934,3.334,4.201,5.4c1.266,2.067,2.365,4.467,3.299,7.2C288.115,132.075,288.814,134.808,289.282,137.607
		c0.466,2.801,0.7,5.734,0.7,8.801C289.982,143.342,289.748,140.408,289.282,137.607z"/>
	<path fill="#010101" d="M306.98,180.508l30.799-33.1c1.666-1.733,3-3.716,4-5.95c1-2.233,1.666-4.55,2-6.95s0.266-4.8-0.199-7.2
		c-0.467-2.399-1.301-4.665-2.5-6.8c-1.4-2.333-3.268-4.25-5.6-5.75c-2.334-1.5-4.9-2.383-7.701-2.65
		c-3.266-0.4-6.484-0.133-9.648,0.8c-3.168,0.935-6.018,2.467-8.551,4.6c2.533-2.133,5.383-3.666,8.551-4.6
		c3.164-0.933,6.383-1.2,9.648-0.8c2.801,0.267,5.367,1.15,7.701,2.65c2.332,1.5,4.199,3.417,5.6,5.75
		c1.199,2.135,2.033,4.4,2.5,6.8c0.465,2.4,0.533,4.8,0.199,7.2s-1,4.717-2,6.95c-1,2.234-2.334,4.217-4,5.95L306.98,180.508h40.299
		H306.98z"/>
</g>
<g>
</g>
<g>
</g>
<g>
</g>
<g>
</g>
<g>
</g>
<g>
</g>
</svg>
