<?xml version="1.0" encoding="utf-8"?>
<!-- Generator: Adobe Illustrator 18.0.0, SVG Export Plug-In . SVG Version: 6.00 Build 0)  -->
<!DOCTYPE svg PUBLIC "-//W3C//DTD SVG 1.1//EN" "http://www.w3.org/Graphics/SVG/1.1/DTD/svg11.dtd">
<svg version="1.1" id="Layer_1" xmlns="http://www.w3.org/2000/svg" xmlns:xlink="http://www.w3.org/1999/xlink" x="0px" y="0px"
	 viewBox="0 0 66 48.9" enable-background="new 0 0 66 48.9" xml:space="preserve">
<g>
	<path fill="#DD0000" stroke="#000000" stroke-miterlimit="10" d="M0,0.9C3,0.4,7,0,12,0c6.2,0,10.7,1.4,13.6,4
		c2.7,2.3,4.2,5.8,4.2,10.2c0,4.4-1.3,7.8-3.7,10.4c-3.3,3.5-8.7,5.3-14.8,5.3c-1.9,0-3.6-0.1-5-0.4v19.4H0V0.9z M6.3,24.3
		c1.4,0.4,3.1,0.5,5.2,0.5c7.6,0,12.2-3.7,12.2-10.4c0-6.4-4.5-9.5-11.4-9.5C9.4,5,7.3,5.2,6.3,5.5V24.3z"/>
	<path fill="#DD0000" stroke="#000000" stroke-miterlimit="10" d="M36.1,48.9V45l5-4.8c12-11.4,17.4-17.4,17.4-24.5
		c0-4.8-2.3-9.1-9.3-9.1c-4.2,0-7.8,2.2-9.9,4l-2-4.5c3.2-2.7,7.8-4.8,13.2-4.8c10.1,0,14.3,6.9,14.3,13.6c0,8.6-6.3,15.6-16.1,25.1
		l-3.7,3.5v0.1h21v5.3H36.1z"/>
</g>
</svg>
