<?xml version="1.0" encoding="UTF-8" standalone="no"?>
<!-- Created with Inkscape (http://www.inkscape.org/) -->

<svg
   xmlns:dc="http://purl.org/dc/elements/1.1/"
   xmlns:cc="http://creativecommons.org/ns#"
   xmlns:rdf="http://www.w3.org/1999/02/22-rdf-syntax-ns#"
   xmlns:svg="http://www.w3.org/2000/svg"
   xmlns="http://www.w3.org/2000/svg"
   xmlns:sodipodi="http://sodipodi.sourceforge.net/DTD/sodipodi-0.dtd"
   xmlns:inkscape="http://www.inkscape.org/namespaces/inkscape"
   id="svg2"
   version="1.1"
   inkscape:version="0.48+devel r12701"
   width="297.14963"
   height="487.85544"
   viewBox="0 0 297.14963 487.85544"
   sodipodi:docname="pteradactyl_silhouette.svg">
  <title
     id="title4066">pteradactyl silhouette</title>
  <metadata
     id="metadata8">
    <rdf:RDF>
      <cc:Work
         rdf:about="">
        <dc:format>image/svg+xml</dc:format>
        <dc:type
           rdf:resource="http://purl.org/dc/dcmitype/StillImage" />
        <dc:title>pteradactyl silhouette</dc:title>
        <dc:date>12/01/2013</dc:date>
        <dc:creator>
          <cc:Agent>
            <dc:title>ediyed by Paul Sherman</dc:title>
          </cc:Agent>
        </dc:creator>
        <dc:rights>
          <cc:Agent>
            <dc:title>PD</dc:title>
          </cc:Agent>
        </dc:rights>
        <dc:publisher>
          <cc:Agent>
            <dc:title>WPClipart</dc:title>
          </cc:Agent>
        </dc:publisher>
        <dc:subject>
          <rdf:Bag>
            <rdf:li>pteradactyl</rdf:li>
            <rdf:li>silhouette</rdf:li>
          </rdf:Bag>
        </dc:subject>
        <cc:license
           rdf:resource="http://creativecommons.org/publicdomain/zero/1.0/" />
      </cc:Work>
      <cc:License
         rdf:about="http://creativecommons.org/publicdomain/zero/1.0/">
        <cc:permits
           rdf:resource="http://creativecommons.org/ns#Reproduction" />
        <cc:permits
           rdf:resource="http://creativecommons.org/ns#Distribution" />
        <cc:permits
           rdf:resource="http://creativecommons.org/ns#DerivativeWorks" />
      </cc:License>
    </rdf:RDF>
  </metadata>
  <defs
     id="defs6" />
  <sodipodi:namedview
     pagecolor="#ffffff"
     bordercolor="#666666"
     borderopacity="1"
     objecttolerance="10"
     gridtolerance="10"
     guidetolerance="10"
     inkscape:pageopacity="0"
     inkscape:pageshadow="2"
     inkscape:window-width="1011"
     inkscape:window-height="923"
     id="namedview4"
     showgrid="false"
     fit-margin-top="4"
     fit-margin-left="4"
     fit-margin-right="4"
     fit-margin-bottom="4"
     inkscape:zoom="1.0074671"
     inkscape:cx="175.36603"
     inkscape:cy="240.10545"
     inkscape:window-x="0"
     inkscape:window-y="0"
     inkscape:window-maximized="0"
     inkscape:current-layer="svg2" />
  <path
     style="fill:#000000"
     d="M 4.4380509,482.75 C 2.9720332,480.37794 5.2275739,479 10.57643,479 c 4.104335,0 6.254127,-0.80815 9.144215,-3.4375 2.078107,-1.89063 7.341107,-5.40625 11.695555,-7.8125 4.354447,-2.40625 10.650052,-6.78221 13.990234,-9.72435 3.340181,-2.94215 8.144983,-6.68066 10.677337,-8.30781 6.697294,-4.3033 14.482604,-12.23235 22.026329,-22.43299 3.641891,-4.92456 7.532056,-9.70935 8.64481,-10.63285 1.112753,-0.92351 6.074678,-9.79227 11.026501,-19.70838 10.362619,-20.75131 11.546599,-26.81256 7.914769,-40.51881 -1.17315,-4.4274 -3.18052,-13.95606 -4.46082,-21.17481 -2.204809,-12.4315 -2.577979,-13.34386 -7.062558,-17.26705 -2.604112,-2.27813 -6.984751,-5.64766 -9.734751,-7.48785 -2.75,-1.8402 -5.425355,-4.01068 -5.945234,-4.82329 -4.257705,-6.65512 -18.434337,-8.56727 -30.929766,-4.17181 -9.174814,3.22737 -9.663727,3.15892 -9.014837,-1.26225 0.405746,-2.76451 1.425679,-4.00761 3.846008,-4.6875 4.665447,-1.31055 20.249331,-0.7564 25.970073,0.92347 14.945442,4.38867 34.198755,5.39854 34.198755,1.7938 0,-1.98843 -3.098689,-2.85507 -11.874999,-3.32117 l -6.25,-0.33194 7.8125,-2.34692 c 4.29688,-1.29082 7.807759,-2.69468 7.801949,-3.11971 -0.006,-0.42503 -3.521419,-2.61678 -7.812494,-4.87057 -9.155435,-4.80866 -14.892405,-5.1511 -33.426955,-1.99517 -17.160246,2.92191 -16.46562,3.01232 -18.558559,-2.41569 -1.6474,-4.27253 -1.628237,-4.96526 0.187575,-6.78107 1.863228,-1.86324 2.695673,-1.7514 10.575545,1.42078 8.014068,3.22622 9.038802,3.35515 16.259287,2.04583 4.238388,-0.76856 10.364993,-2.19759 13.614676,-3.17559 3.354015,-1.00941 6.478765,-1.31749 7.227495,-0.71258 1.763945,1.42512 28.28553,-7.15109 36.99891,-11.96425 8.49753,-4.69391 59.93116,-38.03293 66.77317,-43.28203 7.2539,-5.5651 27.5083,-25.25262 35.0877,-34.10568 6.26436,-7.31702 19.48873,-27.30381 24.23705,-36.63091 1.27564,-2.50573 3.85976,-9.05585 5.74251,-14.55585 1.88275,-5.5 4.72573,-12.25 6.31773,-15 4.75363,-8.21134 5.6387,-14.68366 6.73848,-49.276808 0.86977,-27.358155 0.73842,-34.223672 -0.76526,-40 -0.99837,-3.835256 -2.34872,-7.507567 -3.00077,-8.160692 C 264.78089,18.217369 264.66373,4 266.11931,4 c 1.87818,0 4.66565,4.172724 9.18531,13.75 7.67493,16.263374 10.32292,26.04702 11.67197,43.125 0.43446,5.5 2.00979,14.78125 3.5007,20.625 2.40246,9.416581 2.70608,13.894839 2.66965,39.375 -0.04,27.97911 -0.13557,29.05165 -3.5633,40 -1.93719,6.1875 -5.45872,15.23157 -7.82562,20.09794 -4.0171,8.2592 -6.40215,11.99951 -20.08006,31.49007 l -5.26009,7.49545 3.69759,0.73953 c 2.70931,0.54186 3.69759,1.4518 3.69759,3.4045 0,1.85532 0.56965,2.44638 1.875,1.94547 1.03125,-0.39572 1.875,-0.26184 1.875,0.29754 0,1.87894 -4.33111,4.92844 -10,7.0409 -10.37558,3.86639 -11.84453,4.84795 -19.2914,12.89061 -6.58118,7.1077 -9.39664,8.96984 -25,16.53488 -9.67098,4.68881 -19.2711,8.90847 -21.3336,9.37704 -5.92915,1.34696 -19.375,8.46102 -19.375,10.2511 0,1.27093 0.79636,1.21236 3.66166,-0.26934 2.01391,-1.04144 5.24829,-1.64194 7.1875,-1.33444 1.93921,0.3075 5.60593,0.88388 8.14825,1.28085 2.63983,0.41219 6.83324,2.56885 9.77696,5.02826 2.835,2.36858 9.31537,6.36289 14.40083,8.87627 5.08545,2.51336 10.2067,5.63101 11.38055,6.92811 1.17386,1.29708 5.08919,3.21736 8.70074,4.26726 7.23068,2.10203 12.99351,5.98221 12.99351,8.74873 0,1.92762 -3.18253,2.46375 -4.26153,0.71788 -0.56792,-0.91892 -8.63576,-2.48046 -22.61347,-4.37683 -2.0625,-0.27983 -9.49035,-1.98208 -16.50633,-3.78278 -14.75611,-3.78726 -19.411,-4.05909 -21.72675,-1.26878 -2.7293,3.28862 -7.36823,4.53908 -19.84917,5.35052 -11.03858,0.71766 -11.93215,0.97887 -13.32174,3.89426 -1.78034,3.73516 -5.49004,22.82814 -5.4646,28.125 0.02,4.1589 4.56473,14.70545 8.81311,20.4517 3.23228,4.37189 2.59498,9.51182 -1.30585,10.53191 -1.38252,0.36154 -2.51367,1.59165 -2.51367,2.7336 0,1.50741 -0.68494,1.85886 -2.5,1.28279 -1.85831,-0.58981 -2.5,-0.22463 -2.5,1.42275 0,2.12644 -6.25561,16.85122 -11.6096,27.32725 -1.40544,2.75 -4.74399,7.64754 -7.41899,10.88342 -7.20201,8.71207 -39.217193,33.92963 -52.947438,41.70538 -12.581556,7.12521 -33.08923,14.8468 -53.023971,19.9647 -13.3919261,3.43814 -14.5429341,3.57233 -15.6250001,1.8215 z"
     id="path4064"
     inkscape:connector-curvature="0" />
</svg>
