<?xml version="1.0" encoding="utf-8"?>
<!-- Generator: Adobe Illustrator 18.0.0, SVG Export Plug-In . SVG Version: 6.00 Build 0)  -->
<!DOCTYPE svg PUBLIC "-//W3C//DTD SVG 1.1//EN" "http://www.w3.org/Graphics/SVG/1.1/DTD/svg11.dtd">
<svg version="1.1" id="svg636" xmlns:svg="http://www.w3.org/2000/svg"
	 xmlns="http://www.w3.org/2000/svg" xmlns:xlink="http://www.w3.org/1999/xlink" x="0px" y="0px" viewBox="0 0 612 792"
	 enable-background="new 0 0 612 792" xml:space="preserve">
<path id="path2916" fill="#FFFFFF" d="M746.6,473.1c0,200.7-162.8,363.5-363.5,363.5S19.6,673.8,19.6,473.1s162.8-363.5,363.5-363.5
	S746.6,272.4,746.6,473.1z"/>
<g id="g2878">
	<path id="path623" fill="none" stroke="#000000" stroke-width="2" d="M725,354c-10.8-16.6-15.6-20.9-36.1-26.1"/>
	<path id="path1939_1_" fill="none" stroke="#000000" stroke-width="2" d="M155.4,234.9"/>
	<path id="path1941" fill="none" stroke="#000000" stroke-width="2" d="M98.4,329.9C23.3,383.8,32.3,436.6,29.6,457"/>
	<path id="path1943" fill="none" stroke="#000000" stroke-width="2" d="M211.5,339.2c4.8,56.8,14.6,89.1,49.9,159.6"/>
	<path id="path1945" fill="none" stroke="#000000" stroke-width="2" d="M77.1,598.9c35.3,35.3,69.3,25.9,113.3,26.9"/>
	<path id="path1947" fill="none" stroke="#000000" stroke-width="2" d="M303.1,743.4c-7.6,20.3-3.9,37.2,0.5,67.1"/>
	<path id="path1949" fill="none" stroke="#000000" stroke-width="2" d="M265.4,148.3c28.2-28.2,39.2-30.4,117.7-38.7"/>
	<path id="path1951" fill="none" stroke="#000000" stroke-width="2" d="M578.7,207.3c-19.6-36.5-39-49.9-75.3-77.3"/>
	<path id="path1953" fill="none" stroke="#000000" stroke-width="2" d="M322.2,223.7c43.1,4.9,100.6,4.7,162.5,39.7"/>
	<path id="path1964" fill="none" stroke="#000000" stroke-width="2" d="M536.6,404.8c-37,51.2-61.4,76.9-113.1,121.4"/>
	<path id="path1966" fill="none" stroke="#000000" stroke-width="2" d="M447.5,679.2c47.5,26.4,70.7,33.5,133.4,23.3"/>
	<path id="path1968" fill="none" stroke="#000000" stroke-width="2" d="M661.9,435.4c24.2,45.5,21.8,84.7,25.5,149.1"/>
	<path id="path1970_2_" fill="none" stroke="#000000" stroke-width="2" d="M725,354"/>
	<path id="path1970_1_" fill="none" stroke="#000000" stroke-width="2" d="M689.4,327.7"/>
</g>
<path id="path1972" fill="none" stroke="#000000" stroke-width="2" stroke-miterlimit="10" d="M98.4,329.9
	c50.7,8.8,71.5,5.4,113.1,9.3c24.7-32.6,66.8-73.4,110.6-115.5c-18.1-28.4-35.3-57.3-56.8-75.4c-54.6,18.4-93.5,41.4-130.7,64.6
	C111.4,253.5,98.9,292.7,98.4,329.9z"/>
<path id="path2860" fill="none" stroke="#000000" stroke-width="2" stroke-miterlimit="10" d="M484.7,263.3
	c16.6,45.8,30.8,86.7,51.9,141.5c43.3,11.5,89.6,25.2,125.3,30.6c11.5-23,19.1-67.6,27.4-107.7c-28.6-44.3-69.3-82.5-110.6-120.4
	C548.6,217.8,516.8,239.3,484.7,263.3z"/>
<path id="path2862" fill="none" stroke="#000000" stroke-width="2" stroke-miterlimit="10" d="M261.4,498.8
	c55.8,9.3,109.7,18.4,162.1,27.4c16.2,50.9,18.4,102.1,24,153c-40.1,33.3-95.5,43.8-144.4,64.1c-56.8-36.7-80-77.6-112.6-117.5
	C209.1,583,229.6,540.2,261.4,498.8z"/>
<path id="path2864_2_" fill="none" stroke="#000000" stroke-width="2" stroke-miterlimit="10" d="M29.6,457
	c8.1,52.4,18.8,103.1,47.5,142c-5.6,27.4-5.7,53.6,2.4,74.2"/>
<path id="path2866_2_" fill="none" stroke="#000000" stroke-width="2" stroke-miterlimit="10" d="M211,858.4"/>
<path id="path2866_1_" fill="none" stroke="#000000" stroke-width="2" stroke-miterlimit="10" d="M216.3,796.2
	c47.2,12.5,41.2,18.1,87.2,14.2c10.8,15.2,24,22.4,101.3,25.5"/>
<path id="path2868" fill="none" stroke="#000000" stroke-width="2" stroke-miterlimit="10" d="M719.7,600.2
	c-13.7-10.3-14.4-9.5-32.3-15.7c-35.5,47.2-71,101.1-106.5,118c-0.7,29.1-5.1,55.1-18.1,74.7c26.9,1.7-11.8,5,19.1,0.4"/>
<path id="path2918" fill="#FFFFFF" d="M746.6,473.1c0,200.7-162.8,363.5-363.5,363.5S19.6,673.8,19.6,473.1s162.8-363.5,363.5-363.5
	S746.6,272.4,746.6,473.1z"/>
<path id="path2923" fill="none" stroke="#000000" stroke-width="2" stroke-linecap="round" stroke-linejoin="round" d="M746.6,473.1
	c0,200.7-162.8,363.5-363.5,363.5S19.6,673.8,19.6,473.1s162.8-363.5,363.5-363.5S746.6,272.4,746.6,473.1z"/>
</svg>
