<?xml version="1.0" encoding="utf-8"?>
<!-- Generator: Adobe Illustrator 18.0.0, SVG Export Plug-In . SVG Version: 6.00 Build 0)  -->
<!DOCTYPE svg PUBLIC "-//W3C//DTD SVG 1.1//EN" "http://www.w3.org/Graphics/SVG/1.1/DTD/svg11.dtd">
<svg version="1.1" id="svg636" xmlns:svg="http://www.w3.org/2000/svg"
	 xmlns="http://www.w3.org/2000/svg" xmlns:xlink="http://www.w3.org/1999/xlink" x="0px" y="0px" viewBox="0 0 250 250"
	 enable-background="new 0 0 250 250" xml:space="preserve">
<path id="path2916" fill="#FFFFFF" d="M305,156.5c0,82-66.5,148.5-148.5,148.5S8,238.5,8,156.5S74.5,8,156.5,8S305,74.5,305,156.5z"
	/>
<defs>
	<filter id="Adobe_OpacityMaskFilter" filterUnits="userSpaceOnUse" x="1.1" y="5.4" width="300.8" height="308.5">
		<feColorMatrix  type="matrix" values="1 0 0 0 0  0 1 0 0 0  0 0 1 0 0  0 0 0 1 0"/>
	</filter>
</defs>
<mask maskUnits="userSpaceOnUse" x="1.1" y="5.4" width="300.8" height="308.5" id="mask2920">
	<path id="path2918" fill="#FFFFFF" filter="url(#Adobe_OpacityMaskFilter)" d="M305,156.5c0,82-66.5,148.5-148.5,148.5
		S8,238.5,8,156.5S74.5,8,156.5,8S305,74.5,305,156.5z"/>
</mask>
<g id="g2893" mask="url(#mask2920)">
	<g id="g2878">
		<path id="path623" fill="none" stroke="#000000" stroke-width="2.3057" d="M298.4,109.3c-4.4-6.8-8.6-10-17-12.1"/>
		<path id="path1939" fill="none" stroke="#000000" stroke-width="1.5" d="M50,45.4l13.5,13.8"/>
		<path id="path1941" fill="none" stroke="#000000" stroke-width="1.5" d="M48,92c-30.7,22-38.1,66.5-37,66.2"/>
		<path id="path1943" fill="none" stroke="#000000" stroke-width="1.5" d="M87,95.2c-3.2,23.3,5.3,48.9,22.8,76.2"/>
		<path id="path1945" fill="none" stroke="#000000" stroke-width="1.5" d="M29.1,206.9c14.4,14.4,33.6,12.2,51.6,12.6"/>
		<path id="path1947" fill="none" stroke="#000000" stroke-width="1.5" d="M124.6,264.9c-3.1,8.3-2.3,19.7-0.5,31.9"/>
		<path id="path1949" fill="none" stroke="#000000" stroke-width="1.5" d="M103.1,28.4c11.5-11.5,36.1-18.9,68.2-22.3"/>
		<path id="path1951" fill="none" stroke="#000000" stroke-width="1.5" d="M237.3,50.1c-8-14.9-22.1-26.6-36.9-37.8"/>
		<path id="path1953" fill="none" stroke="#000000" stroke-width="1.5" d="M128,54.1c17.6,2,49.5,4.6,74.8,18.9"/>
		<path id="path1964" fill="none" stroke="#000000" stroke-width="1.5" d="M222.5,124c-15.1,20.9-33.4,40.3-54.5,58.5"/>
		<path id="path1966" fill="none" stroke="#000000" stroke-width="1.5" d="M177.5,238.2c19.4,10.8,40.6,15.4,66.2,11.2"/>
		<path id="path1968" fill="none" stroke="#000000" stroke-width="1.5" d="M268.5,136.5c9.9,18.6,11.3,44.9,12.8,71.2"/>
		<path id="path1970" fill="none" stroke="#000000" stroke-width="1.5" d="M277.8,96.8c8.1,0.3,16,4.6,23.5,15.5"/>
	</g>
	<g id="g2870">
		<path id="path1972" d="M40.2,98c20.7,3.6,29.2,2.2,46.2,3.8c10.1-13.3,27.3-30,45.2-47.2c-7.4-11.6-14.4-23.4-23.2-30.8
			C86.1,31.3,70.2,40.7,55,50.2C45.5,66.8,40.4,82.8,40.2,98z"/>
		<path id="path2860" d="M198,70.8c6.8,18.7,12.6,35.4,21.2,57.8c17.7,4.7,36.6,10.3,51.2,12.5c4.7-9.4,7.8-27.6,11.2-44
			c-11.7-18.1-28.3-33.7-45.2-49.2C224.1,52.2,211.1,61,198,70.8z"/>
		<path id="path2862" d="M106.8,167c22.8,3.8,44.8,7.5,66.2,11.2c6.6,20.8,7.5,41.7,9.8,62.5c-16.4,13.6-39,17.9-59,26.2
			c-23.2-15-32.7-31.7-46-48C85.4,201.4,93.8,183.9,106.8,167z"/>
		<path id="path2864" d="M1.1,148.8c0,1,8,2.2,11,1.1c3.3,21.4,7.7,42.1,19.4,58c-2.3,11.2-0.1,20.2,3.2,28.6
			c-20.3,5.7-18.6,8.8-26.5,12.4"/>
		<path id="path2866" d="M75.7,284.4c19.3,5.1,33.4,15,48.3,9.9c4.4,6.2,16.5,10.7,48.1,12l-85.9,7.6"/>
		<path id="path2868" d="M299.6,212.6c-5.6-4.2-11.5-8.1-18.8-10.6c-14.5,19.3-29,41.3-43.5,48.2c-0.3,11.9-2.1,22.5-7.4,30.5
			c11,0.7,22.4,0.7,35-1.2"/>
	</g>
</g>
<path id="path2923" fill="none" stroke="#000000" stroke-width="1.5051" stroke-linecap="round" stroke-linejoin="round" d="
	M305,156.5c0,82-66.5,148.5-148.5,148.5S8,238.5,8,156.5S74.5,8,156.5,8S305,74.5,305,156.5z"/>
</svg>
