<?xml version="1.0" encoding="utf-8"?>
<!-- Generator: Adobe Illustrator 16.0.0, SVG Export Plug-In . SVG Version: 6.00 Build 0)  -->
<!DOCTYPE svg PUBLIC "-//W3C//DTD SVG 1.1//EN" "http://www.w3.org/Graphics/SVG/1.1/DTD/svg11.dtd">
<svg version="1.1" id="Layer_1" xmlns="http://www.w3.org/2000/svg" xmlns:xlink="http://www.w3.org/1999/xlink" x="0px" y="0px"
	 width="420px" height="300px" viewBox="0 0 420 300" enable-background="new 0 0 420 300" xml:space="preserve">
<g>
	<path fill="#010101" d="M56.935,180.508c3.2-1.133,5.615-2.766,7.25-4.9c1.633-2.133,2.516-4.6,2.65-7.399
		c-0.134-2.866-1.084-5.416-2.85-7.65c-1.767-2.232-4.05-3.716-6.85-4.45l-5-1.399c-3.334-0.666-5.95-2.133-7.85-4.4
		c-1.9-2.266-2.817-4.899-2.75-7.899c0.266-2.4,1.166-4.533,2.7-6.4c1.533-1.865,3.6-3.266,6.2-4.2
		c2.533-0.732,5.016-0.95,7.45-0.649c2.433,0.3,4.716,1.084,6.85,2.35c-2.134-1.266-4.417-2.05-6.85-2.35
		c-2.434-0.301-4.917-0.083-7.45,0.649c-2.6,0.935-4.667,2.335-6.2,4.2c-1.534,1.867-2.435,4-2.7,6.4
		c-0.067,3,0.85,5.634,2.75,7.899c1.9,2.268,4.516,3.734,7.85,4.4l5,1.399c2.8,0.734,5.083,2.218,6.85,4.45
		c1.766,2.234,2.716,4.784,2.85,7.65c-0.134,2.8-1.017,5.267-2.65,7.399C62.55,177.742,60.135,179.375,56.935,180.508
		c-5.935,1.533-11.334,0.933-16.2-1.8C45.601,181.44,51,182.041,56.935,180.508z"/>
	<path fill="#010101" d="M82.934,144.008c0-1.666-0.05-3.565-0.15-5.7c-0.1-2.133-0.217-4.5-0.35-7.1c0.133,2.6,0.25,4.967,0.35,7.1
		C82.884,140.442,82.934,142.342,82.934,144.008v59.6V144.008z M85.734,168.408c1.933,3.934,4.533,7,7.8,9.199
		c3.133,2.268,6.633,3.4,10.5,3.4c3.8,0,7.333-1.133,10.6-3.4c3.2-2.199,5.766-5.266,7.7-9.199c1.866-3.801,2.8-8,2.8-12.601
		c0-4.532-0.935-8.7-2.8-12.5c-1.934-3.933-4.5-7-7.7-9.2c-3.268-2.266-6.8-3.399-10.6-3.399c-3.867,0-7.367,1.134-10.5,3.399
		c-3.267,2.2-5.867,5.268-7.8,9.2c-1.867,3.935-2.8,8.034-2.8,12.3c0-4.266,0.933-8.365,2.8-12.3c1.933-3.933,4.533-7,7.8-9.2
		c3.133-2.266,6.633-3.399,10.5-3.399c3.8,0,7.333,1.134,10.6,3.399c3.2,2.2,5.766,5.268,7.7,9.2c1.866,3.8,2.8,7.968,2.8,12.5
		c0,4.601-0.935,8.8-2.8,12.601c-1.934,3.934-4.5,7-7.7,9.199c-3.268,2.268-6.8,3.4-10.6,3.4c-3.867,0-7.367-1.133-10.5-3.4
		C90.267,175.408,87.667,172.342,85.734,168.408c-1.867-3.934-2.8-8.033-2.8-12.301C82.934,160.375,83.867,164.475,85.734,168.408z"
		/>
	<path fill="#010101" d="M145.684,113.758c-0.367,0.435-0.817,0.65-1.35,0.65c-0.535,0.067-0.984-0.1-1.35-0.5
		c-0.367-0.4-0.584-0.866-0.65-1.4c0-1.266,0.633-1.966,1.9-2.1c0.533,0,1,0.185,1.4,0.55c0.4,0.367,0.6,0.817,0.6,1.35
		c0-0.533-0.2-0.982-0.6-1.35c-0.4-0.366-0.867-0.55-1.4-0.55c-1.267,0.134-1.9,0.834-1.9,2.1c0.065,0.534,0.283,1,0.65,1.4
		c0.366,0.4,0.815,0.567,1.35,0.5C144.866,114.408,145.316,114.192,145.684,113.758c0.365-0.433,0.55-0.916,0.55-1.45
		C146.233,112.842,146.049,113.325,145.684,113.758z M144.333,156.408l-0.1,25.1L144.333,156.408l-0.1-25.101L144.333,156.408z"/>
	<path fill="#010101" d="M165.333,143.808c0-2.133-0.034-4.232-0.1-6.3c-0.067-2.065-0.2-4.166-0.4-6.3
		c0.2,2.134,0.333,4.234,0.4,6.3C165.299,139.575,165.333,141.675,165.333,143.808v37.7V143.808z M180.133,132.208
		c5.466-2,10.266-1.333,14.4,2c4.133,3.2,6.133,10.234,6,21.1v26.2v-26.2c0.133-10.865-1.867-17.899-6-21.1
		C190.398,130.875,185.599,130.208,180.133,132.208c-5.534,2.067-10.467,8.234-14.8,18.5
		C169.666,140.442,174.599,134.275,180.133,132.208z"/>
	<path fill="#010101" d="M225.732,154.908l10-0.101L225.732,154.908l-10.1-0.101L225.732,154.908z"/>
	<path fill="#010101" d="M293.132,146.408c0-3.066-0.234-6-0.7-8.801c-0.467-2.8-1.167-5.532-2.1-8.199
		c-0.935-2.733-2.034-5.133-3.3-7.2c-1.268-2.066-2.667-3.866-4.2-5.4c-3.135-3.065-6.567-4.6-10.3-4.6c-3.8,0-7.234,1.534-10.3,4.6
		c-3.268,3.067-5.801,7.268-7.601,12.601c-1.8,5.334-2.7,11.066-2.7,17.199c0,6.2,0.9,11.935,2.7,17.2
		c1.8,5.2,4.333,9.4,7.601,12.601c3.065,3.066,6.5,4.6,10.3,4.6c3.732,0,7.165-1.533,10.3-4.6c1.533-1.533,2.933-3.351,4.2-5.45
		c1.266-2.101,2.365-4.483,3.3-7.15C292.197,158.342,293.132,152.542,293.132,146.408c0,6.134-0.935,11.934-2.8,17.399
		c-0.935,2.667-2.034,5.05-3.3,7.15c-1.268,2.1-2.667,3.917-4.2,5.45c-3.135,3.066-6.567,4.6-10.3,4.6c-3.8,0-7.234-1.533-10.3-4.6
		c-3.268-3.2-5.801-7.4-7.601-12.601c-1.8-5.266-2.7-11-2.7-17.2c0-6.133,0.9-11.865,2.7-17.199c1.8-5.333,4.333-9.533,7.601-12.601
		c3.065-3.065,6.5-4.6,10.3-4.6c3.732,0,7.165,1.534,10.3,4.6c1.533,1.535,2.933,3.334,4.2,5.4c1.266,2.067,2.365,4.467,3.3,7.2
		c0.933,2.667,1.633,5.399,2.1,8.199C292.897,140.408,293.132,143.342,293.132,146.408z"/>
	<path fill="#010101" d="M325.73,112.108v69.4V112.108l-16.6,9.6L325.73,112.108z"/>
</g>
<g>
</g>
<g>
</g>
<g>
</g>
<g>
</g>
<g>
</g>
<g>
</g>
</svg>
