<?xml version="1.0" encoding="utf-8"?>
<!-- Generator: Adobe Illustrator 16.0.0, SVG Export Plug-In . SVG Version: 6.00 Build 0)  -->
<!DOCTYPE svg PUBLIC "-//W3C//DTD SVG 1.1//EN" "http://www.w3.org/Graphics/SVG/1.1/DTD/svg11.dtd">
<svg version="1.1" id="Layer_1" xmlns="http://www.w3.org/2000/svg" xmlns:xlink="http://www.w3.org/1999/xlink" x="0px" y="0px"
	 width="432px" height="288px" viewBox="0 0 432 288" enable-background="new 0 0 432 288" xml:space="preserve">
<g>
	<path d="M79.738,125.041c4.379,2.459,9.239,3,14.58,1.62c2.88-1.02,5.054-2.489,6.525-4.41c1.47-1.919,2.264-4.14,2.385-6.66
		c-0.121-2.579-0.976-4.874-2.565-6.885c-1.59-2.009-3.645-3.344-6.165-4.005l-4.5-1.26c-3.001-0.599-5.355-1.919-7.065-3.96
		c-1.71-2.039-2.536-4.41-2.475-7.11c0.239-2.16,1.049-4.08,2.43-5.76c1.379-1.679,3.24-2.939,5.58-3.78
		c2.28-0.66,4.514-0.855,6.705-0.585c2.189,0.27,4.244,0.976,6.165,2.115c-1.921-1.139-3.976-1.845-6.165-2.115
		c-2.191-0.27-4.425-0.075-6.705,0.585c-2.34,0.841-4.2,2.101-5.58,3.78c-1.381,1.68-2.191,3.6-2.43,5.76
		c-0.061,2.7,0.765,5.071,2.475,7.11c1.71,2.041,4.064,3.361,7.065,3.96l4.5,1.26c2.52,0.661,4.575,1.996,6.165,4.005
		c1.589,2.011,2.444,4.306,2.565,6.885c-0.121,2.52-0.916,4.74-2.385,6.66c-1.471,1.921-3.645,3.391-6.525,4.41
		C88.978,128.041,84.118,127.5,79.738,125.041z"/>
	<path d="M123.208,82.291h12.69H123.208v33.84c-0.061,1.98,0.374,3.84,1.305,5.58c0.93,1.741,2.234,3.15,3.915,4.23
		c1.2,0.779,2.475,1.26,3.825,1.44c1.35,0.18,2.714,0.09,4.095-0.27c-1.381,0.36-2.745,0.45-4.095,0.27
		c-1.35-0.18-2.625-0.661-3.825-1.44c-1.681-1.08-2.985-2.489-3.915-4.23c-0.931-1.739-1.366-3.6-1.305-5.58V82.291h-8.19H123.208
		v-10.89V82.291z"/>
	<path d="M163.437,126.481c-5.94,1.08-10.08,0.419-12.42-1.98c-2.34-2.34-3.48-5.49-3.42-9.45c0.18-4.019,2.34-7.59,6.48-10.71
		c4.199-3.24,11.939-4.44,23.22-3.6c-11.281-0.84-19.021,0.36-23.22,3.6c-4.14,3.12-6.3,6.691-6.48,10.71
		c-0.06,3.96,1.08,7.11,3.42,9.45C153.357,126.9,157.497,127.561,163.437,126.481c5.999-1.08,10.62-5.52,13.86-13.32
		C174.057,120.961,169.436,125.401,163.437,126.481z M164.607,82.291c4.62,0.42,7.979,1.98,10.08,4.68
		c2.039,2.641,2.909,9.15,2.61,19.53c-0.24,10.26,0.18,17.37,1.26,21.33c-1.08-3.96-1.5-11.07-1.26-21.33
		c0.299-10.379-0.571-16.889-2.61-19.53C172.586,84.271,169.227,82.711,164.607,82.291c-4.68-0.479-9.301,0.481-13.86,2.88
		C155.306,82.772,159.927,81.812,164.607,82.291z"/>
	<path d="M198.717,82.291h12.69H198.717v33.84c-0.061,1.98,0.374,3.84,1.305,5.58c0.93,1.741,2.234,3.15,3.915,4.23
		c1.2,0.779,2.475,1.26,3.825,1.44c1.35,0.18,2.714,0.09,4.095-0.27c-1.381,0.36-2.745,0.45-4.095,0.27
		c-1.35-0.18-2.625-0.661-3.825-1.44c-1.681-1.08-2.985-2.489-3.915-4.23c-0.931-1.739-1.366-3.6-1.305-5.58V82.291h-8.19H198.717
		v-10.89V82.291z"/>
	<path d="M262.076,95.971c0-2.759-0.211-5.4-0.631-7.92s-1.049-4.979-1.889-7.38c-0.842-2.459-1.832-4.619-2.971-6.48
		c-1.141-1.859-2.4-3.479-3.779-4.86c-2.822-2.759-5.91-4.14-9.27-4.14c-3.422,0-6.512,1.381-9.271,4.14
		c-2.939,2.761-5.219,6.541-6.84,11.34c-1.619,4.801-2.43,9.961-2.43,15.48c0,5.58,0.811,10.741,2.43,15.48
		c1.621,4.68,3.9,8.46,6.84,11.34c2.76,2.76,5.85,4.14,9.271,4.14c3.359,0,6.447-1.38,9.27-4.14
		c1.379-1.379,2.639-3.015,3.779-4.905c1.139-1.89,2.129-4.034,2.971-6.435C261.234,106.712,262.076,101.492,262.076,95.971
		c0,5.521-0.842,10.741-2.52,15.66c-0.842,2.4-1.832,4.545-2.971,6.435c-1.141,1.89-2.4,3.526-3.779,4.905
		c-2.822,2.76-5.91,4.14-9.27,4.14c-3.422,0-6.512-1.38-9.271-4.14c-2.939-2.88-5.219-6.66-6.84-11.34
		c-1.619-4.739-2.43-9.9-2.43-15.48c0-5.52,0.811-10.679,2.43-15.48c1.621-4.799,3.9-8.579,6.84-11.34
		c2.76-2.759,5.85-4.14,9.271-4.14c3.359,0,6.447,1.381,9.27,4.14c1.379,1.381,2.639,3.001,3.779,4.86
		c1.139,1.861,2.129,4.021,2.971,6.48c0.84,2.401,1.469,4.86,1.889,7.38S262.076,93.212,262.076,95.971z"/>
	<path d="M291.415,65.101v62.46V65.101l-14.94,8.64L291.415,65.101z"/>
</g>
<g>
</g>
<g>
</g>
<g>
</g>
<g>
</g>
<g>
</g>
<g>
</g>
</svg>
