<?xml version="1.0" encoding="utf-8"?>
<!-- Generator: Adobe Illustrator 18.0.0, SVG Export Plug-In . SVG Version: 6.00 Build 0)  -->
<!DOCTYPE svg PUBLIC "-//W3C//DTD SVG 1.1//EN" "http://www.w3.org/Graphics/SVG/1.1/DTD/svg11.dtd">
<svg version="1.1" id="Layer_1" xmlns="http://www.w3.org/2000/svg" xmlns:xlink="http://www.w3.org/1999/xlink" x="0px" y="0px"
	 viewBox="0 0 306 51" enable-background="new 0 0 306 51" xml:space="preserve">
<g>
	<path d="M8.4,46.6c0.4,0.9,0.9,1.6,1.5,2.3s1.4,1.2,2.3,1.5C13.1,50.8,14,51,15,51h17.4c1,0,1.8-0.3,2.7-0.8
		c0.8-0.5,1.4-1.2,1.9-2.1c0.4-0.9,0.6-1.8,0.5-2.7c-0.1-1-0.5-1.8-1.1-2.6L8.9,8.5c-0.6-0.8-0.9-1.6-1-2.6c-0.1-1,0-1.9,0.4-2.7
		c0.4-0.9,1.1-1.5,1.9-2.1c0.8-0.5,1.7-0.8,2.7-0.8h17.4c2,0,3.7,0.7,5.1,2.1c1.4,1.4,2.1,3.1,2.1,5.1c0-2-0.7-3.7-2.1-5.1
		c-1.4-1.4-3.1-2.1-5.1-2.1H12.9c-1,0-1.9,0.3-2.7,0.8C9.3,1.6,8.7,2.3,8.3,3.2C7.9,4.1,7.8,5,7.8,5.9c0.1,1,0.4,1.8,1,2.6
		l27.5,34.3c0.6,0.8,1,1.6,1.1,2.6c0.1,1-0.1,1.9-0.5,2.7c-0.4,0.9-1.1,1.5-1.9,2.1c-0.8,0.5-1.7,0.8-2.7,0.8H15c-1,0-2-0.2-2.8-0.6
		c-0.9-0.4-1.7-0.9-2.3-1.5S8.7,47.5,8.4,46.6c-0.4-0.9-0.6-1.8-0.6-2.8C7.8,44.8,8,45.7,8.4,46.6z"/>
	<path d="M79,49.5c-1.3,1-2.8,1.5-4.5,1.5h-7.9c-1,0-2-0.2-2.8-0.6c-0.9-0.4-1.7-0.9-2.3-1.5s-1.2-1.4-1.5-2.3
		c-0.4-0.9-0.6-1.8-0.6-2.8V18h-6.5h23.8H59.3V3.9v39.8c0,1,0.2,2,0.6,2.8c0.4,0.9,0.9,1.7,1.5,2.3s1.4,1.2,2.3,1.5
		c0.9,0.4,1.8,0.6,2.8,0.6h7.9C76.2,51,77.7,50.5,79,49.5c1.3-1,2.1-2.3,2.5-3.9C81.1,47.2,80.3,48.5,79,49.5z"/>
	<path d="M97.8,28l13.2-9.3c0.6-0.4,1.3-0.6,2-0.6h4.7c1,0,1.9,0.2,2.8,0.6c0.9,0.4,1.7,0.9,2.3,1.6c0.7,0.7,1.2,1.4,1.6,2.3
		c0.4,0.9,0.6,1.8,0.6,2.8c0-1-0.2-2-0.6-2.8c-0.4-0.9-0.9-1.7-1.5-2.3c-0.6-0.6-1.4-1.2-2.3-1.5c-0.9-0.4-1.8-0.6-2.8-0.6H113
		c-0.8,0-1.4,0.2-2,0.6L97.8,28v23V18.1V28z"/>
	<path d="M170.9,44.7L160.1,51h-10.2c-1,0-1.9-0.2-2.8-0.6c-0.9-0.4-1.6-0.9-2.3-1.5c-0.6-0.6-1.2-1.4-1.5-2.3
		c-0.4-0.9-0.6-1.8-0.6-2.8v-3.6c0-1,0.2-1.9,0.5-2.8c0.4-0.9,0.9-1.6,1.5-2.3c0.6-0.6,1.3-1.2,2.1-1.5c0.8-0.4,1.6-0.6,2.4-0.6
		h21.7h-21.7c-0.8,0-1.6,0.2-2.4,0.6c-0.8,0.4-1.5,0.9-2.1,1.5c-0.6,0.6-1.1,1.4-1.5,2.3c-0.4,0.9-0.5,1.8-0.5,2.8v3.6
		c0,1,0.2,2,0.6,2.8c0.4,0.9,0.9,1.7,1.5,2.3c0.6,0.6,1.4,1.2,2.3,1.5c0.9,0.4,1.8,0.6,2.8,0.6h10.2L170.9,44.7z M170.9,51V25.3
		c0-1-0.2-2-0.6-2.8c-0.4-0.9-0.9-1.7-1.5-2.3c-0.6-0.6-1.4-1.2-2.3-1.5c-0.9-0.4-1.8-0.6-2.8-0.6h-14.5h14.5c1,0,2,0.2,2.8,0.6
		c0.9,0.4,1.7,0.9,2.3,1.5c0.6,0.6,1.2,1.4,1.5,2.3c0.4,0.9,0.6,1.8,0.6,2.8V51z"/>
	<path d="M187.4,27.3l13.2-8.6c0.6-0.4,1.2-0.6,2-0.6h4.7c1.9,0,3.5,0.6,4.9,1.9c1.4,1.3,2.2,2.8,2.3,4.7l1.2,26.4l-1.2-26.4
		c-0.1-1.9-0.9-3.4-2.3-4.7c-1.4-1.3-3-1.9-4.9-1.9h-4.7c-0.8,0-1.4,0.2-2,0.6L187.4,27.3V51V18V27.3z"/>
	<path d="M259.3,40.2l-7.9,7.2c-0.7,0.7-1.6,1.1-2.6,1.1h-8.3c-1,0-1.9-0.4-2.6-1.1l-4.7-4c-0.7-0.7-1.1-1.6-1.1-2.6V25.7
		c0-1,0.4-1.8,1.1-2.5l4.7-4c0.8-0.7,1.6-1,2.6-1h8.3c1,0,1.8,0.3,2.4,0.9l8.1,7.3c0.7,0.7,1.1,1.5,1.1,2.5c0-1-0.4-1.8-1.1-2.5
		l-8.1-7.3c-0.6-0.6-1.4-0.9-2.4-0.9h-8.3c-1,0-1.8,0.3-2.6,1l-4.7,4c-0.7,0.7-1.1,1.5-1.1,2.5v15.2c0,1,0.4,1.9,1.1,2.6l4.7,4
		c0.7,0.7,1.6,1.1,2.6,1.1h8.3c1,0,1.9-0.4,2.6-1.1L259.3,40.2c0.7-0.7,1.1-1.6,1.1-2.6C260.4,38.6,260.1,39.5,259.3,40.2z
		 M252.1,66.6c1,0,1.8-0.4,2.5-1.1l4.7-4c0.7-0.6,1.1-1.5,1.1-2.5V18.1V59c0,1.1-0.4,1.9-1.1,2.5l-4.7,4
		C254,66.2,253.2,66.6,252.1,66.6h-16.3H252.1z"/>
	<path d="M277,36.2h27.5V25.7c0-1-0.4-1.8-1.1-2.5l-4.7-4c-0.7-0.7-1.5-1-2.6-1h-10.8c-1,0-1.8,0.3-2.4,0.9l-4.9,4.2
		c-0.7,0.7-1.1,1.5-1.1,2.5v17.7c0,1.1,0.4,2,1.1,2.6l4.7,4c0.7,0.7,1.6,1.1,2.6,1.1h19.2h-19.2c-1,0-1.9-0.4-2.6-1.1l-4.7-4
		c-0.7-0.6-1.1-1.5-1.1-2.6V25.7c0-1,0.4-1.8,1.1-2.5L283,19c0.6-0.6,1.4-0.9,2.4-0.9h10.8c1.1,0,1.9,0.3,2.6,1l4.7,4
		c0.7,0.7,1.1,1.5,1.1,2.5v10.5H277z"/>
	<path d="M321.8,28l13.2-9.3c0.6-0.4,1.3-0.6,2-0.6h4.7c1,0,1.9,0.2,2.8,0.6c0.9,0.4,1.7,0.9,2.3,1.6c0.7,0.7,1.2,1.4,1.6,2.3
		c0.4,0.9,0.6,1.8,0.6,2.8c0-1-0.2-2-0.6-2.8c-0.4-0.9-0.9-1.7-1.5-2.3c-0.6-0.6-1.4-1.2-2.3-1.5c-0.9-0.4-1.8-0.6-2.8-0.6H337
		c-0.8,0-1.4,0.2-2,0.6L321.8,28v23V18.1V28z"/>
	<path d="M394.1,20.2c-0.7-0.7-1.5-1.2-2.3-1.5c-0.9-0.4-1.8-0.5-2.8-0.5h-16.3c-1.1,0-2.1,0.3-3,1c-0.9,0.7-1.5,1.6-1.8,2.7
		c-0.3,1.1-0.3,2.2,0.2,3.2c0.5,1.1,1.2,1.9,2.1,2.4l20.7,10c1.4,0.8,2.4,2,3,3.5c0.6,1.5,0.7,3.1,0.4,4.6c-0.4,1.6-1.3,2.9-2.6,3.9
		c-1.3,1-2.8,1.5-4.4,1.5h-15.3c-1,0-1.9-0.2-2.8-0.5c-0.9-0.4-1.7-0.9-2.3-1.5c0.7,0.7,1.5,1.2,2.3,1.5c0.9,0.4,1.8,0.5,2.8,0.5
		h15.3c1.6,0,3.1-0.5,4.4-1.5c1.3-1,2.2-2.3,2.6-3.9c0.4-1.6,0.3-3.1-0.4-4.6c-0.6-1.5-1.6-2.7-3-3.5l-20.7-10
		c-1-0.6-1.7-1.4-2.1-2.4c-0.5-1.1-0.5-2.1-0.2-3.2c0.3-1.1,0.9-2,1.8-2.7c0.9-0.7,1.9-1,3-1H389c1,0,1.9,0.2,2.8,0.5
		C392.7,19,393.5,19.5,394.1,20.2z"/>
</g>
</svg>
