<?xml version="1.0" encoding="utf-8"?>
<!-- Generator: Adobe Illustrator 16.0.0, SVG Export Plug-In . SVG Version: 6.00 Build 0)  -->
<!DOCTYPE svg PUBLIC "-//W3C//DTD SVG 1.1//EN" "http://www.w3.org/Graphics/SVG/1.1/DTD/svg11.dtd">
<svg version="1.1" id="Layer_1" xmlns="http://www.w3.org/2000/svg" xmlns:xlink="http://www.w3.org/1999/xlink" x="0px" y="0px"
	 width="432px" height="288px" viewBox="0 0 432 288" enable-background="new 0 0 432 288" xml:space="preserve">
<g>
	<path d="M150.608,93.979c0-2.759-0.211-5.4-0.63-7.92c-0.42-2.52-1.051-4.979-1.89-7.38c-0.841-2.459-1.831-4.619-2.97-6.48
		c-1.14-1.859-2.4-3.479-3.78-4.86c-2.821-2.759-5.911-4.14-9.27-4.14c-3.42,0-6.511,1.381-9.27,4.14
		c-2.94,2.761-5.22,6.541-6.84,11.34c-1.62,4.801-2.43,9.961-2.43,15.48c0,5.58,0.81,10.741,2.43,15.48
		c1.62,4.68,3.899,8.46,6.84,11.34c2.759,2.76,5.85,4.14,9.27,4.14c3.359,0,6.449-1.38,9.27-4.14c1.379-1.379,2.64-3.015,3.78-4.905
		c1.139-1.89,2.129-4.034,2.97-6.435C149.767,104.72,150.608,99.5,150.608,93.979c0,5.521-0.841,10.741-2.52,15.66
		c-0.841,2.4-1.831,4.545-2.97,6.435c-1.14,1.89-2.4,3.526-3.78,4.905c-2.821,2.76-5.911,4.14-9.27,4.14
		c-3.42,0-6.511-1.38-9.27-4.14c-2.94-2.88-5.22-6.66-6.84-11.34c-1.62-4.739-2.43-9.9-2.43-15.48c0-5.52,0.81-10.679,2.43-15.48
		c1.62-4.799,3.899-8.579,6.84-11.34c2.759-2.759,5.85-4.14,9.27-4.14c3.359,0,6.449,1.381,9.27,4.14
		c1.379,1.381,2.64,3.001,3.78,4.86c1.139,1.861,2.129,4.021,2.97,6.48c0.839,2.401,1.47,4.86,1.89,7.38
		C150.397,88.58,150.608,91.22,150.608,93.979z"/>
	<path d="M184.807,67.114c-4.14,2.25-7.71,5.265-10.71,9.045c-3.24,4.5-5.416,9.42-6.525,14.76
		c-1.111,5.341-1.096,10.71,0.045,16.11c0.72,5.521,3.06,10.26,7.02,14.22c1.919,1.561,4.095,2.655,6.525,3.285
		c2.43,0.63,4.905,0.794,7.425,0.495c2.52-0.36,4.86-1.17,7.02-2.43c2.16-1.26,4.019-2.91,5.58-4.95
		c1.62-2.759,2.685-5.715,3.195-8.865c0.509-3.15,0.435-6.314-0.225-9.495c-0.841-2.579-2.191-4.845-4.05-6.795
		c-1.86-1.949-4.05-3.434-6.57-4.455c-4.081-1.56-8.19-1.62-12.33-0.18c-1.921,0.54-3.645,1.411-5.175,2.61
		c-1.53,1.201-2.806,2.671-3.825,4.41c-1.8,2.52-3.33,5.22-4.59,8.1c1.26-2.88,2.79-5.58,4.59-8.1
		c1.02-1.739,2.295-3.209,3.825-4.41c1.53-1.199,3.254-2.07,5.175-2.61c4.14-1.44,8.249-1.379,12.33,0.18
		c2.52,1.021,4.709,2.506,6.57,4.455c1.859,1.95,3.209,4.216,4.05,6.795c0.659,3.181,0.734,6.345,0.225,9.495
		c-0.51,3.15-1.575,6.105-3.195,8.865c-1.561,2.041-3.42,3.69-5.58,4.95c-2.16,1.26-4.5,2.07-7.02,2.43
		c-2.52,0.3-4.995,0.135-7.425-0.495c-2.43-0.63-4.605-1.724-6.525-3.285c-3.96-3.96-6.3-8.699-7.02-14.22
		c-1.141-5.4-1.156-10.769-0.045-16.11c1.109-5.339,3.285-10.26,6.525-14.76C177.096,72.379,180.667,69.364,184.807,67.114
		s8.609-3.614,13.41-4.095C193.416,63.5,188.947,64.864,184.807,67.114z"/>
	<path d="M232.956,63.109v62.46V63.109l-14.94,8.64L232.956,63.109z"/>
	<path d="M286.505,124.669h-36.27l27.72-29.79c1.499-1.56,2.7-3.344,3.6-5.355c0.9-2.009,1.5-4.095,1.801-6.255
		c0.299-2.16,0.238-4.32-0.181-6.48c-0.42-2.16-1.17-4.199-2.25-6.12c-1.26-2.1-2.94-3.825-5.04-5.175
		c-2.101-1.35-4.409-2.145-6.93-2.385c-2.94-0.36-5.836-0.12-8.685,0.72c-2.851,0.841-5.416,2.22-7.695,4.14
		c2.279-1.919,4.845-3.299,7.695-4.14c2.849-0.84,5.744-1.08,8.685-0.72c2.521,0.241,4.829,1.035,6.93,2.385
		c2.1,1.35,3.78,3.075,5.04,5.175c1.08,1.921,1.83,3.96,2.25,6.12c0.419,2.16,0.479,4.32,0.181,6.48
		c-0.301,2.16-0.9,4.246-1.801,6.255c-0.899,2.011-2.101,3.795-3.6,5.355l-27.72,29.79H286.505z"/>
</g>
<g>
</g>
<g>
</g>
<g>
</g>
<g>
</g>
<g>
</g>
<g>
</g>
</svg>
