<?xml version="1.0" encoding="utf-8"?>
<!-- Generator: Adobe Illustrator 16.0.0, SVG Export Plug-In . SVG Version: 6.00 Build 0)  -->
<!DOCTYPE svg PUBLIC "-//W3C//DTD SVG 1.1//EN" "http://www.w3.org/Graphics/SVG/1.1/DTD/svg11.dtd">
<svg version="1.1" id="Layer_1" xmlns="http://www.w3.org/2000/svg" xmlns:xlink="http://www.w3.org/1999/xlink" x="0px" y="0px"
	 width="420px" height="300px" viewBox="0 0 420 300" enable-background="new 0 0 420 300" xml:space="preserve">
<g>
	<path fill="#010101" d="M44.984,131.208h14.1H44.984v37.6c-0.067,2.2,0.416,4.268,1.45,6.2c1.033,1.935,2.483,3.5,4.35,4.7
		c1.333,0.865,2.75,1.399,4.25,1.6s3.016,0.101,4.55-0.3c-1.535,0.4-3.05,0.5-4.55,0.3s-2.917-0.734-4.25-1.6
		c-1.867-1.2-3.317-2.766-4.35-4.7c-1.034-1.933-1.517-4-1.45-6.2V131.208h-9.1H44.984v-12.1V131.208z"/>
	<path fill="#010101" d="M79.083,112.308c0,0.535-0.185,1.018-0.55,1.45c-0.367,0.435-0.817,0.65-1.35,0.65
		c-0.535,0.067-0.984-0.1-1.35-0.5c-0.367-0.4-0.584-0.866-0.65-1.4c0-1.266,0.633-1.966,1.9-2.1c0.533,0,1,0.185,1.4,0.55
		C78.883,111.325,79.083,111.775,79.083,112.308c0-0.533-0.2-0.982-0.6-1.35c-0.4-0.366-0.867-0.55-1.4-0.55
		c-1.267,0.134-1.9,0.834-1.9,2.1c0.065,0.534,0.283,1,0.65,1.4c0.366,0.4,0.815,0.567,1.35,0.5c0.533,0,0.983-0.215,1.35-0.65
		C78.899,113.325,79.083,112.842,79.083,112.308z M77.083,131.308l0.1,25.101l-0.1,25.1l0.1-25.1L77.083,131.308z"/>
	<path fill="#010101" d="M98.183,181.508v-37.7c0-2.133-0.034-4.232-0.1-6.3c-0.067-2.065-0.2-4.166-0.4-6.3
		c0.2,2.134,0.333,4.234,0.4,6.3c0.066,2.067,0.1,4.167,0.1,6.3V181.508z M113.083,132.208c5.4-2,10.166-1.333,14.3,2
		c4.133,3.2,6.133,10.234,6,21.1v26.2v-26.2c0.133-10.865-1.867-17.899-6-21.1C123.249,130.875,118.483,130.208,113.083,132.208
		c-5.6,2-10.567,8.167-14.9,18.5C102.516,140.375,107.483,134.208,113.083,132.208z M168.583,155.308
		c0-10.865-2.034-17.899-6.1-21.1c-4.067-3.333-8.834-4-14.3-2c-5.534,2.067-10.467,8.234-14.8,18.5
		c4.333-10.266,9.266-16.433,14.8-18.5c5.466-2,10.233-1.333,14.3,2C166.549,137.408,168.583,144.442,168.583,155.308v26.2V155.308z
		"/>
	<path fill="#010101" d="M204.083,180.908c-6-0.135-10.967-2.4-14.9-6.801c-4-4.465-5.834-11.1-5.5-19.899
		c0.333-8.8,3.8-15.366,10.4-19.7c6.666-4.2,13.4-4.232,20.2-0.1c6.8,4.134,9.8,11.134,9,21h-39.6h39.6c0.8-9.866-2.2-16.866-9-21
		c-6.8-4.133-13.535-4.101-20.2,0.1c-6.6,4.334-10.067,10.9-10.4,19.7c-0.334,8.8,1.5,15.435,5.5,19.899
		C193.116,178.508,198.083,180.773,204.083,180.908c5.866,0.199,11-0.566,15.399-2.301
		C215.083,180.342,209.949,181.107,204.083,180.908z"/>
	<path fill="#010101" d="M247.281,154.908l10-0.101L247.281,154.908l-10.1-0.101L247.281,154.908z"/>
	<path fill="#010101" d="M278.381,112.308c0,0.535-0.184,1.018-0.549,1.45c-0.367,0.435-0.818,0.65-1.351,0.65
		c-0.534,0.067-0.984-0.1-1.351-0.5c-0.367-0.4-0.584-0.866-0.649-1.4c0-1.266,0.633-1.966,1.899-2.1c0.533,0,1,0.185,1.4,0.55
		C278.182,111.325,278.381,111.775,278.381,112.308c0-0.533-0.199-0.982-0.6-1.35c-0.4-0.366-0.867-0.55-1.4-0.55
		c-1.267,0.134-1.899,0.834-1.899,2.1c0.065,0.534,0.282,1,0.649,1.4c0.366,0.4,0.816,0.567,1.351,0.5
		c0.532,0,0.983-0.215,1.351-0.65C278.197,113.325,278.381,112.842,278.381,112.308z M276.381,131.308l0.101,25.101l-0.101,25.1
		l0.101-25.1L276.381,131.308z"/>
	<path fill="#010101" d="M297.48,143.808c0-2.133-0.033-4.232-0.1-6.3c-0.066-2.065-0.199-4.166-0.4-6.3
		c0.201,2.134,0.334,4.234,0.4,6.3C297.447,139.575,297.48,141.675,297.48,143.808v37.7V143.808z M312.281,132.208
		c5.465-2,10.266-1.333,14.4,2c4.133,3.2,6.133,10.234,6,21.1v26.2v-26.2c0.133-10.865-1.867-17.899-6-21.1
		C322.547,130.875,317.746,130.208,312.281,132.208c-5.535,2.067-10.467,8.234-14.801,18.5
		C301.814,140.442,306.746,134.275,312.281,132.208z"/>
</g>
<g>
</g>
<g>
</g>
<g>
</g>
<g>
</g>
<g>
</g>
<g>
</g>
</svg>
