<?xml version="1.0" encoding="utf-8"?>
<!-- Generator: Adobe Illustrator 18.0.0, SVG Export Plug-In . SVG Version: 6.00 Build 0)  -->
<!DOCTYPE svg PUBLIC "-//W3C//DTD SVG 1.1 Tiny//EN" "http://www.w3.org/Graphics/SVG/1.1/DTD/svg11-tiny.dtd">
<svg version="1.1" baseProfile="tiny" id="Layer_1" xmlns="http://www.w3.org/2000/svg" xmlns:xlink="http://www.w3.org/1999/xlink"
	 x="0px" y="0px" viewBox="0 0 2736 4752" xml:space="preserve">
<g>
	<path fill-rule="evenodd" fill="none" stroke="#000000" stroke-width="2" stroke-linecap="round" d="M1170.8,511.2
		c3.7-13.2,13.4-24.8,14-38.7"/>
	<path fill-rule="evenodd" fill="none" stroke="#000000" stroke-width="2" stroke-linecap="round" d="M2434.2,925.4"/>
	<path fill-rule="evenodd" fill="none" stroke="#000000" stroke-width="2" stroke-linecap="round" d="M2434.2,925.4
		c-132.1,12.2-262.9-66.2-330.7-178.5"/>
	<path fill-rule="evenodd" fill="none" stroke="#000000" stroke-width="2" stroke-linecap="round" d="M2089.1,714.5
		c140.2-47.6,321.2,60.6,345.1,210.9"/>
	<path fill-rule="evenodd" fill="none" stroke="#000000" stroke-width="2" stroke-linecap="round" d="M946.7,973.8
		c31,47.5,73.5-6,101.8-16.2c24.9-8.9,40.7-3.8,25.6-39.7c-10.4-24.8-68.3-115.4-92.5-115.7c-14-0.1-36.5,72.5-40.6,88.7
		C933,923.1,932.5,948.5,946.7,973.8"/>
	<path fill-rule="evenodd" fill="none" stroke="#000000" stroke-width="2" stroke-linecap="round" d="M1309.5,931.1
		c-15.9,41.1,14.2,73,37,89.6c67.4,48.9,229-23,145.1-109.2C1444.9,863.5,1368.5,944.5,1309.5,931.1"/>
	<path fill-rule="evenodd" fill="none" stroke="#000000" stroke-width="2" stroke-linecap="round" d="M980.7,20.4"/>
	<path fill-rule="evenodd" fill="none" stroke="#000000" stroke-width="2" stroke-linecap="round" d="M1245.3,202
		c40.6,15.7,99.8-3.4,158.9,27.1c19,9.8,77.4-27.8,99.4-33.5c110.4-28.6,263.8,19.1,341,108.5c0.6,0.7,1.3,1.3,1.9,2.1"/>
	<path fill-rule="evenodd" fill="none" stroke="#000000" stroke-width="2" stroke-linecap="round" d="M1846.5,306"/>
	<path fill-rule="evenodd" fill="none" stroke="#000000" stroke-width="2" stroke-linecap="round" d="M1858.7,323.2"/>
	<path fill-rule="evenodd" fill="none" stroke="#000000" stroke-width="2" stroke-linecap="round" d="M1811.1,1488.5
		c8,35.1,29.3,63.2,45.7,93.3"/>
	<path fill-rule="evenodd" fill="none" stroke="#000000" stroke-width="2" stroke-linecap="round" d="M1856.8,1581.8
		c118.7,132.7,285.7,202.8,440.5,309.9c129,89.2,281,202.6,381.8,337.3c31.3,41.9,51.6,114.5,40.1,158.6
		c-13.4,51.8-31.9,126.6-61.6,173.3c-16.5,26-51.6,50.4-70.7,68.1c-48.5,45.2-125.2,82.9-185.1,78.5"/>
	<path fill-rule="evenodd" fill="none" stroke="#000000" stroke-width="2" stroke-linecap="round" d="M2128.6,3224"/>
	<path fill-rule="evenodd" fill="none" stroke="#000000" stroke-width="2" stroke-linecap="round" d="M2111.3,3252.9"/>
	<path fill-rule="evenodd" fill="none" stroke="#000000" stroke-width="2" stroke-linecap="round" d="M2099.6,3269"/>
	<path fill-rule="evenodd" fill="none" stroke="#000000" stroke-width="2" stroke-linecap="round" d="M882.7,3621.2
		c-229.3,128.5-424.2,91.6-636.5-20c-100.8-53-139.3-150.3-160.9-256.3c-12.3-60.3-11.7-112-34.6-169c-27.8-69-42.6-224.8-4.3-294.1
		c11.6-21.1,53-100.6,72.2-47.8"/>
	<path fill-rule="evenodd" fill="none" stroke="#000000" stroke-width="2" stroke-linecap="round" d="M118.5,2834.1
		c25.1-36.1,46.4-96.4,65-124.9c2.4-3.6,28.2-52.5,38.3-30c12.4,27.4-19.7,95.8-8.8,122.2"/>
	<path fill-rule="evenodd" fill="none" stroke="#000000" stroke-width="2" stroke-linecap="round" d="M213.1,2801.4
		c2.4,1.6,18.5-10.6,21.8-5.8c20.2,29.8-5.4,142.8,17.1,171.2"/>
	<path fill-rule="evenodd" fill="none" stroke="#000000" stroke-width="2" stroke-linecap="round" d="M296.9,2840.7"/>
	<path fill-rule="evenodd" fill="none" stroke="#000000" stroke-width="2" stroke-linecap="round" d="M827.7,3597.6
		c-157.5-95-231.5-236.2-317.2-389c-75.7-135-56-267.8-76.7-399.5c-20.6-130.7,3.2-283.8,46.9-422c52.7-166.7,92.9-335.7,208-473.6
		c7.6-9.1,18.2-24.3,23.9-35.4"/>
	<path fill-rule="evenodd" fill="none" stroke="#000000" stroke-width="2" stroke-linecap="round" d="M712.6,1878
		c-216.1-124.1-371.9-328.8-500-536.3"/>
	<path fill-rule="evenodd" fill="none" stroke="#000000" stroke-width="2" stroke-linecap="round" d="M212.7,1341.8
		c-10,11.1-0.6,25.5-6.5,37.5"/>
	<path fill-rule="evenodd" fill="none" stroke="#000000" stroke-width="2" stroke-linecap="round" d="M206.1,1379.3"/>
	<path fill-rule="evenodd" fill="none" stroke="#000000" stroke-width="2" stroke-linecap="round" d="M206.1,1379.3
		c-43.1-32.4-87.4-70.7-122.6-112.5"/>
	<path fill-rule="evenodd" fill="none" stroke="#000000" stroke-width="2" stroke-linecap="round" d="M83.5,1266.9
		c-3.6-1.5-7.2-2.8-10.9-3.8"/>
	<path fill-rule="evenodd" fill="none" stroke="#000000" stroke-width="2" stroke-linecap="round" d="M72.6,1263"/>
	<path fill-rule="evenodd" fill="none" stroke="#000000" stroke-width="2" stroke-linecap="round" d="M72.6,1263"/>
	<path fill-rule="evenodd" fill="none" stroke="#000000" stroke-width="2" stroke-linecap="round" d="M83.5,1266.9
		c29.7-14,72.3,1.1,94.6-26.6"/>
	<path fill-rule="evenodd" fill="none" stroke="#000000" stroke-width="2" stroke-linecap="round" d="M178.1,1240.3
		c-23.9-39.4-38.1-92.6-20.5-135.8"/>
	<path fill-rule="evenodd" fill="none" stroke="#000000" stroke-width="2" stroke-linecap="round" d="M157.6,1104.5
		c26.5-45.9,78.1-73.5,124.6-96.1"/>
	<path fill-rule="evenodd" fill="none" stroke="#000000" stroke-width="2.4188" stroke-linecap="round" d="M274.4,959.4"/>
	<path fill-rule="evenodd" fill="none" stroke="#000000" stroke-width="2.4188" stroke-linecap="round" d="M282.1,1008.5"/>
	<path fill-rule="evenodd" fill="none" stroke="#000000" stroke-width="2" stroke-linecap="round" d="M267,922.5"/>
	<path fill-rule="evenodd" fill="none" stroke="#000000" stroke-width="2" stroke-linecap="round" d="M274.4,959.4"/>
	<path fill-rule="evenodd" fill="none" stroke="#000000" stroke-width="2" stroke-linecap="round" d="M229.4,768.9"/>
	<path fill-rule="evenodd" fill="none" stroke="#000000" stroke-width="2" stroke-linecap="round" d="M267,922.5"/>
	<path fill-rule="evenodd" fill="none" stroke="#000000" stroke-width="2" stroke-linecap="round" d="M364.6,1148.6
		c45.8,109.2,100.4,226.7,212.1,308.4c123.5,90.3,278.5,241.3,427.9,129.1c13.5-10.1,29-21.3,48.4-25.7"/>
	<path fill-rule="evenodd" fill="none" stroke="#000000" stroke-width="2" stroke-linecap="round" d="M1052.9,1560.4
		c1.5-5.4,5.2-9.7,10.1-12.5"/>
	<path fill-rule="evenodd" fill="none" stroke="#000000" stroke-width="2" stroke-linecap="round" d="M1063,1547.9
		c26-17.4,43.9-43.7,66.3-65.4"/>
	<path fill-rule="evenodd" fill="none" stroke="#000000" stroke-width="2" stroke-linecap="round" d="M1129.3,1482.5
		c6.2-25.9,27.7-44.3,34.1-69.3"/>
	<path fill-rule="evenodd" fill="none" stroke="#000000" stroke-width="2" stroke-linecap="round" d="M1163.4,1413.2
		c-121.5-30-255-115.1-255.6-254.4"/>
	<path fill-rule="evenodd" fill="none" stroke="#000000" stroke-width="2" stroke-linecap="round" d="M907.8,1158.8
		c-134.5-6.2-132.6-208-47.1-268.7"/>
	<path fill-rule="evenodd" fill="none" stroke="#000000" stroke-width="2" stroke-linecap="round" d="M860.7,890.1
		c3.2-31.8-27.7-75.9-19.8-121c17.4-100.2,102-172.6,209.3-143"/>
	<path fill-rule="evenodd" fill="none" stroke="#000000" stroke-width="2" stroke-linecap="round" d="M1050.1,626.1
		c24.6-67.7,9.6-141.4-37.4-194.9"/>
	<path fill-rule="evenodd" fill="none" stroke="#000000" stroke-width="2" stroke-linecap="round" d="M1012.7,431.2"/>
	<path fill-rule="evenodd" fill="none" stroke="#000000" stroke-width="2" stroke-linecap="round" d="M800.7,386.3"/>
	<path fill-rule="evenodd" fill="none" stroke="#000000" stroke-width="2" stroke-linecap="round" d="M800.7,386.3"/>
	<path fill-rule="evenodd" fill="none" stroke="#000000" stroke-width="2" stroke-linecap="round" d="M800.7,386.3
		c-2.9-2.9-7.1-3.4-11-4"/>
	<path fill-rule="evenodd" fill="none" stroke="#000000" stroke-width="2" stroke-linecap="round" d="M789.7,382.3"/>
	<path fill-rule="evenodd" fill="none" stroke="#000000" stroke-width="2" stroke-linecap="round" d="M789.7,382.3"/>
	<path fill-rule="evenodd" fill="none" stroke="#000000" stroke-width="2" stroke-linecap="round" d="M689.7,293.1"/>
	<path fill-rule="evenodd" fill="none" stroke="#000000" stroke-width="2" stroke-linecap="round" d="M688,294"/>
	<path fill-rule="evenodd" fill="none" stroke="#000000" stroke-width="2" stroke-linecap="round" d="M670.5,257.2"/>
	<path fill-rule="evenodd" fill="none" stroke="#000000" stroke-width="2" stroke-linecap="round" d="M670.5,257.2"/>
	<path fill-rule="evenodd" fill="none" stroke="#000000" stroke-width="2" stroke-linecap="round" d="M1014.2,339.8
		c-7.4-2-15,0.6-22.4,1.6"/>
	<path fill-rule="evenodd" fill="none" stroke="#000000" stroke-width="2" stroke-linecap="round" d="M991.8,341.4"/>
	<path fill-rule="evenodd" fill="none" stroke="#000000" stroke-width="2" stroke-linecap="round" d="M991.8,341.4
		c-56.1-9.2-165.1-17-202-79.7c-10-17,9.4-28.9,25.5-44.5c46.6-45.1,106.4-62.9,179.9-42.3c32.4,9.1,49.1,33.8,67.8,52.3"/>
	<path fill-rule="evenodd" fill="none" stroke="#000000" stroke-width="2" stroke-linecap="round" d="M1014.2,339.8
		c27.7-106.2,137.5-126.1,231.1-137.9"/>
	<path fill-rule="evenodd" fill="none" stroke="#000000" stroke-width="2" stroke-linecap="round" d="M1245.3,202
		C1207.2,92.6,1088.4,39.2,980.7,20.4"/>
	<path fill-rule="evenodd" fill="none" stroke="#000000" stroke-width="2" stroke-linecap="round" d="M980.7,20.4
		c-143.9-15.7-252.6,120-310.2,236.8c43.7,67.9,69.7,153.7,342.1,174c-6.4-30.8,6.5-61,1.5-91.3"/>
	<path fill-rule="evenodd" fill="none" stroke="#000000" stroke-width="2" stroke-linecap="round" d="M1050.1,626.1
		c32.3,12.6,67.3,10.2,100.4,19.5"/>
	<path fill-rule="evenodd" fill="none" stroke="#000000" stroke-width="2" stroke-linecap="round" d="M1150.5,645.7
		c1.4-0.5,2.8-1.1,4.2-1.6"/>
	<path fill-rule="evenodd" fill="none" stroke="#000000" stroke-width="2" stroke-linecap="round" d="M1154.7,644
		c48.1-139.5,195.7-210.5,335.9-152.6c63.8,26.3,103.3,68.9,141.3,127.8c40.3,62.6,59.6,164.9,8.5,227"/>
	<path fill-rule="evenodd" fill="none" stroke="#000000" stroke-width="2" stroke-linecap="round" d="M1824.4,1206.8
		c104.8-47.4,184.4-136.3,187.8-240.4c1.9-59.5-15.3-124.3,15.1-188.5"/>
	<path fill-rule="evenodd" fill="none" stroke="#000000" stroke-width="2" stroke-linecap="round" d="M2027.3,777.8
		c12.9-84.1,91.6-141.7,137.8-209.9"/>
	<path fill-rule="evenodd" fill="none" stroke="#000000" stroke-width="2" stroke-linecap="round" d="M2165.1,567.9
		c-46.9-153.6-268.2-92.1-306.4-244.8"/>
	<path fill-rule="evenodd" fill="none" stroke="#000000" stroke-width="2" stroke-linecap="round" d="M1858.7,323.2
		c-5.6-4.3-10.6-10.2-12.2-17.1"/>
	<path fill-rule="evenodd" fill="none" stroke="#000000" stroke-width="2" stroke-linecap="round" d="M1154.7,644
		c169.5,39.3,379.3,42.6,485.7,202.2"/>
	<path fill-rule="evenodd" fill="none" stroke="#000000" stroke-width="2" stroke-linecap="round" d="M2378.3,1011.2
		c41.4-17.3,85.1,6.5,112.7-1.8c28.6-8.6,31.3-109.2,31.4-121.5c0.4-58-23.8-112.4-47.4-173.4c-42.8-110.5-131.6-162.9-240.5-154.1
		c-25.6,2.1-45.4,7.7-69.4,7.6"/>
	<path fill-rule="evenodd" fill="none" stroke="#000000" stroke-width="2" stroke-linecap="round" d="M2027.3,777.8
		c58.9,30.1,69.6,135.5,127.9,175.4c58.1,39.8,139.3,58.2,223.2,57.9"/>
	<path fill-rule="evenodd" fill="none" stroke="#000000" stroke-width="2" stroke-linecap="round" d="M860.7,890.1
		c10.5,17.4,6.8,40.2,5.3,59.2"/>
	<path fill-rule="evenodd" fill="none" stroke="#000000" stroke-width="2" stroke-linecap="round" d="M907.8,1158.8
		c23.4-7.6,46.1-19.3,70.6-21.9"/>
	<path fill-rule="evenodd" fill="none" stroke="#000000" stroke-width="2" stroke-linecap="round" d="M978.4,1137
		c47.6-65.3,154.2-111.6,219.7-42.4"/>
	<path fill-rule="evenodd" fill="none" stroke="#000000" stroke-width="2" stroke-linecap="round" d="M1198.1,1094.5
		c62.4,35.3,121,80.2,173.9,128.9"/>
	<path fill-rule="evenodd" fill="none" stroke="#000000" stroke-width="2" stroke-linecap="round" d="M1456.8,1271.8
		c5.2-3.8,11.5-5.4,17.4-7.7"/>
	<path fill-rule="evenodd" fill="none" stroke="#000000" stroke-width="2" stroke-linecap="round" d="M1474.2,1264.1"/>
	<path fill-rule="evenodd" fill="none" stroke="#000000" stroke-width="2" stroke-linecap="round" d="M1570.5,1221.9
		c6.6-16.9,5.8-41.1,4.6-57.5c-8.2-114.1,106.3-120.7,94.5-221.3c-3.9-33.1-19.7-56.8-29.2-96.8"/>
	<path fill-rule="evenodd" fill="none" stroke="#000000" stroke-width="2" stroke-linecap="round" d="M1150.5,645.7"/>
	<path fill-rule="evenodd" fill="none" stroke="#000000" stroke-linecap="round" d="M267.6,909.3c-0.9-75.4,66-23.1,85.6,22.6"/>
	<path fill-rule="evenodd" fill="none" stroke="#000000" stroke-width="2" stroke-linecap="round" d="M605.2,945.3
		c-125.2-24.8-287.3-74.8-367-180.1"/>
	<path fill-rule="evenodd" fill="none" stroke="#000000" stroke-width="2" stroke-linecap="round" d="M605.2,945.3
		c-58.3-124.7-241.4-170.1-367-180.1l60.2,294.9"/>
	<path fill-rule="evenodd" fill="none" stroke="#000000" stroke-linecap="round" d="M274.4,959.4c11.1-0.2,22.3,0.6,33.4-0.9"/>
	<path fill-rule="evenodd" fill="none" stroke="#000000" stroke-linecap="round" d="M307.8,958.5c-2.3-30.2,32.4-10,45.5-26.6"/>
	<path fill-rule="evenodd" fill="none" stroke="#000000" stroke-linecap="round" d="M395.2,1023.5c13.3-18.6,0.1-37.7,0-64.1"/>
	<path fill-rule="evenodd" fill="none" stroke="#000000" stroke-linecap="round" d="M395.2,959.5c-13-11.4-22.5-28.2-42-27.6"/>
	<path fill-rule="evenodd" fill="none" stroke="#000000" stroke-width="2" stroke-linecap="round" d="M478.1,1005"/>
	<path fill-rule="evenodd" fill="none" stroke="#000000" stroke-width="2" stroke-linecap="round" d="M408.5,1025.1"/>
	<path fill-rule="evenodd" fill="none" stroke="#000000" d="M478.1,1005c5-45.6-46-79-82.9-45.5"/>
	<path fill-rule="evenodd" fill="none" stroke="#000000" stroke-width="2" stroke-linecap="round" d="M334.5,1064.6
		c3.7,0,7.4-0.5,11.1-0.9"/>
	<path fill-rule="evenodd" fill="none" stroke="#000000" stroke-width="2.2908" stroke-linecap="round" d="M408.5,1025.1"/>
	<path fill-rule="evenodd" fill="none" stroke="#000000" stroke-width="2.2908" stroke-linecap="round" d="M345.7,1063.7"/>
	<path fill-rule="evenodd" fill="none" stroke="#000000" stroke-width="2" stroke-linecap="round" d="M345.7,1063.7
		c-0.4-0.4,260-118,259.6-118.3"/>
	<path fill-rule="evenodd" fill="none" stroke="#000000" stroke-linecap="round" d="M415.9,1031.5c-23.4-21.6-66.4,8.2-81.9-1.8
		c-16.7-10.8-1.9-55.4-26.2-71.3"/>
	<path fill-rule="evenodd" fill="none" stroke="#000000" stroke-width="2" stroke-linecap="round" d="M157.6,1104.5"/>
	<path fill-rule="evenodd" fill="none" stroke="#000000" stroke-width="2" stroke-linecap="round" d="M178.1,1240.3
		c58.2-40.7,73.8-122.2,120.4-175.9"/>
	<path fill-rule="evenodd" fill="none" stroke="#000000" stroke-width="2.3358" stroke-linecap="round" d="M282.1,1008.5"/>
	<path fill-rule="evenodd" fill="none" stroke="#000000" stroke-width="2" stroke-linecap="round" d="M298.4,1064.4"/>
	<path fill-rule="evenodd" fill="none" stroke="#000000" stroke-width="2" stroke-linecap="round" d="M978.4,1137
		c6.1,7.2,13.9,16.1,17.6,25.1c61.8,147.9,225.7,151,354,78.1c3.8-2.1,5.4-7.2,14.1-9"/>
	<path fill-rule="evenodd" fill="none" stroke="#000000" stroke-width="2" stroke-linecap="round" d="M1364.1,1231.2
		c2.6-2.6,5.2-5.2,7.8-7.9"/>
	<path fill-rule="evenodd" fill="none" stroke="#000000" stroke-width="2" stroke-linecap="round" d="M1198.1,1094.5
		c-33.9,7.7-63.5,35-60.8,72.5"/>
	<path fill-rule="evenodd" fill="none" stroke="#000000" stroke-width="2" stroke-linecap="round" d="M212.7,1341.8
		c-21.2-63.6,14.2-130.2,63.7-169.3"/>
	<path fill-rule="evenodd" fill="none" stroke="#000000" stroke-width="2" stroke-linecap="round" d="M276.4,1172.5
		c5.7-41.9,37.5-73.1,58.1-107.9"/>
	<path fill-rule="evenodd" fill="none" stroke="#000000" stroke-width="2" stroke-linecap="round" d="M334.5,1064.6"/>
	<path fill-rule="evenodd" fill="none" stroke="#000000" stroke-width="2" stroke-linecap="round" d="M276.4,1172.5
		c29.1-6.3,56.1-24,88.2-23.9"/>
	<path fill-rule="evenodd" fill="none" stroke="#000000" stroke-width="2.7883" stroke-linecap="round" d="M364.6,1148.6
		c-7.7-27.9-5.7-58.7-18.9-84.9"/>
	<path fill-rule="evenodd" fill="none" stroke="#000000" stroke-width="2" stroke-linecap="round" d="M1163.4,1413.2
		c86.2,8.9,170.5-22.7,241.7-69"/>
	<path fill-rule="evenodd" fill="none" stroke="#000000" stroke-width="2" stroke-linecap="round" d="M1405.1,1344.2
		c3.6-8.5,10.8-14.6,16.9-21.2"/>
	<path fill-rule="evenodd" fill="none" stroke="#000000" stroke-width="2" stroke-linecap="round" d="M1422.1,1323.1
		c7.4-15.7,21.6-26.5,30.8-40.9"/>
	<path fill-rule="evenodd" fill="none" stroke="#000000" stroke-width="2" stroke-linecap="round" d="M1452.9,1282.1
		c1.8-3.3,2.7-6.8,3.9-10.3"/>
	<path fill-rule="evenodd" fill="none" stroke="#000000" stroke-width="2" stroke-linecap="round" d="M1456.8,1271.8
		c-30-13.6-55.6-34.7-84.8-48.4"/>
	<path fill-rule="evenodd" fill="none" stroke="#000000" stroke-width="2" stroke-linecap="round" d="M1364.1,1231.2"/>
	<path fill-rule="evenodd" fill="none" stroke="#000000" stroke-width="2" stroke-linecap="round" d="M712.6,1878
		c17.3-10.7,27.5-31.8,46.3-41.1"/>
	<path fill-rule="evenodd" fill="none" stroke="#000000" stroke-width="2" stroke-linecap="round" d="M882.7,3621.2
		c54.1,16.1,123.9,25.9,136.6,72.8c60.9,225.7,31.1,543.6-83.2,735.7c-1.1,1.8,0,6.5-0.2,10.9"/>
	<path fill-rule="evenodd" fill="none" stroke="#000000" stroke-width="2" stroke-linecap="round" d="M935.8,4440.6
		c115.8-21.5,218.2,43.3,332,33.6"/>
	<path fill-rule="evenodd" fill="none" stroke="#000000" stroke-width="2" stroke-linecap="round" d="M1267.8,4474.1
		c5.4-11.8,11.2-24,18.6-35"/>
	<path fill-rule="evenodd" fill="none" stroke="#000000" stroke-width="2" stroke-linecap="round" d="M1286.3,4439.1
		c1.1-6,2-12.1,5.5-17.3"/>
	<path fill-rule="evenodd" fill="none" stroke="#000000" stroke-width="2" stroke-linecap="round" d="M1291.8,4421.9
		c91.7-235.5,147.2-481.3,144.1-732.7"/>
	<path fill-rule="evenodd" fill="none" stroke="#000000" stroke-width="2" stroke-linecap="round" d="M1291.8,4421.9"/>
	<path fill-rule="evenodd" fill="none" stroke="#000000" stroke-width="2" stroke-linecap="round" d="M1286.3,4439.1
		c59.2,19.9,121.8,3.7,182.1,15.9"/>
	<path fill-rule="evenodd" fill="none" stroke="#000000" stroke-width="2" stroke-linecap="round" d="M1468.4,4455
		c5-2.7,11-2.7,16.2-5.2"/>
	<path fill-rule="evenodd" fill="none" stroke="#000000" stroke-width="2" stroke-linecap="round" d="M1484.6,4449.8
		c-23.4-109.2,104.3-294.3,163.3-389.3c79-127.3,157.2-239.8,179.7-379.2c7.5-46.4,19.1-111.1,8.7-161.4"/>
	<path fill-rule="evenodd" fill="none" stroke="#000000" stroke-width="2" stroke-linecap="round" d="M1836.3,3520
		c-12.9,1.2-29,5.7-37.4,14.5"/>
	<path fill-rule="evenodd" fill="none" stroke="#000000" stroke-width="2" stroke-linecap="round" d="M1836.3,3520
		c56.2-35.5,109.1-75.3,159.5-118.8"/>
	<path fill-rule="evenodd" fill="none" stroke="#000000" stroke-width="2" stroke-linecap="round" d="M1995.8,3401.1"/>
	<path fill-rule="evenodd" fill="none" stroke="#000000" stroke-width="2" stroke-linecap="round" d="M1995.8,3401.1
		c40.6-38.6,73.1-85.8,103.8-132.2"/>
	<path fill-rule="evenodd" fill="none" stroke="#000000" stroke-width="2" stroke-linecap="round" d="M2099.6,3269
		c2.4-6.4,7.8-10.7,11.7-16.1"/>
	<path fill-rule="evenodd" fill="none" stroke="#000000" stroke-width="2" stroke-linecap="round" d="M2111.3,3252.9
		c6.4-9.3,10.1-20.2,17.4-28.9"/>
	<path fill-rule="evenodd" fill="none" stroke="#000000" stroke-width="2" stroke-linecap="round" d="M2128.6,3224
		c83-122.1,104.8-271.6,114.6-414.7"/>
	<path fill-rule="evenodd" fill="none" stroke="#000000" stroke-width="2" stroke-linecap="round" d="M2243.2,2809.3
		c1.4-17.4,2.3-34.6,2.1-52.2"/>
	<path fill-rule="evenodd" fill="none" stroke="#000000" stroke-width="2" stroke-linecap="round" d="M2245.3,2757
		c-0.6-0.2-1.3-0.4-1.9-0.6"/>
	<path fill-rule="evenodd" fill="none" stroke="#000000" stroke-width="2" stroke-linecap="round" d="M2245.3,2757
		c11.7-84-7.2-169.3-8.3-252.3"/>
	<path fill-rule="evenodd" fill="none" stroke="#000000" stroke-width="2" stroke-linecap="round" d="M2237,2504.7
		c-6.3-137.4-51-273.3-53.6-410.3"/>
	<path fill-rule="evenodd" fill="none" stroke="#000000" stroke-width="2" stroke-linecap="round" d="M2183.4,2094.5
		c-12.1-24.1-6-54.2-11.8-80.4"/>
	<path fill-rule="evenodd" fill="none" stroke="#000000" stroke-width="2" stroke-linecap="round" d="M2476.1,2349
		c19.4,3.7,31.3,23.4,40.7,39.1"/>
	<path fill-rule="evenodd" fill="none" stroke="#000000" stroke-width="2" stroke-linecap="round" d="M1129.3,1482.5
		c63,55.7,135.1,102.4,220.6,109.4"/>
	<path fill-rule="evenodd" fill="none" stroke="#000000" stroke-width="2" stroke-linecap="round" d="M1349.9,1591.9
		c35.6-58.9,101-48.5,142.6-3.3"/>
	<path fill-rule="evenodd" fill="none" stroke="#000000" stroke-width="2" stroke-linecap="round" d="M1492.5,1588.7
		c108.4-24.9,214.2-61.5,318.6-100.2"/>
	<path fill-rule="evenodd" fill="none" stroke="#000000" stroke-width="2" stroke-linecap="round" d="M1811.1,1488.5
		c-15.7-93-20.8-193.2,13.3-281.7"/>
	<path fill-rule="evenodd" fill="none" stroke="#000000" stroke-width="2" stroke-linecap="round" d="M1824.4,1206.8
		c-56.9,26-119.7,4.2-185.5,11c-22.1,2.3-50.5,21.3-68.4,4.1"/>
	<path fill-rule="evenodd" fill="none" stroke="#000000" stroke-width="2" stroke-linecap="round" d="M1570.5,1221.9
		c-19.7,31-58.9,58-96.3,42.2"/>
	<path fill-rule="evenodd" fill="none" stroke="#000000" stroke-width="2" stroke-linecap="round" d="M1452.9,1282.1"/>
	<path fill-rule="evenodd" fill="none" stroke="#000000" stroke-width="2" stroke-linecap="round" d="M1422.1,1323.1"/>
	<path fill-rule="evenodd" fill="none" stroke="#000000" stroke-width="2" stroke-linecap="round" d="M1063,1547.9
		c1.5,2.1,2.8,3.7,4.2,5.3"/>
	<path fill-rule="evenodd" fill="none" stroke="#000000" stroke-width="2" stroke-linecap="round" d="M1052.9,1560.4
		c59.4,56.3,119.1,117.5,204.2,129.7"/>
	<path fill-rule="evenodd" fill="none" stroke="#000000" stroke-width="2" stroke-linecap="round" d="M1257.1,1690.1
		c20.3-29.4,55.6-37.8,87.7-46.9"/>
	<path fill-rule="evenodd" fill="none" stroke="#000000" stroke-width="2" stroke-linecap="round" d="M1344.8,1643.2
		c-3.2-17.3-0.8-34.5,5.1-51.3"/>
	<path fill-rule="evenodd" fill="none" stroke="#000000" stroke-width="2" stroke-linecap="round" d="M1504.3,1658.7
		c29.8,16.1,65.7,21.1,94.6,40.4"/>
	<path fill-rule="evenodd" fill="none" stroke="#000000" stroke-width="2" stroke-linecap="round" d="M1598.9,1699.1
		c88.6-33.8,170.6-79.2,257.9-117.3"/>
	<path fill-rule="evenodd" fill="none" stroke="#000000" stroke-width="2" stroke-linecap="round" d="M1344.8,1643.2
		c51.4,13.7,106.8,10.2,159.4,15.5"/>
	<path fill-rule="evenodd" fill="none" stroke="#000000" stroke-width="2" stroke-linecap="round" d="M1504.3,1658.7
		c5.5-24.1-12.4-45.8-11.8-70"/>
	<path fill-rule="evenodd" fill="none" stroke="#000000" stroke-width="2" stroke-linecap="round" d="M1257.1,1690.1
		c-0.2,16.3-15.6,41.1-26.8,58.7c-36.8,57.8-111.1,220.1-23.6,248.7c4.6,1.5,7,0.8,12.2-1.2"/>
	<path fill-rule="evenodd" fill="none" stroke="#000000" stroke-width="2" stroke-linecap="round" d="M1218.8,1996.3
		c-6.1-74.7,79.7-132.4,147.2-110"/>
	<path fill-rule="evenodd" fill="none" stroke="#000000" stroke-width="2" stroke-linecap="round" d="M1366.1,1886.4
		c13.8-9.3,33.5-13.9,48.9-5.5"/>
	<path fill-rule="evenodd" fill="none" stroke="#000000" stroke-width="2" stroke-linecap="round" d="M1618.8,1983
		c55.7-11,52.3-49.1,27.2-104.3c-19.7-43.3-2.2-111.2-29.5-152.9c-6.5-10-17-16-17.6-26.7"/>
	<path fill-rule="evenodd" fill="none" stroke="#000000" stroke-width="2" stroke-linecap="round" d="M1366.1,1886.4
		c-47.3,34.8-2,157.5,64.9,115.9c37.8-23.5,33.2-63.8,14.1-113.1"/>
	<path fill-rule="evenodd" fill="none" stroke="#000000" stroke-width="2" stroke-linecap="round" d="M1445.1,1889.2
		c-8.9-6.3-19.2-9.7-30.1-8.4"/>
	<path fill-rule="evenodd" fill="none" stroke="#000000" stroke-width="2" stroke-linecap="round" d="M1415,1880.8"/>
	<path fill-rule="evenodd" fill="none" stroke="#000000" stroke-width="2" stroke-linecap="round" d="M1218.8,1996.3
		c121.9,52.1,286.5,63.3,399.9-13.3"/>
	<path fill-rule="evenodd" fill="none" stroke="#000000" stroke-width="2" stroke-linecap="round" d="M1618.8,1983
		c34.9-103.7-108.1-100.6-173.7-93.8"/>
	<path fill-rule="evenodd" fill="none" stroke="#000000" stroke-width="2" stroke-linecap="round" d="M2339.1,2490.4
		c53.7-36.3,123.4-68.3,137-141.4"/>
	<path fill-rule="evenodd" fill="none" stroke="#000000" stroke-width="2" stroke-linecap="round" d="M2476.1,2349
		c-89.7-91-187.7-183.4-292.7-254.5"/>
	<path fill-rule="evenodd" fill="none" stroke="#000000" stroke-width="2" stroke-linecap="round" d="M2243.2,2809.3
		c57.6-16.7,130.8-46.9,158.6-101.8"/>
	<path fill-rule="evenodd" fill="none" stroke="#000000" stroke-width="2" stroke-linecap="round" d="M2401.8,2707.5
		c-10.1-74.5-22.8-151.8-62.7-217.1"/>
	<path fill-rule="evenodd" fill="none" stroke="#000000" stroke-width="2" stroke-linecap="round" d="M2339.1,2490.4
		c-34.4,4.7-67.3,15-102.1,14.4"/>
	<path fill-rule="evenodd" fill="none" stroke="#000000" stroke-width="2" stroke-linecap="round" d="M296.9,2840.7
		c-26.6,36.4-15.5,93-45,126.1"/>
	<path fill-rule="evenodd" fill="none" stroke="#000000" stroke-width="2" stroke-linecap="round" d="M251.9,2966.7"/>
	<path fill-rule="evenodd" fill="none" stroke="#000000" stroke-width="2" stroke-linecap="round" d="M213.1,2801.4
		c-5.5,11.7-10,23.6-13.4,36"/>
	<path fill-rule="evenodd" fill="none" stroke="#000000" stroke-width="2" stroke-linecap="round" d="M118.5,2834.1
		c-1.4,8.9-1.7,17.9-4.3,26.5"/>
	<path fill-rule="evenodd" fill="none" stroke="#000000" stroke-width="2" stroke-linecap="round" d="M882.7,3621.2
		c-15.1-13.4-36.9-15.9-55-23.6"/>
	<path fill-rule="evenodd" fill="none" stroke="#000000" stroke-width="2" stroke-linecap="round" d="M827.7,3597.6
		c-239.4,100-608,53.7-680.9-214.1c-35.3-129.7,135.3-191.8,162.8-325.6c11.5-56.2,17.6-160.3-5.2-210.7c-1.2-2.7-4.8-4.2-7.5-6.6"
		/>
	<path fill-rule="evenodd" fill="none" stroke="#000000" stroke-width="2" stroke-linecap="round" d="M935.8,4440.6
		c-0.9,0.8-1.8,1.5-2.8,2.3"/>
	<path fill-rule="evenodd" fill="none" stroke="#000000" stroke-width="2" stroke-linecap="round" d="M933.1,4442.8"/>
	<path fill-rule="evenodd" fill="none" stroke="#000000" stroke-width="2" stroke-linecap="round" d="M933.1,4442.8
		c-24,14.4-37.1,45.7-49.7,67.7c-27.2,47.5-81.1,114-94.6,158.8c-11.3,37.5,40.2,20.6,65.6,20.1c40.9-0.8,88.3,7.5,136,7.7"/>
	<path fill-rule="evenodd" fill="none" stroke="#000000" stroke-width="2" stroke-linecap="round" d="M990.3,4697.1
		c-6.5-59.8,9-121.9,34.4-170.7"/>
	<path fill-rule="evenodd" fill="none" stroke="#000000" stroke-width="2" stroke-linecap="round" d="M990.3,4697.1
		c54.7,47.2,145,2,203.6,7.7c35.7,3.5,70.3,14.9,87.9-15.7"/>
	<path fill-rule="evenodd" fill="none" stroke="#000000" stroke-width="2" stroke-linecap="round" d="M1267.8,4474.1
		c21.9,66.6,63.1,150.3,14.1,215"/>
	<path fill-rule="evenodd" fill="none" stroke="#000000" stroke-width="2" stroke-linecap="round" d="M1281.9,4689.1
		c72.5,40.8,165.6,23.2,241,20.5"/>
	<path fill-rule="evenodd" fill="none" stroke="#000000" stroke-width="2" stroke-linecap="round" d="M1522.9,4709.6
		c-7.5-86.8-19.9-173.4-54.4-254.6"/>
	<path fill-rule="evenodd" fill="none" stroke="#000000" stroke-width="2" stroke-linecap="round" d="M1522.9,4709.6
		c52.8,0.7,126.7,21.5,126.5-39.6c-0.2-65.4-71.4-178-152.5-216.7c-3.3-1.6-10.2-1.7-12.3-3.5"/>
	<path fill-rule="evenodd" fill="none" stroke="#000000" stroke-width="2" stroke-linecap="round" d="M1746.6,689.1
		c6.2-13.4,11-27.5,18.9-40.2"/>
</g>
<g>
</g>
<g>
</g>
<g>
</g>
<g>
</g>
<g>
</g>
<g>
</g>
</svg>
