<?xml version="1.0" encoding="utf-8"?>
<!-- Generator: Adobe Illustrator 18.0.0, SVG Export Plug-In . SVG Version: 6.00 Build 0)  -->
<!DOCTYPE svg PUBLIC "-//W3C//DTD SVG 1.1 Tiny//EN" "http://www.w3.org/Graphics/SVG/1.1/DTD/svg11-tiny.dtd">
<svg version="1.1" baseProfile="tiny" id="Layer_1" xmlns="http://www.w3.org/2000/svg" xmlns:xlink="http://www.w3.org/1999/xlink"
	 x="0px" y="0px" viewBox="0 0 612 792" xml:space="preserve">
<g>
	<path fill="none" stroke="#ED1845" stroke-width="8" stroke-linecap="round" d="M273.1,85.2c0.6-2.2,2.2-4.1,2.3-6.5"/>
	<path fill="none" stroke="#ED1845" stroke-width="8" stroke-linecap="round" d="M483.7,154.2"/>
	<path fill="none" stroke="#ED1845" stroke-width="8" stroke-linecap="round" d="M483.7,154.2c-22,2-43.8-11-55.1-29.8"/>
	<path fill="none" stroke="#ED1845" stroke-width="8" stroke-linecap="round" d="M426.2,119.1c23.4-7.9,53.5,10.1,57.5,35.2"/>
	<path fill="none" stroke="#ED1845" stroke-width="8" stroke-linecap="round" d="M235.8,162.3c5.2,7.9,12.2-1,17-2.7
		c4.2-1.5,6.8-0.6,4.3-6.6c-1.7-4.1-11.4-19.2-15.4-19.3c-2.3,0-6.1,12.1-6.8,14.8C233.5,153.9,233.4,158.1,235.8,162.3"/>
	<path fill="none" stroke="#ED1845" stroke-width="8" stroke-linecap="round" d="M296.2,155.2c-2.6,6.8,2.4,12.2,6.2,14.9
		c11.2,8.1,38.2-3.8,24.2-18.2C318.8,143.9,306.1,157.4,296.2,155.2"/>
	<path fill="none" stroke="#ED1845" stroke-width="8" stroke-linecap="round" d="M241.5,3.4"/>
	<path fill="none" stroke="#ED1845" stroke-width="8" stroke-linecap="round" d="M285.6,33.7c6.8,2.6,16.6-0.6,26.5,4.5
		c3.2,1.6,12.9-4.6,16.6-5.6c18.4-4.8,44,3.2,56.8,18.1c0.1,0.1,0.2,0.2,0.3,0.4"/>
	<path fill="none" stroke="#ED1845" stroke-width="8" stroke-linecap="round" d="M385.8,51"/>
	<path fill="none" stroke="#ED1845" stroke-width="8" stroke-linecap="round" d="M387.8,53.9"/>
	<path fill="none" stroke="#ED1845" stroke-width="8" stroke-linecap="round" d="M379.9,248.1c1.3,5.8,4.9,10.5,7.6,15.6"/>
	<path fill="none" stroke="#ED1845" stroke-width="8" stroke-linecap="round" d="M387.5,263.6c19.8,22.1,47.6,33.8,73.4,51.6
		c21.5,14.9,46.8,33.8,63.6,56.2c5.2,7,8.6,19.1,6.7,26.4c-2.2,8.6-5.3,21.1-10.3,28.9c-2.8,4.3-8.6,8.4-11.8,11.4
		c-8.1,7.5-20.9,13.8-30.9,13.1"/>
	<path fill="none" stroke="#ED1845" stroke-width="8" stroke-linecap="round" d="M432.8,537.3"/>
	<path fill="none" stroke="#ED1845" stroke-width="8" stroke-linecap="round" d="M429.9,542.2"/>
	<path fill="none" stroke="#ED1845" stroke-width="8" stroke-linecap="round" d="M427.9,544.8"/>
	<path fill="none" stroke="#ED1845" stroke-width="8" stroke-linecap="round" d="M225.1,603.5c-38.2,21.4-70.7,15.3-106.1-3.3
		c-16.8-8.8-23.2-25-26.8-42.7c-2-10-1.9-18.7-5.8-28.2c-4.6-11.5-7.1-37.5-0.7-49c1.9-3.5,8.8-16.8,12-8"/>
	<path fill="none" stroke="#ED1845" stroke-width="8" stroke-linecap="round" d="M97.8,472.4c4.2-6,7.7-16.1,10.8-20.8
		c0.4-0.6,4.7-8.8,6.4-5c2.1,4.6-3.3,16-1.5,20.4"/>
	<path fill="none" stroke="#ED1845" stroke-width="8" stroke-linecap="round" d="M113.5,466.9c0.4,0.3,3.1-1.8,3.6-1
		c3.4,5-0.9,23.8,2.8,28.5"/>
	<path fill="none" stroke="#ED1845" stroke-width="8" stroke-linecap="round" d="M127.5,473.5"/>
	<path fill="none" stroke="#ED1845" stroke-width="8" stroke-linecap="round" d="M216,599.6c-26.2-15.8-38.6-39.4-52.9-64.8
		c-12.6-22.5-9.3-44.6-12.8-66.6c-3.4-21.8,0.5-47.3,7.8-70.3c8.8-27.8,15.5-56,34.7-78.9c1.3-1.5,3-4,4-5.9"/>
	<path fill="none" stroke="#ED1845" stroke-width="8" stroke-linecap="round" d="M196.8,313c-36-20.7-62-54.8-83.3-89.4"/>
	<path fill="none" stroke="#ED1845" stroke-width="8" stroke-linecap="round" d="M113.4,223.6c-1.7,1.8-0.1,4.2-1.1,6.2"/>
	<path fill="none" stroke="#ED1845" stroke-width="8" stroke-linecap="round" d="M112.3,229.9"/>
	<path fill="none" stroke="#ED1845" stroke-width="8" stroke-linecap="round" d="M112.3,229.9c-7.2-5.4-14.6-11.8-20.4-18.8"/>
	<path fill="none" stroke="#ED1845" stroke-width="8" stroke-linecap="round" d="M91.9,211.2c-0.6-0.2-1.2-0.5-1.8-0.6"/>
	<path fill="none" stroke="#ED1845" stroke-width="8" stroke-linecap="round" d="M90.1,210.5"/>
	<path fill="none" stroke="#ED1845" stroke-width="8" stroke-linecap="round" d="M90.1,210.5"/>
	<path fill="none" stroke="#ED1845" stroke-width="8" stroke-linecap="round" d="M91.9,211.2c5-2.3,12.1,0.2,15.8-4.4"/>
	<path fill="none" stroke="#ED1845" stroke-width="8" stroke-linecap="round" d="M107.7,206.7c-4-6.6-6.3-15.4-3.4-22.6"/>
	<path fill="none" stroke="#ED1845" stroke-width="8" stroke-linecap="round" d="M104.3,184.1c4.4-7.7,13-12.2,20.8-16"/>
	<path fill="none" stroke="#ED1845" stroke-width="8" stroke-linecap="round" d="M123.7,159.9"/>
	<path fill="none" stroke="#ED1845" stroke-width="8" stroke-linecap="round" d="M125,168.1"/>
	<path fill="none" stroke="#ED1845" stroke-width="8" stroke-linecap="round" d="M122.5,153.8"/>
	<path fill="none" stroke="#ED1845" stroke-width="8" stroke-linecap="round" d="M123.7,159.9"/>
	<path fill="none" stroke="#ED1845" stroke-width="8" stroke-linecap="round" d="M116.2,128.2"/>
	<path fill="none" stroke="#ED1845" stroke-width="8" stroke-linecap="round" d="M122.5,153.8"/>
	<path fill="none" stroke="#ED1845" stroke-width="8" stroke-linecap="round" d="M138.8,191.4c7.6,18.2,16.7,37.8,35.4,51.4
		c20.6,15.1,46.4,40.2,71.3,21.5c2.2-1.7,4.8-3.6,8.1-4.3"/>
	<path fill="none" stroke="#ED1845" stroke-width="8" stroke-linecap="round" d="M253.5,260.1c0.2-0.9,0.9-1.6,1.7-2.1"/>
	<path fill="none" stroke="#ED1845" stroke-width="8" stroke-linecap="round" d="M255.2,258c4.3-2.9,7.3-7.3,11.1-10.9"/>
	<path fill="none" stroke="#ED1845" stroke-width="8" stroke-linecap="round" d="M266.2,247.1c1-4.3,4.6-7.4,5.7-11.6"/>
	<path fill="none" stroke="#ED1845" stroke-width="8" stroke-linecap="round" d="M271.9,235.5c-20.3-5-42.5-19.2-42.6-42.4"/>
	<path fill="none" stroke="#ED1845" stroke-width="8" stroke-linecap="round" d="M229.3,193.1c-22.4-1-22.1-34.7-7.8-44.8"/>
	<path fill="none" stroke="#ED1845" stroke-width="8" stroke-linecap="round" d="M221.5,148.4c0.5-5.3-4.6-12.7-3.3-20.2
		c2.9-16.7,17-28.8,34.9-23.8"/>
	<path fill="none" stroke="#ED1845" stroke-width="8" stroke-linecap="round" d="M253,104.3c4.1-11.3,1.6-23.6-6.2-32.5"/>
	<path fill="none" stroke="#ED1845" stroke-width="8" stroke-linecap="round" d="M246.8,71.9"/>
	<path fill="none" stroke="#ED1845" stroke-width="8" stroke-linecap="round" d="M211.5,64.4"/>
	<path fill="none" stroke="#ED1845" stroke-width="8" stroke-linecap="round" d="M211.5,64.4"/>
	<path fill="none" stroke="#ED1845" stroke-width="8" stroke-linecap="round" d="M211.5,64.4c-0.5-0.5-1.2-0.6-1.8-0.7"/>
	<path fill="none" stroke="#ED1845" stroke-width="8" stroke-linecap="round" d="M209.6,63.7"/>
	<path fill="none" stroke="#ED1845" stroke-width="8" stroke-linecap="round" d="M209.6,63.7"/>
	<path fill="none" stroke="#ED1845" stroke-width="8" stroke-linecap="round" d="M193,48.9"/>
	<path fill="none" stroke="#ED1845" stroke-width="8" stroke-linecap="round" d="M192.7,49"/>
	<path fill="none" stroke="#ED1845" stroke-width="8" stroke-linecap="round" d="M189.8,42.9"/>
	<path fill="none" stroke="#ED1845" stroke-width="8" stroke-linecap="round" d="M189.8,42.9"/>
	<path fill="none" stroke="#ED1845" stroke-width="8" stroke-linecap="round" d="M247,56.6c-1.2-0.3-2.5,0.1-3.7,0.3"/>
	<path fill="none" stroke="#ED1845" stroke-width="8" stroke-linecap="round" d="M243.3,56.9"/>
	<path fill="none" stroke="#ED1845" stroke-width="8" stroke-linecap="round" d="M243.3,56.9c-9.3-1.5-27.5-2.8-33.7-13.3
		c-1.7-2.8,1.6-4.8,4.2-7.4c7.8-7.5,17.7-10.5,30-7.1c5.4,1.5,8.2,5.6,11.3,8.7"/>
	<path fill="none" stroke="#ED1845" stroke-width="8" stroke-linecap="round" d="M247,56.6c4.6-17.7,22.9-21,38.5-23"/>
	<path fill="none" stroke="#ED1845" stroke-width="8" stroke-linecap="round" d="M285.6,33.7c-6.4-18.2-26.1-27.1-44.1-30.3"/>
	<path fill="none" stroke="#ED1845" stroke-width="8" stroke-linecap="round" d="M241.5,3.4c-24-2.6-42.1,20-51.7,39.5
		c7.3,11.3,11.6,25.6,57,29c-1.1-5.1,1.1-10.2,0.2-15.2"/>
	<path fill="none" stroke="#ED1845" stroke-width="8" stroke-linecap="round" d="M253,104.3c5.4,2.1,11.2,1.7,16.7,3.2"/>
	<path fill="none" stroke="#ED1845" stroke-width="8" stroke-linecap="round" d="M269.8,107.6c0.2-0.1,0.5-0.2,0.7-0.3"/>
	<path fill="none" stroke="#ED1845" stroke-width="8" stroke-linecap="round" d="M270.5,107.3c8-23.2,32.6-35.1,56-25.4
		c10.6,4.4,17.2,11.5,23.5,21.3c6.7,10.4,9.9,27.5,1.4,37.8"/>
	<path fill="none" stroke="#ED1845" stroke-width="8" stroke-linecap="round" d="M382.1,201.1c17.5-7.9,30.7-22.7,31.3-40.1
		c0.3-9.9-2.6-20.7,2.5-31.4"/>
	<path fill="none" stroke="#ED1845" stroke-width="8" stroke-linecap="round" d="M415.9,129.6c2.1-14,15.3-23.6,23-35"/>
	<path fill="none" stroke="#ED1845" stroke-width="8" stroke-linecap="round" d="M438.9,94.7c-7.8-25.6-44.7-15.4-51.1-40.8"/>
	<path fill="none" stroke="#ED1845" stroke-width="8" stroke-linecap="round" d="M387.8,53.9c-0.9-0.7-1.8-1.7-2-2.8"/>
	<path fill="none" stroke="#ED1845" stroke-width="8" stroke-linecap="round" d="M270.5,107.3c28.2,6.5,63.2,7.1,80.9,33.7"/>
	<path fill="none" stroke="#ED1845" stroke-width="8" stroke-linecap="round" d="M474.4,168.5c6.9-2.9,14.2,1.1,18.8-0.3
		c4.8-1.4,5.2-18.2,5.2-20.2c0.1-9.7-4-18.7-7.9-28.9c-7.1-18.4-21.9-27.2-40.1-25.7c-4.3,0.3-7.6,1.3-11.6,1.3"/>
	<path fill="none" stroke="#ED1845" stroke-width="8" stroke-linecap="round" d="M415.9,129.6c9.8,5,11.6,22.6,21.3,29.2
		c9.7,6.6,23.2,9.7,37.2,9.6"/>
	<path fill="none" stroke="#ED1845" stroke-width="8" stroke-linecap="round" d="M221.5,148.4c1.8,2.9,1.1,6.7,0.9,9.9"/>
	<path fill="none" stroke="#ED1845" stroke-width="8" stroke-linecap="round" d="M229.3,193.1c3.9-1.3,7.7-3.2,11.8-3.7"/>
	<path fill="none" stroke="#ED1845" stroke-width="8" stroke-linecap="round" d="M241.1,189.5c7.9-10.9,25.7-18.6,36.6-7.1"/>
	<path fill="none" stroke="#ED1845" stroke-width="8" stroke-linecap="round" d="M277.7,182.4c10.4,5.9,20.2,13.4,29,21.5"/>
	<path fill="none" stroke="#ED1845" stroke-width="8" stroke-linecap="round" d="M320.8,212c0.9-0.6,1.9-0.9,2.9-1.3"/>
	<path fill="none" stroke="#ED1845" stroke-width="8" stroke-linecap="round" d="M323.7,210.7"/>
	<path fill="none" stroke="#ED1845" stroke-width="8" stroke-linecap="round" d="M339.8,203.7c1.1-2.8,1-6.8,0.8-9.6
		c-1.4-19,17.7-20.1,15.8-36.9c-0.6-5.5-3.3-9.5-4.9-16.1"/>
	<path fill="none" stroke="#ED1845" stroke-width="8" stroke-linecap="round" d="M269.8,107.6"/>
	<path fill="none" stroke="#ED1845" stroke-width="8" stroke-linecap="round" d="M122.6,151.6c-0.2-12.6,11-3.8,14.3,3.8"/>
	<path fill="none" stroke="#ED1845" stroke-width="8" stroke-linecap="round" d="M178.9,157.6c-20.9-4.1-47.9-12.5-61.2-30"/>
	<path fill="none" stroke="#ED1845" stroke-width="8" stroke-linecap="round" d="M178.9,157.6c-9.7-20.8-40.2-28.4-61.2-30l10,49.2"
		/>
	<path fill="none" stroke="#ED1845" stroke-width="8" stroke-linecap="round" d="M123.7,159.9c1.8,0,3.7,0.1,5.6-0.2"/>
	<path fill="none" stroke="#ED1845" stroke-width="8" stroke-linecap="round" d="M129.3,159.8c-0.4-5,5.4-1.7,7.6-4.4"/>
	<path fill="none" stroke="#ED1845" stroke-width="8" stroke-linecap="round" d="M143.9,170.6c2.2-3.1,0-6.3,0-10.7"/>
	<path fill="none" stroke="#ED1845" stroke-width="8" stroke-linecap="round" d="M143.9,159.9c-2.2-1.9-3.8-4.7-7-4.6"/>
	<path fill="none" stroke="#ED1845" stroke-width="8" stroke-linecap="round" d="M157.7,167.5"/>
	<path fill="none" stroke="#ED1845" stroke-width="8" stroke-linecap="round" d="M146.1,170.9"/>
	<path fill="none" stroke="#ED1845" stroke-width="8" d="M157.7,167.5c0.8-7.6-7.7-13.2-13.8-7.6"/>
	<path fill="none" stroke="#ED1845" stroke-width="8" stroke-linecap="round" d="M133.8,177.4c0.6,0,1.2-0.1,1.9-0.2"/>
	<path fill="none" stroke="#ED1845" stroke-width="8" stroke-linecap="round" d="M146.1,170.9"/>
	<path fill="none" stroke="#ED1845" stroke-width="8" stroke-linecap="round" d="M135.6,177.3"/>
	<path fill="none" stroke="#ED1845" stroke-width="8" stroke-linecap="round" d="M135.6,177.3c-0.1-0.1,43.3-19.7,43.3-19.7"/>
	<path fill="none" stroke="#ED1845" stroke-width="8" stroke-linecap="round" d="M147.3,171.9c-3.9-3.6-11.1,1.4-13.6-0.3
		c-2.8-1.8-0.3-9.2-4.4-11.9"/>
	<path fill="none" stroke="#ED1845" stroke-width="8" stroke-linecap="round" d="M104.3,184.1"/>
	<path fill="none" stroke="#ED1845" stroke-width="8" stroke-linecap="round" d="M107.7,206.7c9.7-6.8,12.3-20.4,20.1-29.3"/>
	<path fill="none" stroke="#ED1845" stroke-width="8" stroke-linecap="round" d="M125,168.1"/>
	<path fill="none" stroke="#ED1845" stroke-width="8" stroke-linecap="round" d="M127.7,177.4"/>
	<path fill="none" stroke="#ED1845" stroke-width="8" stroke-linecap="round" d="M241.1,189.5c1,1.2,2.3,2.7,2.9,4.2
		c10.3,24.7,37.6,25.2,59,13c0.6-0.3,0.9-1.2,2.4-1.5"/>
	<path fill="none" stroke="#ED1845" stroke-width="8" stroke-linecap="round" d="M305.4,205.2c0.4-0.4,0.9-0.9,1.3-1.3"/>
	<path fill="none" stroke="#ED1845" stroke-width="8" stroke-linecap="round" d="M277.7,182.4c-5.7,1.3-10.6,5.8-10.1,12.1"/>
	<path fill="none" stroke="#ED1845" stroke-width="8" stroke-linecap="round" d="M113.4,223.6c-3.5-10.6,2.4-21.7,10.6-28.2"/>
	<path fill="none" stroke="#ED1845" stroke-width="8" stroke-linecap="round" d="M124.1,195.4c1-7,6.2-12.2,9.7-18"/>
	<path fill="none" stroke="#ED1845" stroke-width="8" stroke-linecap="round" d="M133.8,177.4"/>
	<path fill="none" stroke="#ED1845" stroke-width="8" stroke-linecap="round" d="M124.1,195.4c4.9-1.1,9.4-4,14.7-4"/>
	<path fill="none" stroke="#ED1845" stroke-width="8" stroke-linecap="round" d="M138.8,191.4c-1.3-4.7-0.9-9.8-3.1-14.2"/>
	<path fill="none" stroke="#ED1845" stroke-width="8" stroke-linecap="round" d="M271.9,235.5c14.4,1.5,28.4-3.8,40.3-11.5"/>
	<path fill="none" stroke="#ED1845" stroke-width="8" stroke-linecap="round" d="M312.2,224c0.6-1.4,1.8-2.4,2.8-3.5"/>
	<path fill="none" stroke="#ED1845" stroke-width="8" stroke-linecap="round" d="M315,220.5c1.2-2.6,3.6-4.4,5.1-6.8"/>
	<path fill="none" stroke="#ED1845" stroke-width="8" stroke-linecap="round" d="M320.2,213.7c0.3-0.6,0.4-1.1,0.6-1.7"/>
	<path fill="none" stroke="#ED1845" stroke-width="8" stroke-linecap="round" d="M320.8,212c-5-2.3-9.3-5.8-14.1-8.1"/>
	<path fill="none" stroke="#ED1845" stroke-width="8" stroke-linecap="round" d="M305.4,205.2"/>
	<path fill="none" stroke="#ED1845" stroke-width="8" stroke-linecap="round" d="M196.8,313c2.9-1.8,4.6-5.3,7.7-6.8"/>
	<path fill="none" stroke="#ED1845" stroke-width="8" stroke-linecap="round" d="M225.1,603.5c9,2.7,20.7,4.3,22.8,12.1
		c10.2,37.6,5.2,90.6-13.9,122.6c-0.2,0.3,0,1.1,0,1.8"/>
	<path fill="none" stroke="#ED1845" stroke-width="8" stroke-linecap="round" d="M234,740.1c19.3-3.6,36.4,7.2,55.3,5.6"/>
	<path fill="none" stroke="#ED1845" stroke-width="8" stroke-linecap="round" d="M289.3,745.7c0.9-2,1.9-4,3.1-5.8"/>
	<path fill="none" stroke="#ED1845" stroke-width="8" stroke-linecap="round" d="M292.4,739.9c0.2-1,0.3-2,0.9-2.9"/>
	<path fill="none" stroke="#ED1845" stroke-width="8" stroke-linecap="round" d="M293.3,737c15.3-39.2,24.5-80.2,24-122.1"/>
	<path fill="none" stroke="#ED1845" stroke-width="8" stroke-linecap="round" d="M293.3,737"/>
	<path fill="none" stroke="#ED1845" stroke-width="8" stroke-linecap="round" d="M292.4,739.9c9.9,3.3,20.3,0.6,30.3,2.6"/>
	<path fill="none" stroke="#ED1845" stroke-width="8" stroke-linecap="round" d="M322.7,742.5c0.8-0.5,1.8-0.5,2.7-0.9"/>
	<path fill="none" stroke="#ED1845" stroke-width="8" stroke-linecap="round" d="M325.4,741.6c-3.9-18.2,17.4-49,27.2-64.9
		c13.2-21.2,26.2-40,29.9-63.2c1.2-7.7,3.2-18.5,1.4-26.9"/>
	<path fill="none" stroke="#ED1845" stroke-width="8" stroke-linecap="round" d="M384.1,586.7c-2.1,0.2-4.8,1-6.2,2.4"/>
	<path fill="none" stroke="#ED1845" stroke-width="8" stroke-linecap="round" d="M384.1,586.7c9.4-5.9,18.2-12.5,26.6-19.8"/>
	<path fill="none" stroke="#ED1845" stroke-width="8" stroke-linecap="round" d="M410.6,566.9"/>
	<path fill="none" stroke="#ED1845" stroke-width="8" stroke-linecap="round" d="M410.6,566.9c6.8-6.4,12.2-14.3,17.3-22"/>
	<path fill="none" stroke="#ED1845" stroke-width="8" stroke-linecap="round" d="M427.9,544.8c0.4-1.1,1.3-1.8,2-2.7"/>
	<path fill="none" stroke="#ED1845" stroke-width="8" stroke-linecap="round" d="M429.9,542.2c1.1-1.6,1.7-3.4,2.9-4.8"/>
	<path fill="none" stroke="#ED1845" stroke-width="8" stroke-linecap="round" d="M432.8,537.3c13.8-20.4,17.5-45.3,19.1-69.1"/>
	<path fill="none" stroke="#ED1845" stroke-width="8" stroke-linecap="round" d="M451.9,468.2c0.2-2.9,0.4-5.8,0.4-8.7"/>
	<path fill="none" stroke="#ED1845" stroke-width="8" stroke-linecap="round" d="M452.2,459.5c-0.1,0-0.2-0.1-0.3-0.1"/>
	<path fill="none" stroke="#ED1845" stroke-width="8" stroke-linecap="round" d="M452.2,459.5c2-14-1.2-28.2-1.4-42"/>
	<path fill="none" stroke="#ED1845" stroke-width="8" stroke-linecap="round" d="M450.8,417.5c-1.1-22.9-8.5-45.6-8.9-68.4"/>
	<path fill="none" stroke="#ED1845" stroke-width="8" stroke-linecap="round" d="M441.9,349.1c-2-4-1-9-2-13.4"/>
	<path fill="none" stroke="#ED1845" stroke-width="8" stroke-linecap="round" d="M490.7,391.5c3.2,0.6,5.2,3.9,6.8,6.5"/>
	<path fill="none" stroke="#ED1845" stroke-width="8" stroke-linecap="round" d="M266.2,247.1c10.5,9.3,22.5,17.1,36.8,18.2"/>
	<path fill="none" stroke="#ED1845" stroke-width="8" stroke-linecap="round" d="M303,265.3c5.9-9.8,16.8-8.1,23.8-0.6"/>
	<path fill="none" stroke="#ED1845" stroke-width="8" stroke-linecap="round" d="M326.8,264.8c18.1-4.1,35.7-10.2,53.1-16.7"/>
	<path fill="none" stroke="#ED1845" stroke-width="8" stroke-linecap="round" d="M379.9,248.1c-2.6-15.5-3.5-32.2,2.2-46.9"/>
	<path fill="none" stroke="#ED1845" stroke-width="8" stroke-linecap="round" d="M382.1,201.1c-9.5,4.3-19.9,0.7-30.9,1.8
		c-3.7,0.4-8.4,3.6-11.4,0.7"/>
	<path fill="none" stroke="#ED1845" stroke-width="8" stroke-linecap="round" d="M339.8,203.7c-3.3,5.2-9.8,9.7-16,7"/>
	<path fill="none" stroke="#ED1845" stroke-width="8" stroke-linecap="round" d="M320.2,213.7"/>
	<path fill="none" stroke="#ED1845" stroke-width="8" stroke-linecap="round" d="M315,220.5"/>
	<path fill="none" stroke="#ED1845" stroke-width="8" stroke-linecap="round" d="M255.2,258c0.2,0.4,0.5,0.6,0.7,0.9"/>
	<path fill="none" stroke="#ED1845" stroke-width="8" stroke-linecap="round" d="M253.5,260.1c9.9,9.4,19.9,19.6,34,21.6"/>
	<path fill="none" stroke="#ED1845" stroke-width="8" stroke-linecap="round" d="M287.5,281.7c3.4-4.9,9.3-6.3,14.6-7.8"/>
	<path fill="none" stroke="#ED1845" stroke-width="8" stroke-linecap="round" d="M302.1,273.9c-0.5-2.9-0.1-5.8,0.8-8.6"/>
	<path fill="none" stroke="#ED1845" stroke-width="8" stroke-linecap="round" d="M328.7,276.5c5,2.7,11,3.5,15.8,6.7"/>
	<path fill="none" stroke="#ED1845" stroke-width="8" stroke-linecap="round" d="M344.5,283.2c14.8-5.6,28.4-13.2,43-19.6"/>
	<path fill="none" stroke="#ED1845" stroke-width="8" stroke-linecap="round" d="M302.1,273.9c8.6,2.3,17.8,1.7,26.6,2.6"/>
	<path fill="none" stroke="#ED1845" stroke-width="8" stroke-linecap="round" d="M328.7,276.5c0.9-4-2.1-7.6-2-11.7"/>
	<path fill="none" stroke="#ED1845" stroke-width="8" stroke-linecap="round" d="M287.5,281.7c0,2.7-2.6,6.8-4.5,9.8
		c-6.1,9.6-18.5,36.7-3.9,41.4c0.8,0.2,1.2,0.1,2-0.2"/>
	<path fill="none" stroke="#ED1845" stroke-width="8" stroke-linecap="round" d="M281.1,332.7c-1-12.4,13.3-22.1,24.5-18.3"/>
	<path fill="none" stroke="#ED1845" stroke-width="8" stroke-linecap="round" d="M305.7,314.4c2.3-1.6,5.6-2.3,8.1-0.9"/>
	<path fill="none" stroke="#ED1845" stroke-width="8" stroke-linecap="round" d="M347.8,330.5c9.3-1.8,8.7-8.2,4.5-17.4
		c-3.3-7.2-0.4-18.5-4.9-25.5c-1.1-1.7-2.8-2.7-2.9-4.4"/>
	<path fill="none" stroke="#ED1845" stroke-width="8" stroke-linecap="round" d="M305.7,314.4c-7.9,5.8-0.3,26.2,10.8,19.3
		c6.3-3.9,5.5-10.6,2.4-18.8"/>
	<path fill="none" stroke="#ED1845" stroke-width="8" stroke-linecap="round" d="M318.9,314.9c-1.5-1.1-3.2-1.6-5-1.4"/>
	<path fill="none" stroke="#ED1845" stroke-width="8" stroke-linecap="round" d="M313.8,313.5"/>
	<path fill="none" stroke="#ED1845" stroke-width="8" stroke-linecap="round" d="M281.1,332.7c20.3,8.7,47.8,10.6,66.6-2.2"/>
	<path fill="none" stroke="#ED1845" stroke-width="8" stroke-linecap="round" d="M347.8,330.5c5.8-17.3-18-16.8-28.9-15.6"/>
	<path fill="none" stroke="#ED1845" stroke-width="8" stroke-linecap="round" d="M467.9,415.1c8.9-6,20.6-11.4,22.8-23.6"/>
	<path fill="none" stroke="#ED1845" stroke-width="8" stroke-linecap="round" d="M490.7,391.5c-14.9-15.2-31.3-30.6-48.8-42.4"/>
	<path fill="none" stroke="#ED1845" stroke-width="8" stroke-linecap="round" d="M451.9,468.2c9.6-2.8,21.8-7.8,26.4-17"/>
	<path fill="none" stroke="#ED1845" stroke-width="8" stroke-linecap="round" d="M478.3,451.2c-1.7-12.4-3.8-25.3-10.4-36.2"/>
	<path fill="none" stroke="#ED1845" stroke-width="8" stroke-linecap="round" d="M467.9,415.1c-5.7,0.8-11.2,2.5-17,2.4"/>
	<path fill="none" stroke="#ED1845" stroke-width="8" stroke-linecap="round" d="M127.5,473.5c-4.4,6.1-2.6,15.5-7.5,21"/>
	<path fill="none" stroke="#ED1845" stroke-width="8" stroke-linecap="round" d="M120,494.5"/>
	<path fill="none" stroke="#ED1845" stroke-width="8" stroke-linecap="round" d="M113.5,466.9c-0.9,1.9-1.7,3.9-2.2,6"/>
	<path fill="none" stroke="#ED1845" stroke-width="8" stroke-linecap="round" d="M97.8,472.4c-0.2,1.5-0.3,3-0.7,4.4"/>
	<path fill="none" stroke="#ED1845" stroke-width="8" stroke-linecap="round" d="M225.1,603.5c-2.5-2.2-6.1-2.6-9.2-3.9"/>
	<path fill="none" stroke="#ED1845" stroke-width="8" stroke-linecap="round" d="M216,599.6c-39.9,16.7-101.3,9-113.5-35.7
		c-5.9-21.6,22.5-32,27.1-54.3c1.9-9.4,2.9-26.7-0.9-35.1c-0.2-0.4-0.8-0.7-1.2-1.1"/>
	<path fill="none" stroke="#ED1845" stroke-width="8" stroke-linecap="round" d="M234,740.1c-0.2,0.1-0.3,0.2-0.5,0.4"/>
	<path fill="none" stroke="#ED1845" stroke-width="8" stroke-linecap="round" d="M233.5,740.5"/>
	<path fill="none" stroke="#ED1845" stroke-width="8" stroke-linecap="round" d="M233.5,740.5c-4,2.4-6.2,7.6-8.3,11.3
		c-4.5,7.9-13.5,19-15.8,26.5c-1.9,6.2,6.7,3.4,10.9,3.3c6.8-0.1,14.7,1.2,22.7,1.3"/>
	<path fill="none" stroke="#ED1845" stroke-width="8" stroke-linecap="round" d="M243.1,782.9c-1.1-10,1.5-20.3,5.7-28.5"/>
	<path fill="none" stroke="#ED1845" stroke-width="8" stroke-linecap="round" d="M243.1,782.9c9.1,7.9,24.2,0.3,33.9,1.3
		c6,0.6,11.7,2.5,14.7-2.6"/>
	<path fill="none" stroke="#ED1845" stroke-width="8" stroke-linecap="round" d="M289.3,745.7c3.6,11.1,10.5,25,2.4,35.8"/>
	<path fill="none" stroke="#ED1845" stroke-width="8" stroke-linecap="round" d="M291.7,781.5c12.1,6.8,27.6,3.9,40.2,3.4"/>
	<path fill="none" stroke="#ED1845" stroke-width="8" stroke-linecap="round" d="M331.8,784.9c-1.2-14.5-3.3-28.9-9.1-42.4"/>
	<path fill="none" stroke="#ED1845" stroke-width="8" stroke-linecap="round" d="M331.8,784.9c8.8,0.1,21.1,3.6,21.1-6.6
		c0-10.9-11.9-29.7-25.4-36.1c-0.5-0.3-1.7-0.3-2-0.6"/>
	<path fill="none" stroke="#ED1845" stroke-width="8" stroke-linecap="round" d="M369.1,114.8c1-2.2,1.8-4.6,3.1-6.7"/>
</g>
</svg>
