<?xml version="1.0" encoding="utf-8"?>
<!-- Generator: Adobe Illustrator 18.0.0, SVG Export Plug-In . SVG Version: 6.00 Build 0)  -->
<!DOCTYPE svg PUBLIC "-//W3C//DTD SVG 1.1//EN" "http://www.w3.org/Graphics/SVG/1.1/DTD/svg11.dtd">
<svg version="1.1" id="Layer_1" xmlns="http://www.w3.org/2000/svg" xmlns:xlink="http://www.w3.org/1999/xlink" x="0px" y="0px"
	 viewBox="0 0 130.1 34" enable-background="new 0 0 130.1 34" xml:space="preserve">
<g>
	<polygon fill="none" points="86,8 102,8 102,8 	"/>
</g>
<g>
	<path fill="#231F20" d="M26.3,32.8c-1.5,0.8-4.6,1.5-8.5,1.5c-9.1,0-16-5.8-16-16.4C1.7,7.9,8.6,1,18.6,1c4,0,6.6,0.9,7.7,1.4
		l-1,3.4c-1.6-0.8-3.8-1.3-6.5-1.3c-7.6,0-12.6,4.8-12.6,13.3c0,7.9,4.6,13,12.4,13c2.5,0,5.1-0.5,6.8-1.3L26.3,32.8z"/>
	<path fill="#231F20" d="M35.7,1.5V15h15.6V1.5h4.2v32.4h-4.2V18.7H35.7v15.2h-4.2V1.5H35.7z"/>
	<path fill="#231F20" d="M82.1,27.5c0,2.4,0,4.5,0.2,6.3h-3.7L78.4,30h-0.1c-1.1,1.9-3.6,4.3-7.7,4.3c-3.6,0-8-2-8-10.2V10.6h4.2
		v12.9c0,4.4,1.3,7.4,5.2,7.4c2.8,0,4.8-2,5.6-3.8c0.2-0.6,0.4-1.4,0.4-2.2V10.6h4.2L82.1,27.5L82.1,27.5z"/>
	<path fill="#231F20" d="M105.6,33c-1.1,0.6-3.6,1.3-6.7,1.3c-7,0-11.6-4.8-11.6-11.9c0-7.2,4.9-12.3,12.5-12.3
		c2.5,0,4.7,0.6,5.9,1.2l-1,3.3c-1-0.6-2.6-1.1-4.9-1.1c-5.3,0-8.2,3.9-8.2,8.8c0,5.4,3.5,8.7,8.1,8.7c2.4,0,4-0.6,5.2-1.2L105.6,33
		z"/>
	<path fill="#231F20" d="M114.8,21.3L114.8,21.3c0.7-0.8,1.5-1.8,2.2-2.6l6.8-8h5.1l-9,9.6L130.1,34H125l-8-11.1l-2.2,2.4V34h-4.2
		V-0.2h4.2C114.8-0.2,114.8,21.3,114.8,21.3z"/>
</g>
</svg>
