<?xml version="1.0" encoding="utf-8"?>
<!-- Generator: Adobe Illustrator 18.0.0, SVG Export Plug-In . SVG Version: 6.00 Build 0)  -->
<!DOCTYPE svg PUBLIC "-//W3C//DTD SVG 1.1//EN" "http://www.w3.org/Graphics/SVG/1.1/DTD/svg11.dtd">
<svg version="1.1" id="Layer_1" xmlns="http://www.w3.org/2000/svg" xmlns:xlink="http://www.w3.org/1999/xlink" x="0px" y="0px"
	 viewBox="0 0 105.4 33.8" enable-background="new 0 0 105.4 33.8" xml:space="preserve">
<g>
	<polygon fill="none" points="86,8 102,8 102,8 	"/>
</g>
<g>
	<path fill="#231F20" d="M26.3,32.8c-1.5,0.8-4.6,1.5-8.5,1.5c-9.1,0-16-5.8-16-16.4C1.7,7.9,8.6,1,18.6,1c4,0,6.6,0.9,7.7,1.4
		l-1,3.4c-1.6-0.8-3.8-1.3-6.5-1.3c-7.6,0-12.6,4.8-12.6,13.3c0,7.9,4.6,13,12.4,13c2.5,0,5.1-0.5,6.8-1.3L26.3,32.8z"/>
	<path fill="#231F20" d="M51.8,22.1c0,8.6-6,12.3-11.6,12.3c-6.3,0-11.1-4.6-11.1-12c0-7.8,5.1-12.3,11.5-12.3
		C47.3,10.1,51.8,15,51.8,22.1z M33.4,22.3c0,5.1,2.9,8.9,7.1,8.9c4,0,7.1-3.8,7.1-9c0-3.9-2-8.9-7-8.9
		C35.6,13.3,33.4,17.9,33.4,22.3z"/>
	<path fill="#231F20" d="M58.5,10.6l3.1,11.8c0.7,2.6,1.3,5,1.7,7.4h0.1c0.5-2.4,1.3-4.8,2.1-7.3l3.8-11.9h3.6l3.6,11.6
		c0.9,2.8,1.5,5.2,2.1,7.6h0.1c0.4-2.4,1-4.8,1.8-7.5l3.3-11.7H88l-7.5,23.2h-3.8l-3.6-11.1c-0.8-2.6-1.5-4.9-2.1-7.6h-0.1
		c-0.6,2.8-1.3,5.2-2.1,7.7l-3.7,11h-3.8l-7-23.2C54.3,10.6,58.5,10.6,58.5,10.6z"/>
	<path fill="#231F20" d="M91.3,29.6c1.2,0.8,3.5,1.7,5.6,1.7c3.1,0,4.5-1.5,4.5-3.5s-1.2-3.1-4.3-4.3C92.9,22,91,19.7,91,16.9
		c0-3.7,3-6.8,8-6.8c2.4,0,4.4,0.7,5.7,1.4l-1.1,3.1c-0.9-0.6-2.6-1.3-4.8-1.3c-2.5,0-3.9,1.4-3.9,3.2c0,1.9,1.4,2.8,4.4,3.9
		c4,1.5,6.1,3.6,6.1,7c0,4.1-3.2,7-8.7,7c-2.5,0-4.9-0.6-6.5-1.6L91.3,29.6z"/>
</g>
</svg>
