<?xml version="1.0" encoding="utf-8"?>
<!-- Generator: Adobe Illustrator 18.0.0, SVG Export Plug-In . SVG Version: 6.00 Build 0)  -->
<!DOCTYPE svg PUBLIC "-//W3C//DTD SVG 1.1//EN" "http://www.w3.org/Graphics/SVG/1.1/DTD/svg11.dtd">
<svg version="1.1" id="Layer_1" xmlns="http://www.w3.org/2000/svg" xmlns:xlink="http://www.w3.org/1999/xlink" x="0px" y="0px"
	 viewBox="0 0 88.7 33.8" enable-background="new 0 0 88.7 33.8" xml:space="preserve">
<g>
	<polygon fill="none" points="86,8 102,8 102,8 	"/>
</g>
<g>
	<path fill="#231F20" d="M3.6,2c2.5-0.4,5.6-0.7,8.9-0.7c6,0,10.3,1.4,13.1,4c2.9,2.6,4.6,6.4,4.6,11.6c0,5.3-1.6,9.6-4.7,12.6
		c-3,3-8,4.7-14.3,4.7c-3,0-5.5-0.1-7.6-0.4V2z M7.8,30.6c1.1,0.2,2.6,0.2,4.2,0.2c8.9,0,13.8-5,13.8-13.7c0-7.6-4.3-12.5-13.1-12.5
		c-2.2,0-3.8,0.2-4.9,0.4C7.8,5,7.8,30.6,7.8,30.6z"/>
	<path fill="#231F20" d="M35.6,2c2.5-0.4,5.6-0.7,8.9-0.7c6,0,10.3,1.4,13.1,4c2.9,2.6,4.6,6.4,4.6,11.6c0,5.3-1.6,9.6-4.7,12.6
		c-3,3-8,4.7-14.3,4.7c-3,0-5.5-0.1-7.6-0.4V2z M39.8,30.6c1.1,0.2,2.6,0.2,4.2,0.2c8.9,0,13.8-5,13.8-13.7
		c0-7.6-4.3-12.5-13.1-12.5c-2.2,0-3.8,0.2-4.9,0.4C39.8,5,39.8,30.6,39.8,30.6z"/>
	<path fill="#231F20" d="M67.6,2c2.1-0.4,5.1-0.7,8-0.7c4.5,0,7.3,0.8,9.4,2.6c1.6,1.4,2.5,3.6,2.5,6.1c0,4.3-2.7,7.1-6.1,8.3v0.1
		c2.5,0.9,4,3.2,4.8,6.5c1.1,4.5,1.8,7.6,2.5,8.9h-4.3c-0.5-0.9-1.2-3.7-2.2-7.7c-1-4.5-2.7-6.1-6.5-6.3h-3.9v14h-4.2
		C67.6,33.8,67.6,2,67.6,2z M71.8,16.7H76c4.5,0,7.3-2.4,7.3-6.1c0-4.2-3-6-7.4-6c-2,0-3.5,0.2-4.1,0.4V16.7z"/>
</g>
</svg>
