<?xml version="1.0" encoding="utf-8"?>
<!-- Generator: Adobe Illustrator 18.0.0, SVG Export Plug-In . SVG Version: 6.00 Build 0)  -->
<!DOCTYPE svg PUBLIC "-//W3C//DTD SVG 1.1//EN" "http://www.w3.org/Graphics/SVG/1.1/DTD/svg11.dtd">
<svg version="1.1" id="Layer_1" xmlns="http://www.w3.org/2000/svg" xmlns:xlink="http://www.w3.org/1999/xlink" x="0px" y="0px"
	 viewBox="0 0 187.6 33.9" enable-background="new 0 0 187.6 33.9" xml:space="preserve">
<g>
	<rect x="86" y="8" fill="none" width="16" height="0"/>
</g>
<g>
	<path fill="#231F20" d="M10.8,33.9L0.2,1.5h4.5l5,15.9c1.4,4.4,2.6,8.3,3.5,12.1h0.1c0.9-3.7,2.3-7.8,3.7-12l5.5-16h4.5L15.4,33.9
		H10.8z"/>
	<path fill="#231F20" d="M34.2,4.1c0,1.4-1,2.6-2.7,2.6C30,6.7,29,5.6,29,4.1c0-1.5,1.1-2.6,2.6-2.6C33.2,1.5,34.2,2.6,34.2,4.1z
		 M29.5,33.9V10.6h4.2v23.2H29.5z"/>
	<path fill="#231F20" d="M40.2,29.6c1.2,0.8,3.5,1.7,5.6,1.7c3.1,0,4.5-1.5,4.5-3.5c0-2-1.2-3.1-4.3-4.3c-4.2-1.5-6.1-3.8-6.1-6.6
		c0-3.7,3-6.8,8-6.8c2.4,0,4.4,0.7,5.7,1.4l-1.1,3.1c-0.9-0.6-2.6-1.3-4.8-1.3c-2.5,0-3.9,1.4-3.9,3.2c0,1.9,1.4,2.8,4.4,3.9
		c4,1.5,6.1,3.6,6.1,7c0,4.1-3.2,7-8.7,7c-2.5,0-4.9-0.6-6.5-1.6L40.2,29.6z"/>
	<path fill="#231F20" d="M79.2,27.5c0,2.4,0,4.5,0.2,6.3h-3.7l-0.2-3.8h-0.1c-1.1,1.9-3.6,4.3-7.7,4.3c-3.6,0-8-2-8-10.2V10.6h4.2
		v12.9c0,4.4,1.3,7.4,5.2,7.4c2.8,0,4.8-2,5.6-3.8c0.2-0.6,0.4-1.4,0.4-2.2V10.6h4.2V27.5z"/>
	<path fill="#231F20" d="M99.1,33.9l-0.3-2.9h-0.1c-1.3,1.8-3.8,3.5-7.1,3.5c-4.7,0-7.1-3.3-7.1-6.7c0-5.6,5-8.7,14-8.6v-0.5
		c0-1.9-0.5-5.4-5.3-5.4c-2.2,0-4.4,0.7-6,1.7l-1-2.8c1.9-1.2,4.7-2.1,7.6-2.1c7.1,0,8.8,4.8,8.8,9.5v8.7c0,2,0.1,4,0.4,5.6H99.1z
		 M98.4,22c-4.6-0.1-9.8,0.7-9.8,5.2c0,2.7,1.8,4,4,4c3,0,4.9-1.9,5.6-3.9c0.1-0.4,0.2-0.9,0.2-1.3V22z"/>
	<path fill="#231F20" d="M109.3-0.2h4.2v34.1h-4.2V-0.2z"/>
	<path fill="#231F20" d="M125.4,4.1c0,1.4-1,2.6-2.7,2.6c-1.5,0-2.5-1.2-2.5-2.6c0-1.5,1.1-2.6,2.6-2.6
		C124.4,1.5,125.4,2.6,125.4,4.1z M120.7,33.9V10.6h4.2v23.2H120.7z"/>
	<path fill="#231F20" d="M129.3,31.4l10.5-13.7c1-1.2,2-2.4,3-3.6V14h-12.6v-3.4h17.7l0,2.6l-10.4,13.5c-1,1.3-1.9,2.4-3,3.6v0.1
		h13.6v3.4h-18.9V31.4z"/>
	<path fill="#231F20" d="M154.5,23c0.1,5.7,3.7,8.1,8,8.1c3,0,4.8-0.5,6.4-1.2l0.7,3c-1.5,0.7-4,1.4-7.7,1.4
		c-7.2,0-11.4-4.7-11.4-11.7c0-7,4.1-12.5,10.9-12.5c7.6,0,9.6,6.7,9.6,10.9c0,0.9-0.1,1.5-0.1,2H154.5z M166.8,20
		c0-2.7-1.1-6.9-5.9-6.9c-4.3,0-6.1,3.9-6.5,6.9H166.8z"/>
	<path fill="#231F20" d="M176.2,17.9c0-2.7,0-5.1-0.2-7.2h3.7l0.1,4.6h0.2c1.1-3.1,3.6-5.1,6.4-5.1c0.5,0,0.8,0,1.2,0.1v4
		c-0.4-0.1-0.9-0.1-1.4-0.1c-3,0-5.1,2.3-5.7,5.4c-0.1,0.6-0.2,1.2-0.2,2v12.4h-4.2V17.9z"/>
</g>
<g>
</g>
</svg>
