<?xml version="1.0" encoding="utf-8"?>
<!-- Generator: Adobe Illustrator 16.0.0, SVG Export Plug-In . SVG Version: 6.00 Build 0)  -->
<!DOCTYPE svg PUBLIC "-//W3C//DTD SVG 1.1//EN" "http://www.w3.org/Graphics/SVG/1.1/DTD/svg11.dtd">
<svg version="1.1" id="Layer_1" xmlns="http://www.w3.org/2000/svg" xmlns:xlink="http://www.w3.org/1999/xlink" x="0px" y="0px"
	 width="420px" height="300px" viewBox="0 0 420 300" enable-background="new 0 0 420 300" xml:space="preserve">
<g>
	<path fill="#010101" d="M87.335,143.607c-1.867-3.732-4.535-6.766-8-9.1c-3.535-2.2-7.234-3.3-11.1-3.3
		c-3.935,0-7.634,1.1-11.1,3.3c-3.4,2.334-6.1,5.367-8.1,9.1c-1.934,4-2.9,8.168-2.9,12.5c0,4.4,0.966,8.535,2.9,12.4
		c2,3.867,4.7,6.9,8.1,9.1c3.466,2.268,7.166,3.4,11.1,3.4c3.933,0,7.633-1.133,11.1-3.4c3.465-2.266,6.133-5.3,8-9.1
		c2-3.8,3-7.933,3-12.4c0,4.468-1,8.601-3,12.4c-1.867,3.8-4.535,6.834-8,9.1c-3.467,2.268-7.167,3.4-11.1,3.4
		c-3.935,0-7.634-1.133-11.1-3.4c-3.4-2.199-6.1-5.232-8.1-9.1c-1.934-3.865-2.9-8-2.9-12.4c0-4.332,0.966-8.5,2.9-12.5
		c2-3.732,4.7-6.766,8.1-9.1c3.466-2.2,7.166-3.3,11.1-3.3c3.866,0,7.565,1.1,11.1,3.3
		C82.801,136.842,85.468,139.875,87.335,143.607c2,3.935,3,8.101,3,12.5C90.335,151.708,89.335,147.542,87.335,143.607z"/>
	<path fill="#010101" d="M106.435,143.808c0-2.133-0.034-4.232-0.1-6.3c-0.067-2.065-0.2-4.166-0.4-6.3
		c0.2,2.134,0.333,4.234,0.4,6.3C106.4,139.575,106.435,141.675,106.435,143.808v37.7V143.808z M121.234,132.208
		c5.466-2,10.266-1.333,14.4,2c4.133,3.2,6.133,10.234,6,21.1v26.2v-26.2c0.133-10.865-1.867-17.899-6-21.1
		C131.5,130.875,126.7,130.208,121.234,132.208c-5.534,2.067-10.467,8.234-14.8,18.5C110.768,140.442,115.7,134.275,121.234,132.208
		z"/>
	<path fill="#010101" d="M177.134,180.908c-6-0.135-10.967-2.4-14.9-6.801c-4-4.465-5.834-11.1-5.5-19.899
		c0.333-8.8,3.8-15.366,10.4-19.7c6.666-4.2,13.4-4.232,20.2-0.1c6.8,4.134,9.8,11.134,9,21h-39.6h39.6c0.8-9.866-2.2-16.866-9-21
		c-6.8-4.133-13.535-4.101-20.2,0.1c-6.6,4.334-10.067,10.9-10.4,19.7c-0.334,8.8,1.5,15.435,5.5,19.899
		C166.167,178.508,171.134,180.773,177.134,180.908c5.866,0.199,11-0.566,15.4-2.301C188.134,180.342,183,181.107,177.134,180.908z"
		/>
	<path fill="#010101" d="M220.333,154.908l10-0.101L220.333,154.908l-10.1-0.101L220.333,154.908z"/>
	<path fill="#010101" d="M287.032,137.607c-0.468-2.8-1.167-5.532-2.101-8.199c-0.934-2.733-2.033-5.133-3.299-7.2
		c-1.268-2.066-2.668-3.866-4.201-5.4c-3.134-3.065-6.566-4.6-10.299-4.6c-3.801,0-7.234,1.534-10.301,4.6
		c-3.268,3.067-5.8,7.268-7.6,12.601c-1.801,5.334-2.7,11.066-2.7,17.199c0,6.2,0.899,11.935,2.7,17.2c1.8,5.2,4.332,9.4,7.6,12.601
		c3.066,3.066,6.5,4.6,10.301,4.6c3.732,0,7.165-1.533,10.299-4.6c1.533-1.533,2.934-3.351,4.201-5.45
		c1.266-2.101,2.365-4.483,3.299-7.15c1.866-5.466,2.801-11.266,2.801-17.399c0,6.134-0.935,11.934-2.801,17.399
		c-0.934,2.667-2.033,5.05-3.299,7.15c-1.268,2.1-2.668,3.917-4.201,5.45c-3.134,3.066-6.566,4.6-10.299,4.6
		c-3.801,0-7.234-1.533-10.301-4.6c-3.268-3.2-5.8-7.4-7.6-12.601c-1.801-5.266-2.7-11-2.7-17.2c0-6.133,0.899-11.865,2.7-17.199
		c1.8-5.333,4.332-9.533,7.6-12.601c3.066-3.065,6.5-4.6,10.301-4.6c3.732,0,7.165,1.534,10.299,4.6
		c1.533,1.535,2.934,3.334,4.201,5.4c1.266,2.067,2.365,4.467,3.299,7.2C285.865,132.075,286.564,134.808,287.032,137.607
		c0.466,2.801,0.7,5.734,0.7,8.801C287.732,143.342,287.498,140.408,287.032,137.607z"/>
	<path fill="#010101" d="M320.33,112.108v69.4V112.108l-16.6,9.6L320.33,112.108z"/>
</g>
<g>
</g>
<g>
</g>
<g>
</g>
<g>
</g>
<g>
</g>
<g>
</g>
</svg>
