<?xml version="1.0" encoding="utf-8"?>
<!-- Generator: Adobe Illustrator 16.0.0, SVG Export Plug-In . SVG Version: 6.00 Build 0)  -->
<!DOCTYPE svg PUBLIC "-//W3C//DTD SVG 1.1//EN" "http://www.w3.org/Graphics/SVG/1.1/DTD/svg11.dtd">
<svg version="1.1" id="Layer_1" xmlns="http://www.w3.org/2000/svg" xmlns:xlink="http://www.w3.org/1999/xlink" x="0px" y="0px"
	 width="420px" height="300px" viewBox="0 0 420 300" enable-background="new 0 0 420 300" xml:space="preserve">
<g>
	<path fill="#010101" d="M51.438,180.808c-4.035-0.532-7.75-1.966-11.15-4.3c-3.4-2.333-6.035-5.315-7.9-8.95
		c-1.867-3.633-2.8-7.516-2.8-11.649c0-4.133,0.933-8.016,2.8-11.65c1.866-3.633,4.5-6.615,7.9-8.95
		c3.4-2.333,7.115-3.766,11.15-4.3c4.033-0.533,7.983-0.133,11.85,1.2c-3.867-1.333-7.817-1.733-11.85-1.2
		c-4.035,0.534-7.75,1.967-11.15,4.3c-3.4,2.335-6.035,5.317-7.9,8.95c-1.867,3.635-2.8,7.518-2.8,11.65
		c0,4.134,0.933,8.017,2.8,11.649c1.866,3.635,4.5,6.617,7.9,8.95C43.688,178.842,47.403,180.275,51.438,180.808
		c4.033,0.533,7.983,0.101,11.85-1.3C59.421,180.908,55.471,181.341,51.438,180.808z"/>
	<path fill="#010101" d="M118.687,143.607c-1.867-3.732-4.535-6.766-8-9.1c-3.535-2.2-7.234-3.3-11.1-3.3
		c-3.935,0-7.634,1.1-11.1,3.3c-3.4,2.334-6.1,5.367-8.1,9.1c-1.934,4-2.9,8.168-2.9,12.5c0,4.4,0.966,8.535,2.9,12.4
		c2,3.867,4.7,6.9,8.1,9.1c3.466,2.268,7.166,3.4,11.1,3.4c3.933,0,7.633-1.133,11.1-3.4c3.465-2.266,6.133-5.3,8-9.1
		c2-3.8,3-7.933,3-12.4c0,4.468-1,8.601-3,12.4c-1.867,3.8-4.535,6.834-8,9.1c-3.467,2.268-7.167,3.4-11.1,3.4
		c-3.935,0-7.634-1.133-11.1-3.4c-3.4-2.199-6.1-5.232-8.1-9.1c-1.934-3.865-2.9-8-2.9-12.4c0-4.332,0.966-8.5,2.9-12.5
		c2-3.732,4.7-6.766,8.1-9.1c3.466-2.2,7.166-3.3,11.1-3.3c3.866,0,7.565,1.1,11.1,3.3
		C114.152,136.842,116.82,139.875,118.687,143.607c2,3.935,3,8.101,3,12.5C121.687,151.708,120.687,147.542,118.687,143.607z"/>
	<path fill="#010101" d="M137.786,143.808c0-2.133-0.034-4.232-0.1-6.3c-0.067-2.065-0.2-4.166-0.4-6.3
		c0.2,2.134,0.333,4.234,0.4,6.3C137.752,139.575,137.786,141.675,137.786,143.808v37.7V143.808z M152.586,132.208
		c5.466-2,10.266-1.333,14.4,2c4.133,3.2,6.133,10.234,6,21.1v26.2v-26.2c0.133-10.865-1.867-17.899-6-21.1
		C162.852,130.875,158.052,130.208,152.586,132.208c-5.534,2.067-10.467,8.234-14.8,18.5
		C142.119,140.442,147.052,134.275,152.586,132.208z"/>
	<path fill="#010101" d="M196.186,131.208h14.1H196.186v37.6c-0.067,2.2,0.416,4.268,1.45,6.2c1.033,1.935,2.483,3.5,4.35,4.7
		c1.333,0.865,2.75,1.399,4.25,1.6s3.016,0.101,4.55-0.3c-1.535,0.4-3.05,0.5-4.55,0.3s-2.917-0.734-4.25-1.6
		c-1.867-1.2-3.317-2.766-4.35-4.7c-1.034-1.933-1.517-4-1.45-6.2V131.208h-9.1H196.186v-12.1V131.208z"/>
	<path fill="#010101" d="M256.285,165.508c-3.601,8.667-8.734,13.6-15.4,14.8c-6.6,1.2-11.2,0.466-13.801-2.2
		c-2.6-2.6-3.867-6.1-3.799-10.5c0.199-4.465,2.6-8.433,7.199-11.899c4.666-3.601,13.266-4.933,25.801-4
		c-12.535-0.933-21.135,0.399-25.801,4c-4.6,3.467-7,7.435-7.199,11.899c-0.068,4.4,1.199,7.9,3.799,10.5
		c2.601,2.666,7.201,3.4,13.801,2.2C247.551,179.107,252.685,174.175,256.285,165.508z M226.785,134.408
		c5.064-2.666,10.199-3.733,15.399-3.2c5.133,0.467,8.866,2.2,11.2,5.2c2.266,2.934,3.232,10.167,2.9,21.699
		c-0.268,11.4,0.199,19.301,1.399,23.7c-1.2-4.399-1.667-12.3-1.399-23.7c0.332-11.532-0.635-18.766-2.9-21.699
		c-2.334-3-6.067-4.733-11.2-5.2C236.984,130.675,231.85,131.742,226.785,134.408z"/>
	<path fill="#010101" d="M293.834,180.808c-4.034-0.532-7.75-1.966-11.149-4.3c-3.4-2.333-6.034-5.315-7.9-8.95
		c-1.867-3.633-2.8-7.516-2.8-11.649c0-4.133,0.933-8.016,2.8-11.65c1.866-3.633,4.5-6.615,7.9-8.95
		c3.399-2.333,7.115-3.766,11.149-4.3c4.033-0.533,7.983-0.133,11.851,1.2c-3.867-1.333-7.817-1.733-11.851-1.2
		c-4.034,0.534-7.75,1.967-11.149,4.3c-3.4,2.335-6.034,5.317-7.9,8.95c-1.867,3.635-2.8,7.518-2.8,11.65
		c0,4.134,0.933,8.017,2.8,11.649c1.866,3.635,4.5,6.617,7.9,8.95C286.084,178.842,289.8,180.275,293.834,180.808
		c4.033,0.533,7.983,0.101,11.851-1.3C301.817,180.908,297.867,181.341,293.834,180.808z"/>
	<path fill="#010101" d="M327.983,131.208h14.101H327.983v37.6c-0.066,2.2,0.416,4.268,1.45,6.2c1.033,1.935,2.483,3.5,4.351,4.7
		c1.332,0.865,2.75,1.399,4.25,1.6s3.016,0.101,4.55-0.3c-1.534,0.4-3.05,0.5-4.55,0.3s-2.918-0.734-4.25-1.6
		c-1.867-1.2-3.317-2.766-4.351-4.7c-1.034-1.933-1.517-4-1.45-6.2V131.208h-9.1H327.983v-12.1V131.208z"/>
</g>
<g>
</g>
<g>
</g>
<g>
</g>
<g>
</g>
<g>
</g>
<g>
</g>
</svg>
