<?xml version="1.0" encoding="utf-8"?>
<!-- Generator: Adobe Illustrator 16.0.0, SVG Export Plug-In . SVG Version: 6.00 Build 0)  -->
<!DOCTYPE svg PUBLIC "-//W3C//DTD SVG 1.1//EN" "http://www.w3.org/Graphics/SVG/1.1/DTD/svg11.dtd">
<svg version="1.1" id="Layer_1" xmlns="http://www.w3.org/2000/svg" xmlns:xlink="http://www.w3.org/1999/xlink" x="0px" y="0px"
	 width="420px" height="300px" viewBox="0 0 420 300" enable-background="new 0 0 420 300" xml:space="preserve">
<g>
	<path fill="#010101" d="M39.001,180.508c3.2-1.133,5.615-2.766,7.25-4.9c1.633-2.133,2.516-4.6,2.65-7.399
		c-0.134-2.866-1.084-5.416-2.85-7.65c-1.767-2.232-4.05-3.716-6.85-4.45l-5-1.399c-3.334-0.666-5.95-2.133-7.85-4.4
		c-1.9-2.266-2.817-4.899-2.75-7.899c0.266-2.4,1.166-4.533,2.7-6.4c1.533-1.865,3.6-3.266,6.2-4.2
		c2.533-0.732,5.016-0.95,7.45-0.649c2.433,0.3,4.716,1.084,6.85,2.35c-2.134-1.266-4.417-2.05-6.85-2.35
		c-2.434-0.301-4.917-0.083-7.45,0.649c-2.6,0.935-4.667,2.335-6.2,4.2c-1.534,1.867-2.435,4-2.7,6.4
		c-0.067,3,0.85,5.634,2.75,7.899c1.9,2.268,4.516,3.734,7.85,4.4l5,1.399c2.8,0.734,5.083,2.218,6.85,4.45
		c1.766,2.234,2.716,4.784,2.85,7.65c-0.134,2.8-1.017,5.267-2.65,7.399C44.616,177.742,42.201,179.375,39.001,180.508
		c-5.935,1.533-11.334,0.933-16.2-1.8C27.667,181.44,33.066,182.041,39.001,180.508z"/>
	<path fill="#010101" d="M72.6,157.408l9.5,26.199L72.6,157.408l-9.5-26.2L72.6,157.408z M75.2,195.607
		c2.666-3.334,5.833-9.267,9.5-17.8l17-46.6l-17,46.6C81.033,186.341,77.866,192.273,75.2,195.607c-2.667,3.2-6.334,5.966-11,8.301
		C68.866,201.573,72.533,198.808,75.2,195.607z"/>
	<path fill="#010101" d="M117.5,143.808c0-2.133-0.034-4.232-0.1-6.3c-0.067-2.065-0.2-4.166-0.4-6.3c0.2,2.134,0.333,4.234,0.4,6.3
		C117.465,139.575,117.5,141.675,117.5,143.808v37.7V143.808z M132.299,132.208c5.466-2,10.266-1.333,14.4,2
		c4.133,3.2,6.133,10.234,6,21.1v26.2v-26.2c0.133-10.865-1.867-17.899-6-21.1C142.565,130.875,137.765,130.208,132.299,132.208
		c-5.534,2.067-10.467,8.234-14.8,18.5C121.833,140.442,126.765,134.275,132.299,132.208z"/>
	<path fill="#010101" d="M201.499,179.508c-3.867,1.4-7.817,1.833-11.85,1.3c-4.035-0.532-7.75-1.966-11.15-4.3
		c-3.4-2.333-6.035-5.315-7.9-8.95c-1.867-3.633-2.8-7.516-2.8-11.649c0-4.133,0.933-8.016,2.8-11.65
		c1.866-3.633,4.5-6.615,7.9-8.95c3.4-2.333,7.115-3.766,11.15-4.3c4.033-0.533,7.983-0.133,11.85,1.2
		c-3.867-1.333-7.817-1.733-11.85-1.2c-4.035,0.534-7.75,1.967-11.15,4.3c-3.4,2.335-6.035,5.317-7.9,8.95
		c-1.867,3.635-2.8,7.518-2.8,11.65c0,4.134,0.933,8.017,2.8,11.649c1.866,3.635,4.5,6.617,7.9,8.95
		c3.4,2.334,7.115,3.768,11.15,4.3C193.682,181.341,197.632,180.908,201.499,179.508z"/>
	<path fill="#010101" d="M215.697,154.808l10.101,0.101l10-0.101l-10,0.101L215.697,154.808z"/>
	<path fill="#010101" d="M292.498,137.607c-0.468-2.8-1.168-5.532-2.101-8.199c-0.935-2.733-2.034-5.133-3.3-7.2
		c-1.268-2.066-2.668-3.866-4.2-5.4c-3.134-3.065-6.567-4.6-10.3-4.6c-3.801,0-7.234,1.534-10.301,4.6
		c-3.267,3.067-5.799,7.268-7.6,12.601c-1.8,5.334-2.699,11.066-2.699,17.199c0,6.2,0.899,11.935,2.699,17.2
		c1.801,5.2,4.333,9.4,7.6,12.601c3.066,3.066,6.5,4.6,10.301,4.6c3.732,0,7.166-1.533,10.3-4.6c1.532-1.533,2.933-3.351,4.2-5.45
		c1.266-2.101,2.365-4.483,3.3-7.15c1.866-5.466,2.8-11.266,2.8-17.399c0,6.134-0.934,11.934-2.8,17.399
		c-0.935,2.667-2.034,5.05-3.3,7.15c-1.268,2.1-2.668,3.917-4.2,5.45c-3.134,3.066-6.567,4.6-10.3,4.6
		c-3.801,0-7.234-1.533-10.301-4.6c-3.267-3.2-5.799-7.4-7.6-12.601c-1.8-5.266-2.699-11-2.699-17.2
		c0-6.133,0.899-11.865,2.699-17.199c1.801-5.333,4.333-9.533,7.6-12.601c3.066-3.065,6.5-4.6,10.301-4.6
		c3.732,0,7.166,1.534,10.3,4.6c1.532,1.535,2.933,3.334,4.2,5.4c1.266,2.067,2.365,4.467,3.3,7.2
		C291.33,132.075,292.03,134.808,292.498,137.607c0.465,2.801,0.699,5.734,0.699,8.801
		C293.197,143.342,292.963,140.408,292.498,137.607z"/>
	<path fill="#010101" d="M310.196,180.508l30.8-33.1c1.666-1.733,3-3.716,4-5.95c1-2.233,1.666-4.55,2-6.95
		c0.333-2.4,0.266-4.8-0.2-7.2c-0.467-2.399-1.3-4.665-2.5-6.8c-1.399-2.333-3.267-4.25-5.6-5.75c-2.334-1.5-4.9-2.383-7.7-2.65
		c-3.267-0.4-6.484-0.133-9.649,0.8c-3.168,0.935-6.018,2.467-8.551,4.6c2.533-2.133,5.383-3.666,8.551-4.6
		c3.165-0.933,6.383-1.2,9.649-0.8c2.8,0.267,5.366,1.15,7.7,2.65c2.333,1.5,4.2,3.417,5.6,5.75c1.2,2.135,2.033,4.4,2.5,6.8
		c0.466,2.4,0.533,4.8,0.2,7.2c-0.334,2.4-1,4.717-2,6.95c-1,2.234-2.334,4.217-4,5.95L310.196,180.508h40.3H310.196z"/>
</g>
<g>
</g>
<g>
</g>
<g>
</g>
<g>
</g>
<g>
</g>
<g>
</g>
</svg>
