<?xml version="1.0" encoding="utf-8"?>
<!-- Generator: Adobe Illustrator 16.0.0, SVG Export Plug-In . SVG Version: 6.00 Build 0)  -->
<!DOCTYPE svg PUBLIC "-//W3C//DTD SVG 1.1//EN" "http://www.w3.org/Graphics/SVG/1.1/DTD/svg11.dtd">
<svg version="1.1" id="Layer_1" xmlns="http://www.w3.org/2000/svg" xmlns:xlink="http://www.w3.org/1999/xlink" x="0px" y="0px"
	 width="420px" height="300px" viewBox="0 0 420 300" enable-background="new 0 0 420 300" xml:space="preserve">
<g>
	<path fill="#010101" d="M33.435,131.208h14.1H33.435v-8.601c0-2.532,0.5-4.982,1.5-7.35c1-2.366,2.465-4.416,4.4-6.15
		c1.733-1.533,3.7-2.633,5.9-3.3c2.2-0.666,4.466-0.833,6.8-0.5c-2.334-0.333-4.6-0.166-6.8,0.5c-2.2,0.667-4.167,1.768-5.9,3.3
		c-1.935,1.734-3.4,3.784-4.4,6.15c-1,2.367-1.5,4.817-1.5,7.35V131.208h-9H33.435v50.3V131.208z"/>
	<path fill="#010101" d="M67.884,137.508c0.1,2.067,0.15,4.167,0.15,6.3v37.7v-37.7C68.034,141.675,67.983,139.575,67.884,137.508
		c-0.1-2.065-0.217-4.166-0.35-6.3C67.667,133.342,67.784,135.442,67.884,137.508z M82.833,132.208
		c-5.534,2.067-10.467,8.234-14.8,18.5C72.366,140.442,77.299,134.275,82.833,132.208l3.7-0.9L82.833,132.208z"/>
	<path fill="#010101" d="M101.533,143.808c0-2.133-0.034-4.232-0.1-6.3c-0.067-2.065-0.2-4.166-0.4-6.3
		c0.2,2.134,0.333,4.234,0.4,6.3C101.499,139.575,101.533,141.675,101.533,143.808v37.7V143.808z M116.333,132.208
		c5.466-2,10.266-1.333,14.4,2c4.133,3.2,6.133,10.234,6,21.1v26.2v-26.2c0.133-10.865-1.867-17.899-6-21.1
		C126.599,130.875,121.799,130.208,116.333,132.208c-5.534,2.067-10.467,8.234-14.8,18.5
		C105.866,140.442,110.799,134.275,116.333,132.208z"/>
	<path fill="#010101" d="M191.333,143.308c-1.935-3.865-4.534-6.933-7.8-9.2c-3.2-2.199-6.7-3.3-10.5-3.3
		c-3.8,0-7.334,1.101-10.6,3.3c-3.2,2.335-5.767,5.4-7.7,9.2c-1.867,3.8-2.8,8-2.8,12.601c0,4.6,0.933,8.8,2.8,12.6
		c0.933,1.935,2.05,3.667,3.35,5.2c1.3,1.534,2.75,2.867,4.35,4c3.266,2.2,6.8,3.3,10.6,3.3c3.8,0,7.3-1.1,10.5-3.3
		c3.333-2.333,5.933-5.4,7.8-9.2c1.733-3.732,2.666-7.833,2.8-12.3c-0.134,4.467-1.067,8.567-2.8,12.3
		c-1.867,3.8-4.467,6.867-7.8,9.2c-3.2,2.2-6.7,3.3-10.5,3.3c-3.8,0-7.334-1.1-10.6-3.3c-1.6-1.133-3.05-2.466-4.35-4
		c-1.3-1.533-2.417-3.266-3.35-5.2c-1.867-3.8-2.8-8-2.8-12.6c0-4.601,0.933-8.801,2.8-12.601c1.933-3.8,4.5-6.865,7.7-9.2
		c3.266-2.199,6.8-3.3,10.6-3.3c3.8,0,7.3,1.101,10.5,3.3C186.799,136.375,189.398,139.442,191.333,143.308
		c1.733,3.8,2.666,7.935,2.8,12.4C193.999,151.242,193.066,147.107,191.333,143.308z M194.133,168.708c0,1.734,0.05,3.649,0.15,5.75
		c0.1,2.1,0.215,4.45,0.35,7.05c-0.134-2.6-0.25-4.95-0.35-7.05C194.183,172.357,194.133,170.442,194.133,168.708v-61.5V168.708z"/>
	<path fill="#010101" d="M222.633,154.908l10-0.101L222.633,154.908l-10.101-0.101L222.633,154.908z"/>
	<path fill="#010101" d="M289.332,137.607c-0.467-2.8-1.168-5.532-2.1-8.199c-0.936-2.733-2.035-5.133-3.301-7.2
		c-1.268-2.066-2.667-3.866-4.199-5.4c-3.135-3.065-6.568-4.6-10.301-4.6c-3.8,0-7.234,1.534-10.3,4.6
		c-3.267,3.067-5.8,7.268-7.601,12.601c-1.799,5.334-2.699,11.066-2.699,17.199c0,6.2,0.9,11.935,2.699,17.2
		c1.801,5.2,4.334,9.4,7.601,12.601c3.065,3.066,6.5,4.6,10.3,4.6c3.732,0,7.166-1.533,10.301-4.6
		c1.532-1.533,2.932-3.351,4.199-5.45c1.266-2.101,2.365-4.483,3.301-7.15c1.865-5.466,2.799-11.266,2.799-17.399
		c0,6.134-0.934,11.934-2.799,17.399c-0.936,2.667-2.035,5.05-3.301,7.15c-1.268,2.1-2.667,3.917-4.199,5.45
		c-3.135,3.066-6.568,4.6-10.301,4.6c-3.8,0-7.234-1.533-10.3-4.6c-3.267-3.2-5.8-7.4-7.601-12.601
		c-1.799-5.266-2.699-11-2.699-17.2c0-6.133,0.9-11.865,2.699-17.199c1.801-5.333,4.334-9.533,7.601-12.601
		c3.065-3.065,6.5-4.6,10.3-4.6c3.732,0,7.166,1.534,10.301,4.6c1.532,1.535,2.932,3.334,4.199,5.4
		c1.266,2.067,2.365,4.467,3.301,7.2C288.164,132.075,288.865,134.808,289.332,137.607c0.465,2.801,0.699,5.734,0.699,8.801
		C290.031,143.342,289.797,140.408,289.332,137.607z"/>
	<path fill="#010101" d="M307.031,180.508l30.799-33.1c1.666-1.733,3-3.716,4-5.95c1-2.233,1.666-4.55,2-6.95s0.266-4.8-0.199-7.2
		c-0.467-2.399-1.301-4.665-2.5-6.8c-1.4-2.333-3.268-4.25-5.6-5.75c-2.334-1.5-4.9-2.383-7.701-2.65
		c-3.266-0.4-6.484-0.133-9.648,0.8c-3.168,0.935-6.018,2.467-8.551,4.6c2.533-2.133,5.383-3.666,8.551-4.6
		c3.164-0.933,6.383-1.2,9.648-0.8c2.801,0.267,5.367,1.15,7.701,2.65c2.332,1.5,4.199,3.417,5.6,5.75
		c1.199,2.135,2.033,4.4,2.5,6.8c0.465,2.4,0.533,4.8,0.199,7.2s-1,4.717-2,6.95c-1,2.234-2.334,4.217-4,5.95L307.031,180.508
		h40.299H307.031z"/>
</g>
<g>
</g>
<g>
</g>
<g>
</g>
<g>
</g>
<g>
</g>
<g>
</g>
</svg>
