<?xml version="1.0" encoding="UTF-8" standalone="no"?>
<!-- Created with Inkscape (http://www.inkscape.org/) -->
<svg
   xmlns:dc="http://purl.org/dc/elements/1.1/"
   xmlns:cc="http://web.resource.org/cc/"
   xmlns:rdf="http://www.w3.org/1999/02/22-rdf-syntax-ns#"
   xmlns:svg="http://www.w3.org/2000/svg"
   xmlns="http://www.w3.org/2000/svg"
   xmlns:xlink="http://www.w3.org/1999/xlink"
   xmlns:sodipodi="http://sodipodi.sourceforge.net/DTD/sodipodi-0.dtd"
   xmlns:inkscape="http://www.inkscape.org/namespaces/inkscape"
   height="70.000000pt"
   id="svg1"
   inkscape:export-filename="/root/img/joined-sixteenth-notes.png"
   inkscape:export-xdpi="237.25999"
   inkscape:export-ydpi="237.25999"
   inkscape:version="0.44.1"
   sodipodi:docbase="/Users/rick/Desktop"
   sodipodi:docname="sixteeth_notes_joined.svg"
   sodipodi:version="0.32"
   width="50.000000pt">
  <metadata
     id="metadata3">
    <rdf:RDF>
      <cc:Work
         rdf:about="">
        <dc:title>Sixteenth Notes, Joined in a Pair</dc:title>
        <dc:description>HASH(0x89f8058)</dc:description>
        <dc:subject>
          <rdf:Bag>
            <rdf:li>hash(0x8a095fc)</rdf:li>
            <rdf:li />
            <rdf:li>hash(0x8a09650)</rdf:li>
            <rdf:li>hash(0x8a09680)</rdf:li>
            <rdf:li>music</rdf:li>
            <rdf:li>recreation</rdf:li>
          </rdf:Bag>
        </dc:subject>
        <dc:publisher>
          <cc:Agent
             rdf:about="http://www.openclipart.org">
            <dc:title>HASH(0x8a09be8)</dc:title>
          </cc:Agent>
        </dc:publisher>
        <dc:creator>
          <cc:Agent>
            <dc:title>Nathan Eady</dc:title>
          </cc:Agent>
        </dc:creator>
        <dc:rights>
          <cc:Agent>
            <dc:title>HASH(0x8a09be8)</dc:title>
          </cc:Agent>
        </dc:rights>
        <dc:date />
        <dc:format>image/svg+xml</dc:format>
        <dc:type
           rdf:resource="http://purl.org/dc/dcmitype/StillImage" />
        <cc:license
           rdf:resource="http://web.resource.org/cc/PublicDomain" />
        <dc:language>en</dc:language>
      </cc:Work>
      <cc:License
         rdf:about="http://web.resource.org/cc/PublicDomain">
        <cc:permits
           rdf:resource="http://web.resource.org/cc/Reproduction" />
        <cc:permits
           rdf:resource="http://web.resource.org/cc/Distribution" />
        <cc:permits
           rdf:resource="http://web.resource.org/cc/DerivativeWorks" />
      </cc:License>
    </rdf:RDF>
  </metadata>
  <defs
     id="defs3">
    <linearGradient
       id="linearGradient830">
      <stop
         id="stop831"
         offset="0"
         style="stop-color:#000;stop-opacity:1;" />
      <stop
         id="stop832"
         offset="1"
         style="stop-color:#fff;stop-opacity:1;" />
    </linearGradient>
    <radialGradient
       id="radialGradient833"
       xlink:href="#linearGradient830" />
    <linearGradient
       id="linearGradient834"
       x1="-1.0164395e-18"
       x2="1.0000000"
       xlink:href="#linearGradient830"
       y1="0.50000000"
       y2="0.50000000" />
  </defs>
  <sodipodi:namedview
     bordercolor="#666666"
     borderopacity="1.0"
     id="base"
     inkscape:current-layer="g54119"
     inkscape:cx="67.715313"
     inkscape:cy="33.271691"
     inkscape:pageopacity="0.0000000"
     inkscape:pageshadow="2"
     inkscape:window-height="605"
     inkscape:window-width="843"
     inkscape:window-x="75"
     inkscape:window-y="72"
     inkscape:zoom="3.4732669"
     pagecolor="#a2a2a2"
     showgrid="false"
     snaptogrid="false" />
  <g
     id="g54119"
     transform="translate(-216.3097,7.125496)">
    <path
       style="fill:none;fill-opacity:1.0000000;fill-rule:nonzero;stroke:black;stroke-width:0.54175823;stroke-linecap:butt;stroke-linejoin:miter;stroke-miterlimit:4;stroke-opacity:1;stroke-dasharray:none"
       d="M 22.5625 9.84375 C 22.21054 9.8804787 21.89599 10.057818 21.6875 10.34375 C 21.47901 10.629682 21.39611 10.997414 21.46875 11.34375 C 24.562309 27.695418 25.697314 42.083831 24.9375 55.53125 C 23.126388 53.287551 20.17468 51.812501 16.84375 51.8125 C 11.339695 51.8125 6.8749998 55.80216 6.875 60.71875 C 6.875 65.63534 11.339695 69.625002 16.84375 69.625 C 21.730902 69.625 25.805394 66.490733 26.65625 62.34375 C 26.840665 62.148845 26.971233 61.912648 27 61.625 C 28.265127 48.973815 27.731816 35.5695 25.53125 20.71875 C 33.013622 25.802715 40.745269 30.71123 51.125 33.25 C 51.820375 37.659443 52.363367 43.079488 52.5625 48.5625 C 52.805984 55.266658 52.489981 61.997903 51.5625 66.78125 C 49.973496 63.744466 46.529539 61.625001 42.53125 61.625 C 37.027195 61.625 32.562501 65.614659 32.5625 70.53125 C 32.5625 75.44784 37.027194 79.437497 42.53125 79.4375 C 47.065328 79.4375 50.884515 76.734053 52.09375 73.03125 C 52.177488 72.945551 52.254269 72.861741 52.3125 72.75 C 54.93842 67.689155 55.4128 58.145401 55.0625 48.5 C 54.7122 38.854599 53.43781 29.341817 51.8125 24.625 C 51.67156 24.215466 51.32868 23.908062 50.90625 23.8125 C 39.70956 21.205233 31.71919 15.745835 23.40625 10.0625 C 23.16035 9.8907192 22.86089 9.8130797 22.5625 9.84375 z M 24.40625 13.71875 C 31.76008 18.705105 39.4041 23.477734 49.5625 26 C 49.936178 27.172796 50.310095 28.730295 50.65625 30.53125 C 40.40121 27.810543 32.828749 22.695745 25 17.34375 C 24.803446 16.135718 24.624334 14.946587 24.40625 13.71875 z "
       transform="translate(216.3097,-7.125496)"
       id="path54110" />
  </g>
</svg>
