<?xml version="1.0" encoding="utf-8"?>
<!-- Generator: Adobe Illustrator 18.0.0, SVG Export Plug-In . SVG Version: 6.00 Build 0)  -->
<!DOCTYPE svg PUBLIC "-//W3C//DTD SVG 1.1 Tiny//EN" "http://www.w3.org/Graphics/SVG/1.1/DTD/svg11-tiny.dtd">
<svg version="1.1" baseProfile="tiny" id="svg636" xmlns:svg="http://www.w3.org/2000/svg"
	 xmlns="http://www.w3.org/2000/svg" xmlns:xlink="http://www.w3.org/1999/xlink" x="0px" y="0px" viewBox="0 0 612 792"
	 xml:space="preserve">
<g id="g2878">
	<path id="path623" fill="none" stroke="#000000" stroke-width="2" d="M705.4,244.4c-10.8-16.6-15.6-20.9-36.1-26.1"/>
	<path id="path1939_1_" fill="none" stroke="#000000" stroke-width="2" d="M135.8,125.3"/>
	<path id="path1941" fill="none" stroke="#000000" stroke-width="2" d="M78.8,220.3C3.7,274.2,12.7,327,10,347.4"/>
	<path id="path1943" fill="none" stroke="#000000" stroke-width="2" d="M191.9,229.6c4.8,56.8,14.6,89.1,49.9,159.6"/>
	<path id="path1945" fill="none" stroke="#000000" stroke-width="2" d="M57.5,489.3c35.3,35.3,69.3,25.9,113.3,26.9"/>
	<path id="path1947" fill="none" stroke="#000000" stroke-width="2" d="M283.5,633.8c-7.6,20.3-3.9,37.2,0.5,67.1"/>
	<path id="path1949" fill="none" stroke="#000000" stroke-width="2" d="M245.8,38.7C274,10.5,285,8.3,363.5,0"/>
	<path id="path1951" fill="none" stroke="#000000" stroke-width="2" d="M559.1,97.7c-19.6-36.5-39-49.9-75.3-77.3"/>
	<path id="path1953" fill="none" stroke="#000000" stroke-width="2" d="M302.6,114.1c43.1,4.9,100.6,4.7,162.5,39.7"/>
	<path id="path1964" fill="none" stroke="#000000" stroke-width="2" d="M517,295.2c-37,51.2-61.4,76.9-113.1,121.4"/>
	<path id="path1966" fill="none" stroke="#000000" stroke-width="2" d="M427.9,569.6c47.5,26.4,70.7,33.5,133.4,23.3"/>
	<path id="path1968" fill="none" stroke="#000000" stroke-width="2" d="M642.3,325.8c24.2,45.5,21.8,84.7,25.5,149.1"/>
	<path id="path1970_2_" fill="none" stroke="#000000" stroke-width="2" d="M705.4,244.4"/>
	<path id="path1970_1_" fill="none" stroke="#000000" stroke-width="2" d="M669.8,218.1"/>
</g>
<path id="path1972" fill="none" stroke="#000000" stroke-width="2" stroke-miterlimit="10" d="M78.8,220.3
	c50.7,8.8,71.5,5.4,113.1,9.3c24.7-32.6,66.8-73.4,110.6-115.5c-18.1-28.4-35.3-57.3-56.8-75.4c-54.6,18.4-93.5,41.4-130.7,64.6
	C91.8,143.9,79.3,183.1,78.8,220.3z"/>
<path id="path2860" fill="none" stroke="#000000" stroke-width="2" stroke-miterlimit="10" d="M465.1,153.7
	c16.6,45.8,30.8,86.7,51.9,141.5c43.3,11.5,89.6,25.2,125.3,30.6c11.5-23,19.1-67.6,27.4-107.7c-28.6-44.3-69.3-82.5-110.6-120.4
	C529,108.2,497.2,129.7,465.1,153.7z"/>
<path id="path2862" fill="none" stroke="#000000" stroke-width="2" stroke-miterlimit="10" d="M241.8,389.2
	c55.8,9.3,109.7,18.4,162.1,27.4c16.2,50.9,18.4,102.1,24,153c-40.1,33.3-95.5,43.8-144.4,64.1c-56.8-36.7-80-77.6-112.6-117.5
	C189.5,473.4,210,430.6,241.8,389.2z"/>
<path id="path2864_2_" fill="none" stroke="#000000" stroke-width="2" stroke-miterlimit="10" d="M10,347.4
	c8.1,52.4,18.8,103.1,47.5,142c-5.6,27.4-5.7,53.6,2.4,74.2"/>
<path id="path2866_1_" fill="none" stroke="#000000" stroke-width="2" stroke-miterlimit="10" d="M196.7,686.6
	c47.2,12.5,41.2,18.1,87.2,14.2c10.8,15.2,24,22.4,101.3,25.5"/>
<path id="path2868" fill="none" stroke="#000000" stroke-width="2" stroke-miterlimit="10" d="M700.1,490.6
	c-13.7-10.3-14.4-9.5-32.3-15.7c-35.5,47.2-71,101.1-106.5,118c-0.7,29.1-5.1,55.1-18.1,74.7c26.9,1.7-11.8,5,19.1,0.4"/>
<path id="path2923" fill="none" stroke="#000000" stroke-width="2" stroke-linecap="round" stroke-linejoin="round" d="M727,363.5
	C727,564.2,564.2,727,363.5,727S0,564.2,0,363.5S162.8,0,363.5,0S727,162.8,727,363.5z"/>
</svg>
