<?xml version="1.0" encoding="utf-8"?>
<!-- Generator: Adobe Illustrator 16.0.0, SVG Export Plug-In . SVG Version: 6.00 Build 0)  -->
<!DOCTYPE svg PUBLIC "-//W3C//DTD SVG 1.1//EN" "http://www.w3.org/Graphics/SVG/1.1/DTD/svg11.dtd">
<svg version="1.1" id="Layer_1" xmlns="http://www.w3.org/2000/svg" xmlns:xlink="http://www.w3.org/1999/xlink" x="0px" y="0px"
	 width="420px" height="300px" viewBox="0 0 420 300" enable-background="new 0 0 420 300" xml:space="preserve">
<g>
	<path fill="#010101" d="M64.735,180.508c3.2-1.133,5.615-2.766,7.25-4.9c1.633-2.133,2.516-4.6,2.65-7.399
		c-0.134-2.866-1.084-5.416-2.85-7.65c-1.767-2.232-4.05-3.716-6.85-4.45l-5-1.399c-3.334-0.666-5.95-2.133-7.85-4.4
		c-1.9-2.266-2.817-4.899-2.75-7.899c0.266-2.4,1.166-4.533,2.7-6.4c1.533-1.865,3.6-3.266,6.2-4.2
		c2.533-0.732,5.016-0.95,7.45-0.649c2.433,0.3,4.716,1.084,6.85,2.35c-2.134-1.266-4.417-2.05-6.85-2.35
		c-2.434-0.301-4.917-0.083-7.45,0.649c-2.6,0.935-4.667,2.335-6.2,4.2c-1.534,1.867-2.435,4-2.7,6.4
		c-0.067,3,0.85,5.634,2.75,7.899c1.9,2.268,4.516,3.734,7.85,4.4l5,1.399c2.8,0.734,5.083,2.218,6.85,4.45
		c1.766,2.234,2.716,4.784,2.85,7.65c-0.134,2.8-1.017,5.267-2.65,7.399C70.351,177.742,67.935,179.375,64.735,180.508
		c-5.935,1.533-11.334,0.933-16.2-1.8C53.401,181.44,58.801,182.041,64.735,180.508z"/>
	<path fill="#010101" d="M96.834,131.208h14.1H96.834v37.6c-0.067,2.2,0.416,4.268,1.45,6.2c1.033,1.935,2.483,3.5,4.35,4.7
		c1.333,0.865,2.75,1.399,4.25,1.6s3.016,0.101,4.55-0.3c-1.535,0.4-3.05,0.5-4.55,0.3s-2.917-0.734-4.25-1.6
		c-1.867-1.2-3.317-2.766-4.35-4.7c-1.034-1.933-1.517-4-1.45-6.2V131.208h-9.1H96.834v-12.1V131.208z"/>
	<path fill="#010101" d="M141.534,180.308c-6.6,1.2-11.2,0.466-13.8-2.2c-2.6-2.6-3.867-6.1-3.8-10.5
		c0.2-4.465,2.6-8.433,7.2-11.899c4.666-3.601,13.266-4.933,25.8-4c-12.534-0.933-21.134,0.399-25.8,4
		c-4.6,3.467-7,7.435-7.2,11.899c-0.067,4.4,1.2,7.9,3.8,10.5C130.333,180.773,134.934,181.508,141.534,180.308
		c6.666-1.2,11.8-6.133,15.4-14.8C153.333,174.175,148.199,179.107,141.534,180.308z M142.833,131.208
		c5.133,0.467,8.866,2.2,11.2,5.2c2.266,2.934,3.233,10.167,2.9,21.699c-0.267,11.4,0.2,19.301,1.4,23.7
		c-1.2-4.399-1.667-12.3-1.4-23.7c0.333-11.532-0.634-18.766-2.9-21.699C151.699,133.408,147.966,131.675,142.833,131.208
		c-5.2-0.533-10.334,0.534-15.4,3.2C132.499,131.742,137.634,130.675,142.833,131.208z"/>
	<path fill="#010101" d="M180.733,131.208h14.1H180.733v37.6c-0.067,2.2,0.416,4.268,1.45,6.2c1.033,1.935,2.483,3.5,4.35,4.7
		c1.333,0.865,2.75,1.399,4.25,1.6s3.016,0.101,4.55-0.3c-1.535,0.4-3.05,0.5-4.55,0.3s-2.917-0.734-4.25-1.6
		c-1.867-1.2-3.317-2.766-4.35-4.7c-1.034-1.933-1.517-4-1.45-6.2V131.208h-9.1H180.733v-12.1V131.208z"/>
	<path fill="#010101" d="M217.933,154.908l10-0.101L217.933,154.908l-10.1-0.101L217.933,154.908z"/>
	<path fill="#010101" d="M285.332,146.408c0-3.066-0.234-6-0.7-8.801c-0.468-2.8-1.167-5.532-2.101-8.199
		c-0.934-2.733-2.033-5.133-3.299-7.2c-1.268-2.066-2.668-3.866-4.201-5.4c-3.134-3.065-6.566-4.6-10.299-4.6
		c-3.801,0-7.234,1.534-10.301,4.6c-3.268,3.067-5.8,7.268-7.6,12.601c-1.801,5.334-2.7,11.066-2.7,17.199
		c0,6.2,0.899,11.935,2.7,17.2c1.8,5.2,4.332,9.4,7.6,12.601c3.066,3.066,6.5,4.6,10.301,4.6c3.732,0,7.165-1.533,10.299-4.6
		c1.533-1.533,2.934-3.351,4.201-5.45c1.266-2.101,2.365-4.483,3.299-7.15C284.397,158.342,285.332,152.542,285.332,146.408
		c0,6.134-0.935,11.934-2.801,17.399c-0.934,2.667-2.033,5.05-3.299,7.15c-1.268,2.1-2.668,3.917-4.201,5.45
		c-3.134,3.066-6.566,4.6-10.299,4.6c-3.801,0-7.234-1.533-10.301-4.6c-3.268-3.2-5.8-7.4-7.6-12.601c-1.801-5.266-2.7-11-2.7-17.2
		c0-6.133,0.899-11.865,2.7-17.199c1.8-5.333,4.332-9.533,7.6-12.601c3.066-3.065,6.5-4.6,10.301-4.6
		c3.732,0,7.165,1.534,10.299,4.6c1.533,1.535,2.934,3.334,4.201,5.4c1.266,2.067,2.365,4.467,3.299,7.2
		c0.934,2.667,1.633,5.399,2.101,8.199C285.098,140.408,285.332,143.342,285.332,146.408z"/>
	<path fill="#010101" d="M317.93,112.108v69.4V112.108l-16.6,9.6L317.93,112.108z"/>
</g>
<g>
</g>
<g>
</g>
<g>
</g>
<g>
</g>
<g>
</g>
<g>
</g>
</svg>
